M48
; DRILL file {KiCad 5.1.9-73d0e3b20d~88~ubuntu20.04.1} date Wed Mar 24 22:26:42 2021
; FORMAT={-:-/ absolute / inch / decimal}
; #@! TF.CreationDate,2021-03-24T22:26:42+08:00
; #@! TF.GenerationSoftware,Kicad,Pcbnew,5.1.9-73d0e3b20d~88~ubuntu20.04.1
; #@! TF.FileFunction,Plated,1,2,PTH
FMAT,2
INCH
T1C0.0118
T2C0.0157
T3C0.0236
T4C0.0315
T5C0.0335
T6C0.0354
T7C0.0394
T8C0.0469
T9C0.1260
%
G90
G05
T1
X1.2164Y-1.3986
X1.25Y-2.21
X1.25Y-2.525
X1.275Y-2.845
X1.3Y-1.33
X1.3Y-2.22
X1.3Y-2.44
X1.31Y-2.3
X1.31Y-2.37
X1.3109Y-2.525
X1.335Y-1.545
X1.355Y-2.845
X1.394Y-1.75
X1.4Y-2.22
X1.42Y-2.165
X1.4523Y-2.8423
X1.4609Y-1.85
X1.475Y-2.23
X1.485Y-2.135
X1.485Y-2.17
X1.5Y-1.905
X1.5246Y-1.75
X1.525Y-2.09
X1.595Y-1.3104
X1.595Y-2.34
X1.6Y-2.645
X1.615Y-1.93
X1.62Y-1.335
X1.625Y-1.7967
X1.625Y-2.55
X1.675Y-1.7967
X1.68Y-2.3374
X1.698Y-1.137
X1.7Y-2.64
X1.7Y-2.67
X1.705Y-2.2033
X1.7126Y-2.4924
X1.765Y-1.945
X1.7826Y-1.81
X1.785Y-2.425
X1.7874Y-2.5126
X1.8Y-2.0026
X1.8Y-2.075
X1.84Y-2.59
X1.845Y-1.965
X1.85Y-2.2
X1.875Y-2.145
X1.875Y-2.05
X1.89Y-2.2
X1.9Y-2.325
X1.9104Y-2.13
X1.975Y-2.4
X2.0Y-1.795
X2.0Y-2.05
X2.0Y-2.2
X2.04Y-1.97
X2.06Y-2.5
X2.06Y-2.57
X2.0793Y-1.89
T2
X1.615Y-2.25
X1.77Y-1.205
X1.86Y-2.67
X1.86Y-2.74
X1.885Y-2.535
X1.885Y-2.61
T4
X2.05Y-1.3213
X2.05Y-1.4
X2.05Y-2.3213
X2.05Y-2.4
T5
X1.9424Y-2.7266
X1.9424Y-2.9234
T6
X1.3Y-1.75
X1.3Y-1.85
X1.3Y-1.95
X1.3Y-2.05
T7
X1.5Y-1.4
X1.5Y-1.55
X1.6Y-1.4
X1.6Y-1.55
X1.7Y-1.4
X1.7Y-1.55
X1.8Y-1.4
X1.8Y-1.55
T8
X1.75Y-2.875
X1.85Y-2.875
X2.0Y-1.5
X2.0Y-1.6
X2.0Y-1.7
T9
X1.32Y-1.12
X1.98Y-1.12
T3
G00X2.0349Y-2.6872
M15
G01X2.0625Y-2.6872
M16
G05
G00X2.0625Y-2.9628
M15
G01X2.0349Y-2.9628
M16
G05
T0
M30
