%TF.GenerationSoftware,KiCad,Pcbnew,5.1.9-73d0e3b20d~88~ubuntu20.04.1*%
%TF.CreationDate,2021-03-24T22:28:27+08:00*%
%TF.ProjectId,elec-remote,656c6563-2d72-4656-9d6f-74652e6b6963,rev?*%
%TF.SameCoordinates,Original*%
%TF.FileFunction,Soldermask,Bot*%
%TF.FilePolarity,Negative*%
%FSLAX46Y46*%
G04 Gerber Fmt 4.6, Leading zero omitted, Abs format (unit mm)*
G04 Created by KiCad (PCBNEW 5.1.9-73d0e3b20d~88~ubuntu20.04.1) date 2021-03-24 22:28:27*
%MOMM*%
%LPD*%
G01*
G04 APERTURE LIST*
%ADD10C,5.600000*%
%ADD11O,1.700000X1.700000*%
%ADD12R,1.700000X1.700000*%
%ADD13C,3.200000*%
%ADD14O,1.350000X1.350000*%
%ADD15R,1.350000X1.350000*%
%ADD16O,2.190000X1.740000*%
%ADD17R,0.800000X0.900000*%
%ADD18R,0.900000X0.800000*%
%ADD19O,1.740000X2.190000*%
%ADD20R,1.900000X1.200000*%
%ADD21O,1.900000X1.200000*%
%ADD22R,1.900000X1.500000*%
%ADD23C,1.450000*%
%ADD24R,1.350000X0.400000*%
%ADD25C,1.800000*%
%ADD26R,1.800000X1.800000*%
G04 APERTURE END LIST*
%TO.C,R16*%
G36*
G01*
X43630002Y-29191000D02*
X42729998Y-29191000D01*
G75*
G02*
X42480000Y-28941002I0J249998D01*
G01*
X42480000Y-28415998D01*
G75*
G02*
X42729998Y-28166000I249998J0D01*
G01*
X43630002Y-28166000D01*
G75*
G02*
X43880000Y-28415998I0J-249998D01*
G01*
X43880000Y-28941002D01*
G75*
G02*
X43630002Y-29191000I-249998J0D01*
G01*
G37*
G36*
G01*
X43630002Y-31016000D02*
X42729998Y-31016000D01*
G75*
G02*
X42480000Y-30766002I0J249998D01*
G01*
X42480000Y-30240998D01*
G75*
G02*
X42729998Y-29991000I249998J0D01*
G01*
X43630002Y-29991000D01*
G75*
G02*
X43880000Y-30240998I0J-249998D01*
G01*
X43880000Y-30766002D01*
G75*
G02*
X43630002Y-31016000I-249998J0D01*
G01*
G37*
%TD*%
%TO.C,C17*%
G36*
G01*
X31615000Y-35085000D02*
X31615000Y-36035000D01*
G75*
G02*
X31365000Y-36285000I-250000J0D01*
G01*
X30865000Y-36285000D01*
G75*
G02*
X30615000Y-36035000I0J250000D01*
G01*
X30615000Y-35085000D01*
G75*
G02*
X30865000Y-34835000I250000J0D01*
G01*
X31365000Y-34835000D01*
G75*
G02*
X31615000Y-35085000I0J-250000D01*
G01*
G37*
G36*
G01*
X33515000Y-35085000D02*
X33515000Y-36035000D01*
G75*
G02*
X33265000Y-36285000I-250000J0D01*
G01*
X32765000Y-36285000D01*
G75*
G02*
X32515000Y-36035000I0J250000D01*
G01*
X32515000Y-35085000D01*
G75*
G02*
X32765000Y-34835000I250000J0D01*
G01*
X33265000Y-34835000D01*
G75*
G02*
X33515000Y-35085000I0J-250000D01*
G01*
G37*
%TD*%
D10*
%TO.C,H3*%
X33528000Y-28448000D03*
%TD*%
D11*
%TO.C,JBT1*%
X45720000Y-39370000D03*
X43180000Y-39370000D03*
X40640000Y-39370000D03*
D12*
X38100000Y-39370000D03*
%TD*%
D13*
%TO.C,H2*%
X34290000Y-76200000D03*
%TD*%
D10*
%TO.C,H1*%
X50292000Y-28448000D03*
%TD*%
D14*
%TO.C,TOP1*%
X52070000Y-33560000D03*
D15*
X52070000Y-35560000D03*
%TD*%
D16*
%TO.C,DEBUG1*%
X50800000Y-38100000D03*
X50800000Y-40640000D03*
G36*
G01*
X51645001Y-44050000D02*
X49954999Y-44050000D01*
G75*
G02*
X49705000Y-43800001I0J249999D01*
G01*
X49705000Y-42559999D01*
G75*
G02*
X49954999Y-42310000I249999J0D01*
G01*
X51645001Y-42310000D01*
G75*
G02*
X51895000Y-42559999I0J-249999D01*
G01*
X51895000Y-43800001D01*
G75*
G02*
X51645001Y-44050000I-249999J0D01*
G01*
G37*
%TD*%
D14*
%TO.C,BEEPER1*%
X52070000Y-60960000D03*
D15*
X52070000Y-58960000D03*
%TD*%
%TO.C,C20*%
G36*
G01*
X32951000Y-71788000D02*
X32951000Y-72738000D01*
G75*
G02*
X32701000Y-72988000I-250000J0D01*
G01*
X32201000Y-72988000D01*
G75*
G02*
X31951000Y-72738000I0J250000D01*
G01*
X31951000Y-71788000D01*
G75*
G02*
X32201000Y-71538000I250000J0D01*
G01*
X32701000Y-71538000D01*
G75*
G02*
X32951000Y-71788000I0J-250000D01*
G01*
G37*
G36*
G01*
X34851000Y-71788000D02*
X34851000Y-72738000D01*
G75*
G02*
X34601000Y-72988000I-250000J0D01*
G01*
X34101000Y-72988000D01*
G75*
G02*
X33851000Y-72738000I0J250000D01*
G01*
X33851000Y-71788000D01*
G75*
G02*
X34101000Y-71538000I250000J0D01*
G01*
X34601000Y-71538000D01*
G75*
G02*
X34851000Y-71788000I0J-250000D01*
G01*
G37*
%TD*%
D17*
%TO.C,Q2*%
X49276000Y-60944000D03*
X50226000Y-58944000D03*
X48326000Y-58944000D03*
%TD*%
D18*
%TO.C,Q1*%
X41386000Y-61595000D03*
X39386000Y-60645000D03*
X39386000Y-62545000D03*
%TD*%
D11*
%TO.C,LCD1*%
X45720000Y-35560000D03*
X43180000Y-35560000D03*
X40640000Y-35560000D03*
D12*
X38100000Y-35560000D03*
%TD*%
%TO.C,U2*%
G36*
G01*
X40585000Y-54357000D02*
X40735000Y-54357000D01*
G75*
G02*
X40810000Y-54432000I0J-75000D01*
G01*
X40810000Y-55132000D01*
G75*
G02*
X40735000Y-55207000I-75000J0D01*
G01*
X40585000Y-55207000D01*
G75*
G02*
X40510000Y-55132000I0J75000D01*
G01*
X40510000Y-54432000D01*
G75*
G02*
X40585000Y-54357000I75000J0D01*
G01*
G37*
G36*
G01*
X41085000Y-54357000D02*
X41235000Y-54357000D01*
G75*
G02*
X41310000Y-54432000I0J-75000D01*
G01*
X41310000Y-55132000D01*
G75*
G02*
X41235000Y-55207000I-75000J0D01*
G01*
X41085000Y-55207000D01*
G75*
G02*
X41010000Y-55132000I0J75000D01*
G01*
X41010000Y-54432000D01*
G75*
G02*
X41085000Y-54357000I75000J0D01*
G01*
G37*
G36*
G01*
X41585000Y-54357000D02*
X41735000Y-54357000D01*
G75*
G02*
X41810000Y-54432000I0J-75000D01*
G01*
X41810000Y-55132000D01*
G75*
G02*
X41735000Y-55207000I-75000J0D01*
G01*
X41585000Y-55207000D01*
G75*
G02*
X41510000Y-55132000I0J75000D01*
G01*
X41510000Y-54432000D01*
G75*
G02*
X41585000Y-54357000I75000J0D01*
G01*
G37*
G36*
G01*
X42085000Y-54357000D02*
X42235000Y-54357000D01*
G75*
G02*
X42310000Y-54432000I0J-75000D01*
G01*
X42310000Y-55132000D01*
G75*
G02*
X42235000Y-55207000I-75000J0D01*
G01*
X42085000Y-55207000D01*
G75*
G02*
X42010000Y-55132000I0J75000D01*
G01*
X42010000Y-54432000D01*
G75*
G02*
X42085000Y-54357000I75000J0D01*
G01*
G37*
G36*
G01*
X42585000Y-54357000D02*
X42735000Y-54357000D01*
G75*
G02*
X42810000Y-54432000I0J-75000D01*
G01*
X42810000Y-55132000D01*
G75*
G02*
X42735000Y-55207000I-75000J0D01*
G01*
X42585000Y-55207000D01*
G75*
G02*
X42510000Y-55132000I0J75000D01*
G01*
X42510000Y-54432000D01*
G75*
G02*
X42585000Y-54357000I75000J0D01*
G01*
G37*
G36*
G01*
X43085000Y-54357000D02*
X43235000Y-54357000D01*
G75*
G02*
X43310000Y-54432000I0J-75000D01*
G01*
X43310000Y-55132000D01*
G75*
G02*
X43235000Y-55207000I-75000J0D01*
G01*
X43085000Y-55207000D01*
G75*
G02*
X43010000Y-55132000I0J75000D01*
G01*
X43010000Y-54432000D01*
G75*
G02*
X43085000Y-54357000I75000J0D01*
G01*
G37*
G36*
G01*
X43435000Y-54157000D02*
X43435000Y-54007000D01*
G75*
G02*
X43510000Y-53932000I75000J0D01*
G01*
X44210000Y-53932000D01*
G75*
G02*
X44285000Y-54007000I0J-75000D01*
G01*
X44285000Y-54157000D01*
G75*
G02*
X44210000Y-54232000I-75000J0D01*
G01*
X43510000Y-54232000D01*
G75*
G02*
X43435000Y-54157000I0J75000D01*
G01*
G37*
G36*
G01*
X43435000Y-53657000D02*
X43435000Y-53507000D01*
G75*
G02*
X43510000Y-53432000I75000J0D01*
G01*
X44210000Y-53432000D01*
G75*
G02*
X44285000Y-53507000I0J-75000D01*
G01*
X44285000Y-53657000D01*
G75*
G02*
X44210000Y-53732000I-75000J0D01*
G01*
X43510000Y-53732000D01*
G75*
G02*
X43435000Y-53657000I0J75000D01*
G01*
G37*
G36*
G01*
X43435000Y-53157000D02*
X43435000Y-53007000D01*
G75*
G02*
X43510000Y-52932000I75000J0D01*
G01*
X44210000Y-52932000D01*
G75*
G02*
X44285000Y-53007000I0J-75000D01*
G01*
X44285000Y-53157000D01*
G75*
G02*
X44210000Y-53232000I-75000J0D01*
G01*
X43510000Y-53232000D01*
G75*
G02*
X43435000Y-53157000I0J75000D01*
G01*
G37*
G36*
G01*
X43435000Y-52657000D02*
X43435000Y-52507000D01*
G75*
G02*
X43510000Y-52432000I75000J0D01*
G01*
X44210000Y-52432000D01*
G75*
G02*
X44285000Y-52507000I0J-75000D01*
G01*
X44285000Y-52657000D01*
G75*
G02*
X44210000Y-52732000I-75000J0D01*
G01*
X43510000Y-52732000D01*
G75*
G02*
X43435000Y-52657000I0J75000D01*
G01*
G37*
G36*
G01*
X43435000Y-52157000D02*
X43435000Y-52007000D01*
G75*
G02*
X43510000Y-51932000I75000J0D01*
G01*
X44210000Y-51932000D01*
G75*
G02*
X44285000Y-52007000I0J-75000D01*
G01*
X44285000Y-52157000D01*
G75*
G02*
X44210000Y-52232000I-75000J0D01*
G01*
X43510000Y-52232000D01*
G75*
G02*
X43435000Y-52157000I0J75000D01*
G01*
G37*
G36*
G01*
X43435000Y-51657000D02*
X43435000Y-51507000D01*
G75*
G02*
X43510000Y-51432000I75000J0D01*
G01*
X44210000Y-51432000D01*
G75*
G02*
X44285000Y-51507000I0J-75000D01*
G01*
X44285000Y-51657000D01*
G75*
G02*
X44210000Y-51732000I-75000J0D01*
G01*
X43510000Y-51732000D01*
G75*
G02*
X43435000Y-51657000I0J75000D01*
G01*
G37*
G36*
G01*
X43085000Y-50457000D02*
X43235000Y-50457000D01*
G75*
G02*
X43310000Y-50532000I0J-75000D01*
G01*
X43310000Y-51232000D01*
G75*
G02*
X43235000Y-51307000I-75000J0D01*
G01*
X43085000Y-51307000D01*
G75*
G02*
X43010000Y-51232000I0J75000D01*
G01*
X43010000Y-50532000D01*
G75*
G02*
X43085000Y-50457000I75000J0D01*
G01*
G37*
G36*
G01*
X42585000Y-50457000D02*
X42735000Y-50457000D01*
G75*
G02*
X42810000Y-50532000I0J-75000D01*
G01*
X42810000Y-51232000D01*
G75*
G02*
X42735000Y-51307000I-75000J0D01*
G01*
X42585000Y-51307000D01*
G75*
G02*
X42510000Y-51232000I0J75000D01*
G01*
X42510000Y-50532000D01*
G75*
G02*
X42585000Y-50457000I75000J0D01*
G01*
G37*
G36*
G01*
X42085000Y-50457000D02*
X42235000Y-50457000D01*
G75*
G02*
X42310000Y-50532000I0J-75000D01*
G01*
X42310000Y-51232000D01*
G75*
G02*
X42235000Y-51307000I-75000J0D01*
G01*
X42085000Y-51307000D01*
G75*
G02*
X42010000Y-51232000I0J75000D01*
G01*
X42010000Y-50532000D01*
G75*
G02*
X42085000Y-50457000I75000J0D01*
G01*
G37*
G36*
G01*
X41585000Y-50457000D02*
X41735000Y-50457000D01*
G75*
G02*
X41810000Y-50532000I0J-75000D01*
G01*
X41810000Y-51232000D01*
G75*
G02*
X41735000Y-51307000I-75000J0D01*
G01*
X41585000Y-51307000D01*
G75*
G02*
X41510000Y-51232000I0J75000D01*
G01*
X41510000Y-50532000D01*
G75*
G02*
X41585000Y-50457000I75000J0D01*
G01*
G37*
G36*
G01*
X41085000Y-50457000D02*
X41235000Y-50457000D01*
G75*
G02*
X41310000Y-50532000I0J-75000D01*
G01*
X41310000Y-51232000D01*
G75*
G02*
X41235000Y-51307000I-75000J0D01*
G01*
X41085000Y-51307000D01*
G75*
G02*
X41010000Y-51232000I0J75000D01*
G01*
X41010000Y-50532000D01*
G75*
G02*
X41085000Y-50457000I75000J0D01*
G01*
G37*
G36*
G01*
X40585000Y-50457000D02*
X40735000Y-50457000D01*
G75*
G02*
X40810000Y-50532000I0J-75000D01*
G01*
X40810000Y-51232000D01*
G75*
G02*
X40735000Y-51307000I-75000J0D01*
G01*
X40585000Y-51307000D01*
G75*
G02*
X40510000Y-51232000I0J75000D01*
G01*
X40510000Y-50532000D01*
G75*
G02*
X40585000Y-50457000I75000J0D01*
G01*
G37*
G36*
G01*
X39535000Y-51657000D02*
X39535000Y-51507000D01*
G75*
G02*
X39610000Y-51432000I75000J0D01*
G01*
X40310000Y-51432000D01*
G75*
G02*
X40385000Y-51507000I0J-75000D01*
G01*
X40385000Y-51657000D01*
G75*
G02*
X40310000Y-51732000I-75000J0D01*
G01*
X39610000Y-51732000D01*
G75*
G02*
X39535000Y-51657000I0J75000D01*
G01*
G37*
G36*
G01*
X39535000Y-52157000D02*
X39535000Y-52007000D01*
G75*
G02*
X39610000Y-51932000I75000J0D01*
G01*
X40310000Y-51932000D01*
G75*
G02*
X40385000Y-52007000I0J-75000D01*
G01*
X40385000Y-52157000D01*
G75*
G02*
X40310000Y-52232000I-75000J0D01*
G01*
X39610000Y-52232000D01*
G75*
G02*
X39535000Y-52157000I0J75000D01*
G01*
G37*
G36*
G01*
X39535000Y-52657000D02*
X39535000Y-52507000D01*
G75*
G02*
X39610000Y-52432000I75000J0D01*
G01*
X40310000Y-52432000D01*
G75*
G02*
X40385000Y-52507000I0J-75000D01*
G01*
X40385000Y-52657000D01*
G75*
G02*
X40310000Y-52732000I-75000J0D01*
G01*
X39610000Y-52732000D01*
G75*
G02*
X39535000Y-52657000I0J75000D01*
G01*
G37*
G36*
G01*
X39535000Y-53157000D02*
X39535000Y-53007000D01*
G75*
G02*
X39610000Y-52932000I75000J0D01*
G01*
X40310000Y-52932000D01*
G75*
G02*
X40385000Y-53007000I0J-75000D01*
G01*
X40385000Y-53157000D01*
G75*
G02*
X40310000Y-53232000I-75000J0D01*
G01*
X39610000Y-53232000D01*
G75*
G02*
X39535000Y-53157000I0J75000D01*
G01*
G37*
G36*
G01*
X39535000Y-53657000D02*
X39535000Y-53507000D01*
G75*
G02*
X39610000Y-53432000I75000J0D01*
G01*
X40310000Y-53432000D01*
G75*
G02*
X40385000Y-53507000I0J-75000D01*
G01*
X40385000Y-53657000D01*
G75*
G02*
X40310000Y-53732000I-75000J0D01*
G01*
X39610000Y-53732000D01*
G75*
G02*
X39535000Y-53657000I0J75000D01*
G01*
G37*
G36*
G01*
X39535000Y-54157000D02*
X39535000Y-54007000D01*
G75*
G02*
X39610000Y-53932000I75000J0D01*
G01*
X40310000Y-53932000D01*
G75*
G02*
X40385000Y-54007000I0J-75000D01*
G01*
X40385000Y-54157000D01*
G75*
G02*
X40310000Y-54232000I-75000J0D01*
G01*
X39610000Y-54232000D01*
G75*
G02*
X39535000Y-54157000I0J75000D01*
G01*
G37*
%TD*%
%TO.C,R24*%
G36*
G01*
X44050000Y-61144998D02*
X44050000Y-62045002D01*
G75*
G02*
X43800002Y-62295000I-249998J0D01*
G01*
X43274998Y-62295000D01*
G75*
G02*
X43025000Y-62045002I0J249998D01*
G01*
X43025000Y-61144998D01*
G75*
G02*
X43274998Y-60895000I249998J0D01*
G01*
X43800002Y-60895000D01*
G75*
G02*
X44050000Y-61144998I0J-249998D01*
G01*
G37*
G36*
G01*
X45875000Y-61144998D02*
X45875000Y-62045002D01*
G75*
G02*
X45625002Y-62295000I-249998J0D01*
G01*
X45099998Y-62295000D01*
G75*
G02*
X44850000Y-62045002I0J249998D01*
G01*
X44850000Y-61144998D01*
G75*
G02*
X45099998Y-60895000I249998J0D01*
G01*
X45625002Y-60895000D01*
G75*
G02*
X45875000Y-61144998I0J-249998D01*
G01*
G37*
%TD*%
%TO.C,R15*%
G36*
G01*
X37014998Y-63900000D02*
X37915002Y-63900000D01*
G75*
G02*
X38165000Y-64149998I0J-249998D01*
G01*
X38165000Y-64675002D01*
G75*
G02*
X37915002Y-64925000I-249998J0D01*
G01*
X37014998Y-64925000D01*
G75*
G02*
X36765000Y-64675002I0J249998D01*
G01*
X36765000Y-64149998D01*
G75*
G02*
X37014998Y-63900000I249998J0D01*
G01*
G37*
G36*
G01*
X37014998Y-62075000D02*
X37915002Y-62075000D01*
G75*
G02*
X38165000Y-62324998I0J-249998D01*
G01*
X38165000Y-62850002D01*
G75*
G02*
X37915002Y-63100000I-249998J0D01*
G01*
X37014998Y-63100000D01*
G75*
G02*
X36765000Y-62850002I0J249998D01*
G01*
X36765000Y-62324998D01*
G75*
G02*
X37014998Y-62075000I249998J0D01*
G01*
G37*
%TD*%
%TO.C,R14*%
G36*
G01*
X31985000Y-63684998D02*
X31985000Y-64585002D01*
G75*
G02*
X31735002Y-64835000I-249998J0D01*
G01*
X31209998Y-64835000D01*
G75*
G02*
X30960000Y-64585002I0J249998D01*
G01*
X30960000Y-63684998D01*
G75*
G02*
X31209998Y-63435000I249998J0D01*
G01*
X31735002Y-63435000D01*
G75*
G02*
X31985000Y-63684998I0J-249998D01*
G01*
G37*
G36*
G01*
X33810000Y-63684998D02*
X33810000Y-64585002D01*
G75*
G02*
X33560002Y-64835000I-249998J0D01*
G01*
X33034998Y-64835000D01*
G75*
G02*
X32785000Y-64585002I0J249998D01*
G01*
X32785000Y-63684998D01*
G75*
G02*
X33034998Y-63435000I249998J0D01*
G01*
X33560002Y-63435000D01*
G75*
G02*
X33810000Y-63684998I0J-249998D01*
G01*
G37*
%TD*%
%TO.C,R13*%
G36*
G01*
X31985000Y-61779998D02*
X31985000Y-62680002D01*
G75*
G02*
X31735002Y-62930000I-249998J0D01*
G01*
X31209998Y-62930000D01*
G75*
G02*
X30960000Y-62680002I0J249998D01*
G01*
X30960000Y-61779998D01*
G75*
G02*
X31209998Y-61530000I249998J0D01*
G01*
X31735002Y-61530000D01*
G75*
G02*
X31985000Y-61779998I0J-249998D01*
G01*
G37*
G36*
G01*
X33810000Y-61779998D02*
X33810000Y-62680002D01*
G75*
G02*
X33560002Y-62930000I-249998J0D01*
G01*
X33034998Y-62930000D01*
G75*
G02*
X32785000Y-62680002I0J249998D01*
G01*
X32785000Y-61779998D01*
G75*
G02*
X33034998Y-61530000I249998J0D01*
G01*
X33560002Y-61530000D01*
G75*
G02*
X33810000Y-61779998I0J-249998D01*
G01*
G37*
%TD*%
%TO.C,R12*%
G36*
G01*
X46628000Y-48456002D02*
X46628000Y-47555998D01*
G75*
G02*
X46877998Y-47306000I249998J0D01*
G01*
X47403002Y-47306000D01*
G75*
G02*
X47653000Y-47555998I0J-249998D01*
G01*
X47653000Y-48456002D01*
G75*
G02*
X47403002Y-48706000I-249998J0D01*
G01*
X46877998Y-48706000D01*
G75*
G02*
X46628000Y-48456002I0J249998D01*
G01*
G37*
G36*
G01*
X44803000Y-48456002D02*
X44803000Y-47555998D01*
G75*
G02*
X45052998Y-47306000I249998J0D01*
G01*
X45578002Y-47306000D01*
G75*
G02*
X45828000Y-47555998I0J-249998D01*
G01*
X45828000Y-48456002D01*
G75*
G02*
X45578002Y-48706000I-249998J0D01*
G01*
X45052998Y-48706000D01*
G75*
G02*
X44803000Y-48456002I0J249998D01*
G01*
G37*
%TD*%
%TO.C,R11*%
G36*
G01*
X32785000Y-60775002D02*
X32785000Y-59874998D01*
G75*
G02*
X33034998Y-59625000I249998J0D01*
G01*
X33560002Y-59625000D01*
G75*
G02*
X33810000Y-59874998I0J-249998D01*
G01*
X33810000Y-60775002D01*
G75*
G02*
X33560002Y-61025000I-249998J0D01*
G01*
X33034998Y-61025000D01*
G75*
G02*
X32785000Y-60775002I0J249998D01*
G01*
G37*
G36*
G01*
X30960000Y-60775002D02*
X30960000Y-59874998D01*
G75*
G02*
X31209998Y-59625000I249998J0D01*
G01*
X31735002Y-59625000D01*
G75*
G02*
X31985000Y-59874998I0J-249998D01*
G01*
X31985000Y-60775002D01*
G75*
G02*
X31735002Y-61025000I-249998J0D01*
G01*
X31209998Y-61025000D01*
G75*
G02*
X30960000Y-60775002I0J249998D01*
G01*
G37*
%TD*%
%TO.C,R10*%
G36*
G01*
X46170002Y-32620000D02*
X45269998Y-32620000D01*
G75*
G02*
X45020000Y-32370002I0J249998D01*
G01*
X45020000Y-31844998D01*
G75*
G02*
X45269998Y-31595000I249998J0D01*
G01*
X46170002Y-31595000D01*
G75*
G02*
X46420000Y-31844998I0J-249998D01*
G01*
X46420000Y-32370002D01*
G75*
G02*
X46170002Y-32620000I-249998J0D01*
G01*
G37*
G36*
G01*
X46170002Y-34445000D02*
X45269998Y-34445000D01*
G75*
G02*
X45020000Y-34195002I0J249998D01*
G01*
X45020000Y-33669998D01*
G75*
G02*
X45269998Y-33420000I249998J0D01*
G01*
X46170002Y-33420000D01*
G75*
G02*
X46420000Y-33669998I0J-249998D01*
G01*
X46420000Y-34195002D01*
G75*
G02*
X46170002Y-34445000I-249998J0D01*
G01*
G37*
%TD*%
%TO.C,R9*%
G36*
G01*
X43630002Y-32620000D02*
X42729998Y-32620000D01*
G75*
G02*
X42480000Y-32370002I0J249998D01*
G01*
X42480000Y-31844998D01*
G75*
G02*
X42729998Y-31595000I249998J0D01*
G01*
X43630002Y-31595000D01*
G75*
G02*
X43880000Y-31844998I0J-249998D01*
G01*
X43880000Y-32370002D01*
G75*
G02*
X43630002Y-32620000I-249998J0D01*
G01*
G37*
G36*
G01*
X43630002Y-34445000D02*
X42729998Y-34445000D01*
G75*
G02*
X42480000Y-34195002I0J249998D01*
G01*
X42480000Y-33669998D01*
G75*
G02*
X42729998Y-33420000I249998J0D01*
G01*
X43630002Y-33420000D01*
G75*
G02*
X43880000Y-33669998I0J-249998D01*
G01*
X43880000Y-34195002D01*
G75*
G02*
X43630002Y-34445000I-249998J0D01*
G01*
G37*
%TD*%
%TO.C,R8*%
G36*
G01*
X32785000Y-58870002D02*
X32785000Y-57969998D01*
G75*
G02*
X33034998Y-57720000I249998J0D01*
G01*
X33560002Y-57720000D01*
G75*
G02*
X33810000Y-57969998I0J-249998D01*
G01*
X33810000Y-58870002D01*
G75*
G02*
X33560002Y-59120000I-249998J0D01*
G01*
X33034998Y-59120000D01*
G75*
G02*
X32785000Y-58870002I0J249998D01*
G01*
G37*
G36*
G01*
X30960000Y-58870002D02*
X30960000Y-57969998D01*
G75*
G02*
X31209998Y-57720000I249998J0D01*
G01*
X31735002Y-57720000D01*
G75*
G02*
X31985000Y-57969998I0J-249998D01*
G01*
X31985000Y-58870002D01*
G75*
G02*
X31735002Y-59120000I-249998J0D01*
G01*
X31209998Y-59120000D01*
G75*
G02*
X30960000Y-58870002I0J249998D01*
G01*
G37*
%TD*%
%TO.C,R7*%
G36*
G01*
X49384000Y-47555998D02*
X49384000Y-48456002D01*
G75*
G02*
X49134002Y-48706000I-249998J0D01*
G01*
X48608998Y-48706000D01*
G75*
G02*
X48359000Y-48456002I0J249998D01*
G01*
X48359000Y-47555998D01*
G75*
G02*
X48608998Y-47306000I249998J0D01*
G01*
X49134002Y-47306000D01*
G75*
G02*
X49384000Y-47555998I0J-249998D01*
G01*
G37*
G36*
G01*
X51209000Y-47555998D02*
X51209000Y-48456002D01*
G75*
G02*
X50959002Y-48706000I-249998J0D01*
G01*
X50433998Y-48706000D01*
G75*
G02*
X50184000Y-48456002I0J249998D01*
G01*
X50184000Y-47555998D01*
G75*
G02*
X50433998Y-47306000I249998J0D01*
G01*
X50959002Y-47306000D01*
G75*
G02*
X51209000Y-47555998I0J-249998D01*
G01*
G37*
%TD*%
%TO.C,R6*%
G36*
G01*
X49384000Y-49587998D02*
X49384000Y-50488002D01*
G75*
G02*
X49134002Y-50738000I-249998J0D01*
G01*
X48608998Y-50738000D01*
G75*
G02*
X48359000Y-50488002I0J249998D01*
G01*
X48359000Y-49587998D01*
G75*
G02*
X48608998Y-49338000I249998J0D01*
G01*
X49134002Y-49338000D01*
G75*
G02*
X49384000Y-49587998I0J-249998D01*
G01*
G37*
G36*
G01*
X51209000Y-49587998D02*
X51209000Y-50488002D01*
G75*
G02*
X50959002Y-50738000I-249998J0D01*
G01*
X50433998Y-50738000D01*
G75*
G02*
X50184000Y-50488002I0J249998D01*
G01*
X50184000Y-49587998D01*
G75*
G02*
X50433998Y-49338000I249998J0D01*
G01*
X50959002Y-49338000D01*
G75*
G02*
X51209000Y-49587998I0J-249998D01*
G01*
G37*
%TD*%
%TO.C,R5*%
G36*
G01*
X32785000Y-56965002D02*
X32785000Y-56064998D01*
G75*
G02*
X33034998Y-55815000I249998J0D01*
G01*
X33560002Y-55815000D01*
G75*
G02*
X33810000Y-56064998I0J-249998D01*
G01*
X33810000Y-56965002D01*
G75*
G02*
X33560002Y-57215000I-249998J0D01*
G01*
X33034998Y-57215000D01*
G75*
G02*
X32785000Y-56965002I0J249998D01*
G01*
G37*
G36*
G01*
X30960000Y-56965002D02*
X30960000Y-56064998D01*
G75*
G02*
X31209998Y-55815000I249998J0D01*
G01*
X31735002Y-55815000D01*
G75*
G02*
X31985000Y-56064998I0J-249998D01*
G01*
X31985000Y-56965002D01*
G75*
G02*
X31735002Y-57215000I-249998J0D01*
G01*
X31209998Y-57215000D01*
G75*
G02*
X30960000Y-56965002I0J249998D01*
G01*
G37*
%TD*%
%TO.C,R4*%
G36*
G01*
X36595000Y-52520002D02*
X36595000Y-51619998D01*
G75*
G02*
X36844998Y-51370000I249998J0D01*
G01*
X37370002Y-51370000D01*
G75*
G02*
X37620000Y-51619998I0J-249998D01*
G01*
X37620000Y-52520002D01*
G75*
G02*
X37370002Y-52770000I-249998J0D01*
G01*
X36844998Y-52770000D01*
G75*
G02*
X36595000Y-52520002I0J249998D01*
G01*
G37*
G36*
G01*
X34770000Y-52520002D02*
X34770000Y-51619998D01*
G75*
G02*
X35019998Y-51370000I249998J0D01*
G01*
X35545002Y-51370000D01*
G75*
G02*
X35795000Y-51619998I0J-249998D01*
G01*
X35795000Y-52520002D01*
G75*
G02*
X35545002Y-52770000I-249998J0D01*
G01*
X35019998Y-52770000D01*
G75*
G02*
X34770000Y-52520002I0J249998D01*
G01*
G37*
%TD*%
%TO.C,R3*%
G36*
G01*
X49384000Y-51619998D02*
X49384000Y-52520002D01*
G75*
G02*
X49134002Y-52770000I-249998J0D01*
G01*
X48608998Y-52770000D01*
G75*
G02*
X48359000Y-52520002I0J249998D01*
G01*
X48359000Y-51619998D01*
G75*
G02*
X48608998Y-51370000I249998J0D01*
G01*
X49134002Y-51370000D01*
G75*
G02*
X49384000Y-51619998I0J-249998D01*
G01*
G37*
G36*
G01*
X51209000Y-51619998D02*
X51209000Y-52520002D01*
G75*
G02*
X50959002Y-52770000I-249998J0D01*
G01*
X50433998Y-52770000D01*
G75*
G02*
X50184000Y-52520002I0J249998D01*
G01*
X50184000Y-51619998D01*
G75*
G02*
X50433998Y-51370000I249998J0D01*
G01*
X50959002Y-51370000D01*
G75*
G02*
X51209000Y-51619998I0J-249998D01*
G01*
G37*
%TD*%
%TO.C,R2*%
G36*
G01*
X41725002Y-46590000D02*
X40824998Y-46590000D01*
G75*
G02*
X40575000Y-46340002I0J249998D01*
G01*
X40575000Y-45814998D01*
G75*
G02*
X40824998Y-45565000I249998J0D01*
G01*
X41725002Y-45565000D01*
G75*
G02*
X41975000Y-45814998I0J-249998D01*
G01*
X41975000Y-46340002D01*
G75*
G02*
X41725002Y-46590000I-249998J0D01*
G01*
G37*
G36*
G01*
X41725002Y-48415000D02*
X40824998Y-48415000D01*
G75*
G02*
X40575000Y-48165002I0J249998D01*
G01*
X40575000Y-47639998D01*
G75*
G02*
X40824998Y-47390000I249998J0D01*
G01*
X41725002Y-47390000D01*
G75*
G02*
X41975000Y-47639998I0J-249998D01*
G01*
X41975000Y-48165002D01*
G75*
G02*
X41725002Y-48415000I-249998J0D01*
G01*
G37*
%TD*%
%TO.C,R1*%
G36*
G01*
X36595000Y-47440002D02*
X36595000Y-46539998D01*
G75*
G02*
X36844998Y-46290000I249998J0D01*
G01*
X37370002Y-46290000D01*
G75*
G02*
X37620000Y-46539998I0J-249998D01*
G01*
X37620000Y-47440002D01*
G75*
G02*
X37370002Y-47690000I-249998J0D01*
G01*
X36844998Y-47690000D01*
G75*
G02*
X36595000Y-47440002I0J249998D01*
G01*
G37*
G36*
G01*
X34770000Y-47440002D02*
X34770000Y-46539998D01*
G75*
G02*
X35019998Y-46290000I249998J0D01*
G01*
X35545002Y-46290000D01*
G75*
G02*
X35795000Y-46539998I0J-249998D01*
G01*
X35795000Y-47440002D01*
G75*
G02*
X35545002Y-47690000I-249998J0D01*
G01*
X35019998Y-47690000D01*
G75*
G02*
X34770000Y-47440002I0J249998D01*
G01*
G37*
%TD*%
D19*
%TO.C,BATT1*%
X46990000Y-73025000D03*
G36*
G01*
X43580000Y-73870001D02*
X43580000Y-72179999D01*
G75*
G02*
X43829999Y-71930000I249999J0D01*
G01*
X45070001Y-71930000D01*
G75*
G02*
X45320000Y-72179999I0J-249999D01*
G01*
X45320000Y-73870001D01*
G75*
G02*
X45070001Y-74120000I-249999J0D01*
G01*
X43829999Y-74120000D01*
G75*
G02*
X43580000Y-73870001I0J249999D01*
G01*
G37*
%TD*%
D20*
%TO.C,J2*%
X52037500Y-68855000D03*
X52037500Y-74655000D03*
D21*
X52037500Y-75255000D03*
X52037500Y-68255000D03*
D22*
X52037500Y-70755000D03*
D23*
X49337500Y-74255000D03*
D24*
X49337500Y-71755000D03*
X49337500Y-72405000D03*
X49337500Y-73055000D03*
X49337500Y-70455000D03*
X49337500Y-71105000D03*
D23*
X49337500Y-69255000D03*
D22*
X52037500Y-72755000D03*
%TD*%
%TO.C,F1*%
G36*
G01*
X45225000Y-69020000D02*
X45225000Y-66870000D01*
G75*
G02*
X45475000Y-66620000I250000J0D01*
G01*
X46225000Y-66620000D01*
G75*
G02*
X46475000Y-66870000I0J-250000D01*
G01*
X46475000Y-69020000D01*
G75*
G02*
X46225000Y-69270000I-250000J0D01*
G01*
X45475000Y-69270000D01*
G75*
G02*
X45225000Y-69020000I0J250000D01*
G01*
G37*
G36*
G01*
X42425000Y-69020000D02*
X42425000Y-66870000D01*
G75*
G02*
X42675000Y-66620000I250000J0D01*
G01*
X43425000Y-66620000D01*
G75*
G02*
X43675000Y-66870000I0J-250000D01*
G01*
X43675000Y-69020000D01*
G75*
G02*
X43425000Y-69270000I-250000J0D01*
G01*
X42675000Y-69270000D01*
G75*
G02*
X42425000Y-69020000I0J250000D01*
G01*
G37*
%TD*%
%TO.C,D7*%
G36*
G01*
X50858000Y-64948750D02*
X50858000Y-65861250D01*
G75*
G02*
X50614250Y-66105000I-243750J0D01*
G01*
X50126750Y-66105000D01*
G75*
G02*
X49883000Y-65861250I0J243750D01*
G01*
X49883000Y-64948750D01*
G75*
G02*
X50126750Y-64705000I243750J0D01*
G01*
X50614250Y-64705000D01*
G75*
G02*
X50858000Y-64948750I0J-243750D01*
G01*
G37*
G36*
G01*
X52733000Y-64948750D02*
X52733000Y-65861250D01*
G75*
G02*
X52489250Y-66105000I-243750J0D01*
G01*
X52001750Y-66105000D01*
G75*
G02*
X51758000Y-65861250I0J243750D01*
G01*
X51758000Y-64948750D01*
G75*
G02*
X52001750Y-64705000I243750J0D01*
G01*
X52489250Y-64705000D01*
G75*
G02*
X52733000Y-64948750I0J-243750D01*
G01*
G37*
%TD*%
%TO.C,D6*%
G36*
G01*
X51758000Y-63702250D02*
X51758000Y-62789750D01*
G75*
G02*
X52001750Y-62546000I243750J0D01*
G01*
X52489250Y-62546000D01*
G75*
G02*
X52733000Y-62789750I0J-243750D01*
G01*
X52733000Y-63702250D01*
G75*
G02*
X52489250Y-63946000I-243750J0D01*
G01*
X52001750Y-63946000D01*
G75*
G02*
X51758000Y-63702250I0J243750D01*
G01*
G37*
G36*
G01*
X49883000Y-63702250D02*
X49883000Y-62789750D01*
G75*
G02*
X50126750Y-62546000I243750J0D01*
G01*
X50614250Y-62546000D01*
G75*
G02*
X50858000Y-62789750I0J-243750D01*
G01*
X50858000Y-63702250D01*
G75*
G02*
X50614250Y-63946000I-243750J0D01*
G01*
X50126750Y-63946000D01*
G75*
G02*
X49883000Y-63702250I0J243750D01*
G01*
G37*
%TD*%
D25*
%TO.C,D2*%
X33020000Y-52070000D03*
D26*
X33020000Y-49530000D03*
%TD*%
D25*
%TO.C,D1*%
X33020000Y-46990000D03*
D26*
X33020000Y-44450000D03*
%TD*%
%TO.C,C19*%
G36*
G01*
X38423000Y-72738000D02*
X38423000Y-71788000D01*
G75*
G02*
X38673000Y-71538000I250000J0D01*
G01*
X39173000Y-71538000D01*
G75*
G02*
X39423000Y-71788000I0J-250000D01*
G01*
X39423000Y-72738000D01*
G75*
G02*
X39173000Y-72988000I-250000J0D01*
G01*
X38673000Y-72988000D01*
G75*
G02*
X38423000Y-72738000I0J250000D01*
G01*
G37*
G36*
G01*
X36523000Y-72738000D02*
X36523000Y-71788000D01*
G75*
G02*
X36773000Y-71538000I250000J0D01*
G01*
X37273000Y-71538000D01*
G75*
G02*
X37523000Y-71788000I0J-250000D01*
G01*
X37523000Y-72738000D01*
G75*
G02*
X37273000Y-72988000I-250000J0D01*
G01*
X36773000Y-72988000D01*
G75*
G02*
X36523000Y-72738000I0J250000D01*
G01*
G37*
%TD*%
%TO.C,C16*%
G36*
G01*
X45179000Y-57970000D02*
X44229000Y-57970000D01*
G75*
G02*
X43979000Y-57720000I0J250000D01*
G01*
X43979000Y-57220000D01*
G75*
G02*
X44229000Y-56970000I250000J0D01*
G01*
X45179000Y-56970000D01*
G75*
G02*
X45429000Y-57220000I0J-250000D01*
G01*
X45429000Y-57720000D01*
G75*
G02*
X45179000Y-57970000I-250000J0D01*
G01*
G37*
G36*
G01*
X45179000Y-59870000D02*
X44229000Y-59870000D01*
G75*
G02*
X43979000Y-59620000I0J250000D01*
G01*
X43979000Y-59120000D01*
G75*
G02*
X44229000Y-58870000I250000J0D01*
G01*
X45179000Y-58870000D01*
G75*
G02*
X45429000Y-59120000I0J-250000D01*
G01*
X45429000Y-59620000D01*
G75*
G02*
X45179000Y-59870000I-250000J0D01*
G01*
G37*
%TD*%
%TO.C,C13*%
G36*
G01*
X36035000Y-63050000D02*
X35085000Y-63050000D01*
G75*
G02*
X34835000Y-62800000I0J250000D01*
G01*
X34835000Y-62300000D01*
G75*
G02*
X35085000Y-62050000I250000J0D01*
G01*
X36035000Y-62050000D01*
G75*
G02*
X36285000Y-62300000I0J-250000D01*
G01*
X36285000Y-62800000D01*
G75*
G02*
X36035000Y-63050000I-250000J0D01*
G01*
G37*
G36*
G01*
X36035000Y-64950000D02*
X35085000Y-64950000D01*
G75*
G02*
X34835000Y-64700000I0J250000D01*
G01*
X34835000Y-64200000D01*
G75*
G02*
X35085000Y-63950000I250000J0D01*
G01*
X36035000Y-63950000D01*
G75*
G02*
X36285000Y-64200000I0J-250000D01*
G01*
X36285000Y-64700000D01*
G75*
G02*
X36035000Y-64950000I-250000J0D01*
G01*
G37*
%TD*%
%TO.C,C12*%
G36*
G01*
X45778000Y-45499000D02*
X45778000Y-46449000D01*
G75*
G02*
X45528000Y-46699000I-250000J0D01*
G01*
X45028000Y-46699000D01*
G75*
G02*
X44778000Y-46449000I0J250000D01*
G01*
X44778000Y-45499000D01*
G75*
G02*
X45028000Y-45249000I250000J0D01*
G01*
X45528000Y-45249000D01*
G75*
G02*
X45778000Y-45499000I0J-250000D01*
G01*
G37*
G36*
G01*
X47678000Y-45499000D02*
X47678000Y-46449000D01*
G75*
G02*
X47428000Y-46699000I-250000J0D01*
G01*
X46928000Y-46699000D01*
G75*
G02*
X46678000Y-46449000I0J250000D01*
G01*
X46678000Y-45499000D01*
G75*
G02*
X46928000Y-45249000I250000J0D01*
G01*
X47428000Y-45249000D01*
G75*
G02*
X47678000Y-45499000I0J-250000D01*
G01*
G37*
%TD*%
%TO.C,C11*%
G36*
G01*
X36645000Y-60800000D02*
X36645000Y-59850000D01*
G75*
G02*
X36895000Y-59600000I250000J0D01*
G01*
X37395000Y-59600000D01*
G75*
G02*
X37645000Y-59850000I0J-250000D01*
G01*
X37645000Y-60800000D01*
G75*
G02*
X37395000Y-61050000I-250000J0D01*
G01*
X36895000Y-61050000D01*
G75*
G02*
X36645000Y-60800000I0J250000D01*
G01*
G37*
G36*
G01*
X34745000Y-60800000D02*
X34745000Y-59850000D01*
G75*
G02*
X34995000Y-59600000I250000J0D01*
G01*
X35495000Y-59600000D01*
G75*
G02*
X35745000Y-59850000I0J-250000D01*
G01*
X35745000Y-60800000D01*
G75*
G02*
X35495000Y-61050000I-250000J0D01*
G01*
X34995000Y-61050000D01*
G75*
G02*
X34745000Y-60800000I0J250000D01*
G01*
G37*
%TD*%
%TO.C,C10*%
G36*
G01*
X43147000Y-57970000D02*
X42197000Y-57970000D01*
G75*
G02*
X41947000Y-57720000I0J250000D01*
G01*
X41947000Y-57220000D01*
G75*
G02*
X42197000Y-56970000I250000J0D01*
G01*
X43147000Y-56970000D01*
G75*
G02*
X43397000Y-57220000I0J-250000D01*
G01*
X43397000Y-57720000D01*
G75*
G02*
X43147000Y-57970000I-250000J0D01*
G01*
G37*
G36*
G01*
X43147000Y-59870000D02*
X42197000Y-59870000D01*
G75*
G02*
X41947000Y-59620000I0J250000D01*
G01*
X41947000Y-59120000D01*
G75*
G02*
X42197000Y-58870000I250000J0D01*
G01*
X43147000Y-58870000D01*
G75*
G02*
X43397000Y-59120000I0J-250000D01*
G01*
X43397000Y-59620000D01*
G75*
G02*
X43147000Y-59870000I-250000J0D01*
G01*
G37*
%TD*%
%TO.C,C8*%
G36*
G01*
X35745000Y-57945000D02*
X35745000Y-58895000D01*
G75*
G02*
X35495000Y-59145000I-250000J0D01*
G01*
X34995000Y-59145000D01*
G75*
G02*
X34745000Y-58895000I0J250000D01*
G01*
X34745000Y-57945000D01*
G75*
G02*
X34995000Y-57695000I250000J0D01*
G01*
X35495000Y-57695000D01*
G75*
G02*
X35745000Y-57945000I0J-250000D01*
G01*
G37*
G36*
G01*
X37645000Y-57945000D02*
X37645000Y-58895000D01*
G75*
G02*
X37395000Y-59145000I-250000J0D01*
G01*
X36895000Y-59145000D01*
G75*
G02*
X36645000Y-58895000I0J250000D01*
G01*
X36645000Y-57945000D01*
G75*
G02*
X36895000Y-57695000I250000J0D01*
G01*
X37395000Y-57695000D01*
G75*
G02*
X37645000Y-57945000I0J-250000D01*
G01*
G37*
%TD*%
%TO.C,C7*%
G36*
G01*
X42705000Y-47440000D02*
X43655000Y-47440000D01*
G75*
G02*
X43905000Y-47690000I0J-250000D01*
G01*
X43905000Y-48190000D01*
G75*
G02*
X43655000Y-48440000I-250000J0D01*
G01*
X42705000Y-48440000D01*
G75*
G02*
X42455000Y-48190000I0J250000D01*
G01*
X42455000Y-47690000D01*
G75*
G02*
X42705000Y-47440000I250000J0D01*
G01*
G37*
G36*
G01*
X42705000Y-45540000D02*
X43655000Y-45540000D01*
G75*
G02*
X43905000Y-45790000I0J-250000D01*
G01*
X43905000Y-46290000D01*
G75*
G02*
X43655000Y-46540000I-250000J0D01*
G01*
X42705000Y-46540000D01*
G75*
G02*
X42455000Y-46290000I0J250000D01*
G01*
X42455000Y-45790000D01*
G75*
G02*
X42705000Y-45540000I250000J0D01*
G01*
G37*
%TD*%
%TO.C,C6*%
G36*
G01*
X49309000Y-34994000D02*
X50259000Y-34994000D01*
G75*
G02*
X50509000Y-35244000I0J-250000D01*
G01*
X50509000Y-35744000D01*
G75*
G02*
X50259000Y-35994000I-250000J0D01*
G01*
X49309000Y-35994000D01*
G75*
G02*
X49059000Y-35744000I0J250000D01*
G01*
X49059000Y-35244000D01*
G75*
G02*
X49309000Y-34994000I250000J0D01*
G01*
G37*
G36*
G01*
X49309000Y-33094000D02*
X50259000Y-33094000D01*
G75*
G02*
X50509000Y-33344000I0J-250000D01*
G01*
X50509000Y-33844000D01*
G75*
G02*
X50259000Y-34094000I-250000J0D01*
G01*
X49309000Y-34094000D01*
G75*
G02*
X49059000Y-33844000I0J250000D01*
G01*
X49059000Y-33344000D01*
G75*
G02*
X49309000Y-33094000I250000J0D01*
G01*
G37*
%TD*%
%TO.C,C3*%
G36*
G01*
X44000000Y-63025000D02*
X44000000Y-63975000D01*
G75*
G02*
X43750000Y-64225000I-250000J0D01*
G01*
X43250000Y-64225000D01*
G75*
G02*
X43000000Y-63975000I0J250000D01*
G01*
X43000000Y-63025000D01*
G75*
G02*
X43250000Y-62775000I250000J0D01*
G01*
X43750000Y-62775000D01*
G75*
G02*
X44000000Y-63025000I0J-250000D01*
G01*
G37*
G36*
G01*
X45900000Y-63025000D02*
X45900000Y-63975000D01*
G75*
G02*
X45650000Y-64225000I-250000J0D01*
G01*
X45150000Y-64225000D01*
G75*
G02*
X44900000Y-63975000I0J250000D01*
G01*
X44900000Y-63025000D01*
G75*
G02*
X45150000Y-62775000I250000J0D01*
G01*
X45650000Y-62775000D01*
G75*
G02*
X45900000Y-63025000I0J-250000D01*
G01*
G37*
%TD*%
%TO.C,C2*%
G36*
G01*
X50234000Y-54577000D02*
X50234000Y-53627000D01*
G75*
G02*
X50484000Y-53377000I250000J0D01*
G01*
X50984000Y-53377000D01*
G75*
G02*
X51234000Y-53627000I0J-250000D01*
G01*
X51234000Y-54577000D01*
G75*
G02*
X50984000Y-54827000I-250000J0D01*
G01*
X50484000Y-54827000D01*
G75*
G02*
X50234000Y-54577000I0J250000D01*
G01*
G37*
G36*
G01*
X48334000Y-54577000D02*
X48334000Y-53627000D01*
G75*
G02*
X48584000Y-53377000I250000J0D01*
G01*
X49084000Y-53377000D01*
G75*
G02*
X49334000Y-53627000I0J-250000D01*
G01*
X49334000Y-54577000D01*
G75*
G02*
X49084000Y-54827000I-250000J0D01*
G01*
X48584000Y-54827000D01*
G75*
G02*
X48334000Y-54577000I0J250000D01*
G01*
G37*
%TD*%
M02*
