%TF.GenerationSoftware,KiCad,Pcbnew,5.1.9-73d0e3b20d~88~ubuntu20.04.1*%
%TF.CreationDate,2021-03-24T22:28:27+08:00*%
%TF.ProjectId,elec-remote,656c6563-2d72-4656-9d6f-74652e6b6963,rev?*%
%TF.SameCoordinates,Original*%
%TF.FileFunction,Legend,Top*%
%TF.FilePolarity,Positive*%
%FSLAX46Y46*%
G04 Gerber Fmt 4.6, Leading zero omitted, Abs format (unit mm)*
G04 Created by KiCad (PCBNEW 5.1.9-73d0e3b20d~88~ubuntu20.04.1) date 2021-03-24 22:28:27*
%MOMM*%
%LPD*%
G01*
G04 APERTURE LIST*
%ADD10C,0.120000*%
%ADD11C,0.100000*%
G04 APERTURE END LIST*
D10*
%TO.C,D5*%
X38260000Y-27730000D02*
X45560000Y-27730000D01*
X38260000Y-33230000D02*
X45560000Y-33230000D01*
X45560000Y-33230000D02*
X45560000Y-32080000D01*
%TO.C,JBT1*%
X47050000Y-40700000D02*
X47050000Y-38040000D01*
X39370000Y-40700000D02*
X47050000Y-40700000D01*
X39370000Y-38040000D02*
X47050000Y-38040000D01*
X39370000Y-40700000D02*
X39370000Y-38040000D01*
X38100000Y-40700000D02*
X36770000Y-40700000D01*
X36770000Y-40700000D02*
X36770000Y-39370000D01*
%TO.C,TOP1*%
X53130000Y-32500000D02*
X51010000Y-32500000D01*
X53130000Y-34560000D02*
X53130000Y-32500000D01*
X51010000Y-34560000D02*
X51010000Y-32500000D01*
X53130000Y-34560000D02*
X51010000Y-34560000D01*
X53130000Y-35560000D02*
X53130000Y-36620000D01*
X53130000Y-36620000D02*
X52070000Y-36620000D01*
%TO.C,DEBUG1*%
X47770000Y-44560000D02*
X53790000Y-44560000D01*
X53790000Y-44560000D02*
X53790000Y-36720000D01*
X53790000Y-36720000D02*
X47770000Y-36720000D01*
X47770000Y-36720000D02*
X47770000Y-44560000D01*
X48800000Y-44850000D02*
X52800000Y-44850000D01*
X53790000Y-43180000D02*
X52790000Y-43180000D01*
X52790000Y-43180000D02*
X52790000Y-38100000D01*
X52790000Y-38100000D02*
X53790000Y-38100000D01*
X52790000Y-43180000D02*
X52260000Y-42930000D01*
X52260000Y-42930000D02*
X52260000Y-38350000D01*
X52260000Y-38350000D02*
X52790000Y-38100000D01*
X53790000Y-42930000D02*
X52790000Y-42930000D01*
X53790000Y-38350000D02*
X52790000Y-38350000D01*
X47770000Y-43980000D02*
X48370000Y-43980000D01*
X48370000Y-43980000D02*
X48370000Y-42380000D01*
X48370000Y-42380000D02*
X47770000Y-42380000D01*
X47770000Y-41440000D02*
X48370000Y-41440000D01*
X48370000Y-41440000D02*
X48370000Y-39840000D01*
X48370000Y-39840000D02*
X47770000Y-39840000D01*
X47770000Y-38900000D02*
X48370000Y-38900000D01*
X48370000Y-38900000D02*
X48370000Y-37300000D01*
X48370000Y-37300000D02*
X47770000Y-37300000D01*
%TO.C,BEEPER1*%
X51010000Y-62020000D02*
X53130000Y-62020000D01*
X51010000Y-59960000D02*
X51010000Y-62020000D01*
X53130000Y-59960000D02*
X53130000Y-62020000D01*
X51010000Y-59960000D02*
X53130000Y-59960000D01*
X51010000Y-58960000D02*
X51010000Y-57900000D01*
X51010000Y-57900000D02*
X52070000Y-57900000D01*
%TO.C,SIDE1*%
X30920000Y-36060000D02*
X31300000Y-36560000D01*
X31300000Y-36560000D02*
X31620000Y-36560000D01*
X30920000Y-36060000D02*
X30920000Y-35060000D01*
X30920000Y-35060000D02*
X31300000Y-34560000D01*
X31300000Y-34560000D02*
X31620000Y-34560000D01*
X34420000Y-37210000D02*
X34420000Y-33910000D01*
X34120000Y-37210000D02*
X34420000Y-37210000D01*
X34420000Y-33910000D02*
X34120000Y-33910000D01*
X31920000Y-37210000D02*
X31620000Y-37210000D01*
X31620000Y-37210000D02*
X31620000Y-33910000D01*
X31620000Y-33910000D02*
X31920000Y-33910000D01*
%TO.C,LCD1*%
X47050000Y-36890000D02*
X47050000Y-34230000D01*
X39370000Y-36890000D02*
X47050000Y-36890000D01*
X39370000Y-34230000D02*
X47050000Y-34230000D01*
X39370000Y-36890000D02*
X39370000Y-34230000D01*
X38100000Y-36890000D02*
X36770000Y-36890000D01*
X36770000Y-36890000D02*
X36770000Y-35560000D01*
%TO.C,U6*%
X39350000Y-48260000D02*
X39350000Y-50210000D01*
X39350000Y-48260000D02*
X39350000Y-46310000D01*
X44470000Y-48260000D02*
X44470000Y-50210000D01*
X44470000Y-48260000D02*
X44470000Y-44810000D01*
%TO.C,U5*%
X37954000Y-67178000D02*
X36694000Y-67178000D01*
X31134000Y-67178000D02*
X32394000Y-67178000D01*
X37954000Y-70938000D02*
X37954000Y-67178000D01*
X31134000Y-73188000D02*
X31134000Y-67178000D01*
%TO.C,U4*%
X45350000Y-66335000D02*
X43550000Y-66335000D01*
X43550000Y-69555000D02*
X46000000Y-69555000D01*
%TO.C,U3*%
X41910000Y-53765000D02*
X39710000Y-53765000D01*
X41910000Y-53765000D02*
X44110000Y-53765000D01*
X41910000Y-60535000D02*
X39710000Y-60535000D01*
X41910000Y-60535000D02*
X45510000Y-60535000D01*
%TO.C,U1*%
X31095000Y-59055000D02*
X31095000Y-61005000D01*
X31095000Y-59055000D02*
X31095000Y-57105000D01*
X36215000Y-59055000D02*
X36215000Y-61005000D01*
X36215000Y-59055000D02*
X36215000Y-55605000D01*
%TO.C,RESET1*%
X48990000Y-53860000D02*
X48990000Y-47740000D01*
X48990000Y-47740000D02*
X52610000Y-47740000D01*
X52610000Y-47740000D02*
X52610000Y-53860000D01*
X52610000Y-53860000D02*
X48990000Y-53860000D01*
%TO.C,R26*%
X40540000Y-64084564D02*
X40540000Y-63630436D01*
X42010000Y-64084564D02*
X42010000Y-63630436D01*
%TO.C,R25*%
X40105000Y-63630436D02*
X40105000Y-64084564D01*
X38635000Y-63630436D02*
X38635000Y-64084564D01*
%TO.C,R23*%
X48995000Y-59716936D02*
X48995000Y-60171064D01*
X47525000Y-59716936D02*
X47525000Y-60171064D01*
%TO.C,R22*%
X51535064Y-66140000D02*
X51080936Y-66140000D01*
X51535064Y-64670000D02*
X51080936Y-64670000D01*
%TO.C,R21*%
X51535064Y-63981000D02*
X51080936Y-63981000D01*
X51535064Y-62511000D02*
X51080936Y-62511000D01*
%TO.C,R20*%
X39905000Y-68299064D02*
X39905000Y-67844936D01*
X41375000Y-68299064D02*
X41375000Y-67844936D01*
%TO.C,R18*%
X33247064Y-39978000D02*
X32792936Y-39978000D01*
X33247064Y-38508000D02*
X32792936Y-38508000D01*
%TO.C,BATT1*%
X43070000Y-69995000D02*
X43070000Y-76015000D01*
X43070000Y-76015000D02*
X48370000Y-76015000D01*
X48370000Y-76015000D02*
X48370000Y-69995000D01*
X48370000Y-69995000D02*
X43070000Y-69995000D01*
X42780000Y-71025000D02*
X42780000Y-75025000D01*
X44450000Y-76015000D02*
X44450000Y-75015000D01*
X44450000Y-75015000D02*
X46990000Y-75015000D01*
X46990000Y-75015000D02*
X46990000Y-76015000D01*
X44450000Y-75015000D02*
X44700000Y-74485000D01*
X44700000Y-74485000D02*
X46740000Y-74485000D01*
X46740000Y-74485000D02*
X46990000Y-75015000D01*
X44700000Y-76015000D02*
X44700000Y-75015000D01*
X46740000Y-76015000D02*
X46740000Y-75015000D01*
X43650000Y-69995000D02*
X43650000Y-70595000D01*
X43650000Y-70595000D02*
X45250000Y-70595000D01*
X45250000Y-70595000D02*
X45250000Y-69995000D01*
X46190000Y-69995000D02*
X46190000Y-70595000D01*
X46190000Y-70595000D02*
X47790000Y-70595000D01*
X47790000Y-70595000D02*
X47790000Y-69995000D01*
%TO.C,F2*%
X39280000Y-73627064D02*
X39280000Y-72422936D01*
X42000000Y-73627064D02*
X42000000Y-72422936D01*
%TO.C,D3*%
X34020000Y-40188000D02*
X31335000Y-40188000D01*
X31335000Y-40188000D02*
X31335000Y-42108000D01*
X31335000Y-42108000D02*
X34020000Y-42108000D01*
%TO.C,D2*%
X34256000Y-49240000D02*
X34100000Y-49240000D01*
X31940000Y-49240000D02*
X31784000Y-49240000D01*
X31940163Y-51841130D02*
G75*
G02*
X31940000Y-49759039I1079837J1041130D01*
G01*
X34099837Y-51841130D02*
G75*
G03*
X34100000Y-49759039I-1079837J1041130D01*
G01*
X31941392Y-52472335D02*
G75*
G02*
X31784484Y-49240000I1078608J1672335D01*
G01*
X34098608Y-52472335D02*
G75*
G03*
X34255516Y-49240000I-1078608J1672335D01*
G01*
%TO.C,D1*%
X34256000Y-44160000D02*
X34100000Y-44160000D01*
X31940000Y-44160000D02*
X31784000Y-44160000D01*
X31940163Y-46761130D02*
G75*
G02*
X31940000Y-44679039I1079837J1041130D01*
G01*
X34099837Y-46761130D02*
G75*
G03*
X34100000Y-44679039I-1079837J1041130D01*
G01*
X31941392Y-47392335D02*
G75*
G02*
X31784484Y-44160000I1078608J1672335D01*
G01*
X34098608Y-47392335D02*
G75*
G03*
X34255516Y-44160000I-1078608J1672335D01*
G01*
%TO.C,C18*%
X44711252Y-65505000D02*
X44188748Y-65505000D01*
X44711252Y-64035000D02*
X44188748Y-64035000D01*
%TO.C,C9*%
X44985000Y-52077252D02*
X44985000Y-51554748D01*
X46455000Y-52077252D02*
X46455000Y-51554748D01*
%TO.C,C4*%
X34317000Y-53220252D02*
X34317000Y-52697748D01*
X35787000Y-53220252D02*
X35787000Y-52697748D01*
%TO.C,C1*%
X44711252Y-63600000D02*
X44188748Y-63600000D01*
X44711252Y-62130000D02*
X44188748Y-62130000D01*
%TO.C,D5*%
D11*
X41467142Y-27251428D02*
X41467142Y-26651428D01*
X41610000Y-26651428D01*
X41695714Y-26680000D01*
X41752857Y-26737142D01*
X41781428Y-26794285D01*
X41810000Y-26908571D01*
X41810000Y-26994285D01*
X41781428Y-27108571D01*
X41752857Y-27165714D01*
X41695714Y-27222857D01*
X41610000Y-27251428D01*
X41467142Y-27251428D01*
X42352857Y-26651428D02*
X42067142Y-26651428D01*
X42038571Y-26937142D01*
X42067142Y-26908571D01*
X42124285Y-26880000D01*
X42267142Y-26880000D01*
X42324285Y-26908571D01*
X42352857Y-26937142D01*
X42381428Y-26994285D01*
X42381428Y-27137142D01*
X42352857Y-27194285D01*
X42324285Y-27222857D01*
X42267142Y-27251428D01*
X42124285Y-27251428D01*
X42067142Y-27222857D01*
X42038571Y-27194285D01*
X37931428Y-29151428D02*
X37588571Y-29151428D01*
X37760000Y-29151428D02*
X37760000Y-28551428D01*
X37702857Y-28637142D01*
X37645714Y-28694285D01*
X37588571Y-28722857D01*
%TO.C,JBT1*%
X37371428Y-37136428D02*
X37371428Y-37565000D01*
X37342857Y-37650714D01*
X37285714Y-37707857D01*
X37200000Y-37736428D01*
X37142857Y-37736428D01*
X37857142Y-37422142D02*
X37942857Y-37450714D01*
X37971428Y-37479285D01*
X38000000Y-37536428D01*
X38000000Y-37622142D01*
X37971428Y-37679285D01*
X37942857Y-37707857D01*
X37885714Y-37736428D01*
X37657142Y-37736428D01*
X37657142Y-37136428D01*
X37857142Y-37136428D01*
X37914285Y-37165000D01*
X37942857Y-37193571D01*
X37971428Y-37250714D01*
X37971428Y-37307857D01*
X37942857Y-37365000D01*
X37914285Y-37393571D01*
X37857142Y-37422142D01*
X37657142Y-37422142D01*
X38171428Y-37136428D02*
X38514285Y-37136428D01*
X38342857Y-37736428D02*
X38342857Y-37136428D01*
X39028571Y-37736428D02*
X38685714Y-37736428D01*
X38857142Y-37736428D02*
X38857142Y-37136428D01*
X38800000Y-37222142D01*
X38742857Y-37279285D01*
X38685714Y-37307857D01*
%TO.C,TOP1*%
X50090428Y-36631428D02*
X50090428Y-36288571D01*
X50690428Y-36460000D02*
X50090428Y-36460000D01*
X50090428Y-35974285D02*
X50090428Y-35860000D01*
X50119000Y-35802857D01*
X50176142Y-35745714D01*
X50290428Y-35717142D01*
X50490428Y-35717142D01*
X50604714Y-35745714D01*
X50661857Y-35802857D01*
X50690428Y-35860000D01*
X50690428Y-35974285D01*
X50661857Y-36031428D01*
X50604714Y-36088571D01*
X50490428Y-36117142D01*
X50290428Y-36117142D01*
X50176142Y-36088571D01*
X50119000Y-36031428D01*
X50090428Y-35974285D01*
X50690428Y-35460000D02*
X50090428Y-35460000D01*
X50090428Y-35231428D01*
X50119000Y-35174285D01*
X50147571Y-35145714D01*
X50204714Y-35117142D01*
X50290428Y-35117142D01*
X50347571Y-35145714D01*
X50376142Y-35174285D01*
X50404714Y-35231428D01*
X50404714Y-35460000D01*
X50690428Y-34545714D02*
X50690428Y-34888571D01*
X50690428Y-34717142D02*
X50090428Y-34717142D01*
X50176142Y-34774285D01*
X50233285Y-34831428D01*
X50261857Y-34888571D01*
%TO.C,DEBUG1*%
X47388428Y-44808571D02*
X46788428Y-44808571D01*
X46788428Y-44665714D01*
X46817000Y-44580000D01*
X46874142Y-44522857D01*
X46931285Y-44494285D01*
X47045571Y-44465714D01*
X47131285Y-44465714D01*
X47245571Y-44494285D01*
X47302714Y-44522857D01*
X47359857Y-44580000D01*
X47388428Y-44665714D01*
X47388428Y-44808571D01*
X47074142Y-44208571D02*
X47074142Y-44008571D01*
X47388428Y-43922857D02*
X47388428Y-44208571D01*
X46788428Y-44208571D01*
X46788428Y-43922857D01*
X47074142Y-43465714D02*
X47102714Y-43380000D01*
X47131285Y-43351428D01*
X47188428Y-43322857D01*
X47274142Y-43322857D01*
X47331285Y-43351428D01*
X47359857Y-43380000D01*
X47388428Y-43437142D01*
X47388428Y-43665714D01*
X46788428Y-43665714D01*
X46788428Y-43465714D01*
X46817000Y-43408571D01*
X46845571Y-43380000D01*
X46902714Y-43351428D01*
X46959857Y-43351428D01*
X47017000Y-43380000D01*
X47045571Y-43408571D01*
X47074142Y-43465714D01*
X47074142Y-43665714D01*
X46788428Y-43065714D02*
X47274142Y-43065714D01*
X47331285Y-43037142D01*
X47359857Y-43008571D01*
X47388428Y-42951428D01*
X47388428Y-42837142D01*
X47359857Y-42780000D01*
X47331285Y-42751428D01*
X47274142Y-42722857D01*
X46788428Y-42722857D01*
X46817000Y-42122857D02*
X46788428Y-42180000D01*
X46788428Y-42265714D01*
X46817000Y-42351428D01*
X46874142Y-42408571D01*
X46931285Y-42437142D01*
X47045571Y-42465714D01*
X47131285Y-42465714D01*
X47245571Y-42437142D01*
X47302714Y-42408571D01*
X47359857Y-42351428D01*
X47388428Y-42265714D01*
X47388428Y-42208571D01*
X47359857Y-42122857D01*
X47331285Y-42094285D01*
X47131285Y-42094285D01*
X47131285Y-42208571D01*
X47388428Y-41522857D02*
X47388428Y-41865714D01*
X47388428Y-41694285D02*
X46788428Y-41694285D01*
X46874142Y-41751428D01*
X46931285Y-41808571D01*
X46959857Y-41865714D01*
%TO.C,BEEPER1*%
X50376142Y-60585142D02*
X50404714Y-60499428D01*
X50433285Y-60470857D01*
X50490428Y-60442285D01*
X50576142Y-60442285D01*
X50633285Y-60470857D01*
X50661857Y-60499428D01*
X50690428Y-60556571D01*
X50690428Y-60785142D01*
X50090428Y-60785142D01*
X50090428Y-60585142D01*
X50119000Y-60528000D01*
X50147571Y-60499428D01*
X50204714Y-60470857D01*
X50261857Y-60470857D01*
X50319000Y-60499428D01*
X50347571Y-60528000D01*
X50376142Y-60585142D01*
X50376142Y-60785142D01*
X50376142Y-60185142D02*
X50376142Y-59985142D01*
X50690428Y-59899428D02*
X50690428Y-60185142D01*
X50090428Y-60185142D01*
X50090428Y-59899428D01*
X50376142Y-59642285D02*
X50376142Y-59442285D01*
X50690428Y-59356571D02*
X50690428Y-59642285D01*
X50090428Y-59642285D01*
X50090428Y-59356571D01*
X50690428Y-59099428D02*
X50090428Y-59099428D01*
X50090428Y-58870857D01*
X50119000Y-58813714D01*
X50147571Y-58785142D01*
X50204714Y-58756571D01*
X50290428Y-58756571D01*
X50347571Y-58785142D01*
X50376142Y-58813714D01*
X50404714Y-58870857D01*
X50404714Y-59099428D01*
X50376142Y-58499428D02*
X50376142Y-58299428D01*
X50690428Y-58213714D02*
X50690428Y-58499428D01*
X50090428Y-58499428D01*
X50090428Y-58213714D01*
X50690428Y-57613714D02*
X50404714Y-57813714D01*
X50690428Y-57956571D02*
X50090428Y-57956571D01*
X50090428Y-57728000D01*
X50119000Y-57670857D01*
X50147571Y-57642285D01*
X50204714Y-57613714D01*
X50290428Y-57613714D01*
X50347571Y-57642285D01*
X50376142Y-57670857D01*
X50404714Y-57728000D01*
X50404714Y-57956571D01*
X50690428Y-57042285D02*
X50690428Y-57385142D01*
X50690428Y-57213714D02*
X50090428Y-57213714D01*
X50176142Y-57270857D01*
X50233285Y-57328000D01*
X50261857Y-57385142D01*
%TO.C,SIDE1*%
X35294857Y-36731428D02*
X35323428Y-36645714D01*
X35323428Y-36502857D01*
X35294857Y-36445714D01*
X35266285Y-36417142D01*
X35209142Y-36388571D01*
X35152000Y-36388571D01*
X35094857Y-36417142D01*
X35066285Y-36445714D01*
X35037714Y-36502857D01*
X35009142Y-36617142D01*
X34980571Y-36674285D01*
X34952000Y-36702857D01*
X34894857Y-36731428D01*
X34837714Y-36731428D01*
X34780571Y-36702857D01*
X34752000Y-36674285D01*
X34723428Y-36617142D01*
X34723428Y-36474285D01*
X34752000Y-36388571D01*
X35323428Y-36131428D02*
X34723428Y-36131428D01*
X35323428Y-35845714D02*
X34723428Y-35845714D01*
X34723428Y-35702857D01*
X34752000Y-35617142D01*
X34809142Y-35560000D01*
X34866285Y-35531428D01*
X34980571Y-35502857D01*
X35066285Y-35502857D01*
X35180571Y-35531428D01*
X35237714Y-35560000D01*
X35294857Y-35617142D01*
X35323428Y-35702857D01*
X35323428Y-35845714D01*
X35009142Y-35245714D02*
X35009142Y-35045714D01*
X35323428Y-34960000D02*
X35323428Y-35245714D01*
X34723428Y-35245714D01*
X34723428Y-34960000D01*
X35323428Y-34388571D02*
X35323428Y-34731428D01*
X35323428Y-34560000D02*
X34723428Y-34560000D01*
X34809142Y-34617142D01*
X34866285Y-34674285D01*
X34894857Y-34731428D01*
%TO.C,LCD1*%
X37400000Y-34053428D02*
X37114285Y-34053428D01*
X37114285Y-33453428D01*
X37942857Y-33996285D02*
X37914285Y-34024857D01*
X37828571Y-34053428D01*
X37771428Y-34053428D01*
X37685714Y-34024857D01*
X37628571Y-33967714D01*
X37600000Y-33910571D01*
X37571428Y-33796285D01*
X37571428Y-33710571D01*
X37600000Y-33596285D01*
X37628571Y-33539142D01*
X37685714Y-33482000D01*
X37771428Y-33453428D01*
X37828571Y-33453428D01*
X37914285Y-33482000D01*
X37942857Y-33510571D01*
X38200000Y-34053428D02*
X38200000Y-33453428D01*
X38342857Y-33453428D01*
X38428571Y-33482000D01*
X38485714Y-33539142D01*
X38514285Y-33596285D01*
X38542857Y-33710571D01*
X38542857Y-33796285D01*
X38514285Y-33910571D01*
X38485714Y-33967714D01*
X38428571Y-34024857D01*
X38342857Y-34053428D01*
X38200000Y-34053428D01*
X39114285Y-34053428D02*
X38771428Y-34053428D01*
X38942857Y-34053428D02*
X38942857Y-33453428D01*
X38885714Y-33539142D01*
X38828571Y-33596285D01*
X38771428Y-33624857D01*
%TO.C,U6*%
X44852857Y-47931428D02*
X44852857Y-48417142D01*
X44881428Y-48474285D01*
X44910000Y-48502857D01*
X44967142Y-48531428D01*
X45081428Y-48531428D01*
X45138571Y-48502857D01*
X45167142Y-48474285D01*
X45195714Y-48417142D01*
X45195714Y-47931428D01*
X45738571Y-47931428D02*
X45624285Y-47931428D01*
X45567142Y-47960000D01*
X45538571Y-47988571D01*
X45481428Y-48074285D01*
X45452857Y-48188571D01*
X45452857Y-48417142D01*
X45481428Y-48474285D01*
X45510000Y-48502857D01*
X45567142Y-48531428D01*
X45681428Y-48531428D01*
X45738571Y-48502857D01*
X45767142Y-48474285D01*
X45795714Y-48417142D01*
X45795714Y-48274285D01*
X45767142Y-48217142D01*
X45738571Y-48188571D01*
X45681428Y-48160000D01*
X45567142Y-48160000D01*
X45510000Y-48188571D01*
X45481428Y-48217142D01*
X45452857Y-48274285D01*
%TO.C,U5*%
X30911857Y-66092428D02*
X30911857Y-66578142D01*
X30940428Y-66635285D01*
X30969000Y-66663857D01*
X31026142Y-66692428D01*
X31140428Y-66692428D01*
X31197571Y-66663857D01*
X31226142Y-66635285D01*
X31254714Y-66578142D01*
X31254714Y-66092428D01*
X31826142Y-66092428D02*
X31540428Y-66092428D01*
X31511857Y-66378142D01*
X31540428Y-66349571D01*
X31597571Y-66321000D01*
X31740428Y-66321000D01*
X31797571Y-66349571D01*
X31826142Y-66378142D01*
X31854714Y-66435285D01*
X31854714Y-66578142D01*
X31826142Y-66635285D01*
X31797571Y-66663857D01*
X31740428Y-66692428D01*
X31597571Y-66692428D01*
X31540428Y-66663857D01*
X31511857Y-66635285D01*
%TO.C,U4*%
X41706857Y-67616428D02*
X41706857Y-68102142D01*
X41735428Y-68159285D01*
X41764000Y-68187857D01*
X41821142Y-68216428D01*
X41935428Y-68216428D01*
X41992571Y-68187857D01*
X42021142Y-68159285D01*
X42049714Y-68102142D01*
X42049714Y-67616428D01*
X42592571Y-67816428D02*
X42592571Y-68216428D01*
X42449714Y-67587857D02*
X42306857Y-68016428D01*
X42678285Y-68016428D01*
%TO.C,U3*%
X43103857Y-60758428D02*
X43103857Y-61244142D01*
X43132428Y-61301285D01*
X43161000Y-61329857D01*
X43218142Y-61358428D01*
X43332428Y-61358428D01*
X43389571Y-61329857D01*
X43418142Y-61301285D01*
X43446714Y-61244142D01*
X43446714Y-60758428D01*
X43675285Y-60758428D02*
X44046714Y-60758428D01*
X43846714Y-60987000D01*
X43932428Y-60987000D01*
X43989571Y-61015571D01*
X44018142Y-61044142D01*
X44046714Y-61101285D01*
X44046714Y-61244142D01*
X44018142Y-61301285D01*
X43989571Y-61329857D01*
X43932428Y-61358428D01*
X43761000Y-61358428D01*
X43703857Y-61329857D01*
X43675285Y-61301285D01*
%TO.C,U1*%
X36499857Y-58726428D02*
X36499857Y-59212142D01*
X36528428Y-59269285D01*
X36557000Y-59297857D01*
X36614142Y-59326428D01*
X36728428Y-59326428D01*
X36785571Y-59297857D01*
X36814142Y-59269285D01*
X36842714Y-59212142D01*
X36842714Y-58726428D01*
X37442714Y-59326428D02*
X37099857Y-59326428D01*
X37271285Y-59326428D02*
X37271285Y-58726428D01*
X37214142Y-58812142D01*
X37157000Y-58869285D01*
X37099857Y-58897857D01*
%TO.C,RESET1*%
X48658428Y-51957142D02*
X48372714Y-52157142D01*
X48658428Y-52300000D02*
X48058428Y-52300000D01*
X48058428Y-52071428D01*
X48087000Y-52014285D01*
X48115571Y-51985714D01*
X48172714Y-51957142D01*
X48258428Y-51957142D01*
X48315571Y-51985714D01*
X48344142Y-52014285D01*
X48372714Y-52071428D01*
X48372714Y-52300000D01*
X48344142Y-51700000D02*
X48344142Y-51500000D01*
X48658428Y-51414285D02*
X48658428Y-51700000D01*
X48058428Y-51700000D01*
X48058428Y-51414285D01*
X48629857Y-51185714D02*
X48658428Y-51100000D01*
X48658428Y-50957142D01*
X48629857Y-50900000D01*
X48601285Y-50871428D01*
X48544142Y-50842857D01*
X48487000Y-50842857D01*
X48429857Y-50871428D01*
X48401285Y-50900000D01*
X48372714Y-50957142D01*
X48344142Y-51071428D01*
X48315571Y-51128571D01*
X48287000Y-51157142D01*
X48229857Y-51185714D01*
X48172714Y-51185714D01*
X48115571Y-51157142D01*
X48087000Y-51128571D01*
X48058428Y-51071428D01*
X48058428Y-50928571D01*
X48087000Y-50842857D01*
X48344142Y-50585714D02*
X48344142Y-50385714D01*
X48658428Y-50300000D02*
X48658428Y-50585714D01*
X48058428Y-50585714D01*
X48058428Y-50300000D01*
X48058428Y-50128571D02*
X48058428Y-49785714D01*
X48658428Y-49957142D02*
X48058428Y-49957142D01*
X48658428Y-49271428D02*
X48658428Y-49614285D01*
X48658428Y-49442857D02*
X48058428Y-49442857D01*
X48144142Y-49500000D01*
X48201285Y-49557142D01*
X48229857Y-49614285D01*
%TO.C,R26*%
X40889285Y-61993428D02*
X40689285Y-61707714D01*
X40546428Y-61993428D02*
X40546428Y-61393428D01*
X40775000Y-61393428D01*
X40832142Y-61422000D01*
X40860714Y-61450571D01*
X40889285Y-61507714D01*
X40889285Y-61593428D01*
X40860714Y-61650571D01*
X40832142Y-61679142D01*
X40775000Y-61707714D01*
X40546428Y-61707714D01*
X41117857Y-61450571D02*
X41146428Y-61422000D01*
X41203571Y-61393428D01*
X41346428Y-61393428D01*
X41403571Y-61422000D01*
X41432142Y-61450571D01*
X41460714Y-61507714D01*
X41460714Y-61564857D01*
X41432142Y-61650571D01*
X41089285Y-61993428D01*
X41460714Y-61993428D01*
X41975000Y-61393428D02*
X41860714Y-61393428D01*
X41803571Y-61422000D01*
X41775000Y-61450571D01*
X41717857Y-61536285D01*
X41689285Y-61650571D01*
X41689285Y-61879142D01*
X41717857Y-61936285D01*
X41746428Y-61964857D01*
X41803571Y-61993428D01*
X41917857Y-61993428D01*
X41975000Y-61964857D01*
X42003571Y-61936285D01*
X42032142Y-61879142D01*
X42032142Y-61736285D01*
X42003571Y-61679142D01*
X41975000Y-61650571D01*
X41917857Y-61622000D01*
X41803571Y-61622000D01*
X41746428Y-61650571D01*
X41717857Y-61679142D01*
X41689285Y-61736285D01*
%TO.C,R25*%
X38984285Y-61993428D02*
X38784285Y-61707714D01*
X38641428Y-61993428D02*
X38641428Y-61393428D01*
X38870000Y-61393428D01*
X38927142Y-61422000D01*
X38955714Y-61450571D01*
X38984285Y-61507714D01*
X38984285Y-61593428D01*
X38955714Y-61650571D01*
X38927142Y-61679142D01*
X38870000Y-61707714D01*
X38641428Y-61707714D01*
X39212857Y-61450571D02*
X39241428Y-61422000D01*
X39298571Y-61393428D01*
X39441428Y-61393428D01*
X39498571Y-61422000D01*
X39527142Y-61450571D01*
X39555714Y-61507714D01*
X39555714Y-61564857D01*
X39527142Y-61650571D01*
X39184285Y-61993428D01*
X39555714Y-61993428D01*
X40098571Y-61393428D02*
X39812857Y-61393428D01*
X39784285Y-61679142D01*
X39812857Y-61650571D01*
X39870000Y-61622000D01*
X40012857Y-61622000D01*
X40070000Y-61650571D01*
X40098571Y-61679142D01*
X40127142Y-61736285D01*
X40127142Y-61879142D01*
X40098571Y-61936285D01*
X40070000Y-61964857D01*
X40012857Y-61993428D01*
X39870000Y-61993428D01*
X39812857Y-61964857D01*
X39784285Y-61936285D01*
%TO.C,R23*%
X47874285Y-58056428D02*
X47674285Y-57770714D01*
X47531428Y-58056428D02*
X47531428Y-57456428D01*
X47760000Y-57456428D01*
X47817142Y-57485000D01*
X47845714Y-57513571D01*
X47874285Y-57570714D01*
X47874285Y-57656428D01*
X47845714Y-57713571D01*
X47817142Y-57742142D01*
X47760000Y-57770714D01*
X47531428Y-57770714D01*
X48102857Y-57513571D02*
X48131428Y-57485000D01*
X48188571Y-57456428D01*
X48331428Y-57456428D01*
X48388571Y-57485000D01*
X48417142Y-57513571D01*
X48445714Y-57570714D01*
X48445714Y-57627857D01*
X48417142Y-57713571D01*
X48074285Y-58056428D01*
X48445714Y-58056428D01*
X48645714Y-57456428D02*
X49017142Y-57456428D01*
X48817142Y-57685000D01*
X48902857Y-57685000D01*
X48960000Y-57713571D01*
X48988571Y-57742142D01*
X49017142Y-57799285D01*
X49017142Y-57942142D01*
X48988571Y-57999285D01*
X48960000Y-58027857D01*
X48902857Y-58056428D01*
X48731428Y-58056428D01*
X48674285Y-58027857D01*
X48645714Y-57999285D01*
%TO.C,R22*%
X48382285Y-65676428D02*
X48182285Y-65390714D01*
X48039428Y-65676428D02*
X48039428Y-65076428D01*
X48268000Y-65076428D01*
X48325142Y-65105000D01*
X48353714Y-65133571D01*
X48382285Y-65190714D01*
X48382285Y-65276428D01*
X48353714Y-65333571D01*
X48325142Y-65362142D01*
X48268000Y-65390714D01*
X48039428Y-65390714D01*
X48610857Y-65133571D02*
X48639428Y-65105000D01*
X48696571Y-65076428D01*
X48839428Y-65076428D01*
X48896571Y-65105000D01*
X48925142Y-65133571D01*
X48953714Y-65190714D01*
X48953714Y-65247857D01*
X48925142Y-65333571D01*
X48582285Y-65676428D01*
X48953714Y-65676428D01*
X49182285Y-65133571D02*
X49210857Y-65105000D01*
X49268000Y-65076428D01*
X49410857Y-65076428D01*
X49468000Y-65105000D01*
X49496571Y-65133571D01*
X49525142Y-65190714D01*
X49525142Y-65247857D01*
X49496571Y-65333571D01*
X49153714Y-65676428D01*
X49525142Y-65676428D01*
%TO.C,R21*%
X48382285Y-63517428D02*
X48182285Y-63231714D01*
X48039428Y-63517428D02*
X48039428Y-62917428D01*
X48268000Y-62917428D01*
X48325142Y-62946000D01*
X48353714Y-62974571D01*
X48382285Y-63031714D01*
X48382285Y-63117428D01*
X48353714Y-63174571D01*
X48325142Y-63203142D01*
X48268000Y-63231714D01*
X48039428Y-63231714D01*
X48610857Y-62974571D02*
X48639428Y-62946000D01*
X48696571Y-62917428D01*
X48839428Y-62917428D01*
X48896571Y-62946000D01*
X48925142Y-62974571D01*
X48953714Y-63031714D01*
X48953714Y-63088857D01*
X48925142Y-63174571D01*
X48582285Y-63517428D01*
X48953714Y-63517428D01*
X49525142Y-63517428D02*
X49182285Y-63517428D01*
X49353714Y-63517428D02*
X49353714Y-62917428D01*
X49296571Y-63003142D01*
X49239428Y-63060285D01*
X49182285Y-63088857D01*
%TO.C,R20*%
X40254285Y-66311428D02*
X40054285Y-66025714D01*
X39911428Y-66311428D02*
X39911428Y-65711428D01*
X40140000Y-65711428D01*
X40197142Y-65740000D01*
X40225714Y-65768571D01*
X40254285Y-65825714D01*
X40254285Y-65911428D01*
X40225714Y-65968571D01*
X40197142Y-65997142D01*
X40140000Y-66025714D01*
X39911428Y-66025714D01*
X40482857Y-65768571D02*
X40511428Y-65740000D01*
X40568571Y-65711428D01*
X40711428Y-65711428D01*
X40768571Y-65740000D01*
X40797142Y-65768571D01*
X40825714Y-65825714D01*
X40825714Y-65882857D01*
X40797142Y-65968571D01*
X40454285Y-66311428D01*
X40825714Y-66311428D01*
X41197142Y-65711428D02*
X41254285Y-65711428D01*
X41311428Y-65740000D01*
X41340000Y-65768571D01*
X41368571Y-65825714D01*
X41397142Y-65940000D01*
X41397142Y-66082857D01*
X41368571Y-66197142D01*
X41340000Y-66254285D01*
X41311428Y-66282857D01*
X41254285Y-66311428D01*
X41197142Y-66311428D01*
X41140000Y-66282857D01*
X41111428Y-66254285D01*
X41082857Y-66197142D01*
X41054285Y-66082857D01*
X41054285Y-65940000D01*
X41082857Y-65825714D01*
X41111428Y-65768571D01*
X41140000Y-65740000D01*
X41197142Y-65711428D01*
%TO.C,R18*%
X35450428Y-39628714D02*
X35164714Y-39828714D01*
X35450428Y-39971571D02*
X34850428Y-39971571D01*
X34850428Y-39743000D01*
X34879000Y-39685857D01*
X34907571Y-39657285D01*
X34964714Y-39628714D01*
X35050428Y-39628714D01*
X35107571Y-39657285D01*
X35136142Y-39685857D01*
X35164714Y-39743000D01*
X35164714Y-39971571D01*
X35450428Y-39057285D02*
X35450428Y-39400142D01*
X35450428Y-39228714D02*
X34850428Y-39228714D01*
X34936142Y-39285857D01*
X34993285Y-39343000D01*
X35021857Y-39400142D01*
X35107571Y-38714428D02*
X35079000Y-38771571D01*
X35050428Y-38800142D01*
X34993285Y-38828714D01*
X34964714Y-38828714D01*
X34907571Y-38800142D01*
X34879000Y-38771571D01*
X34850428Y-38714428D01*
X34850428Y-38600142D01*
X34879000Y-38543000D01*
X34907571Y-38514428D01*
X34964714Y-38485857D01*
X34993285Y-38485857D01*
X35050428Y-38514428D01*
X35079000Y-38543000D01*
X35107571Y-38600142D01*
X35107571Y-38714428D01*
X35136142Y-38771571D01*
X35164714Y-38800142D01*
X35221857Y-38828714D01*
X35336142Y-38828714D01*
X35393285Y-38800142D01*
X35421857Y-38771571D01*
X35450428Y-38714428D01*
X35450428Y-38600142D01*
X35421857Y-38543000D01*
X35393285Y-38514428D01*
X35336142Y-38485857D01*
X35221857Y-38485857D01*
X35164714Y-38514428D01*
X35136142Y-38543000D01*
X35107571Y-38600142D01*
%TO.C,BATT1*%
X44762857Y-71204142D02*
X44848571Y-71232714D01*
X44877142Y-71261285D01*
X44905714Y-71318428D01*
X44905714Y-71404142D01*
X44877142Y-71461285D01*
X44848571Y-71489857D01*
X44791428Y-71518428D01*
X44562857Y-71518428D01*
X44562857Y-70918428D01*
X44762857Y-70918428D01*
X44820000Y-70947000D01*
X44848571Y-70975571D01*
X44877142Y-71032714D01*
X44877142Y-71089857D01*
X44848571Y-71147000D01*
X44820000Y-71175571D01*
X44762857Y-71204142D01*
X44562857Y-71204142D01*
X45134285Y-71347000D02*
X45420000Y-71347000D01*
X45077142Y-71518428D02*
X45277142Y-70918428D01*
X45477142Y-71518428D01*
X45591428Y-70918428D02*
X45934285Y-70918428D01*
X45762857Y-71518428D02*
X45762857Y-70918428D01*
X46048571Y-70918428D02*
X46391428Y-70918428D01*
X46220000Y-71518428D02*
X46220000Y-70918428D01*
X46905714Y-71518428D02*
X46562857Y-71518428D01*
X46734285Y-71518428D02*
X46734285Y-70918428D01*
X46677142Y-71004142D01*
X46620000Y-71061285D01*
X46562857Y-71089857D01*
%TO.C,F2*%
X40440000Y-70315142D02*
X40240000Y-70315142D01*
X40240000Y-70629428D02*
X40240000Y-70029428D01*
X40525714Y-70029428D01*
X40725714Y-70086571D02*
X40754285Y-70058000D01*
X40811428Y-70029428D01*
X40954285Y-70029428D01*
X41011428Y-70058000D01*
X41040000Y-70086571D01*
X41068571Y-70143714D01*
X41068571Y-70200857D01*
X41040000Y-70286571D01*
X40697142Y-70629428D01*
X41068571Y-70629428D01*
%TO.C,D3*%
X35450428Y-41590857D02*
X34850428Y-41590857D01*
X34850428Y-41448000D01*
X34879000Y-41362285D01*
X34936142Y-41305142D01*
X34993285Y-41276571D01*
X35107571Y-41248000D01*
X35193285Y-41248000D01*
X35307571Y-41276571D01*
X35364714Y-41305142D01*
X35421857Y-41362285D01*
X35450428Y-41448000D01*
X35450428Y-41590857D01*
X34850428Y-41048000D02*
X34850428Y-40676571D01*
X35079000Y-40876571D01*
X35079000Y-40790857D01*
X35107571Y-40733714D01*
X35136142Y-40705142D01*
X35193285Y-40676571D01*
X35336142Y-40676571D01*
X35393285Y-40705142D01*
X35421857Y-40733714D01*
X35450428Y-40790857D01*
X35450428Y-40962285D01*
X35421857Y-41019428D01*
X35393285Y-41048000D01*
%TO.C,D2*%
X35117142Y-49801428D02*
X35117142Y-49201428D01*
X35260000Y-49201428D01*
X35345714Y-49230000D01*
X35402857Y-49287142D01*
X35431428Y-49344285D01*
X35460000Y-49458571D01*
X35460000Y-49544285D01*
X35431428Y-49658571D01*
X35402857Y-49715714D01*
X35345714Y-49772857D01*
X35260000Y-49801428D01*
X35117142Y-49801428D01*
X35688571Y-49258571D02*
X35717142Y-49230000D01*
X35774285Y-49201428D01*
X35917142Y-49201428D01*
X35974285Y-49230000D01*
X36002857Y-49258571D01*
X36031428Y-49315714D01*
X36031428Y-49372857D01*
X36002857Y-49458571D01*
X35660000Y-49801428D01*
X36031428Y-49801428D01*
%TO.C,D1*%
X35117142Y-47388428D02*
X35117142Y-46788428D01*
X35260000Y-46788428D01*
X35345714Y-46817000D01*
X35402857Y-46874142D01*
X35431428Y-46931285D01*
X35460000Y-47045571D01*
X35460000Y-47131285D01*
X35431428Y-47245571D01*
X35402857Y-47302714D01*
X35345714Y-47359857D01*
X35260000Y-47388428D01*
X35117142Y-47388428D01*
X36031428Y-47388428D02*
X35688571Y-47388428D01*
X35860000Y-47388428D02*
X35860000Y-46788428D01*
X35802857Y-46874142D01*
X35745714Y-46931285D01*
X35688571Y-46959857D01*
%TO.C,C18*%
X46604285Y-64984285D02*
X46575714Y-65012857D01*
X46490000Y-65041428D01*
X46432857Y-65041428D01*
X46347142Y-65012857D01*
X46290000Y-64955714D01*
X46261428Y-64898571D01*
X46232857Y-64784285D01*
X46232857Y-64698571D01*
X46261428Y-64584285D01*
X46290000Y-64527142D01*
X46347142Y-64470000D01*
X46432857Y-64441428D01*
X46490000Y-64441428D01*
X46575714Y-64470000D01*
X46604285Y-64498571D01*
X47175714Y-65041428D02*
X46832857Y-65041428D01*
X47004285Y-65041428D02*
X47004285Y-64441428D01*
X46947142Y-64527142D01*
X46890000Y-64584285D01*
X46832857Y-64612857D01*
X47518571Y-64698571D02*
X47461428Y-64670000D01*
X47432857Y-64641428D01*
X47404285Y-64584285D01*
X47404285Y-64555714D01*
X47432857Y-64498571D01*
X47461428Y-64470000D01*
X47518571Y-64441428D01*
X47632857Y-64441428D01*
X47690000Y-64470000D01*
X47718571Y-64498571D01*
X47747142Y-64555714D01*
X47747142Y-64584285D01*
X47718571Y-64641428D01*
X47690000Y-64670000D01*
X47632857Y-64698571D01*
X47518571Y-64698571D01*
X47461428Y-64727142D01*
X47432857Y-64755714D01*
X47404285Y-64812857D01*
X47404285Y-64927142D01*
X47432857Y-64984285D01*
X47461428Y-65012857D01*
X47518571Y-65041428D01*
X47632857Y-65041428D01*
X47690000Y-65012857D01*
X47718571Y-64984285D01*
X47747142Y-64927142D01*
X47747142Y-64812857D01*
X47718571Y-64755714D01*
X47690000Y-64727142D01*
X47632857Y-64698571D01*
%TO.C,C9*%
X45620000Y-49871285D02*
X45591428Y-49899857D01*
X45505714Y-49928428D01*
X45448571Y-49928428D01*
X45362857Y-49899857D01*
X45305714Y-49842714D01*
X45277142Y-49785571D01*
X45248571Y-49671285D01*
X45248571Y-49585571D01*
X45277142Y-49471285D01*
X45305714Y-49414142D01*
X45362857Y-49357000D01*
X45448571Y-49328428D01*
X45505714Y-49328428D01*
X45591428Y-49357000D01*
X45620000Y-49385571D01*
X45905714Y-49928428D02*
X46020000Y-49928428D01*
X46077142Y-49899857D01*
X46105714Y-49871285D01*
X46162857Y-49785571D01*
X46191428Y-49671285D01*
X46191428Y-49442714D01*
X46162857Y-49385571D01*
X46134285Y-49357000D01*
X46077142Y-49328428D01*
X45962857Y-49328428D01*
X45905714Y-49357000D01*
X45877142Y-49385571D01*
X45848571Y-49442714D01*
X45848571Y-49585571D01*
X45877142Y-49642714D01*
X45905714Y-49671285D01*
X45962857Y-49699857D01*
X46077142Y-49699857D01*
X46134285Y-49671285D01*
X46162857Y-49642714D01*
X46191428Y-49585571D01*
%TO.C,C4*%
X34952000Y-55205285D02*
X34923428Y-55233857D01*
X34837714Y-55262428D01*
X34780571Y-55262428D01*
X34694857Y-55233857D01*
X34637714Y-55176714D01*
X34609142Y-55119571D01*
X34580571Y-55005285D01*
X34580571Y-54919571D01*
X34609142Y-54805285D01*
X34637714Y-54748142D01*
X34694857Y-54691000D01*
X34780571Y-54662428D01*
X34837714Y-54662428D01*
X34923428Y-54691000D01*
X34952000Y-54719571D01*
X35466285Y-54862428D02*
X35466285Y-55262428D01*
X35323428Y-54633857D02*
X35180571Y-55062428D01*
X35552000Y-55062428D01*
%TO.C,C1*%
X46636000Y-63079285D02*
X46607428Y-63107857D01*
X46521714Y-63136428D01*
X46464571Y-63136428D01*
X46378857Y-63107857D01*
X46321714Y-63050714D01*
X46293142Y-62993571D01*
X46264571Y-62879285D01*
X46264571Y-62793571D01*
X46293142Y-62679285D01*
X46321714Y-62622142D01*
X46378857Y-62565000D01*
X46464571Y-62536428D01*
X46521714Y-62536428D01*
X46607428Y-62565000D01*
X46636000Y-62593571D01*
X47207428Y-63136428D02*
X46864571Y-63136428D01*
X47036000Y-63136428D02*
X47036000Y-62536428D01*
X46978857Y-62622142D01*
X46921714Y-62679285D01*
X46864571Y-62707857D01*
%TD*%
M02*
