%TF.GenerationSoftware,KiCad,Pcbnew,5.1.9-73d0e3b20d~88~ubuntu20.04.1*%
%TF.CreationDate,2021-03-24T22:28:27+08:00*%
%TF.ProjectId,elec-remote,656c6563-2d72-4656-9d6f-74652e6b6963,rev?*%
%TF.SameCoordinates,Original*%
%TF.FileFunction,Copper,L1,Top*%
%TF.FilePolarity,Positive*%
%FSLAX46Y46*%
G04 Gerber Fmt 4.6, Leading zero omitted, Abs format (unit mm)*
G04 Created by KiCad (PCBNEW 5.1.9-73d0e3b20d~88~ubuntu20.04.1) date 2021-03-24 22:28:27*
%MOMM*%
%LPD*%
G01*
G04 APERTURE LIST*
%TA.AperFunction,SMDPad,CuDef*%
%ADD10R,1.500000X1.000000*%
%TD*%
%TA.AperFunction,ComponentPad*%
%ADD11C,5.600000*%
%TD*%
%TA.AperFunction,ComponentPad*%
%ADD12O,1.700000X1.700000*%
%TD*%
%TA.AperFunction,ComponentPad*%
%ADD13R,1.700000X1.700000*%
%TD*%
%TA.AperFunction,ComponentPad*%
%ADD14O,1.350000X1.350000*%
%TD*%
%TA.AperFunction,ComponentPad*%
%ADD15R,1.350000X1.350000*%
%TD*%
%TA.AperFunction,ComponentPad*%
%ADD16O,2.190000X1.740000*%
%TD*%
%TA.AperFunction,SMDPad,CuDef*%
%ADD17R,1.700000X0.900000*%
%TD*%
%TA.AperFunction,SMDPad,CuDef*%
%ADD18R,1.500000X2.000000*%
%TD*%
%TA.AperFunction,SMDPad,CuDef*%
%ADD19R,3.800000X2.000000*%
%TD*%
%TA.AperFunction,SMDPad,CuDef*%
%ADD20R,1.060000X0.650000*%
%TD*%
%TA.AperFunction,SMDPad,CuDef*%
%ADD21R,1.600000X2.180000*%
%TD*%
%TA.AperFunction,ComponentPad*%
%ADD22O,1.740000X2.190000*%
%TD*%
%TA.AperFunction,ComponentPad*%
%ADD23O,1.900000X1.200000*%
%TD*%
%TA.AperFunction,ComponentPad*%
%ADD24C,1.450000*%
%TD*%
%TA.AperFunction,ComponentPad*%
%ADD25C,1.800000*%
%TD*%
%TA.AperFunction,ComponentPad*%
%ADD26R,1.800000X1.800000*%
%TD*%
%TA.AperFunction,ViaPad*%
%ADD27C,0.600000*%
%TD*%
%TA.AperFunction,ViaPad*%
%ADD28C,0.800000*%
%TD*%
%TA.AperFunction,Conductor*%
%ADD29C,0.381000*%
%TD*%
%TA.AperFunction,Conductor*%
%ADD30C,0.250000*%
%TD*%
G04 APERTURE END LIST*
D10*
%TO.P,D5,1*%
%TO.N,+BATT*%
X39460000Y-28880000D03*
%TO.P,D5,2*%
%TO.N,N/C*%
X39460000Y-32080000D03*
%TO.P,D5,4*%
%TO.N,/WS2812*%
X44360000Y-28880000D03*
%TO.P,D5,3*%
%TO.N,GND*%
X44360000Y-32080000D03*
%TD*%
D11*
%TO.P,H3,1*%
%TO.N,GND*%
X33528000Y-28448000D03*
%TD*%
D12*
%TO.P,JBT1,4*%
%TO.N,/TX*%
X45720000Y-39370000D03*
%TO.P,JBT1,3*%
%TO.N,/RX*%
X43180000Y-39370000D03*
%TO.P,JBT1,2*%
%TO.N,GND*%
X40640000Y-39370000D03*
D13*
%TO.P,JBT1,1*%
%TO.N,+3V3*%
X38100000Y-39370000D03*
%TD*%
D11*
%TO.P,H1,1*%
%TO.N,GND*%
X50292000Y-28448000D03*
%TD*%
D14*
%TO.P,TOP1,2*%
%TO.N,GND*%
X52070000Y-33560000D03*
D15*
%TO.P,TOP1,1*%
%TO.N,/TOP*%
X52070000Y-35560000D03*
%TD*%
D16*
%TO.P,DEBUG1,3*%
%TO.N,GND*%
X50800000Y-38100000D03*
%TO.P,DEBUG1,2*%
%TO.N,/SWIM*%
X50800000Y-40640000D03*
%TO.P,DEBUG1,1*%
%TO.N,/NRST*%
%TA.AperFunction,ComponentPad*%
G36*
G01*
X51645001Y-44050000D02*
X49954999Y-44050000D01*
G75*
G02*
X49705000Y-43800001I0J249999D01*
G01*
X49705000Y-42559999D01*
G75*
G02*
X49954999Y-42310000I249999J0D01*
G01*
X51645001Y-42310000D01*
G75*
G02*
X51895000Y-42559999I0J-249999D01*
G01*
X51895000Y-43800001D01*
G75*
G02*
X51645001Y-44050000I-249999J0D01*
G01*
G37*
%TD.AperFunction*%
%TD*%
D14*
%TO.P,BEEPER1,2*%
%TO.N,GND*%
X52070000Y-60960000D03*
D15*
%TO.P,BEEPER1,1*%
%TO.N,Net-(BEEPER1-Pad1)*%
X52070000Y-58960000D03*
%TD*%
D17*
%TO.P,SIDE1,2*%
%TO.N,GND*%
X33020000Y-33860000D03*
%TO.P,SIDE1,1*%
%TO.N,/SIDE*%
X33020000Y-37260000D03*
%TD*%
D12*
%TO.P,LCD1,4*%
%TO.N,/SDA*%
X45720000Y-35560000D03*
%TO.P,LCD1,3*%
%TO.N,/SCL*%
X43180000Y-35560000D03*
%TO.P,LCD1,2*%
%TO.N,+3V3*%
X40640000Y-35560000D03*
D13*
%TO.P,LCD1,1*%
%TO.N,GND*%
X38100000Y-35560000D03*
%TD*%
%TO.P,U6,8*%
%TO.N,+3V3*%
%TA.AperFunction,SMDPad,CuDef*%
G36*
G01*
X43665000Y-50060000D02*
X43965000Y-50060000D01*
G75*
G02*
X44115000Y-50210000I0J-150000D01*
G01*
X44115000Y-51560000D01*
G75*
G02*
X43965000Y-51710000I-150000J0D01*
G01*
X43665000Y-51710000D01*
G75*
G02*
X43515000Y-51560000I0J150000D01*
G01*
X43515000Y-50210000D01*
G75*
G02*
X43665000Y-50060000I150000J0D01*
G01*
G37*
%TD.AperFunction*%
%TO.P,U6,7*%
%TO.N,GND*%
%TA.AperFunction,SMDPad,CuDef*%
G36*
G01*
X42395000Y-50060000D02*
X42695000Y-50060000D01*
G75*
G02*
X42845000Y-50210000I0J-150000D01*
G01*
X42845000Y-51560000D01*
G75*
G02*
X42695000Y-51710000I-150000J0D01*
G01*
X42395000Y-51710000D01*
G75*
G02*
X42245000Y-51560000I0J150000D01*
G01*
X42245000Y-50210000D01*
G75*
G02*
X42395000Y-50060000I150000J0D01*
G01*
G37*
%TD.AperFunction*%
%TO.P,U6,6*%
%TO.N,/SCL*%
%TA.AperFunction,SMDPad,CuDef*%
G36*
G01*
X41125000Y-50060000D02*
X41425000Y-50060000D01*
G75*
G02*
X41575000Y-50210000I0J-150000D01*
G01*
X41575000Y-51560000D01*
G75*
G02*
X41425000Y-51710000I-150000J0D01*
G01*
X41125000Y-51710000D01*
G75*
G02*
X40975000Y-51560000I0J150000D01*
G01*
X40975000Y-50210000D01*
G75*
G02*
X41125000Y-50060000I150000J0D01*
G01*
G37*
%TD.AperFunction*%
%TO.P,U6,5*%
%TO.N,/SDA*%
%TA.AperFunction,SMDPad,CuDef*%
G36*
G01*
X39855000Y-50060000D02*
X40155000Y-50060000D01*
G75*
G02*
X40305000Y-50210000I0J-150000D01*
G01*
X40305000Y-51560000D01*
G75*
G02*
X40155000Y-51710000I-150000J0D01*
G01*
X39855000Y-51710000D01*
G75*
G02*
X39705000Y-51560000I0J150000D01*
G01*
X39705000Y-50210000D01*
G75*
G02*
X39855000Y-50060000I150000J0D01*
G01*
G37*
%TD.AperFunction*%
%TO.P,U6,4*%
%TO.N,GND*%
%TA.AperFunction,SMDPad,CuDef*%
G36*
G01*
X39855000Y-44810000D02*
X40155000Y-44810000D01*
G75*
G02*
X40305000Y-44960000I0J-150000D01*
G01*
X40305000Y-46310000D01*
G75*
G02*
X40155000Y-46460000I-150000J0D01*
G01*
X39855000Y-46460000D01*
G75*
G02*
X39705000Y-46310000I0J150000D01*
G01*
X39705000Y-44960000D01*
G75*
G02*
X39855000Y-44810000I150000J0D01*
G01*
G37*
%TD.AperFunction*%
%TO.P,U6,3*%
%TA.AperFunction,SMDPad,CuDef*%
G36*
G01*
X41125000Y-44810000D02*
X41425000Y-44810000D01*
G75*
G02*
X41575000Y-44960000I0J-150000D01*
G01*
X41575000Y-46310000D01*
G75*
G02*
X41425000Y-46460000I-150000J0D01*
G01*
X41125000Y-46460000D01*
G75*
G02*
X40975000Y-46310000I0J150000D01*
G01*
X40975000Y-44960000D01*
G75*
G02*
X41125000Y-44810000I150000J0D01*
G01*
G37*
%TD.AperFunction*%
%TO.P,U6,2*%
%TA.AperFunction,SMDPad,CuDef*%
G36*
G01*
X42395000Y-44810000D02*
X42695000Y-44810000D01*
G75*
G02*
X42845000Y-44960000I0J-150000D01*
G01*
X42845000Y-46310000D01*
G75*
G02*
X42695000Y-46460000I-150000J0D01*
G01*
X42395000Y-46460000D01*
G75*
G02*
X42245000Y-46310000I0J150000D01*
G01*
X42245000Y-44960000D01*
G75*
G02*
X42395000Y-44810000I150000J0D01*
G01*
G37*
%TD.AperFunction*%
%TO.P,U6,1*%
%TA.AperFunction,SMDPad,CuDef*%
G36*
G01*
X43665000Y-44810000D02*
X43965000Y-44810000D01*
G75*
G02*
X44115000Y-44960000I0J-150000D01*
G01*
X44115000Y-46310000D01*
G75*
G02*
X43965000Y-46460000I-150000J0D01*
G01*
X43665000Y-46460000D01*
G75*
G02*
X43515000Y-46310000I0J150000D01*
G01*
X43515000Y-44960000D01*
G75*
G02*
X43665000Y-44810000I150000J0D01*
G01*
G37*
%TD.AperFunction*%
%TD*%
D18*
%TO.P,U5,1*%
%TO.N,GND*%
X32244000Y-72238000D03*
%TO.P,U5,3*%
%TO.N,+BATT*%
X36844000Y-72238000D03*
%TO.P,U5,2*%
%TO.N,+3V3*%
X34544000Y-72238000D03*
D19*
X34544000Y-65938000D03*
%TD*%
D20*
%TO.P,U4,5*%
%TO.N,Net-(R20-Pad1)*%
X43350000Y-68895000D03*
%TO.P,U4,4*%
%TO.N,+5V*%
X43350000Y-66995000D03*
%TO.P,U4,3*%
%TO.N,+BATT*%
X45550000Y-66995000D03*
%TO.P,U4,2*%
%TO.N,GND*%
X45550000Y-67945000D03*
%TO.P,U4,1*%
%TO.N,Net-(R21-Pad2)*%
X45550000Y-68895000D03*
%TD*%
%TO.P,U3,20*%
%TO.N,/BATT*%
%TA.AperFunction,SMDPad,CuDef*%
G36*
G01*
X39785000Y-59975000D02*
X39785000Y-60175000D01*
G75*
G02*
X39685000Y-60275000I-100000J0D01*
G01*
X38410000Y-60275000D01*
G75*
G02*
X38310000Y-60175000I0J100000D01*
G01*
X38310000Y-59975000D01*
G75*
G02*
X38410000Y-59875000I100000J0D01*
G01*
X39685000Y-59875000D01*
G75*
G02*
X39785000Y-59975000I0J-100000D01*
G01*
G37*
%TD.AperFunction*%
%TO.P,U3,19*%
%TO.N,/IR*%
%TA.AperFunction,SMDPad,CuDef*%
G36*
G01*
X39785000Y-59325000D02*
X39785000Y-59525000D01*
G75*
G02*
X39685000Y-59625000I-100000J0D01*
G01*
X38410000Y-59625000D01*
G75*
G02*
X38310000Y-59525000I0J100000D01*
G01*
X38310000Y-59325000D01*
G75*
G02*
X38410000Y-59225000I100000J0D01*
G01*
X39685000Y-59225000D01*
G75*
G02*
X39785000Y-59325000I0J-100000D01*
G01*
G37*
%TD.AperFunction*%
%TO.P,U3,18*%
%TO.N,/SWIM*%
%TA.AperFunction,SMDPad,CuDef*%
G36*
G01*
X39785000Y-58675000D02*
X39785000Y-58875000D01*
G75*
G02*
X39685000Y-58975000I-100000J0D01*
G01*
X38410000Y-58975000D01*
G75*
G02*
X38310000Y-58875000I0J100000D01*
G01*
X38310000Y-58675000D01*
G75*
G02*
X38410000Y-58575000I100000J0D01*
G01*
X39685000Y-58575000D01*
G75*
G02*
X39785000Y-58675000I0J-100000D01*
G01*
G37*
%TD.AperFunction*%
%TO.P,U3,17*%
%TO.N,/LED0*%
%TA.AperFunction,SMDPad,CuDef*%
G36*
G01*
X39785000Y-58025000D02*
X39785000Y-58225000D01*
G75*
G02*
X39685000Y-58325000I-100000J0D01*
G01*
X38410000Y-58325000D01*
G75*
G02*
X38310000Y-58225000I0J100000D01*
G01*
X38310000Y-58025000D01*
G75*
G02*
X38410000Y-57925000I100000J0D01*
G01*
X39685000Y-57925000D01*
G75*
G02*
X39785000Y-58025000I0J-100000D01*
G01*
G37*
%TD.AperFunction*%
%TO.P,U3,16*%
%TO.N,/WS2812*%
%TA.AperFunction,SMDPad,CuDef*%
G36*
G01*
X39785000Y-57375000D02*
X39785000Y-57575000D01*
G75*
G02*
X39685000Y-57675000I-100000J0D01*
G01*
X38410000Y-57675000D01*
G75*
G02*
X38310000Y-57575000I0J100000D01*
G01*
X38310000Y-57375000D01*
G75*
G02*
X38410000Y-57275000I100000J0D01*
G01*
X39685000Y-57275000D01*
G75*
G02*
X39785000Y-57375000I0J-100000D01*
G01*
G37*
%TD.AperFunction*%
%TO.P,U3,15*%
%TO.N,N/C*%
%TA.AperFunction,SMDPad,CuDef*%
G36*
G01*
X39785000Y-56725000D02*
X39785000Y-56925000D01*
G75*
G02*
X39685000Y-57025000I-100000J0D01*
G01*
X38410000Y-57025000D01*
G75*
G02*
X38310000Y-56925000I0J100000D01*
G01*
X38310000Y-56725000D01*
G75*
G02*
X38410000Y-56625000I100000J0D01*
G01*
X39685000Y-56625000D01*
G75*
G02*
X39785000Y-56725000I0J-100000D01*
G01*
G37*
%TD.AperFunction*%
%TO.P,U3,14*%
%TA.AperFunction,SMDPad,CuDef*%
G36*
G01*
X39785000Y-56075000D02*
X39785000Y-56275000D01*
G75*
G02*
X39685000Y-56375000I-100000J0D01*
G01*
X38410000Y-56375000D01*
G75*
G02*
X38310000Y-56275000I0J100000D01*
G01*
X38310000Y-56075000D01*
G75*
G02*
X38410000Y-55975000I100000J0D01*
G01*
X39685000Y-55975000D01*
G75*
G02*
X39785000Y-56075000I0J-100000D01*
G01*
G37*
%TD.AperFunction*%
%TO.P,U3,13*%
%TA.AperFunction,SMDPad,CuDef*%
G36*
G01*
X39785000Y-55425000D02*
X39785000Y-55625000D01*
G75*
G02*
X39685000Y-55725000I-100000J0D01*
G01*
X38410000Y-55725000D01*
G75*
G02*
X38310000Y-55625000I0J100000D01*
G01*
X38310000Y-55425000D01*
G75*
G02*
X38410000Y-55325000I100000J0D01*
G01*
X39685000Y-55325000D01*
G75*
G02*
X39785000Y-55425000I0J-100000D01*
G01*
G37*
%TD.AperFunction*%
%TO.P,U3,12*%
%TO.N,/SCL*%
%TA.AperFunction,SMDPad,CuDef*%
G36*
G01*
X39785000Y-54775000D02*
X39785000Y-54975000D01*
G75*
G02*
X39685000Y-55075000I-100000J0D01*
G01*
X38410000Y-55075000D01*
G75*
G02*
X38310000Y-54975000I0J100000D01*
G01*
X38310000Y-54775000D01*
G75*
G02*
X38410000Y-54675000I100000J0D01*
G01*
X39685000Y-54675000D01*
G75*
G02*
X39785000Y-54775000I0J-100000D01*
G01*
G37*
%TD.AperFunction*%
%TO.P,U3,11*%
%TO.N,/SDA*%
%TA.AperFunction,SMDPad,CuDef*%
G36*
G01*
X39785000Y-54125000D02*
X39785000Y-54325000D01*
G75*
G02*
X39685000Y-54425000I-100000J0D01*
G01*
X38410000Y-54425000D01*
G75*
G02*
X38310000Y-54325000I0J100000D01*
G01*
X38310000Y-54125000D01*
G75*
G02*
X38410000Y-54025000I100000J0D01*
G01*
X39685000Y-54025000D01*
G75*
G02*
X39785000Y-54125000I0J-100000D01*
G01*
G37*
%TD.AperFunction*%
%TO.P,U3,10*%
%TO.N,/SIDE*%
%TA.AperFunction,SMDPad,CuDef*%
G36*
G01*
X45510000Y-54125000D02*
X45510000Y-54325000D01*
G75*
G02*
X45410000Y-54425000I-100000J0D01*
G01*
X44135000Y-54425000D01*
G75*
G02*
X44035000Y-54325000I0J100000D01*
G01*
X44035000Y-54125000D01*
G75*
G02*
X44135000Y-54025000I100000J0D01*
G01*
X45410000Y-54025000D01*
G75*
G02*
X45510000Y-54125000I0J-100000D01*
G01*
G37*
%TD.AperFunction*%
%TO.P,U3,9*%
%TO.N,+3V3*%
%TA.AperFunction,SMDPad,CuDef*%
G36*
G01*
X45510000Y-54775000D02*
X45510000Y-54975000D01*
G75*
G02*
X45410000Y-55075000I-100000J0D01*
G01*
X44135000Y-55075000D01*
G75*
G02*
X44035000Y-54975000I0J100000D01*
G01*
X44035000Y-54775000D01*
G75*
G02*
X44135000Y-54675000I100000J0D01*
G01*
X45410000Y-54675000D01*
G75*
G02*
X45510000Y-54775000I0J-100000D01*
G01*
G37*
%TD.AperFunction*%
%TO.P,U3,8*%
%TO.N,Net-(C16-Pad2)*%
%TA.AperFunction,SMDPad,CuDef*%
G36*
G01*
X45510000Y-55425000D02*
X45510000Y-55625000D01*
G75*
G02*
X45410000Y-55725000I-100000J0D01*
G01*
X44135000Y-55725000D01*
G75*
G02*
X44035000Y-55625000I0J100000D01*
G01*
X44035000Y-55425000D01*
G75*
G02*
X44135000Y-55325000I100000J0D01*
G01*
X45410000Y-55325000D01*
G75*
G02*
X45510000Y-55425000I0J-100000D01*
G01*
G37*
%TD.AperFunction*%
%TO.P,U3,7*%
%TO.N,GND*%
%TA.AperFunction,SMDPad,CuDef*%
G36*
G01*
X45510000Y-56075000D02*
X45510000Y-56275000D01*
G75*
G02*
X45410000Y-56375000I-100000J0D01*
G01*
X44135000Y-56375000D01*
G75*
G02*
X44035000Y-56275000I0J100000D01*
G01*
X44035000Y-56075000D01*
G75*
G02*
X44135000Y-55975000I100000J0D01*
G01*
X45410000Y-55975000D01*
G75*
G02*
X45510000Y-56075000I0J-100000D01*
G01*
G37*
%TD.AperFunction*%
%TO.P,U3,6*%
%TO.N,N/C*%
%TA.AperFunction,SMDPad,CuDef*%
G36*
G01*
X45510000Y-56725000D02*
X45510000Y-56925000D01*
G75*
G02*
X45410000Y-57025000I-100000J0D01*
G01*
X44135000Y-57025000D01*
G75*
G02*
X44035000Y-56925000I0J100000D01*
G01*
X44035000Y-56725000D01*
G75*
G02*
X44135000Y-56625000I100000J0D01*
G01*
X45410000Y-56625000D01*
G75*
G02*
X45510000Y-56725000I0J-100000D01*
G01*
G37*
%TD.AperFunction*%
%TO.P,U3,5*%
%TO.N,/TOP*%
%TA.AperFunction,SMDPad,CuDef*%
G36*
G01*
X45510000Y-57375000D02*
X45510000Y-57575000D01*
G75*
G02*
X45410000Y-57675000I-100000J0D01*
G01*
X44135000Y-57675000D01*
G75*
G02*
X44035000Y-57575000I0J100000D01*
G01*
X44035000Y-57375000D01*
G75*
G02*
X44135000Y-57275000I100000J0D01*
G01*
X45410000Y-57275000D01*
G75*
G02*
X45510000Y-57375000I0J-100000D01*
G01*
G37*
%TD.AperFunction*%
%TO.P,U3,4*%
%TO.N,/NRST*%
%TA.AperFunction,SMDPad,CuDef*%
G36*
G01*
X45510000Y-58025000D02*
X45510000Y-58225000D01*
G75*
G02*
X45410000Y-58325000I-100000J0D01*
G01*
X44135000Y-58325000D01*
G75*
G02*
X44035000Y-58225000I0J100000D01*
G01*
X44035000Y-58025000D01*
G75*
G02*
X44135000Y-57925000I100000J0D01*
G01*
X45410000Y-57925000D01*
G75*
G02*
X45510000Y-58025000I0J-100000D01*
G01*
G37*
%TD.AperFunction*%
%TO.P,U3,3*%
%TO.N,/RX*%
%TA.AperFunction,SMDPad,CuDef*%
G36*
G01*
X45510000Y-58675000D02*
X45510000Y-58875000D01*
G75*
G02*
X45410000Y-58975000I-100000J0D01*
G01*
X44135000Y-58975000D01*
G75*
G02*
X44035000Y-58875000I0J100000D01*
G01*
X44035000Y-58675000D01*
G75*
G02*
X44135000Y-58575000I100000J0D01*
G01*
X45410000Y-58575000D01*
G75*
G02*
X45510000Y-58675000I0J-100000D01*
G01*
G37*
%TD.AperFunction*%
%TO.P,U3,2*%
%TO.N,/TX*%
%TA.AperFunction,SMDPad,CuDef*%
G36*
G01*
X45510000Y-59325000D02*
X45510000Y-59525000D01*
G75*
G02*
X45410000Y-59625000I-100000J0D01*
G01*
X44135000Y-59625000D01*
G75*
G02*
X44035000Y-59525000I0J100000D01*
G01*
X44035000Y-59325000D01*
G75*
G02*
X44135000Y-59225000I100000J0D01*
G01*
X45410000Y-59225000D01*
G75*
G02*
X45510000Y-59325000I0J-100000D01*
G01*
G37*
%TD.AperFunction*%
%TO.P,U3,1*%
%TO.N,/BEEP*%
%TA.AperFunction,SMDPad,CuDef*%
G36*
G01*
X45510000Y-59975000D02*
X45510000Y-60175000D01*
G75*
G02*
X45410000Y-60275000I-100000J0D01*
G01*
X44135000Y-60275000D01*
G75*
G02*
X44035000Y-60175000I0J100000D01*
G01*
X44035000Y-59975000D01*
G75*
G02*
X44135000Y-59875000I100000J0D01*
G01*
X45410000Y-59875000D01*
G75*
G02*
X45510000Y-59975000I0J-100000D01*
G01*
G37*
%TD.AperFunction*%
%TD*%
%TO.P,U1,8*%
%TO.N,+3V3*%
%TA.AperFunction,SMDPad,CuDef*%
G36*
G01*
X35410000Y-60855000D02*
X35710000Y-60855000D01*
G75*
G02*
X35860000Y-61005000I0J-150000D01*
G01*
X35860000Y-62355000D01*
G75*
G02*
X35710000Y-62505000I-150000J0D01*
G01*
X35410000Y-62505000D01*
G75*
G02*
X35260000Y-62355000I0J150000D01*
G01*
X35260000Y-61005000D01*
G75*
G02*
X35410000Y-60855000I150000J0D01*
G01*
G37*
%TD.AperFunction*%
%TO.P,U1,7*%
%TO.N,Net-(C13-Pad1)*%
%TA.AperFunction,SMDPad,CuDef*%
G36*
G01*
X34140000Y-60855000D02*
X34440000Y-60855000D01*
G75*
G02*
X34590000Y-61005000I0J-150000D01*
G01*
X34590000Y-62355000D01*
G75*
G02*
X34440000Y-62505000I-150000J0D01*
G01*
X34140000Y-62505000D01*
G75*
G02*
X33990000Y-62355000I0J150000D01*
G01*
X33990000Y-61005000D01*
G75*
G02*
X34140000Y-60855000I150000J0D01*
G01*
G37*
%TD.AperFunction*%
%TO.P,U1,6*%
%TO.N,Net-(C13-Pad2)*%
%TA.AperFunction,SMDPad,CuDef*%
G36*
G01*
X32870000Y-60855000D02*
X33170000Y-60855000D01*
G75*
G02*
X33320000Y-61005000I0J-150000D01*
G01*
X33320000Y-62355000D01*
G75*
G02*
X33170000Y-62505000I-150000J0D01*
G01*
X32870000Y-62505000D01*
G75*
G02*
X32720000Y-62355000I0J150000D01*
G01*
X32720000Y-61005000D01*
G75*
G02*
X32870000Y-60855000I150000J0D01*
G01*
G37*
%TD.AperFunction*%
%TO.P,U1,5*%
%TO.N,Net-(C11-Pad1)*%
%TA.AperFunction,SMDPad,CuDef*%
G36*
G01*
X31600000Y-60855000D02*
X31900000Y-60855000D01*
G75*
G02*
X32050000Y-61005000I0J-150000D01*
G01*
X32050000Y-62355000D01*
G75*
G02*
X31900000Y-62505000I-150000J0D01*
G01*
X31600000Y-62505000D01*
G75*
G02*
X31450000Y-62355000I0J150000D01*
G01*
X31450000Y-61005000D01*
G75*
G02*
X31600000Y-60855000I150000J0D01*
G01*
G37*
%TD.AperFunction*%
%TO.P,U1,4*%
%TO.N,GND*%
%TA.AperFunction,SMDPad,CuDef*%
G36*
G01*
X31600000Y-55605000D02*
X31900000Y-55605000D01*
G75*
G02*
X32050000Y-55755000I0J-150000D01*
G01*
X32050000Y-57105000D01*
G75*
G02*
X31900000Y-57255000I-150000J0D01*
G01*
X31600000Y-57255000D01*
G75*
G02*
X31450000Y-57105000I0J150000D01*
G01*
X31450000Y-55755000D01*
G75*
G02*
X31600000Y-55605000I150000J0D01*
G01*
G37*
%TD.AperFunction*%
%TO.P,U1,3*%
%TO.N,Net-(C4-Pad1)*%
%TA.AperFunction,SMDPad,CuDef*%
G36*
G01*
X32870000Y-55605000D02*
X33170000Y-55605000D01*
G75*
G02*
X33320000Y-55755000I0J-150000D01*
G01*
X33320000Y-57105000D01*
G75*
G02*
X33170000Y-57255000I-150000J0D01*
G01*
X32870000Y-57255000D01*
G75*
G02*
X32720000Y-57105000I0J150000D01*
G01*
X32720000Y-55755000D01*
G75*
G02*
X32870000Y-55605000I150000J0D01*
G01*
G37*
%TD.AperFunction*%
%TO.P,U1,2*%
%TO.N,Net-(C8-Pad2)*%
%TA.AperFunction,SMDPad,CuDef*%
G36*
G01*
X34140000Y-55605000D02*
X34440000Y-55605000D01*
G75*
G02*
X34590000Y-55755000I0J-150000D01*
G01*
X34590000Y-57105000D01*
G75*
G02*
X34440000Y-57255000I-150000J0D01*
G01*
X34140000Y-57255000D01*
G75*
G02*
X33990000Y-57105000I0J150000D01*
G01*
X33990000Y-55755000D01*
G75*
G02*
X34140000Y-55605000I150000J0D01*
G01*
G37*
%TD.AperFunction*%
%TO.P,U1,1*%
%TO.N,Net-(C11-Pad2)*%
%TA.AperFunction,SMDPad,CuDef*%
G36*
G01*
X35410000Y-55605000D02*
X35710000Y-55605000D01*
G75*
G02*
X35860000Y-55755000I0J-150000D01*
G01*
X35860000Y-57105000D01*
G75*
G02*
X35710000Y-57255000I-150000J0D01*
G01*
X35410000Y-57255000D01*
G75*
G02*
X35260000Y-57105000I0J150000D01*
G01*
X35260000Y-55755000D01*
G75*
G02*
X35410000Y-55605000I150000J0D01*
G01*
G37*
%TD.AperFunction*%
%TD*%
D21*
%TO.P,RESET1,2*%
%TO.N,GND*%
X50800000Y-46210000D03*
%TO.P,RESET1,1*%
%TO.N,/NRST*%
X50800000Y-55390000D03*
%TD*%
%TO.P,R26,2*%
%TO.N,/BATT*%
%TA.AperFunction,SMDPad,CuDef*%
G36*
G01*
X41725002Y-63457500D02*
X40824998Y-63457500D01*
G75*
G02*
X40575000Y-63207502I0J249998D01*
G01*
X40575000Y-62682498D01*
G75*
G02*
X40824998Y-62432500I249998J0D01*
G01*
X41725002Y-62432500D01*
G75*
G02*
X41975000Y-62682498I0J-249998D01*
G01*
X41975000Y-63207502D01*
G75*
G02*
X41725002Y-63457500I-249998J0D01*
G01*
G37*
%TD.AperFunction*%
%TO.P,R26,1*%
%TO.N,GND*%
%TA.AperFunction,SMDPad,CuDef*%
G36*
G01*
X41725002Y-65282500D02*
X40824998Y-65282500D01*
G75*
G02*
X40575000Y-65032502I0J249998D01*
G01*
X40575000Y-64507498D01*
G75*
G02*
X40824998Y-64257500I249998J0D01*
G01*
X41725002Y-64257500D01*
G75*
G02*
X41975000Y-64507498I0J-249998D01*
G01*
X41975000Y-65032502D01*
G75*
G02*
X41725002Y-65282500I-249998J0D01*
G01*
G37*
%TD.AperFunction*%
%TD*%
%TO.P,R25,2*%
%TO.N,+BATT*%
%TA.AperFunction,SMDPad,CuDef*%
G36*
G01*
X38919998Y-64257500D02*
X39820002Y-64257500D01*
G75*
G02*
X40070000Y-64507498I0J-249998D01*
G01*
X40070000Y-65032502D01*
G75*
G02*
X39820002Y-65282500I-249998J0D01*
G01*
X38919998Y-65282500D01*
G75*
G02*
X38670000Y-65032502I0J249998D01*
G01*
X38670000Y-64507498D01*
G75*
G02*
X38919998Y-64257500I249998J0D01*
G01*
G37*
%TD.AperFunction*%
%TO.P,R25,1*%
%TO.N,/BATT*%
%TA.AperFunction,SMDPad,CuDef*%
G36*
G01*
X38919998Y-62432500D02*
X39820002Y-62432500D01*
G75*
G02*
X40070000Y-62682498I0J-249998D01*
G01*
X40070000Y-63207502D01*
G75*
G02*
X39820002Y-63457500I-249998J0D01*
G01*
X38919998Y-63457500D01*
G75*
G02*
X38670000Y-63207502I0J249998D01*
G01*
X38670000Y-62682498D01*
G75*
G02*
X38919998Y-62432500I249998J0D01*
G01*
G37*
%TD.AperFunction*%
%TD*%
%TO.P,R23,2*%
%TO.N,/BEEP*%
%TA.AperFunction,SMDPad,CuDef*%
G36*
G01*
X47809998Y-60344000D02*
X48710002Y-60344000D01*
G75*
G02*
X48960000Y-60593998I0J-249998D01*
G01*
X48960000Y-61119002D01*
G75*
G02*
X48710002Y-61369000I-249998J0D01*
G01*
X47809998Y-61369000D01*
G75*
G02*
X47560000Y-61119002I0J249998D01*
G01*
X47560000Y-60593998D01*
G75*
G02*
X47809998Y-60344000I249998J0D01*
G01*
G37*
%TD.AperFunction*%
%TO.P,R23,1*%
%TO.N,Net-(Q2-Pad1)*%
%TA.AperFunction,SMDPad,CuDef*%
G36*
G01*
X47809998Y-58519000D02*
X48710002Y-58519000D01*
G75*
G02*
X48960000Y-58768998I0J-249998D01*
G01*
X48960000Y-59294002D01*
G75*
G02*
X48710002Y-59544000I-249998J0D01*
G01*
X47809998Y-59544000D01*
G75*
G02*
X47560000Y-59294002I0J249998D01*
G01*
X47560000Y-58768998D01*
G75*
G02*
X47809998Y-58519000I249998J0D01*
G01*
G37*
%TD.AperFunction*%
%TD*%
%TO.P,R22,2*%
%TO.N,Net-(R21-Pad2)*%
%TA.AperFunction,SMDPad,CuDef*%
G36*
G01*
X50908000Y-64954998D02*
X50908000Y-65855002D01*
G75*
G02*
X50658002Y-66105000I-249998J0D01*
G01*
X50132998Y-66105000D01*
G75*
G02*
X49883000Y-65855002I0J249998D01*
G01*
X49883000Y-64954998D01*
G75*
G02*
X50132998Y-64705000I249998J0D01*
G01*
X50658002Y-64705000D01*
G75*
G02*
X50908000Y-64954998I0J-249998D01*
G01*
G37*
%TD.AperFunction*%
%TO.P,R22,1*%
%TO.N,Net-(D7-Pad1)*%
%TA.AperFunction,SMDPad,CuDef*%
G36*
G01*
X52733000Y-64954998D02*
X52733000Y-65855002D01*
G75*
G02*
X52483002Y-66105000I-249998J0D01*
G01*
X51957998Y-66105000D01*
G75*
G02*
X51708000Y-65855002I0J249998D01*
G01*
X51708000Y-64954998D01*
G75*
G02*
X51957998Y-64705000I249998J0D01*
G01*
X52483002Y-64705000D01*
G75*
G02*
X52733000Y-64954998I0J-249998D01*
G01*
G37*
%TD.AperFunction*%
%TD*%
%TO.P,R21,2*%
%TO.N,Net-(R21-Pad2)*%
%TA.AperFunction,SMDPad,CuDef*%
G36*
G01*
X50908000Y-62795998D02*
X50908000Y-63696002D01*
G75*
G02*
X50658002Y-63946000I-249998J0D01*
G01*
X50132998Y-63946000D01*
G75*
G02*
X49883000Y-63696002I0J249998D01*
G01*
X49883000Y-62795998D01*
G75*
G02*
X50132998Y-62546000I249998J0D01*
G01*
X50658002Y-62546000D01*
G75*
G02*
X50908000Y-62795998I0J-249998D01*
G01*
G37*
%TD.AperFunction*%
%TO.P,R21,1*%
%TO.N,Net-(D6-Pad2)*%
%TA.AperFunction,SMDPad,CuDef*%
G36*
G01*
X52733000Y-62795998D02*
X52733000Y-63696002D01*
G75*
G02*
X52483002Y-63946000I-249998J0D01*
G01*
X51957998Y-63946000D01*
G75*
G02*
X51708000Y-63696002I0J249998D01*
G01*
X51708000Y-62795998D01*
G75*
G02*
X51957998Y-62546000I249998J0D01*
G01*
X52483002Y-62546000D01*
G75*
G02*
X52733000Y-62795998I0J-249998D01*
G01*
G37*
%TD.AperFunction*%
%TD*%
%TO.P,R20,2*%
%TO.N,GND*%
%TA.AperFunction,SMDPad,CuDef*%
G36*
G01*
X41090002Y-67672000D02*
X40189998Y-67672000D01*
G75*
G02*
X39940000Y-67422002I0J249998D01*
G01*
X39940000Y-66896998D01*
G75*
G02*
X40189998Y-66647000I249998J0D01*
G01*
X41090002Y-66647000D01*
G75*
G02*
X41340000Y-66896998I0J-249998D01*
G01*
X41340000Y-67422002D01*
G75*
G02*
X41090002Y-67672000I-249998J0D01*
G01*
G37*
%TD.AperFunction*%
%TO.P,R20,1*%
%TO.N,Net-(R20-Pad1)*%
%TA.AperFunction,SMDPad,CuDef*%
G36*
G01*
X41090002Y-69497000D02*
X40189998Y-69497000D01*
G75*
G02*
X39940000Y-69247002I0J249998D01*
G01*
X39940000Y-68721998D01*
G75*
G02*
X40189998Y-68472000I249998J0D01*
G01*
X41090002Y-68472000D01*
G75*
G02*
X41340000Y-68721998I0J-249998D01*
G01*
X41340000Y-69247002D01*
G75*
G02*
X41090002Y-69497000I-249998J0D01*
G01*
G37*
%TD.AperFunction*%
%TD*%
%TO.P,R18,2*%
%TO.N,Net-(D3-Pad1)*%
%TA.AperFunction,SMDPad,CuDef*%
G36*
G01*
X32620000Y-38792998D02*
X32620000Y-39693002D01*
G75*
G02*
X32370002Y-39943000I-249998J0D01*
G01*
X31844998Y-39943000D01*
G75*
G02*
X31595000Y-39693002I0J249998D01*
G01*
X31595000Y-38792998D01*
G75*
G02*
X31844998Y-38543000I249998J0D01*
G01*
X32370002Y-38543000D01*
G75*
G02*
X32620000Y-38792998I0J-249998D01*
G01*
G37*
%TD.AperFunction*%
%TO.P,R18,1*%
%TO.N,GND*%
%TA.AperFunction,SMDPad,CuDef*%
G36*
G01*
X34445000Y-38792998D02*
X34445000Y-39693002D01*
G75*
G02*
X34195002Y-39943000I-249998J0D01*
G01*
X33669998Y-39943000D01*
G75*
G02*
X33420000Y-39693002I0J249998D01*
G01*
X33420000Y-38792998D01*
G75*
G02*
X33669998Y-38543000I249998J0D01*
G01*
X34195002Y-38543000D01*
G75*
G02*
X34445000Y-38792998I0J-249998D01*
G01*
G37*
%TD.AperFunction*%
%TD*%
D22*
%TO.P,BATT1,2*%
%TO.N,GND*%
X46990000Y-73025000D03*
%TO.P,BATT1,1*%
%TO.N,Net-(BATT1-Pad1)*%
%TA.AperFunction,ComponentPad*%
G36*
G01*
X43580000Y-73870001D02*
X43580000Y-72179999D01*
G75*
G02*
X43829999Y-71930000I249999J0D01*
G01*
X45070001Y-71930000D01*
G75*
G02*
X45320000Y-72179999I0J-249999D01*
G01*
X45320000Y-73870001D01*
G75*
G02*
X45070001Y-74120000I-249999J0D01*
G01*
X43829999Y-74120000D01*
G75*
G02*
X43580000Y-73870001I0J249999D01*
G01*
G37*
%TD.AperFunction*%
%TD*%
D23*
%TO.P,J2,6*%
%TO.N,Net-(J2-Pad6)*%
X52037500Y-75255000D03*
X52037500Y-68255000D03*
D24*
X49337500Y-74255000D03*
X49337500Y-69255000D03*
%TD*%
%TO.P,F2,2*%
%TO.N,+BATT*%
%TA.AperFunction,SMDPad,CuDef*%
G36*
G01*
X41715000Y-72250000D02*
X39565000Y-72250000D01*
G75*
G02*
X39315000Y-72000000I0J250000D01*
G01*
X39315000Y-71250000D01*
G75*
G02*
X39565000Y-71000000I250000J0D01*
G01*
X41715000Y-71000000D01*
G75*
G02*
X41965000Y-71250000I0J-250000D01*
G01*
X41965000Y-72000000D01*
G75*
G02*
X41715000Y-72250000I-250000J0D01*
G01*
G37*
%TD.AperFunction*%
%TO.P,F2,1*%
%TO.N,Net-(BATT1-Pad1)*%
%TA.AperFunction,SMDPad,CuDef*%
G36*
G01*
X41715000Y-75050000D02*
X39565000Y-75050000D01*
G75*
G02*
X39315000Y-74800000I0J250000D01*
G01*
X39315000Y-74050000D01*
G75*
G02*
X39565000Y-73800000I250000J0D01*
G01*
X41715000Y-73800000D01*
G75*
G02*
X41965000Y-74050000I0J-250000D01*
G01*
X41965000Y-74800000D01*
G75*
G02*
X41715000Y-75050000I-250000J0D01*
G01*
G37*
%TD.AperFunction*%
%TD*%
%TO.P,D3,2*%
%TO.N,/LED0*%
%TA.AperFunction,SMDPad,CuDef*%
G36*
G01*
X33470000Y-41604250D02*
X33470000Y-40691750D01*
G75*
G02*
X33713750Y-40448000I243750J0D01*
G01*
X34201250Y-40448000D01*
G75*
G02*
X34445000Y-40691750I0J-243750D01*
G01*
X34445000Y-41604250D01*
G75*
G02*
X34201250Y-41848000I-243750J0D01*
G01*
X33713750Y-41848000D01*
G75*
G02*
X33470000Y-41604250I0J243750D01*
G01*
G37*
%TD.AperFunction*%
%TO.P,D3,1*%
%TO.N,Net-(D3-Pad1)*%
%TA.AperFunction,SMDPad,CuDef*%
G36*
G01*
X31595000Y-41604250D02*
X31595000Y-40691750D01*
G75*
G02*
X31838750Y-40448000I243750J0D01*
G01*
X32326250Y-40448000D01*
G75*
G02*
X32570000Y-40691750I0J-243750D01*
G01*
X32570000Y-41604250D01*
G75*
G02*
X32326250Y-41848000I-243750J0D01*
G01*
X31838750Y-41848000D01*
G75*
G02*
X31595000Y-41604250I0J243750D01*
G01*
G37*
%TD.AperFunction*%
%TD*%
D25*
%TO.P,D2,2*%
%TO.N,Net-(C4-Pad2)*%
X33020000Y-52070000D03*
D26*
%TO.P,D2,1*%
%TO.N,GND*%
X33020000Y-49530000D03*
%TD*%
D25*
%TO.P,D1,2*%
%TO.N,Net-(D1-Pad2)*%
X33020000Y-46990000D03*
D26*
%TO.P,D1,1*%
%TO.N,GND*%
X33020000Y-44450000D03*
%TD*%
%TO.P,C18,2*%
%TO.N,+5V*%
%TA.AperFunction,SMDPad,CuDef*%
G36*
G01*
X44000000Y-64295000D02*
X44000000Y-65245000D01*
G75*
G02*
X43750000Y-65495000I-250000J0D01*
G01*
X43250000Y-65495000D01*
G75*
G02*
X43000000Y-65245000I0J250000D01*
G01*
X43000000Y-64295000D01*
G75*
G02*
X43250000Y-64045000I250000J0D01*
G01*
X43750000Y-64045000D01*
G75*
G02*
X44000000Y-64295000I0J-250000D01*
G01*
G37*
%TD.AperFunction*%
%TO.P,C18,1*%
%TO.N,GND*%
%TA.AperFunction,SMDPad,CuDef*%
G36*
G01*
X45900000Y-64295000D02*
X45900000Y-65245000D01*
G75*
G02*
X45650000Y-65495000I-250000J0D01*
G01*
X45150000Y-65495000D01*
G75*
G02*
X44900000Y-65245000I0J250000D01*
G01*
X44900000Y-64295000D01*
G75*
G02*
X45150000Y-64045000I250000J0D01*
G01*
X45650000Y-64045000D01*
G75*
G02*
X45900000Y-64295000I0J-250000D01*
G01*
G37*
%TD.AperFunction*%
%TD*%
%TO.P,C9,2*%
%TO.N,+3V3*%
%TA.AperFunction,SMDPad,CuDef*%
G36*
G01*
X46195000Y-51366000D02*
X45245000Y-51366000D01*
G75*
G02*
X44995000Y-51116000I0J250000D01*
G01*
X44995000Y-50616000D01*
G75*
G02*
X45245000Y-50366000I250000J0D01*
G01*
X46195000Y-50366000D01*
G75*
G02*
X46445000Y-50616000I0J-250000D01*
G01*
X46445000Y-51116000D01*
G75*
G02*
X46195000Y-51366000I-250000J0D01*
G01*
G37*
%TD.AperFunction*%
%TO.P,C9,1*%
%TO.N,GND*%
%TA.AperFunction,SMDPad,CuDef*%
G36*
G01*
X46195000Y-53266000D02*
X45245000Y-53266000D01*
G75*
G02*
X44995000Y-53016000I0J250000D01*
G01*
X44995000Y-52516000D01*
G75*
G02*
X45245000Y-52266000I250000J0D01*
G01*
X46195000Y-52266000D01*
G75*
G02*
X46445000Y-52516000I0J-250000D01*
G01*
X46445000Y-53016000D01*
G75*
G02*
X46195000Y-53266000I-250000J0D01*
G01*
G37*
%TD.AperFunction*%
%TD*%
%TO.P,C4,2*%
%TO.N,Net-(C4-Pad2)*%
%TA.AperFunction,SMDPad,CuDef*%
G36*
G01*
X35527000Y-52509000D02*
X34577000Y-52509000D01*
G75*
G02*
X34327000Y-52259000I0J250000D01*
G01*
X34327000Y-51759000D01*
G75*
G02*
X34577000Y-51509000I250000J0D01*
G01*
X35527000Y-51509000D01*
G75*
G02*
X35777000Y-51759000I0J-250000D01*
G01*
X35777000Y-52259000D01*
G75*
G02*
X35527000Y-52509000I-250000J0D01*
G01*
G37*
%TD.AperFunction*%
%TO.P,C4,1*%
%TO.N,Net-(C4-Pad1)*%
%TA.AperFunction,SMDPad,CuDef*%
G36*
G01*
X35527000Y-54409000D02*
X34577000Y-54409000D01*
G75*
G02*
X34327000Y-54159000I0J250000D01*
G01*
X34327000Y-53659000D01*
G75*
G02*
X34577000Y-53409000I250000J0D01*
G01*
X35527000Y-53409000D01*
G75*
G02*
X35777000Y-53659000I0J-250000D01*
G01*
X35777000Y-54159000D01*
G75*
G02*
X35527000Y-54409000I-250000J0D01*
G01*
G37*
%TD.AperFunction*%
%TD*%
%TO.P,C1,2*%
%TO.N,+3V3*%
%TA.AperFunction,SMDPad,CuDef*%
G36*
G01*
X44000000Y-62390000D02*
X44000000Y-63340000D01*
G75*
G02*
X43750000Y-63590000I-250000J0D01*
G01*
X43250000Y-63590000D01*
G75*
G02*
X43000000Y-63340000I0J250000D01*
G01*
X43000000Y-62390000D01*
G75*
G02*
X43250000Y-62140000I250000J0D01*
G01*
X43750000Y-62140000D01*
G75*
G02*
X44000000Y-62390000I0J-250000D01*
G01*
G37*
%TD.AperFunction*%
%TO.P,C1,1*%
%TO.N,GND*%
%TA.AperFunction,SMDPad,CuDef*%
G36*
G01*
X45900000Y-62390000D02*
X45900000Y-63340000D01*
G75*
G02*
X45650000Y-63590000I-250000J0D01*
G01*
X45150000Y-63590000D01*
G75*
G02*
X44900000Y-63340000I0J250000D01*
G01*
X44900000Y-62390000D01*
G75*
G02*
X45150000Y-62140000I250000J0D01*
G01*
X45650000Y-62140000D01*
G75*
G02*
X45900000Y-62390000I0J-250000D01*
G01*
G37*
%TD.AperFunction*%
%TD*%
D27*
%TO.N,+3V3*%
X34417000Y-72263000D03*
X43500000Y-63307000D03*
X41021000Y-49022000D03*
X37107511Y-46990000D03*
X47624992Y-54483000D03*
X45720000Y-50866000D03*
X36068000Y-54991000D03*
%TO.N,GND*%
X33909000Y-39243000D03*
X33020000Y-33782000D03*
X40640000Y-67183000D03*
X41275000Y-64770000D03*
X45720000Y-52705000D03*
X50800000Y-45593000D03*
X31750000Y-56134000D03*
X32385000Y-72263000D03*
D28*
X47244000Y-67818000D03*
D27*
X45400000Y-63820000D03*
X42545000Y-45635000D03*
X41275000Y-45635000D03*
X48524000Y-54102000D03*
X44831000Y-49403000D03*
X38735000Y-53086000D03*
D28*
X47879000Y-66294000D03*
X47879000Y-64389000D03*
D27*
X46863000Y-49911000D03*
D28*
X44958000Y-30607000D03*
X41021000Y-57150000D03*
D27*
X42672000Y-59370000D03*
D28*
X47244000Y-69596000D03*
D27*
%TO.N,/NRST*%
X50800000Y-55880000D03*
X50800000Y-52070000D03*
X48006000Y-55880000D03*
%TO.N,Net-(C4-Pad1)*%
X33020000Y-56388000D03*
%TO.N,Net-(C8-Pad2)*%
X33274000Y-58420000D03*
%TO.N,Net-(C11-Pad2)*%
X35560000Y-56388000D03*
%TO.N,Net-(C11-Pad1)*%
X33274000Y-60198000D03*
%TO.N,Net-(C13-Pad2)*%
X31750000Y-64135000D03*
X33020000Y-61976000D03*
%TO.N,Net-(C13-Pad1)*%
X33297500Y-64135000D03*
%TO.N,Net-(C16-Pad2)*%
X43307000Y-55963756D03*
%TO.N,+BATT*%
X30895510Y-35525490D03*
X46736000Y-65786000D03*
X36888000Y-72194000D03*
%TO.N,+5V*%
X43180000Y-67818000D03*
X43180000Y-67056000D03*
%TO.N,/WS2812*%
X43129000Y-28880000D03*
X37465000Y-56642000D03*
X38100000Y-48386998D03*
%TO.N,Net-(D6-Pad2)*%
X52324000Y-63500000D03*
%TO.N,Net-(D7-Pad1)*%
X52324000Y-65278000D03*
%TO.N,/IR*%
X40513000Y-59436000D03*
%TO.N,Net-(Q2-Pad3)*%
X45339000Y-61595000D03*
X50165000Y-60960000D03*
%TO.N,/SWIM*%
X51816000Y-50038000D03*
%TO.N,/SCL*%
X37719000Y-55118000D03*
X41148000Y-33909000D03*
%TO.N,/SDA*%
X37719000Y-54229000D03*
X40513000Y-33284000D03*
%TO.N,Net-(Q2-Pad1)*%
X48260000Y-59055000D03*
%TO.N,/TOP*%
X52815000Y-48006000D03*
X46990000Y-55880000D03*
%TO.N,/SIDE*%
X47625000Y-52070000D03*
X35407490Y-44450000D03*
X38725000Y-44450000D03*
X45278000Y-45974000D03*
%TD*%
D29*
%TO.N,+3V3*%
X34544000Y-65938000D02*
X34544000Y-72238000D01*
X34544000Y-64516000D02*
X34544000Y-65938000D01*
X35560000Y-63500000D02*
X34544000Y-64516000D01*
X35560000Y-61680000D02*
X35560000Y-63500000D01*
D30*
X37973000Y-63500000D02*
X35560000Y-63500000D01*
X38354000Y-63881000D02*
X37973000Y-63500000D01*
X42672000Y-63881000D02*
X38354000Y-63881000D01*
X43500000Y-63053000D02*
X42672000Y-63881000D01*
X43500000Y-62865000D02*
X43500000Y-63053000D01*
D29*
X37107500Y-46990000D02*
X37107500Y-46990000D01*
D30*
X41021000Y-49022000D02*
X37339410Y-49022000D01*
X37339410Y-49022000D02*
X37107511Y-48790101D01*
X37107511Y-48790101D02*
X37107511Y-46990000D01*
X43815000Y-49657000D02*
X43815000Y-50885000D01*
X43180000Y-49022000D02*
X43815000Y-49657000D01*
X41021000Y-49022000D02*
X43180000Y-49022000D01*
X46736000Y-54483000D02*
X47624992Y-54483000D01*
X44772500Y-54875000D02*
X46344000Y-54875000D01*
X46344000Y-54875000D02*
X46736000Y-54483000D01*
X45701000Y-50885000D02*
X45720000Y-50866000D01*
X43815000Y-50885000D02*
X45701000Y-50885000D01*
X45720000Y-50866000D02*
X45720000Y-50866000D01*
D29*
X36322000Y-55245000D02*
X36068000Y-54991000D01*
X36322000Y-57531000D02*
X36322000Y-55245000D01*
X35560000Y-58293000D02*
X36322000Y-57531000D01*
X35560000Y-61680000D02*
X35560000Y-58293000D01*
X38100000Y-38100000D02*
X40640000Y-35560000D01*
X38100000Y-39370000D02*
X38100000Y-38100000D01*
X38100000Y-42418000D02*
X38100000Y-39370000D01*
X37107511Y-43410489D02*
X38100000Y-42418000D01*
X37107511Y-46990000D02*
X37107511Y-43410489D01*
%TO.N,GND*%
X46736000Y-67818000D02*
X46609000Y-67945000D01*
X47244000Y-67818000D02*
X46736000Y-67818000D01*
X45550000Y-67945000D02*
X46609000Y-67945000D01*
D30*
X40005000Y-45635000D02*
X41275000Y-45635000D01*
X42545000Y-45635000D02*
X42545000Y-45635000D01*
X45400000Y-62865000D02*
X45400000Y-63820000D01*
X45400000Y-63820000D02*
X45400000Y-64770000D01*
X42545000Y-45635000D02*
X43815000Y-45635000D01*
X41275000Y-45635000D02*
X41275000Y-45635000D01*
X48269999Y-55108001D02*
X48524000Y-54854000D01*
X46836997Y-55108001D02*
X48269999Y-55108001D01*
X45769998Y-56175000D02*
X46836997Y-55108001D01*
X48524000Y-54854000D02*
X48524000Y-54102000D01*
X44772500Y-56175000D02*
X45769998Y-56175000D01*
D29*
X43815000Y-48387000D02*
X44831000Y-49403000D01*
X43815000Y-45635000D02*
X43815000Y-48387000D01*
X47879000Y-66294000D02*
X47879000Y-64389000D01*
D30*
X48260000Y-49911000D02*
X46863000Y-49911000D01*
X48524000Y-50175000D02*
X48260000Y-49911000D01*
X48524000Y-54102000D02*
X48524000Y-50175000D01*
D29*
X44360000Y-31205000D02*
X44958000Y-30607000D01*
X44360000Y-32080000D02*
X44360000Y-31205000D01*
X42611000Y-52766000D02*
X42545000Y-52832000D01*
X45720000Y-52766000D02*
X42611000Y-52766000D01*
X42545000Y-52832000D02*
X42545000Y-50885000D01*
X42545000Y-54356000D02*
X42545000Y-52832000D01*
X41021000Y-55880000D02*
X42545000Y-54356000D01*
X41021000Y-57150000D02*
X41021000Y-55880000D01*
D30*
X41021000Y-57719000D02*
X42672000Y-59370000D01*
X41021000Y-57150000D02*
X41021000Y-57719000D01*
D29*
X46990000Y-70739000D02*
X47244000Y-70485000D01*
X46990000Y-73025000D02*
X46990000Y-70739000D01*
X47244000Y-69596000D02*
X47244000Y-70485000D01*
D30*
%TO.N,/NRST*%
X50800000Y-55390000D02*
X50800000Y-52070000D01*
X50800000Y-52070000D02*
X50800000Y-48768000D01*
X50800000Y-48768000D02*
X49530000Y-47498000D01*
X49530000Y-47498000D02*
X49530000Y-44450000D01*
X49530000Y-44450000D02*
X50800000Y-43180000D01*
X46015000Y-58125000D02*
X48006000Y-56134000D01*
X48006000Y-56134000D02*
X48006000Y-55880000D01*
X44772500Y-58125000D02*
X46015000Y-58125000D01*
%TO.N,Net-(C4-Pad2)*%
X34991000Y-52070000D02*
X35052000Y-52009000D01*
X33020000Y-52070000D02*
X34991000Y-52070000D01*
%TO.N,Net-(C4-Pad1)*%
X33401000Y-53848000D02*
X33020000Y-54229000D01*
X34991000Y-53848000D02*
X33401000Y-53848000D01*
X33020000Y-54229000D02*
X33020000Y-56430000D01*
X35052000Y-53909000D02*
X34991000Y-53848000D01*
%TO.N,Net-(C8-Pad2)*%
X33782000Y-58420000D02*
X33274000Y-58420000D01*
X34290000Y-57912000D02*
X33782000Y-58420000D01*
X34290000Y-56430000D02*
X34290000Y-57912000D01*
%TO.N,Net-(C11-Pad1)*%
X32004000Y-60198000D02*
X33274000Y-60198000D01*
X31750000Y-60452000D02*
X32004000Y-60198000D01*
X31750000Y-61680000D02*
X31750000Y-60452000D01*
%TO.N,Net-(C13-Pad2)*%
X33020000Y-63500000D02*
X33020000Y-61680000D01*
X32385000Y-64135000D02*
X32893000Y-63627000D01*
X31750000Y-64135000D02*
X32385000Y-64135000D01*
X32893000Y-63627000D02*
X33020000Y-63500000D01*
X32766000Y-63754000D02*
X32893000Y-63627000D01*
%TO.N,Net-(C13-Pad1)*%
X34290000Y-63142500D02*
X33297500Y-64135000D01*
X34290000Y-61680000D02*
X34290000Y-63142500D01*
%TO.N,Net-(C16-Pad2)*%
X44772500Y-55525000D02*
X43745756Y-55525000D01*
X43745756Y-55525000D02*
X43307000Y-55963756D01*
D29*
%TO.N,+BATT*%
X30895510Y-53432490D02*
X30895510Y-54263510D01*
X30895510Y-73625490D02*
X30895510Y-53432490D01*
X31311020Y-74041000D02*
X30895510Y-73625490D01*
D30*
X36844000Y-71106000D02*
X36844000Y-72238000D01*
X39370000Y-68580000D02*
X36844000Y-71106000D01*
X39370000Y-64770000D02*
X39370000Y-68580000D01*
D29*
X34849000Y-32080000D02*
X38049000Y-28880000D01*
X31801000Y-32080000D02*
X34849000Y-32080000D01*
X38049000Y-28880000D02*
X39460000Y-28880000D01*
X30895510Y-32985490D02*
X31801000Y-32080000D01*
X30895510Y-53432490D02*
X30895510Y-35525490D01*
X30895510Y-35525490D02*
X30895510Y-32985490D01*
X40643000Y-71628000D02*
X40640000Y-71625000D01*
X41402000Y-71628000D02*
X40643000Y-71628000D01*
D30*
X46543000Y-66995000D02*
X45550000Y-66995000D01*
X46736000Y-66802000D02*
X46543000Y-66995000D01*
X46736000Y-65786000D02*
X46736000Y-66802000D01*
D29*
X42675000Y-71625000D02*
X40640000Y-71625000D01*
X44450000Y-69850000D02*
X42675000Y-71625000D01*
X44450000Y-67310000D02*
X44450000Y-69850000D01*
X44765000Y-66995000D02*
X44450000Y-67310000D01*
X45550000Y-66995000D02*
X44765000Y-66995000D01*
X37457000Y-71625000D02*
X36888000Y-72194000D01*
X40640000Y-71625000D02*
X37457000Y-71625000D01*
X36844000Y-73646000D02*
X36449000Y-74041000D01*
X36449000Y-74041000D02*
X31311020Y-74041000D01*
X36844000Y-72238000D02*
X36844000Y-73646000D01*
X36888000Y-72194000D02*
X36844000Y-72238000D01*
%TO.N,+5V*%
X43180000Y-67818000D02*
X43180000Y-67056000D01*
D30*
X43500000Y-66845000D02*
X43350000Y-66995000D01*
X43500000Y-64770000D02*
X43500000Y-66845000D01*
%TO.N,/LED0*%
X34036000Y-41226500D02*
X33957500Y-41148000D01*
X34036000Y-42608500D02*
X34036000Y-41226500D01*
X34671000Y-44831000D02*
X34671000Y-43243500D01*
X35582480Y-49236390D02*
X35582480Y-45742480D01*
X35582480Y-45742480D02*
X34671000Y-44831000D01*
X36839999Y-50493909D02*
X35582480Y-49236390D01*
X36839999Y-56942001D02*
X36839999Y-50493909D01*
X38022998Y-58125000D02*
X36839999Y-56942001D01*
X34671000Y-43243500D02*
X34036000Y-42608500D01*
X39047500Y-58125000D02*
X38022998Y-58125000D01*
%TO.N,Net-(D3-Pad1)*%
X32082500Y-39268000D02*
X32107500Y-39243000D01*
X32082500Y-41148000D02*
X32082500Y-39268000D01*
%TO.N,/WS2812*%
X43129000Y-28880000D02*
X44360000Y-28880000D01*
X39047500Y-57475000D02*
X38298000Y-57475000D01*
X38298000Y-57475000D02*
X37465000Y-56642000D01*
X43129000Y-28880000D02*
X41910000Y-30099000D01*
X41910000Y-30099000D02*
X41910000Y-39878000D01*
X41910000Y-39878000D02*
X38100000Y-43688000D01*
X38100000Y-43688000D02*
X38100000Y-48386998D01*
%TO.N,/IR*%
X39058500Y-59436000D02*
X39047500Y-59425000D01*
X40513000Y-59436000D02*
X39058500Y-59436000D01*
%TO.N,Net-(Q2-Pad3)*%
X49530705Y-62230000D02*
X50165000Y-61595705D01*
X47244000Y-62230000D02*
X49530705Y-62230000D01*
X50165000Y-61595705D02*
X50165000Y-60960000D01*
X46609000Y-61595000D02*
X47244000Y-62230000D01*
X45339000Y-61595000D02*
X46609000Y-61595000D01*
%TO.N,/SWIM*%
X52324000Y-42164000D02*
X50800000Y-40640000D01*
X52324000Y-47498000D02*
X52324000Y-42164000D01*
X51816000Y-48006000D02*
X52324000Y-47498000D01*
X51816000Y-50038000D02*
X51816000Y-48006000D01*
X51816000Y-53721000D02*
X51816000Y-50038000D01*
X52070000Y-56595002D02*
X52070000Y-53975000D01*
X52070000Y-53975000D02*
X51816000Y-53721000D01*
X51642002Y-57023000D02*
X52070000Y-56595002D01*
X49403000Y-57531000D02*
X49911000Y-57023000D01*
X49403000Y-61468000D02*
X49403000Y-57531000D01*
X49911000Y-57023000D02*
X51642002Y-57023000D01*
X49149000Y-61722000D02*
X49403000Y-61468000D01*
X46482000Y-60706000D02*
X47498000Y-61722000D01*
X42799000Y-60706000D02*
X46482000Y-60706000D01*
X47498000Y-61722000D02*
X49149000Y-61722000D01*
X40868000Y-58775000D02*
X42799000Y-60706000D01*
X39047500Y-58775000D02*
X40868000Y-58775000D01*
%TO.N,/SCL*%
X37962000Y-54875000D02*
X37719000Y-55118000D01*
X39047500Y-54875000D02*
X37962000Y-54875000D01*
X41275000Y-54737000D02*
X41275000Y-50885000D01*
X41137000Y-54875000D02*
X41275000Y-54737000D01*
X39047500Y-54875000D02*
X41137000Y-54875000D01*
X37211000Y-33909000D02*
X41148000Y-33909000D01*
X37328001Y-49647001D02*
X36482501Y-48801501D01*
X41011001Y-49647001D02*
X37328001Y-49647001D01*
X41275000Y-49911000D02*
X41011001Y-49647001D01*
X36482501Y-34637499D02*
X37211000Y-33909000D01*
X36482501Y-48801501D02*
X36482501Y-34637499D01*
X41275000Y-50885000D02*
X41275000Y-49911000D01*
%TO.N,/SDA*%
X37723000Y-54225000D02*
X37719000Y-54229000D01*
X39047500Y-54225000D02*
X37723000Y-54225000D01*
X40005000Y-54102000D02*
X40005000Y-50885000D01*
X39882000Y-54225000D02*
X40005000Y-54102000D01*
X39047500Y-54225000D02*
X39882000Y-54225000D01*
X37199590Y-33284000D02*
X40513000Y-33284000D01*
X36032490Y-49049990D02*
X36032490Y-34451100D01*
X36032490Y-34451100D02*
X37199590Y-33284000D01*
X37867500Y-50885000D02*
X36032490Y-49049990D01*
X40005000Y-50885000D02*
X37867500Y-50885000D01*
%TO.N,Net-(R20-Pad1)*%
X40729500Y-68895000D02*
X40640000Y-68984500D01*
X43350000Y-68895000D02*
X40729500Y-68895000D01*
%TO.N,Net-(R21-Pad2)*%
X48641000Y-67945000D02*
X47691000Y-68895000D01*
X48641000Y-65786000D02*
X48641000Y-67945000D01*
X47691000Y-68895000D02*
X45550000Y-68895000D01*
X49022000Y-65405000D02*
X48641000Y-65786000D01*
X50395500Y-65405000D02*
X49022000Y-65405000D01*
X50395500Y-63246000D02*
X50395500Y-65405000D01*
%TO.N,/BEEP*%
X47394500Y-60856500D02*
X48260000Y-60856500D01*
X46613000Y-60075000D02*
X47394500Y-60856500D01*
X44772500Y-60075000D02*
X46613000Y-60075000D01*
%TO.N,/BATT*%
X39370000Y-62945000D02*
X41275000Y-62945000D01*
X39047500Y-62622500D02*
X39370000Y-62945000D01*
X39047500Y-60075000D02*
X39047500Y-62622500D01*
%TO.N,/RX*%
X46127000Y-58775000D02*
X44772500Y-58775000D01*
X49149000Y-48641000D02*
X49149000Y-55753000D01*
X48514000Y-41656000D02*
X48514000Y-48006000D01*
X47498000Y-40640000D02*
X48514000Y-41656000D01*
X48514000Y-48006000D02*
X49149000Y-48641000D01*
X44450000Y-40640000D02*
X47498000Y-40640000D01*
X49149000Y-55753000D02*
X46127000Y-58775000D01*
X43180000Y-39370000D02*
X44450000Y-40640000D01*
%TO.N,/TX*%
X46990000Y-39370000D02*
X45720000Y-39370000D01*
X49022000Y-41402000D02*
X46990000Y-39370000D01*
X49022000Y-47752000D02*
X49022000Y-41402000D01*
X49674999Y-48404999D02*
X49022000Y-47752000D01*
X46239000Y-59425000D02*
X49674999Y-55989001D01*
X49674999Y-55989001D02*
X49674999Y-48404999D01*
X44772500Y-59425000D02*
X46239000Y-59425000D01*
%TO.N,/TOP*%
X52070000Y-36576000D02*
X52070000Y-35560000D01*
X52815000Y-37321000D02*
X52070000Y-36576000D01*
X52815000Y-48006000D02*
X52815000Y-37321000D01*
X46990000Y-56388000D02*
X46990000Y-55880000D01*
X45903000Y-57475000D02*
X46990000Y-56388000D01*
X44772500Y-57475000D02*
X45903000Y-57475000D01*
%TO.N,/SIDE*%
X47625000Y-52832000D02*
X47625000Y-52070000D01*
X46232000Y-54225000D02*
X47625000Y-52832000D01*
X44772500Y-54225000D02*
X46232000Y-54225000D01*
X45278000Y-44770000D02*
X45278000Y-45974000D01*
X44958000Y-44450000D02*
X45278000Y-44770000D01*
X38725000Y-44450000D02*
X44958000Y-44450000D01*
X35407490Y-37693490D02*
X35407490Y-44450000D01*
X34974000Y-37260000D02*
X35407490Y-37693490D01*
X33020000Y-37260000D02*
X34974000Y-37260000D01*
D29*
%TO.N,Net-(BATT1-Pad1)*%
X40640000Y-73660000D02*
X40640000Y-74425000D01*
X41275000Y-73025000D02*
X40640000Y-73660000D01*
X44450000Y-73025000D02*
X41275000Y-73025000D01*
%TD*%
M02*
