%TF.GenerationSoftware,KiCad,Pcbnew,5.1.9-73d0e3b20d~88~ubuntu20.04.1*%
%TF.CreationDate,2021-03-24T22:26:37+08:00*%
%TF.ProjectId,elec-remote,656c6563-2d72-4656-9d6f-74652e6b6963,rev?*%
%TF.SameCoordinates,Original*%
%TF.FileFunction,Paste,Top*%
%TF.FilePolarity,Positive*%
%FSLAX46Y46*%
G04 Gerber Fmt 4.6, Leading zero omitted, Abs format (unit mm)*
G04 Created by KiCad (PCBNEW 5.1.9-73d0e3b20d~88~ubuntu20.04.1) date 2021-03-24 22:26:37*
%MOMM*%
%LPD*%
G01*
G04 APERTURE LIST*
%ADD10R,1.500000X1.000000*%
%ADD11R,1.700000X0.900000*%
%ADD12R,1.500000X2.000000*%
%ADD13R,3.800000X2.000000*%
%ADD14R,1.060000X0.650000*%
%ADD15R,1.600000X2.180000*%
G04 APERTURE END LIST*
D10*
%TO.C,D5*%
X39460000Y-28880000D03*
X39460000Y-32080000D03*
X44360000Y-28880000D03*
X44360000Y-32080000D03*
%TD*%
D11*
%TO.C,SIDE1*%
X33020000Y-33860000D03*
X33020000Y-37260000D03*
%TD*%
%TO.C,U6*%
G36*
G01*
X43665000Y-50060000D02*
X43965000Y-50060000D01*
G75*
G02*
X44115000Y-50210000I0J-150000D01*
G01*
X44115000Y-51560000D01*
G75*
G02*
X43965000Y-51710000I-150000J0D01*
G01*
X43665000Y-51710000D01*
G75*
G02*
X43515000Y-51560000I0J150000D01*
G01*
X43515000Y-50210000D01*
G75*
G02*
X43665000Y-50060000I150000J0D01*
G01*
G37*
G36*
G01*
X42395000Y-50060000D02*
X42695000Y-50060000D01*
G75*
G02*
X42845000Y-50210000I0J-150000D01*
G01*
X42845000Y-51560000D01*
G75*
G02*
X42695000Y-51710000I-150000J0D01*
G01*
X42395000Y-51710000D01*
G75*
G02*
X42245000Y-51560000I0J150000D01*
G01*
X42245000Y-50210000D01*
G75*
G02*
X42395000Y-50060000I150000J0D01*
G01*
G37*
G36*
G01*
X41125000Y-50060000D02*
X41425000Y-50060000D01*
G75*
G02*
X41575000Y-50210000I0J-150000D01*
G01*
X41575000Y-51560000D01*
G75*
G02*
X41425000Y-51710000I-150000J0D01*
G01*
X41125000Y-51710000D01*
G75*
G02*
X40975000Y-51560000I0J150000D01*
G01*
X40975000Y-50210000D01*
G75*
G02*
X41125000Y-50060000I150000J0D01*
G01*
G37*
G36*
G01*
X39855000Y-50060000D02*
X40155000Y-50060000D01*
G75*
G02*
X40305000Y-50210000I0J-150000D01*
G01*
X40305000Y-51560000D01*
G75*
G02*
X40155000Y-51710000I-150000J0D01*
G01*
X39855000Y-51710000D01*
G75*
G02*
X39705000Y-51560000I0J150000D01*
G01*
X39705000Y-50210000D01*
G75*
G02*
X39855000Y-50060000I150000J0D01*
G01*
G37*
G36*
G01*
X39855000Y-44810000D02*
X40155000Y-44810000D01*
G75*
G02*
X40305000Y-44960000I0J-150000D01*
G01*
X40305000Y-46310000D01*
G75*
G02*
X40155000Y-46460000I-150000J0D01*
G01*
X39855000Y-46460000D01*
G75*
G02*
X39705000Y-46310000I0J150000D01*
G01*
X39705000Y-44960000D01*
G75*
G02*
X39855000Y-44810000I150000J0D01*
G01*
G37*
G36*
G01*
X41125000Y-44810000D02*
X41425000Y-44810000D01*
G75*
G02*
X41575000Y-44960000I0J-150000D01*
G01*
X41575000Y-46310000D01*
G75*
G02*
X41425000Y-46460000I-150000J0D01*
G01*
X41125000Y-46460000D01*
G75*
G02*
X40975000Y-46310000I0J150000D01*
G01*
X40975000Y-44960000D01*
G75*
G02*
X41125000Y-44810000I150000J0D01*
G01*
G37*
G36*
G01*
X42395000Y-44810000D02*
X42695000Y-44810000D01*
G75*
G02*
X42845000Y-44960000I0J-150000D01*
G01*
X42845000Y-46310000D01*
G75*
G02*
X42695000Y-46460000I-150000J0D01*
G01*
X42395000Y-46460000D01*
G75*
G02*
X42245000Y-46310000I0J150000D01*
G01*
X42245000Y-44960000D01*
G75*
G02*
X42395000Y-44810000I150000J0D01*
G01*
G37*
G36*
G01*
X43665000Y-44810000D02*
X43965000Y-44810000D01*
G75*
G02*
X44115000Y-44960000I0J-150000D01*
G01*
X44115000Y-46310000D01*
G75*
G02*
X43965000Y-46460000I-150000J0D01*
G01*
X43665000Y-46460000D01*
G75*
G02*
X43515000Y-46310000I0J150000D01*
G01*
X43515000Y-44960000D01*
G75*
G02*
X43665000Y-44810000I150000J0D01*
G01*
G37*
%TD*%
D12*
%TO.C,U5*%
X32244000Y-72238000D03*
X36844000Y-72238000D03*
X34544000Y-72238000D03*
D13*
X34544000Y-65938000D03*
%TD*%
D14*
%TO.C,U4*%
X43350000Y-68895000D03*
X43350000Y-66995000D03*
X45550000Y-66995000D03*
X45550000Y-67945000D03*
X45550000Y-68895000D03*
%TD*%
%TO.C,U3*%
G36*
G01*
X39785000Y-59975000D02*
X39785000Y-60175000D01*
G75*
G02*
X39685000Y-60275000I-100000J0D01*
G01*
X38410000Y-60275000D01*
G75*
G02*
X38310000Y-60175000I0J100000D01*
G01*
X38310000Y-59975000D01*
G75*
G02*
X38410000Y-59875000I100000J0D01*
G01*
X39685000Y-59875000D01*
G75*
G02*
X39785000Y-59975000I0J-100000D01*
G01*
G37*
G36*
G01*
X39785000Y-59325000D02*
X39785000Y-59525000D01*
G75*
G02*
X39685000Y-59625000I-100000J0D01*
G01*
X38410000Y-59625000D01*
G75*
G02*
X38310000Y-59525000I0J100000D01*
G01*
X38310000Y-59325000D01*
G75*
G02*
X38410000Y-59225000I100000J0D01*
G01*
X39685000Y-59225000D01*
G75*
G02*
X39785000Y-59325000I0J-100000D01*
G01*
G37*
G36*
G01*
X39785000Y-58675000D02*
X39785000Y-58875000D01*
G75*
G02*
X39685000Y-58975000I-100000J0D01*
G01*
X38410000Y-58975000D01*
G75*
G02*
X38310000Y-58875000I0J100000D01*
G01*
X38310000Y-58675000D01*
G75*
G02*
X38410000Y-58575000I100000J0D01*
G01*
X39685000Y-58575000D01*
G75*
G02*
X39785000Y-58675000I0J-100000D01*
G01*
G37*
G36*
G01*
X39785000Y-58025000D02*
X39785000Y-58225000D01*
G75*
G02*
X39685000Y-58325000I-100000J0D01*
G01*
X38410000Y-58325000D01*
G75*
G02*
X38310000Y-58225000I0J100000D01*
G01*
X38310000Y-58025000D01*
G75*
G02*
X38410000Y-57925000I100000J0D01*
G01*
X39685000Y-57925000D01*
G75*
G02*
X39785000Y-58025000I0J-100000D01*
G01*
G37*
G36*
G01*
X39785000Y-57375000D02*
X39785000Y-57575000D01*
G75*
G02*
X39685000Y-57675000I-100000J0D01*
G01*
X38410000Y-57675000D01*
G75*
G02*
X38310000Y-57575000I0J100000D01*
G01*
X38310000Y-57375000D01*
G75*
G02*
X38410000Y-57275000I100000J0D01*
G01*
X39685000Y-57275000D01*
G75*
G02*
X39785000Y-57375000I0J-100000D01*
G01*
G37*
G36*
G01*
X39785000Y-56725000D02*
X39785000Y-56925000D01*
G75*
G02*
X39685000Y-57025000I-100000J0D01*
G01*
X38410000Y-57025000D01*
G75*
G02*
X38310000Y-56925000I0J100000D01*
G01*
X38310000Y-56725000D01*
G75*
G02*
X38410000Y-56625000I100000J0D01*
G01*
X39685000Y-56625000D01*
G75*
G02*
X39785000Y-56725000I0J-100000D01*
G01*
G37*
G36*
G01*
X39785000Y-56075000D02*
X39785000Y-56275000D01*
G75*
G02*
X39685000Y-56375000I-100000J0D01*
G01*
X38410000Y-56375000D01*
G75*
G02*
X38310000Y-56275000I0J100000D01*
G01*
X38310000Y-56075000D01*
G75*
G02*
X38410000Y-55975000I100000J0D01*
G01*
X39685000Y-55975000D01*
G75*
G02*
X39785000Y-56075000I0J-100000D01*
G01*
G37*
G36*
G01*
X39785000Y-55425000D02*
X39785000Y-55625000D01*
G75*
G02*
X39685000Y-55725000I-100000J0D01*
G01*
X38410000Y-55725000D01*
G75*
G02*
X38310000Y-55625000I0J100000D01*
G01*
X38310000Y-55425000D01*
G75*
G02*
X38410000Y-55325000I100000J0D01*
G01*
X39685000Y-55325000D01*
G75*
G02*
X39785000Y-55425000I0J-100000D01*
G01*
G37*
G36*
G01*
X39785000Y-54775000D02*
X39785000Y-54975000D01*
G75*
G02*
X39685000Y-55075000I-100000J0D01*
G01*
X38410000Y-55075000D01*
G75*
G02*
X38310000Y-54975000I0J100000D01*
G01*
X38310000Y-54775000D01*
G75*
G02*
X38410000Y-54675000I100000J0D01*
G01*
X39685000Y-54675000D01*
G75*
G02*
X39785000Y-54775000I0J-100000D01*
G01*
G37*
G36*
G01*
X39785000Y-54125000D02*
X39785000Y-54325000D01*
G75*
G02*
X39685000Y-54425000I-100000J0D01*
G01*
X38410000Y-54425000D01*
G75*
G02*
X38310000Y-54325000I0J100000D01*
G01*
X38310000Y-54125000D01*
G75*
G02*
X38410000Y-54025000I100000J0D01*
G01*
X39685000Y-54025000D01*
G75*
G02*
X39785000Y-54125000I0J-100000D01*
G01*
G37*
G36*
G01*
X45510000Y-54125000D02*
X45510000Y-54325000D01*
G75*
G02*
X45410000Y-54425000I-100000J0D01*
G01*
X44135000Y-54425000D01*
G75*
G02*
X44035000Y-54325000I0J100000D01*
G01*
X44035000Y-54125000D01*
G75*
G02*
X44135000Y-54025000I100000J0D01*
G01*
X45410000Y-54025000D01*
G75*
G02*
X45510000Y-54125000I0J-100000D01*
G01*
G37*
G36*
G01*
X45510000Y-54775000D02*
X45510000Y-54975000D01*
G75*
G02*
X45410000Y-55075000I-100000J0D01*
G01*
X44135000Y-55075000D01*
G75*
G02*
X44035000Y-54975000I0J100000D01*
G01*
X44035000Y-54775000D01*
G75*
G02*
X44135000Y-54675000I100000J0D01*
G01*
X45410000Y-54675000D01*
G75*
G02*
X45510000Y-54775000I0J-100000D01*
G01*
G37*
G36*
G01*
X45510000Y-55425000D02*
X45510000Y-55625000D01*
G75*
G02*
X45410000Y-55725000I-100000J0D01*
G01*
X44135000Y-55725000D01*
G75*
G02*
X44035000Y-55625000I0J100000D01*
G01*
X44035000Y-55425000D01*
G75*
G02*
X44135000Y-55325000I100000J0D01*
G01*
X45410000Y-55325000D01*
G75*
G02*
X45510000Y-55425000I0J-100000D01*
G01*
G37*
G36*
G01*
X45510000Y-56075000D02*
X45510000Y-56275000D01*
G75*
G02*
X45410000Y-56375000I-100000J0D01*
G01*
X44135000Y-56375000D01*
G75*
G02*
X44035000Y-56275000I0J100000D01*
G01*
X44035000Y-56075000D01*
G75*
G02*
X44135000Y-55975000I100000J0D01*
G01*
X45410000Y-55975000D01*
G75*
G02*
X45510000Y-56075000I0J-100000D01*
G01*
G37*
G36*
G01*
X45510000Y-56725000D02*
X45510000Y-56925000D01*
G75*
G02*
X45410000Y-57025000I-100000J0D01*
G01*
X44135000Y-57025000D01*
G75*
G02*
X44035000Y-56925000I0J100000D01*
G01*
X44035000Y-56725000D01*
G75*
G02*
X44135000Y-56625000I100000J0D01*
G01*
X45410000Y-56625000D01*
G75*
G02*
X45510000Y-56725000I0J-100000D01*
G01*
G37*
G36*
G01*
X45510000Y-57375000D02*
X45510000Y-57575000D01*
G75*
G02*
X45410000Y-57675000I-100000J0D01*
G01*
X44135000Y-57675000D01*
G75*
G02*
X44035000Y-57575000I0J100000D01*
G01*
X44035000Y-57375000D01*
G75*
G02*
X44135000Y-57275000I100000J0D01*
G01*
X45410000Y-57275000D01*
G75*
G02*
X45510000Y-57375000I0J-100000D01*
G01*
G37*
G36*
G01*
X45510000Y-58025000D02*
X45510000Y-58225000D01*
G75*
G02*
X45410000Y-58325000I-100000J0D01*
G01*
X44135000Y-58325000D01*
G75*
G02*
X44035000Y-58225000I0J100000D01*
G01*
X44035000Y-58025000D01*
G75*
G02*
X44135000Y-57925000I100000J0D01*
G01*
X45410000Y-57925000D01*
G75*
G02*
X45510000Y-58025000I0J-100000D01*
G01*
G37*
G36*
G01*
X45510000Y-58675000D02*
X45510000Y-58875000D01*
G75*
G02*
X45410000Y-58975000I-100000J0D01*
G01*
X44135000Y-58975000D01*
G75*
G02*
X44035000Y-58875000I0J100000D01*
G01*
X44035000Y-58675000D01*
G75*
G02*
X44135000Y-58575000I100000J0D01*
G01*
X45410000Y-58575000D01*
G75*
G02*
X45510000Y-58675000I0J-100000D01*
G01*
G37*
G36*
G01*
X45510000Y-59325000D02*
X45510000Y-59525000D01*
G75*
G02*
X45410000Y-59625000I-100000J0D01*
G01*
X44135000Y-59625000D01*
G75*
G02*
X44035000Y-59525000I0J100000D01*
G01*
X44035000Y-59325000D01*
G75*
G02*
X44135000Y-59225000I100000J0D01*
G01*
X45410000Y-59225000D01*
G75*
G02*
X45510000Y-59325000I0J-100000D01*
G01*
G37*
G36*
G01*
X45510000Y-59975000D02*
X45510000Y-60175000D01*
G75*
G02*
X45410000Y-60275000I-100000J0D01*
G01*
X44135000Y-60275000D01*
G75*
G02*
X44035000Y-60175000I0J100000D01*
G01*
X44035000Y-59975000D01*
G75*
G02*
X44135000Y-59875000I100000J0D01*
G01*
X45410000Y-59875000D01*
G75*
G02*
X45510000Y-59975000I0J-100000D01*
G01*
G37*
%TD*%
%TO.C,U1*%
G36*
G01*
X35410000Y-60855000D02*
X35710000Y-60855000D01*
G75*
G02*
X35860000Y-61005000I0J-150000D01*
G01*
X35860000Y-62355000D01*
G75*
G02*
X35710000Y-62505000I-150000J0D01*
G01*
X35410000Y-62505000D01*
G75*
G02*
X35260000Y-62355000I0J150000D01*
G01*
X35260000Y-61005000D01*
G75*
G02*
X35410000Y-60855000I150000J0D01*
G01*
G37*
G36*
G01*
X34140000Y-60855000D02*
X34440000Y-60855000D01*
G75*
G02*
X34590000Y-61005000I0J-150000D01*
G01*
X34590000Y-62355000D01*
G75*
G02*
X34440000Y-62505000I-150000J0D01*
G01*
X34140000Y-62505000D01*
G75*
G02*
X33990000Y-62355000I0J150000D01*
G01*
X33990000Y-61005000D01*
G75*
G02*
X34140000Y-60855000I150000J0D01*
G01*
G37*
G36*
G01*
X32870000Y-60855000D02*
X33170000Y-60855000D01*
G75*
G02*
X33320000Y-61005000I0J-150000D01*
G01*
X33320000Y-62355000D01*
G75*
G02*
X33170000Y-62505000I-150000J0D01*
G01*
X32870000Y-62505000D01*
G75*
G02*
X32720000Y-62355000I0J150000D01*
G01*
X32720000Y-61005000D01*
G75*
G02*
X32870000Y-60855000I150000J0D01*
G01*
G37*
G36*
G01*
X31600000Y-60855000D02*
X31900000Y-60855000D01*
G75*
G02*
X32050000Y-61005000I0J-150000D01*
G01*
X32050000Y-62355000D01*
G75*
G02*
X31900000Y-62505000I-150000J0D01*
G01*
X31600000Y-62505000D01*
G75*
G02*
X31450000Y-62355000I0J150000D01*
G01*
X31450000Y-61005000D01*
G75*
G02*
X31600000Y-60855000I150000J0D01*
G01*
G37*
G36*
G01*
X31600000Y-55605000D02*
X31900000Y-55605000D01*
G75*
G02*
X32050000Y-55755000I0J-150000D01*
G01*
X32050000Y-57105000D01*
G75*
G02*
X31900000Y-57255000I-150000J0D01*
G01*
X31600000Y-57255000D01*
G75*
G02*
X31450000Y-57105000I0J150000D01*
G01*
X31450000Y-55755000D01*
G75*
G02*
X31600000Y-55605000I150000J0D01*
G01*
G37*
G36*
G01*
X32870000Y-55605000D02*
X33170000Y-55605000D01*
G75*
G02*
X33320000Y-55755000I0J-150000D01*
G01*
X33320000Y-57105000D01*
G75*
G02*
X33170000Y-57255000I-150000J0D01*
G01*
X32870000Y-57255000D01*
G75*
G02*
X32720000Y-57105000I0J150000D01*
G01*
X32720000Y-55755000D01*
G75*
G02*
X32870000Y-55605000I150000J0D01*
G01*
G37*
G36*
G01*
X34140000Y-55605000D02*
X34440000Y-55605000D01*
G75*
G02*
X34590000Y-55755000I0J-150000D01*
G01*
X34590000Y-57105000D01*
G75*
G02*
X34440000Y-57255000I-150000J0D01*
G01*
X34140000Y-57255000D01*
G75*
G02*
X33990000Y-57105000I0J150000D01*
G01*
X33990000Y-55755000D01*
G75*
G02*
X34140000Y-55605000I150000J0D01*
G01*
G37*
G36*
G01*
X35410000Y-55605000D02*
X35710000Y-55605000D01*
G75*
G02*
X35860000Y-55755000I0J-150000D01*
G01*
X35860000Y-57105000D01*
G75*
G02*
X35710000Y-57255000I-150000J0D01*
G01*
X35410000Y-57255000D01*
G75*
G02*
X35260000Y-57105000I0J150000D01*
G01*
X35260000Y-55755000D01*
G75*
G02*
X35410000Y-55605000I150000J0D01*
G01*
G37*
%TD*%
D15*
%TO.C,RESET1*%
X50800000Y-46210000D03*
X50800000Y-55390000D03*
%TD*%
%TO.C,R26*%
G36*
G01*
X41725001Y-63457500D02*
X40824999Y-63457500D01*
G75*
G02*
X40575000Y-63207501I0J249999D01*
G01*
X40575000Y-62682499D01*
G75*
G02*
X40824999Y-62432500I249999J0D01*
G01*
X41725001Y-62432500D01*
G75*
G02*
X41975000Y-62682499I0J-249999D01*
G01*
X41975000Y-63207501D01*
G75*
G02*
X41725001Y-63457500I-249999J0D01*
G01*
G37*
G36*
G01*
X41725001Y-65282500D02*
X40824999Y-65282500D01*
G75*
G02*
X40575000Y-65032501I0J249999D01*
G01*
X40575000Y-64507499D01*
G75*
G02*
X40824999Y-64257500I249999J0D01*
G01*
X41725001Y-64257500D01*
G75*
G02*
X41975000Y-64507499I0J-249999D01*
G01*
X41975000Y-65032501D01*
G75*
G02*
X41725001Y-65282500I-249999J0D01*
G01*
G37*
%TD*%
%TO.C,R25*%
G36*
G01*
X38919999Y-64257500D02*
X39820001Y-64257500D01*
G75*
G02*
X40070000Y-64507499I0J-249999D01*
G01*
X40070000Y-65032501D01*
G75*
G02*
X39820001Y-65282500I-249999J0D01*
G01*
X38919999Y-65282500D01*
G75*
G02*
X38670000Y-65032501I0J249999D01*
G01*
X38670000Y-64507499D01*
G75*
G02*
X38919999Y-64257500I249999J0D01*
G01*
G37*
G36*
G01*
X38919999Y-62432500D02*
X39820001Y-62432500D01*
G75*
G02*
X40070000Y-62682499I0J-249999D01*
G01*
X40070000Y-63207501D01*
G75*
G02*
X39820001Y-63457500I-249999J0D01*
G01*
X38919999Y-63457500D01*
G75*
G02*
X38670000Y-63207501I0J249999D01*
G01*
X38670000Y-62682499D01*
G75*
G02*
X38919999Y-62432500I249999J0D01*
G01*
G37*
%TD*%
%TO.C,R23*%
G36*
G01*
X47809999Y-60344000D02*
X48710001Y-60344000D01*
G75*
G02*
X48960000Y-60593999I0J-249999D01*
G01*
X48960000Y-61119001D01*
G75*
G02*
X48710001Y-61369000I-249999J0D01*
G01*
X47809999Y-61369000D01*
G75*
G02*
X47560000Y-61119001I0J249999D01*
G01*
X47560000Y-60593999D01*
G75*
G02*
X47809999Y-60344000I249999J0D01*
G01*
G37*
G36*
G01*
X47809999Y-58519000D02*
X48710001Y-58519000D01*
G75*
G02*
X48960000Y-58768999I0J-249999D01*
G01*
X48960000Y-59294001D01*
G75*
G02*
X48710001Y-59544000I-249999J0D01*
G01*
X47809999Y-59544000D01*
G75*
G02*
X47560000Y-59294001I0J249999D01*
G01*
X47560000Y-58768999D01*
G75*
G02*
X47809999Y-58519000I249999J0D01*
G01*
G37*
%TD*%
%TO.C,R22*%
G36*
G01*
X50908000Y-64954999D02*
X50908000Y-65855001D01*
G75*
G02*
X50658001Y-66105000I-249999J0D01*
G01*
X50132999Y-66105000D01*
G75*
G02*
X49883000Y-65855001I0J249999D01*
G01*
X49883000Y-64954999D01*
G75*
G02*
X50132999Y-64705000I249999J0D01*
G01*
X50658001Y-64705000D01*
G75*
G02*
X50908000Y-64954999I0J-249999D01*
G01*
G37*
G36*
G01*
X52733000Y-64954999D02*
X52733000Y-65855001D01*
G75*
G02*
X52483001Y-66105000I-249999J0D01*
G01*
X51957999Y-66105000D01*
G75*
G02*
X51708000Y-65855001I0J249999D01*
G01*
X51708000Y-64954999D01*
G75*
G02*
X51957999Y-64705000I249999J0D01*
G01*
X52483001Y-64705000D01*
G75*
G02*
X52733000Y-64954999I0J-249999D01*
G01*
G37*
%TD*%
%TO.C,R21*%
G36*
G01*
X50908000Y-62795999D02*
X50908000Y-63696001D01*
G75*
G02*
X50658001Y-63946000I-249999J0D01*
G01*
X50132999Y-63946000D01*
G75*
G02*
X49883000Y-63696001I0J249999D01*
G01*
X49883000Y-62795999D01*
G75*
G02*
X50132999Y-62546000I249999J0D01*
G01*
X50658001Y-62546000D01*
G75*
G02*
X50908000Y-62795999I0J-249999D01*
G01*
G37*
G36*
G01*
X52733000Y-62795999D02*
X52733000Y-63696001D01*
G75*
G02*
X52483001Y-63946000I-249999J0D01*
G01*
X51957999Y-63946000D01*
G75*
G02*
X51708000Y-63696001I0J249999D01*
G01*
X51708000Y-62795999D01*
G75*
G02*
X51957999Y-62546000I249999J0D01*
G01*
X52483001Y-62546000D01*
G75*
G02*
X52733000Y-62795999I0J-249999D01*
G01*
G37*
%TD*%
%TO.C,R20*%
G36*
G01*
X41090001Y-67672000D02*
X40189999Y-67672000D01*
G75*
G02*
X39940000Y-67422001I0J249999D01*
G01*
X39940000Y-66896999D01*
G75*
G02*
X40189999Y-66647000I249999J0D01*
G01*
X41090001Y-66647000D01*
G75*
G02*
X41340000Y-66896999I0J-249999D01*
G01*
X41340000Y-67422001D01*
G75*
G02*
X41090001Y-67672000I-249999J0D01*
G01*
G37*
G36*
G01*
X41090001Y-69497000D02*
X40189999Y-69497000D01*
G75*
G02*
X39940000Y-69247001I0J249999D01*
G01*
X39940000Y-68721999D01*
G75*
G02*
X40189999Y-68472000I249999J0D01*
G01*
X41090001Y-68472000D01*
G75*
G02*
X41340000Y-68721999I0J-249999D01*
G01*
X41340000Y-69247001D01*
G75*
G02*
X41090001Y-69497000I-249999J0D01*
G01*
G37*
%TD*%
%TO.C,R18*%
G36*
G01*
X32620000Y-38792999D02*
X32620000Y-39693001D01*
G75*
G02*
X32370001Y-39943000I-249999J0D01*
G01*
X31844999Y-39943000D01*
G75*
G02*
X31595000Y-39693001I0J249999D01*
G01*
X31595000Y-38792999D01*
G75*
G02*
X31844999Y-38543000I249999J0D01*
G01*
X32370001Y-38543000D01*
G75*
G02*
X32620000Y-38792999I0J-249999D01*
G01*
G37*
G36*
G01*
X34445000Y-38792999D02*
X34445000Y-39693001D01*
G75*
G02*
X34195001Y-39943000I-249999J0D01*
G01*
X33669999Y-39943000D01*
G75*
G02*
X33420000Y-39693001I0J249999D01*
G01*
X33420000Y-38792999D01*
G75*
G02*
X33669999Y-38543000I249999J0D01*
G01*
X34195001Y-38543000D01*
G75*
G02*
X34445000Y-38792999I0J-249999D01*
G01*
G37*
%TD*%
%TO.C,F2*%
G36*
G01*
X41715000Y-72250000D02*
X39565000Y-72250000D01*
G75*
G02*
X39315000Y-72000000I0J250000D01*
G01*
X39315000Y-71250000D01*
G75*
G02*
X39565000Y-71000000I250000J0D01*
G01*
X41715000Y-71000000D01*
G75*
G02*
X41965000Y-71250000I0J-250000D01*
G01*
X41965000Y-72000000D01*
G75*
G02*
X41715000Y-72250000I-250000J0D01*
G01*
G37*
G36*
G01*
X41715000Y-75050000D02*
X39565000Y-75050000D01*
G75*
G02*
X39315000Y-74800000I0J250000D01*
G01*
X39315000Y-74050000D01*
G75*
G02*
X39565000Y-73800000I250000J0D01*
G01*
X41715000Y-73800000D01*
G75*
G02*
X41965000Y-74050000I0J-250000D01*
G01*
X41965000Y-74800000D01*
G75*
G02*
X41715000Y-75050000I-250000J0D01*
G01*
G37*
%TD*%
%TO.C,D3*%
G36*
G01*
X33470000Y-41604250D02*
X33470000Y-40691750D01*
G75*
G02*
X33713750Y-40448000I243750J0D01*
G01*
X34201250Y-40448000D01*
G75*
G02*
X34445000Y-40691750I0J-243750D01*
G01*
X34445000Y-41604250D01*
G75*
G02*
X34201250Y-41848000I-243750J0D01*
G01*
X33713750Y-41848000D01*
G75*
G02*
X33470000Y-41604250I0J243750D01*
G01*
G37*
G36*
G01*
X31595000Y-41604250D02*
X31595000Y-40691750D01*
G75*
G02*
X31838750Y-40448000I243750J0D01*
G01*
X32326250Y-40448000D01*
G75*
G02*
X32570000Y-40691750I0J-243750D01*
G01*
X32570000Y-41604250D01*
G75*
G02*
X32326250Y-41848000I-243750J0D01*
G01*
X31838750Y-41848000D01*
G75*
G02*
X31595000Y-41604250I0J243750D01*
G01*
G37*
%TD*%
%TO.C,C18*%
G36*
G01*
X44000000Y-64295000D02*
X44000000Y-65245000D01*
G75*
G02*
X43750000Y-65495000I-250000J0D01*
G01*
X43250000Y-65495000D01*
G75*
G02*
X43000000Y-65245000I0J250000D01*
G01*
X43000000Y-64295000D01*
G75*
G02*
X43250000Y-64045000I250000J0D01*
G01*
X43750000Y-64045000D01*
G75*
G02*
X44000000Y-64295000I0J-250000D01*
G01*
G37*
G36*
G01*
X45900000Y-64295000D02*
X45900000Y-65245000D01*
G75*
G02*
X45650000Y-65495000I-250000J0D01*
G01*
X45150000Y-65495000D01*
G75*
G02*
X44900000Y-65245000I0J250000D01*
G01*
X44900000Y-64295000D01*
G75*
G02*
X45150000Y-64045000I250000J0D01*
G01*
X45650000Y-64045000D01*
G75*
G02*
X45900000Y-64295000I0J-250000D01*
G01*
G37*
%TD*%
%TO.C,C9*%
G36*
G01*
X46195000Y-51366000D02*
X45245000Y-51366000D01*
G75*
G02*
X44995000Y-51116000I0J250000D01*
G01*
X44995000Y-50616000D01*
G75*
G02*
X45245000Y-50366000I250000J0D01*
G01*
X46195000Y-50366000D01*
G75*
G02*
X46445000Y-50616000I0J-250000D01*
G01*
X46445000Y-51116000D01*
G75*
G02*
X46195000Y-51366000I-250000J0D01*
G01*
G37*
G36*
G01*
X46195000Y-53266000D02*
X45245000Y-53266000D01*
G75*
G02*
X44995000Y-53016000I0J250000D01*
G01*
X44995000Y-52516000D01*
G75*
G02*
X45245000Y-52266000I250000J0D01*
G01*
X46195000Y-52266000D01*
G75*
G02*
X46445000Y-52516000I0J-250000D01*
G01*
X46445000Y-53016000D01*
G75*
G02*
X46195000Y-53266000I-250000J0D01*
G01*
G37*
%TD*%
%TO.C,C4*%
G36*
G01*
X35527000Y-52509000D02*
X34577000Y-52509000D01*
G75*
G02*
X34327000Y-52259000I0J250000D01*
G01*
X34327000Y-51759000D01*
G75*
G02*
X34577000Y-51509000I250000J0D01*
G01*
X35527000Y-51509000D01*
G75*
G02*
X35777000Y-51759000I0J-250000D01*
G01*
X35777000Y-52259000D01*
G75*
G02*
X35527000Y-52509000I-250000J0D01*
G01*
G37*
G36*
G01*
X35527000Y-54409000D02*
X34577000Y-54409000D01*
G75*
G02*
X34327000Y-54159000I0J250000D01*
G01*
X34327000Y-53659000D01*
G75*
G02*
X34577000Y-53409000I250000J0D01*
G01*
X35527000Y-53409000D01*
G75*
G02*
X35777000Y-53659000I0J-250000D01*
G01*
X35777000Y-54159000D01*
G75*
G02*
X35527000Y-54409000I-250000J0D01*
G01*
G37*
%TD*%
%TO.C,C1*%
G36*
G01*
X44000000Y-62390000D02*
X44000000Y-63340000D01*
G75*
G02*
X43750000Y-63590000I-250000J0D01*
G01*
X43250000Y-63590000D01*
G75*
G02*
X43000000Y-63340000I0J250000D01*
G01*
X43000000Y-62390000D01*
G75*
G02*
X43250000Y-62140000I250000J0D01*
G01*
X43750000Y-62140000D01*
G75*
G02*
X44000000Y-62390000I0J-250000D01*
G01*
G37*
G36*
G01*
X45900000Y-62390000D02*
X45900000Y-63340000D01*
G75*
G02*
X45650000Y-63590000I-250000J0D01*
G01*
X45150000Y-63590000D01*
G75*
G02*
X44900000Y-63340000I0J250000D01*
G01*
X44900000Y-62390000D01*
G75*
G02*
X45150000Y-62140000I250000J0D01*
G01*
X45650000Y-62140000D01*
G75*
G02*
X45900000Y-62390000I0J-250000D01*
G01*
G37*
%TD*%
M02*
