%TF.GenerationSoftware,KiCad,Pcbnew,5.1.9-73d0e3b20d~88~ubuntu20.04.1*%
%TF.CreationDate,2021-03-24T22:26:07+08:00*%
%TF.ProjectId,elec-car,656c6563-2d63-4617-922e-6b696361645f,rev?*%
%TF.SameCoordinates,Original*%
%TF.FileFunction,Legend,Bot*%
%TF.FilePolarity,Positive*%
%FSLAX46Y46*%
G04 Gerber Fmt 4.6, Leading zero omitted, Abs format (unit mm)*
G04 Created by KiCad (PCBNEW 5.1.9-73d0e3b20d~88~ubuntu20.04.1) date 2021-03-24 22:26:07*
%MOMM*%
%LPD*%
G01*
G04 APERTURE LIST*
%ADD10C,0.300000*%
%ADD11C,0.120000*%
%ADD12C,0.150000*%
G04 APERTURE END LIST*
D10*
X122003428Y-110180285D02*
X123503428Y-110180285D01*
X122432000Y-109680285D01*
X123503428Y-109180285D01*
X122003428Y-109180285D01*
X123360571Y-108537428D02*
X123432000Y-108466000D01*
X123503428Y-108323142D01*
X123503428Y-107966000D01*
X123432000Y-107823142D01*
X123360571Y-107751714D01*
X123217714Y-107680285D01*
X123074857Y-107680285D01*
X122860571Y-107751714D01*
X122003428Y-108608857D01*
X122003428Y-107680285D01*
X122003428Y-104084285D02*
X123503428Y-104084285D01*
X122432000Y-103584285D01*
X123503428Y-103084285D01*
X122003428Y-103084285D01*
X122003428Y-101584285D02*
X122003428Y-102441428D01*
X122003428Y-102012857D02*
X123503428Y-102012857D01*
X123289142Y-102155714D01*
X123146285Y-102298571D01*
X123074857Y-102441428D01*
X122003428Y-97734285D02*
X123503428Y-97734285D01*
X122432000Y-97234285D01*
X123503428Y-96734285D01*
X122003428Y-96734285D01*
X123503428Y-95734285D02*
X123503428Y-95591428D01*
X123432000Y-95448571D01*
X123360571Y-95377142D01*
X123217714Y-95305714D01*
X122932000Y-95234285D01*
X122574857Y-95234285D01*
X122289142Y-95305714D01*
X122146285Y-95377142D01*
X122074857Y-95448571D01*
X122003428Y-95591428D01*
X122003428Y-95734285D01*
X122074857Y-95877142D01*
X122146285Y-95948571D01*
X122289142Y-96020000D01*
X122574857Y-96091428D01*
X122932000Y-96091428D01*
X123217714Y-96020000D01*
X123360571Y-95948571D01*
X123432000Y-95877142D01*
X123503428Y-95734285D01*
X181300285Y-152316571D02*
X181300285Y-150816571D01*
X180800285Y-151888000D01*
X180300285Y-150816571D01*
X180300285Y-152316571D01*
X179657428Y-150959428D02*
X179586000Y-150888000D01*
X179443142Y-150816571D01*
X179086000Y-150816571D01*
X178943142Y-150888000D01*
X178871714Y-150959428D01*
X178800285Y-151102285D01*
X178800285Y-151245142D01*
X178871714Y-151459428D01*
X179728857Y-152316571D01*
X178800285Y-152316571D01*
X166060285Y-152316571D02*
X166060285Y-150816571D01*
X165560285Y-151888000D01*
X165060285Y-150816571D01*
X165060285Y-152316571D01*
X163560285Y-152316571D02*
X164417428Y-152316571D01*
X163988857Y-152316571D02*
X163988857Y-150816571D01*
X164131714Y-151030857D01*
X164274571Y-151173714D01*
X164417428Y-151245142D01*
X151074285Y-152316571D02*
X151074285Y-150816571D01*
X150574285Y-151888000D01*
X150074285Y-150816571D01*
X150074285Y-152316571D01*
X149074285Y-150816571D02*
X148931428Y-150816571D01*
X148788571Y-150888000D01*
X148717142Y-150959428D01*
X148645714Y-151102285D01*
X148574285Y-151388000D01*
X148574285Y-151745142D01*
X148645714Y-152030857D01*
X148717142Y-152173714D01*
X148788571Y-152245142D01*
X148931428Y-152316571D01*
X149074285Y-152316571D01*
X149217142Y-152245142D01*
X149288571Y-152173714D01*
X149360000Y-152030857D01*
X149431428Y-151745142D01*
X149431428Y-151388000D01*
X149360000Y-151102285D01*
X149288571Y-150959428D01*
X149217142Y-150888000D01*
X149074285Y-150816571D01*
D11*
%TO.C,D11*%
X192737430Y-139736007D02*
X189087430Y-146057993D01*
X197500570Y-142486007D02*
X193850570Y-148807993D01*
X193850570Y-148807993D02*
X192854641Y-148232993D01*
%TO.C,D10*%
X140350570Y-145295993D02*
X136700570Y-138974007D01*
X135587430Y-148045993D02*
X131937430Y-141724007D01*
X131937430Y-141724007D02*
X132933359Y-141149007D01*
%TO.C,D9*%
X123840570Y-117101993D02*
X120190570Y-110780007D01*
X119077430Y-119851993D02*
X115427430Y-113530007D01*
X115427430Y-113530007D02*
X116423359Y-112955007D01*
%TO.C,D8*%
X145194000Y-67774000D02*
X152494000Y-67774000D01*
X145194000Y-62274000D02*
X152494000Y-62274000D01*
X152494000Y-62274000D02*
X152494000Y-63424000D01*
%TO.C,D7*%
X176944000Y-67520000D02*
X184244000Y-67520000D01*
X176944000Y-62020000D02*
X184244000Y-62020000D01*
X184244000Y-62020000D02*
X184244000Y-63170000D01*
%TO.C,D6*%
X209501430Y-111542007D02*
X205851430Y-117863993D01*
X214264570Y-114292007D02*
X210614570Y-120613993D01*
X210614570Y-120613993D02*
X209618641Y-120038993D01*
%TO.C,C37*%
X206321252Y-112295000D02*
X205798748Y-112295000D01*
X206321252Y-113765000D02*
X205798748Y-113765000D01*
%TO.C,C36*%
X186951252Y-137060000D02*
X186428748Y-137060000D01*
X186951252Y-138530000D02*
X186428748Y-138530000D01*
%TO.C,C22*%
X163060748Y-115343000D02*
X163583252Y-115343000D01*
X163060748Y-116813000D02*
X163583252Y-116813000D01*
%TO.C,C17*%
X159438748Y-115343000D02*
X159961252Y-115343000D01*
X159438748Y-116813000D02*
X159961252Y-116813000D01*
%TO.C,R28*%
X166650936Y-119353000D02*
X167105064Y-119353000D01*
X166650936Y-117883000D02*
X167105064Y-117883000D01*
%TO.C,C12*%
X163060748Y-119353000D02*
X163583252Y-119353000D01*
X163060748Y-117883000D02*
X163583252Y-117883000D01*
%TO.C,C21*%
X182820000Y-134424000D02*
X182820000Y-137174000D01*
X182820000Y-142944000D02*
X182820000Y-140194000D01*
X175364437Y-142944000D02*
X182820000Y-142944000D01*
X175364437Y-134424000D02*
X182820000Y-134424000D01*
X174300000Y-135488437D02*
X174300000Y-137174000D01*
X174300000Y-141879563D02*
X174300000Y-140194000D01*
X174300000Y-141879563D02*
X175364437Y-142944000D01*
X174300000Y-135488437D02*
X175364437Y-134424000D01*
X173060000Y-141194000D02*
X174060000Y-141194000D01*
X173560000Y-141694000D02*
X173560000Y-140694000D01*
%TO.C,U15*%
X209854957Y-148539523D02*
X206335429Y-146507523D01*
X222554957Y-126542477D02*
X209854957Y-148539523D01*
X219035429Y-124510477D02*
X222554957Y-126542477D01*
X204957320Y-116382477D02*
X192257320Y-138379523D01*
X173821162Y-104271886D02*
X178220571Y-106811886D01*
X170011162Y-110871000D02*
X173821162Y-104271886D01*
X166201162Y-117470114D02*
X170600571Y-120010114D01*
X170011162Y-110871000D02*
X166201162Y-117470114D01*
X227464809Y-120578364D02*
X236043657Y-125531364D01*
X207144809Y-155773636D02*
X227464809Y-120578364D01*
X215723657Y-160726636D02*
X207144809Y-155773636D01*
X236043657Y-125531364D02*
X215723657Y-160726636D01*
X212685429Y-135509000D02*
X225883657Y-143129000D01*
X193548000Y-124460000D02*
X212685429Y-135509000D01*
X168060571Y-124409523D02*
X219035429Y-124510477D01*
X206335429Y-146507523D02*
X180760571Y-102412477D01*
X206335429Y-146507523D02*
X168060571Y-124409523D01*
X219035429Y-124510477D02*
X206335429Y-146507523D01*
X180760571Y-102412477D02*
X219035429Y-124510477D01*
X168060571Y-124409523D02*
X180760571Y-102412477D01*
%TO.C,U14*%
X149312429Y-102412477D02*
X162012429Y-124409523D01*
X162012429Y-124409523D02*
X123737571Y-146507523D01*
X123737571Y-146507523D02*
X111037571Y-124510477D01*
X111037571Y-124510477D02*
X149312429Y-102412477D01*
X111037571Y-124510477D02*
X162012429Y-124409523D01*
X149312429Y-102412477D02*
X123737571Y-146507523D01*
X136525000Y-124460000D02*
X117387571Y-135509000D01*
X117387571Y-135509000D02*
X104189343Y-143129000D01*
X114349343Y-160726636D02*
X94029343Y-125531364D01*
X94029343Y-125531364D02*
X102608191Y-120578364D01*
X102608191Y-120578364D02*
X122928191Y-155773636D01*
X122928191Y-155773636D02*
X114349343Y-160726636D01*
X160061838Y-110871000D02*
X156251838Y-104271886D01*
X156251838Y-104271886D02*
X151852429Y-106811886D01*
X160061838Y-110871000D02*
X163871838Y-117470114D01*
X163871838Y-117470114D02*
X159472429Y-120010114D01*
X137815680Y-138379523D02*
X125115680Y-116382477D01*
X123737571Y-146507523D02*
X120218043Y-148539523D01*
X120218043Y-148539523D02*
X107518043Y-126542477D01*
X107518043Y-126542477D02*
X111037571Y-124510477D01*
%TO.C,U13*%
X177800000Y-97028000D02*
X152400000Y-97028000D01*
X152400000Y-97028000D02*
X152400000Y-52832000D01*
X152400000Y-52832000D02*
X177800000Y-52832000D01*
X177800000Y-52832000D02*
X177800000Y-97028000D01*
X177800000Y-52832000D02*
X152400000Y-97028000D01*
X177800000Y-97028000D02*
X152400000Y-52832000D01*
X165100000Y-74930000D02*
X165100000Y-52832000D01*
X165100000Y-52832000D02*
X165100000Y-37592000D01*
X144780000Y-37592000D02*
X185420000Y-37592000D01*
X185420000Y-37592000D02*
X185420000Y-47498000D01*
X185420000Y-47498000D02*
X144780000Y-47498000D01*
X144780000Y-47498000D02*
X144780000Y-37592000D01*
X165100000Y-102108000D02*
X172720000Y-102108000D01*
X172720000Y-102108000D02*
X172720000Y-97028000D01*
X165100000Y-102108000D02*
X157480000Y-102108000D01*
X157480000Y-102108000D02*
X157480000Y-97028000D01*
X152400000Y-69088000D02*
X177800000Y-69088000D01*
X152400000Y-52832000D02*
X152400000Y-48768000D01*
X152400000Y-48768000D02*
X177800000Y-48768000D01*
X177800000Y-48768000D02*
X177800000Y-52832000D01*
D12*
%TO.C,U2*%
X167250000Y-110100000D02*
X167250000Y-109575000D01*
X162950000Y-105800000D02*
X162950000Y-106325000D01*
X167250000Y-105800000D02*
X167250000Y-106325000D01*
X162950000Y-110100000D02*
X163475000Y-110100000D01*
X162950000Y-105800000D02*
X163475000Y-105800000D01*
X167250000Y-105800000D02*
X166725000Y-105800000D01*
X167250000Y-110100000D02*
X166725000Y-110100000D01*
D11*
%TO.C,J8*%
X123970000Y-93870000D02*
X129990000Y-93870000D01*
X129990000Y-93870000D02*
X129990000Y-99170000D01*
X129990000Y-99170000D02*
X123970000Y-99170000D01*
X123970000Y-99170000D02*
X123970000Y-93870000D01*
X125000000Y-93580000D02*
X129000000Y-93580000D01*
X129990000Y-95250000D02*
X128990000Y-95250000D01*
X128990000Y-95250000D02*
X128990000Y-97790000D01*
X128990000Y-97790000D02*
X129990000Y-97790000D01*
X128990000Y-95250000D02*
X128460000Y-95500000D01*
X128460000Y-95500000D02*
X128460000Y-97540000D01*
X128460000Y-97540000D02*
X128990000Y-97790000D01*
X129990000Y-95500000D02*
X128990000Y-95500000D01*
X129990000Y-97540000D02*
X128990000Y-97540000D01*
X123970000Y-94450000D02*
X124570000Y-94450000D01*
X124570000Y-94450000D02*
X124570000Y-96050000D01*
X124570000Y-96050000D02*
X123970000Y-96050000D01*
X123970000Y-96990000D02*
X124570000Y-96990000D01*
X124570000Y-96990000D02*
X124570000Y-98590000D01*
X124570000Y-98590000D02*
X123970000Y-98590000D01*
%TO.C,J7*%
X173880000Y-150350000D02*
X173880000Y-144330000D01*
X173880000Y-144330000D02*
X186800000Y-144330000D01*
X186800000Y-144330000D02*
X186800000Y-150350000D01*
X186800000Y-150350000D02*
X173880000Y-150350000D01*
X173590000Y-149320000D02*
X173590000Y-145320000D01*
X175260000Y-144330000D02*
X175260000Y-145330000D01*
X175260000Y-145330000D02*
X185420000Y-145330000D01*
X185420000Y-145330000D02*
X185420000Y-144330000D01*
X175260000Y-145330000D02*
X175510000Y-145860000D01*
X175510000Y-145860000D02*
X185170000Y-145860000D01*
X185170000Y-145860000D02*
X185420000Y-145330000D01*
X175510000Y-144330000D02*
X175510000Y-145330000D01*
X185170000Y-144330000D02*
X185170000Y-145330000D01*
X174460000Y-150350000D02*
X174460000Y-149750000D01*
X174460000Y-149750000D02*
X176060000Y-149750000D01*
X176060000Y-149750000D02*
X176060000Y-150350000D01*
X177000000Y-150350000D02*
X177000000Y-149750000D01*
X177000000Y-149750000D02*
X178600000Y-149750000D01*
X178600000Y-149750000D02*
X178600000Y-150350000D01*
X179540000Y-150350000D02*
X179540000Y-149750000D01*
X179540000Y-149750000D02*
X181140000Y-149750000D01*
X181140000Y-149750000D02*
X181140000Y-150350000D01*
X182080000Y-150350000D02*
X182080000Y-149750000D01*
X182080000Y-149750000D02*
X183680000Y-149750000D01*
X183680000Y-149750000D02*
X183680000Y-150350000D01*
X184620000Y-150350000D02*
X184620000Y-149750000D01*
X184620000Y-149750000D02*
X186220000Y-149750000D01*
X186220000Y-149750000D02*
X186220000Y-150350000D01*
%TO.C,J6*%
X123970000Y-100220000D02*
X129990000Y-100220000D01*
X129990000Y-100220000D02*
X129990000Y-105520000D01*
X129990000Y-105520000D02*
X123970000Y-105520000D01*
X123970000Y-105520000D02*
X123970000Y-100220000D01*
X125000000Y-99930000D02*
X129000000Y-99930000D01*
X129990000Y-101600000D02*
X128990000Y-101600000D01*
X128990000Y-101600000D02*
X128990000Y-104140000D01*
X128990000Y-104140000D02*
X129990000Y-104140000D01*
X128990000Y-101600000D02*
X128460000Y-101850000D01*
X128460000Y-101850000D02*
X128460000Y-103890000D01*
X128460000Y-103890000D02*
X128990000Y-104140000D01*
X129990000Y-101850000D02*
X128990000Y-101850000D01*
X129990000Y-103890000D02*
X128990000Y-103890000D01*
X123970000Y-100800000D02*
X124570000Y-100800000D01*
X124570000Y-100800000D02*
X124570000Y-102400000D01*
X124570000Y-102400000D02*
X123970000Y-102400000D01*
X123970000Y-103340000D02*
X124570000Y-103340000D01*
X124570000Y-103340000D02*
X124570000Y-104940000D01*
X124570000Y-104940000D02*
X123970000Y-104940000D01*
%TO.C,J5*%
X143400000Y-150350000D02*
X143400000Y-144330000D01*
X143400000Y-144330000D02*
X156320000Y-144330000D01*
X156320000Y-144330000D02*
X156320000Y-150350000D01*
X156320000Y-150350000D02*
X143400000Y-150350000D01*
X143110000Y-149320000D02*
X143110000Y-145320000D01*
X144780000Y-144330000D02*
X144780000Y-145330000D01*
X144780000Y-145330000D02*
X154940000Y-145330000D01*
X154940000Y-145330000D02*
X154940000Y-144330000D01*
X144780000Y-145330000D02*
X145030000Y-145860000D01*
X145030000Y-145860000D02*
X154690000Y-145860000D01*
X154690000Y-145860000D02*
X154940000Y-145330000D01*
X145030000Y-144330000D02*
X145030000Y-145330000D01*
X154690000Y-144330000D02*
X154690000Y-145330000D01*
X143980000Y-150350000D02*
X143980000Y-149750000D01*
X143980000Y-149750000D02*
X145580000Y-149750000D01*
X145580000Y-149750000D02*
X145580000Y-150350000D01*
X146520000Y-150350000D02*
X146520000Y-149750000D01*
X146520000Y-149750000D02*
X148120000Y-149750000D01*
X148120000Y-149750000D02*
X148120000Y-150350000D01*
X149060000Y-150350000D02*
X149060000Y-149750000D01*
X149060000Y-149750000D02*
X150660000Y-149750000D01*
X150660000Y-149750000D02*
X150660000Y-150350000D01*
X151600000Y-150350000D02*
X151600000Y-149750000D01*
X151600000Y-149750000D02*
X153200000Y-149750000D01*
X153200000Y-149750000D02*
X153200000Y-150350000D01*
X154140000Y-150350000D02*
X154140000Y-149750000D01*
X154140000Y-149750000D02*
X155740000Y-149750000D01*
X155740000Y-149750000D02*
X155740000Y-150350000D01*
%TO.C,J4*%
X123970000Y-106570000D02*
X129990000Y-106570000D01*
X129990000Y-106570000D02*
X129990000Y-111870000D01*
X129990000Y-111870000D02*
X123970000Y-111870000D01*
X123970000Y-111870000D02*
X123970000Y-106570000D01*
X125000000Y-106280000D02*
X129000000Y-106280000D01*
X129990000Y-107950000D02*
X128990000Y-107950000D01*
X128990000Y-107950000D02*
X128990000Y-110490000D01*
X128990000Y-110490000D02*
X129990000Y-110490000D01*
X128990000Y-107950000D02*
X128460000Y-108200000D01*
X128460000Y-108200000D02*
X128460000Y-110240000D01*
X128460000Y-110240000D02*
X128990000Y-110490000D01*
X129990000Y-108200000D02*
X128990000Y-108200000D01*
X129990000Y-110240000D02*
X128990000Y-110240000D01*
X123970000Y-107150000D02*
X124570000Y-107150000D01*
X124570000Y-107150000D02*
X124570000Y-108750000D01*
X124570000Y-108750000D02*
X123970000Y-108750000D01*
X123970000Y-109690000D02*
X124570000Y-109690000D01*
X124570000Y-109690000D02*
X124570000Y-111290000D01*
X124570000Y-111290000D02*
X123970000Y-111290000D01*
%TO.C,J3*%
X158640000Y-150350000D02*
X158640000Y-144330000D01*
X158640000Y-144330000D02*
X171560000Y-144330000D01*
X171560000Y-144330000D02*
X171560000Y-150350000D01*
X171560000Y-150350000D02*
X158640000Y-150350000D01*
X158350000Y-149320000D02*
X158350000Y-145320000D01*
X160020000Y-144330000D02*
X160020000Y-145330000D01*
X160020000Y-145330000D02*
X170180000Y-145330000D01*
X170180000Y-145330000D02*
X170180000Y-144330000D01*
X160020000Y-145330000D02*
X160270000Y-145860000D01*
X160270000Y-145860000D02*
X169930000Y-145860000D01*
X169930000Y-145860000D02*
X170180000Y-145330000D01*
X160270000Y-144330000D02*
X160270000Y-145330000D01*
X169930000Y-144330000D02*
X169930000Y-145330000D01*
X159220000Y-150350000D02*
X159220000Y-149750000D01*
X159220000Y-149750000D02*
X160820000Y-149750000D01*
X160820000Y-149750000D02*
X160820000Y-150350000D01*
X161760000Y-150350000D02*
X161760000Y-149750000D01*
X161760000Y-149750000D02*
X163360000Y-149750000D01*
X163360000Y-149750000D02*
X163360000Y-150350000D01*
X164300000Y-150350000D02*
X164300000Y-149750000D01*
X164300000Y-149750000D02*
X165900000Y-149750000D01*
X165900000Y-149750000D02*
X165900000Y-150350000D01*
X166840000Y-150350000D02*
X166840000Y-149750000D01*
X166840000Y-149750000D02*
X168440000Y-149750000D01*
X168440000Y-149750000D02*
X168440000Y-150350000D01*
X169380000Y-150350000D02*
X169380000Y-149750000D01*
X169380000Y-149750000D02*
X170980000Y-149750000D01*
X170980000Y-149750000D02*
X170980000Y-150350000D01*
%TO.C,C25*%
X184939000Y-134866748D02*
X184939000Y-135389252D01*
X186409000Y-134866748D02*
X186409000Y-135389252D01*
%TO.C,C20*%
X156029252Y-134393000D02*
X155506748Y-134393000D01*
X156029252Y-135863000D02*
X155506748Y-135863000D01*
%TO.C,C16*%
X152340000Y-134424000D02*
X152340000Y-137174000D01*
X152340000Y-142944000D02*
X152340000Y-140194000D01*
X144884437Y-142944000D02*
X152340000Y-142944000D01*
X144884437Y-134424000D02*
X152340000Y-134424000D01*
X143820000Y-135488437D02*
X143820000Y-137174000D01*
X143820000Y-141879563D02*
X143820000Y-140194000D01*
X143820000Y-141879563D02*
X144884437Y-142944000D01*
X143820000Y-135488437D02*
X144884437Y-134424000D01*
X142580000Y-141194000D02*
X143580000Y-141194000D01*
X143080000Y-141694000D02*
X143080000Y-140694000D01*
%TO.C,C15*%
X171269252Y-134393000D02*
X170746748Y-134393000D01*
X171269252Y-135863000D02*
X170746748Y-135863000D01*
%TO.C,C11*%
X167580000Y-134424000D02*
X167580000Y-137174000D01*
X167580000Y-142944000D02*
X167580000Y-140194000D01*
X160124437Y-142944000D02*
X167580000Y-142944000D01*
X160124437Y-134424000D02*
X167580000Y-134424000D01*
X159060000Y-135488437D02*
X159060000Y-137174000D01*
X159060000Y-141879563D02*
X159060000Y-140194000D01*
X159060000Y-141879563D02*
X160124437Y-142944000D01*
X159060000Y-135488437D02*
X160124437Y-134424000D01*
X157820000Y-141194000D02*
X158820000Y-141194000D01*
X158320000Y-141694000D02*
X158320000Y-140694000D01*
%TO.C,C8*%
X163060748Y-125449000D02*
X163583252Y-125449000D01*
X163060748Y-123979000D02*
X163583252Y-123979000D01*
%TO.C,C5*%
X167139252Y-123979000D02*
X166616748Y-123979000D01*
X167139252Y-125449000D02*
X166616748Y-125449000D01*
%TO.C,C4*%
X163060748Y-123417000D02*
X163583252Y-123417000D01*
X163060748Y-121947000D02*
X163583252Y-121947000D01*
%TO.C,C3*%
X167139252Y-121947000D02*
X166616748Y-121947000D01*
X167139252Y-123417000D02*
X166616748Y-123417000D01*
%TO.C,C2*%
X167139252Y-119915000D02*
X166616748Y-119915000D01*
X167139252Y-121385000D02*
X166616748Y-121385000D01*
%TO.C,C1*%
X163060748Y-121385000D02*
X163583252Y-121385000D01*
X163060748Y-119915000D02*
X163583252Y-119915000D01*
%TO.C,D11*%
D12*
X191261827Y-141696588D02*
X190395801Y-141196588D01*
X190276754Y-141402784D01*
X190246564Y-141550312D01*
X190281424Y-141680409D01*
X190340093Y-141769268D01*
X190481241Y-141905745D01*
X190604959Y-141977174D01*
X190793725Y-142031172D01*
X190900014Y-142037552D01*
X191030111Y-142002693D01*
X191142779Y-141902784D01*
X191261827Y-141696588D01*
X190499922Y-143016245D02*
X190785636Y-142521374D01*
X190642779Y-142768810D02*
X189776754Y-142268810D01*
X189948091Y-142257760D01*
X190078188Y-142222900D01*
X190167047Y-142164231D01*
X190023732Y-143841032D02*
X190309446Y-143346160D01*
X190166589Y-143593596D02*
X189300563Y-143093596D01*
X189471900Y-143082546D01*
X189601998Y-143047686D01*
X189690856Y-142989017D01*
X194232275Y-140351621D02*
X194517989Y-139856749D01*
X194375132Y-140104185D02*
X193509106Y-139604185D01*
X193680443Y-139593135D01*
X193810541Y-139558275D01*
X193899399Y-139499606D01*
%TO.C,D10*%
X139390458Y-143037792D02*
X140256483Y-142537792D01*
X140137436Y-142331596D01*
X140024768Y-142231687D01*
X139894670Y-142196828D01*
X139788382Y-142203208D01*
X139599615Y-142257206D01*
X139475897Y-142328635D01*
X139334750Y-142465112D01*
X139276081Y-142553971D01*
X139241221Y-142684068D01*
X139271410Y-142831596D01*
X139390458Y-143037792D01*
X138628553Y-141718134D02*
X138914267Y-142213006D01*
X138771410Y-141965570D02*
X139637436Y-141465570D01*
X139561337Y-141619478D01*
X139526477Y-141749575D01*
X139532857Y-141855863D01*
X139185055Y-140682024D02*
X139137436Y-140599545D01*
X139048577Y-140540876D01*
X138983529Y-140523446D01*
X138877240Y-140529826D01*
X138688474Y-140583825D01*
X138482277Y-140702872D01*
X138341129Y-140839350D01*
X138282460Y-140928208D01*
X138265031Y-140993257D01*
X138271410Y-141099545D01*
X138319029Y-141182024D01*
X138407888Y-141240693D01*
X138472937Y-141258122D01*
X138579225Y-141251743D01*
X138767991Y-141197744D01*
X138974188Y-141078696D01*
X139115336Y-140942219D01*
X139174005Y-140853360D01*
X139191435Y-140788312D01*
X139185055Y-140682024D01*
X139070010Y-146282759D02*
X139355724Y-146777631D01*
X139212867Y-146530195D02*
X140078893Y-146030195D01*
X140002794Y-146184102D01*
X139967934Y-146314200D01*
X139974314Y-146420488D01*
%TO.C,D9*%
X122642363Y-114431399D02*
X123508388Y-113931399D01*
X123389341Y-113725203D01*
X123276673Y-113625294D01*
X123146575Y-113590435D01*
X123040287Y-113596814D01*
X122851520Y-113650813D01*
X122727802Y-113722242D01*
X122586654Y-113858719D01*
X122527985Y-113947578D01*
X122493126Y-114077675D01*
X122523315Y-114225203D01*
X122642363Y-114431399D01*
X122118553Y-113524134D02*
X122023315Y-113359177D01*
X122016935Y-113252889D01*
X122034365Y-113187840D01*
X122110464Y-113033933D01*
X122251612Y-112897456D01*
X122581526Y-112706980D01*
X122687814Y-112700600D01*
X122752863Y-112718030D01*
X122841721Y-112776699D01*
X122936960Y-112941656D01*
X122943339Y-113047944D01*
X122925910Y-113112993D01*
X122867240Y-113201851D01*
X122661044Y-113320899D01*
X122554756Y-113327279D01*
X122489707Y-113309849D01*
X122400849Y-113251180D01*
X122305610Y-113086222D01*
X122299231Y-112979934D01*
X122316661Y-112914886D01*
X122375330Y-112826027D01*
X122560010Y-118088759D02*
X122845724Y-118583631D01*
X122702867Y-118336195D02*
X123568893Y-117836195D01*
X123492794Y-117990102D01*
X123457934Y-118120200D01*
X123464314Y-118226488D01*
%TO.C,D8*%
X149582095Y-68976380D02*
X149582095Y-67976380D01*
X149344000Y-67976380D01*
X149201142Y-68024000D01*
X149105904Y-68119238D01*
X149058285Y-68214476D01*
X149010666Y-68404952D01*
X149010666Y-68547809D01*
X149058285Y-68738285D01*
X149105904Y-68833523D01*
X149201142Y-68928761D01*
X149344000Y-68976380D01*
X149582095Y-68976380D01*
X148439238Y-68404952D02*
X148534476Y-68357333D01*
X148582095Y-68309714D01*
X148629714Y-68214476D01*
X148629714Y-68166857D01*
X148582095Y-68071619D01*
X148534476Y-68024000D01*
X148439238Y-67976380D01*
X148248761Y-67976380D01*
X148153523Y-68024000D01*
X148105904Y-68071619D01*
X148058285Y-68166857D01*
X148058285Y-68214476D01*
X148105904Y-68309714D01*
X148153523Y-68357333D01*
X148248761Y-68404952D01*
X148439238Y-68404952D01*
X148534476Y-68452571D01*
X148582095Y-68500190D01*
X148629714Y-68595428D01*
X148629714Y-68785904D01*
X148582095Y-68881142D01*
X148534476Y-68928761D01*
X148439238Y-68976380D01*
X148248761Y-68976380D01*
X148153523Y-68928761D01*
X148105904Y-68881142D01*
X148058285Y-68785904D01*
X148058285Y-68595428D01*
X148105904Y-68500190D01*
X148153523Y-68452571D01*
X148248761Y-68404952D01*
X144408285Y-67076380D02*
X144979714Y-67076380D01*
X144694000Y-67076380D02*
X144694000Y-66076380D01*
X144789238Y-66219238D01*
X144884476Y-66314476D01*
X144979714Y-66362095D01*
%TO.C,D7*%
X181332095Y-68722380D02*
X181332095Y-67722380D01*
X181094000Y-67722380D01*
X180951142Y-67770000D01*
X180855904Y-67865238D01*
X180808285Y-67960476D01*
X180760666Y-68150952D01*
X180760666Y-68293809D01*
X180808285Y-68484285D01*
X180855904Y-68579523D01*
X180951142Y-68674761D01*
X181094000Y-68722380D01*
X181332095Y-68722380D01*
X180427333Y-67722380D02*
X179760666Y-67722380D01*
X180189238Y-68722380D01*
X176158285Y-66822380D02*
X176729714Y-66822380D01*
X176444000Y-66822380D02*
X176444000Y-65822380D01*
X176539238Y-65965238D01*
X176634476Y-66060476D01*
X176729714Y-66108095D01*
%TO.C,D6*%
X207008821Y-115156981D02*
X206142795Y-114656981D01*
X206023747Y-114863177D01*
X205993558Y-115010705D01*
X206028418Y-115140802D01*
X206087087Y-115229661D01*
X206228235Y-115366138D01*
X206351952Y-115437567D01*
X206540719Y-115491565D01*
X206647007Y-115497945D01*
X206777105Y-115463086D01*
X206889773Y-115363177D01*
X207008821Y-115156981D01*
X205428509Y-115894160D02*
X205523747Y-115729203D01*
X205612606Y-115670534D01*
X205677655Y-115653104D01*
X205848992Y-115642054D01*
X206037758Y-115696053D01*
X206367673Y-115886529D01*
X206426342Y-115975387D01*
X206443772Y-116040436D01*
X206437392Y-116146724D01*
X206342154Y-116311681D01*
X206253295Y-116370350D01*
X206188247Y-116387780D01*
X206081959Y-116381400D01*
X205875762Y-116262353D01*
X205817093Y-116173494D01*
X205799663Y-116108446D01*
X205806043Y-116002157D01*
X205901281Y-115837200D01*
X205990139Y-115778531D01*
X206055188Y-115761101D01*
X206161476Y-115767481D01*
X210996275Y-112157621D02*
X211281989Y-111662749D01*
X211139132Y-111910185D02*
X210273106Y-111410185D01*
X210444443Y-111399135D01*
X210574541Y-111364275D01*
X210663399Y-111305606D01*
%TO.C,C37*%
X206702857Y-111707142D02*
X206750476Y-111754761D01*
X206893333Y-111802380D01*
X206988571Y-111802380D01*
X207131428Y-111754761D01*
X207226666Y-111659523D01*
X207274285Y-111564285D01*
X207321904Y-111373809D01*
X207321904Y-111230952D01*
X207274285Y-111040476D01*
X207226666Y-110945238D01*
X207131428Y-110850000D01*
X206988571Y-110802380D01*
X206893333Y-110802380D01*
X206750476Y-110850000D01*
X206702857Y-110897619D01*
X206369523Y-110802380D02*
X205750476Y-110802380D01*
X206083809Y-111183333D01*
X205940952Y-111183333D01*
X205845714Y-111230952D01*
X205798095Y-111278571D01*
X205750476Y-111373809D01*
X205750476Y-111611904D01*
X205798095Y-111707142D01*
X205845714Y-111754761D01*
X205940952Y-111802380D01*
X206226666Y-111802380D01*
X206321904Y-111754761D01*
X206369523Y-111707142D01*
X205417142Y-110802380D02*
X204750476Y-110802380D01*
X205179047Y-111802380D01*
%TO.C,C36*%
X187332857Y-139803142D02*
X187380476Y-139850761D01*
X187523333Y-139898380D01*
X187618571Y-139898380D01*
X187761428Y-139850761D01*
X187856666Y-139755523D01*
X187904285Y-139660285D01*
X187951904Y-139469809D01*
X187951904Y-139326952D01*
X187904285Y-139136476D01*
X187856666Y-139041238D01*
X187761428Y-138946000D01*
X187618571Y-138898380D01*
X187523333Y-138898380D01*
X187380476Y-138946000D01*
X187332857Y-138993619D01*
X186999523Y-138898380D02*
X186380476Y-138898380D01*
X186713809Y-139279333D01*
X186570952Y-139279333D01*
X186475714Y-139326952D01*
X186428095Y-139374571D01*
X186380476Y-139469809D01*
X186380476Y-139707904D01*
X186428095Y-139803142D01*
X186475714Y-139850761D01*
X186570952Y-139898380D01*
X186856666Y-139898380D01*
X186951904Y-139850761D01*
X186999523Y-139803142D01*
X185523333Y-138898380D02*
X185713809Y-138898380D01*
X185809047Y-138946000D01*
X185856666Y-138993619D01*
X185951904Y-139136476D01*
X185999523Y-139326952D01*
X185999523Y-139707904D01*
X185951904Y-139803142D01*
X185904285Y-139850761D01*
X185809047Y-139898380D01*
X185618571Y-139898380D01*
X185523333Y-139850761D01*
X185475714Y-139803142D01*
X185428095Y-139707904D01*
X185428095Y-139469809D01*
X185475714Y-139374571D01*
X185523333Y-139326952D01*
X185618571Y-139279333D01*
X185809047Y-139279333D01*
X185904285Y-139326952D01*
X185951904Y-139374571D01*
X185999523Y-139469809D01*
%TO.C,C22*%
X167012857Y-116435142D02*
X167060476Y-116482761D01*
X167203333Y-116530380D01*
X167298571Y-116530380D01*
X167441428Y-116482761D01*
X167536666Y-116387523D01*
X167584285Y-116292285D01*
X167631904Y-116101809D01*
X167631904Y-115958952D01*
X167584285Y-115768476D01*
X167536666Y-115673238D01*
X167441428Y-115578000D01*
X167298571Y-115530380D01*
X167203333Y-115530380D01*
X167060476Y-115578000D01*
X167012857Y-115625619D01*
X166631904Y-115625619D02*
X166584285Y-115578000D01*
X166489047Y-115530380D01*
X166250952Y-115530380D01*
X166155714Y-115578000D01*
X166108095Y-115625619D01*
X166060476Y-115720857D01*
X166060476Y-115816095D01*
X166108095Y-115958952D01*
X166679523Y-116530380D01*
X166060476Y-116530380D01*
X165679523Y-115625619D02*
X165631904Y-115578000D01*
X165536666Y-115530380D01*
X165298571Y-115530380D01*
X165203333Y-115578000D01*
X165155714Y-115625619D01*
X165108095Y-115720857D01*
X165108095Y-115816095D01*
X165155714Y-115958952D01*
X165727142Y-116530380D01*
X165108095Y-116530380D01*
%TO.C,C17*%
X157106857Y-116435142D02*
X157154476Y-116482761D01*
X157297333Y-116530380D01*
X157392571Y-116530380D01*
X157535428Y-116482761D01*
X157630666Y-116387523D01*
X157678285Y-116292285D01*
X157725904Y-116101809D01*
X157725904Y-115958952D01*
X157678285Y-115768476D01*
X157630666Y-115673238D01*
X157535428Y-115578000D01*
X157392571Y-115530380D01*
X157297333Y-115530380D01*
X157154476Y-115578000D01*
X157106857Y-115625619D01*
X156154476Y-116530380D02*
X156725904Y-116530380D01*
X156440190Y-116530380D02*
X156440190Y-115530380D01*
X156535428Y-115673238D01*
X156630666Y-115768476D01*
X156725904Y-115816095D01*
X155821142Y-115530380D02*
X155154476Y-115530380D01*
X155583047Y-116530380D01*
%TO.C,R28*%
X170568857Y-119070380D02*
X170902190Y-118594190D01*
X171140285Y-119070380D02*
X171140285Y-118070380D01*
X170759333Y-118070380D01*
X170664095Y-118118000D01*
X170616476Y-118165619D01*
X170568857Y-118260857D01*
X170568857Y-118403714D01*
X170616476Y-118498952D01*
X170664095Y-118546571D01*
X170759333Y-118594190D01*
X171140285Y-118594190D01*
X170187904Y-118165619D02*
X170140285Y-118118000D01*
X170045047Y-118070380D01*
X169806952Y-118070380D01*
X169711714Y-118118000D01*
X169664095Y-118165619D01*
X169616476Y-118260857D01*
X169616476Y-118356095D01*
X169664095Y-118498952D01*
X170235523Y-119070380D01*
X169616476Y-119070380D01*
X169045047Y-118498952D02*
X169140285Y-118451333D01*
X169187904Y-118403714D01*
X169235523Y-118308476D01*
X169235523Y-118260857D01*
X169187904Y-118165619D01*
X169140285Y-118118000D01*
X169045047Y-118070380D01*
X168854571Y-118070380D01*
X168759333Y-118118000D01*
X168711714Y-118165619D01*
X168664095Y-118260857D01*
X168664095Y-118308476D01*
X168711714Y-118403714D01*
X168759333Y-118451333D01*
X168854571Y-118498952D01*
X169045047Y-118498952D01*
X169140285Y-118546571D01*
X169187904Y-118594190D01*
X169235523Y-118689428D01*
X169235523Y-118879904D01*
X169187904Y-118975142D01*
X169140285Y-119022761D01*
X169045047Y-119070380D01*
X168854571Y-119070380D01*
X168759333Y-119022761D01*
X168711714Y-118975142D01*
X168664095Y-118879904D01*
X168664095Y-118689428D01*
X168711714Y-118594190D01*
X168759333Y-118546571D01*
X168854571Y-118498952D01*
%TO.C,C12*%
X160916857Y-118975142D02*
X160964476Y-119022761D01*
X161107333Y-119070380D01*
X161202571Y-119070380D01*
X161345428Y-119022761D01*
X161440666Y-118927523D01*
X161488285Y-118832285D01*
X161535904Y-118641809D01*
X161535904Y-118498952D01*
X161488285Y-118308476D01*
X161440666Y-118213238D01*
X161345428Y-118118000D01*
X161202571Y-118070380D01*
X161107333Y-118070380D01*
X160964476Y-118118000D01*
X160916857Y-118165619D01*
X159964476Y-119070380D02*
X160535904Y-119070380D01*
X160250190Y-119070380D02*
X160250190Y-118070380D01*
X160345428Y-118213238D01*
X160440666Y-118308476D01*
X160535904Y-118356095D01*
X159583523Y-118165619D02*
X159535904Y-118118000D01*
X159440666Y-118070380D01*
X159202571Y-118070380D01*
X159107333Y-118118000D01*
X159059714Y-118165619D01*
X159012095Y-118260857D01*
X159012095Y-118356095D01*
X159059714Y-118498952D01*
X159631142Y-119070380D01*
X159012095Y-119070380D01*
%TO.C,C21*%
X179202857Y-133961142D02*
X179250476Y-134008761D01*
X179393333Y-134056380D01*
X179488571Y-134056380D01*
X179631428Y-134008761D01*
X179726666Y-133913523D01*
X179774285Y-133818285D01*
X179821904Y-133627809D01*
X179821904Y-133484952D01*
X179774285Y-133294476D01*
X179726666Y-133199238D01*
X179631428Y-133104000D01*
X179488571Y-133056380D01*
X179393333Y-133056380D01*
X179250476Y-133104000D01*
X179202857Y-133151619D01*
X178821904Y-133151619D02*
X178774285Y-133104000D01*
X178679047Y-133056380D01*
X178440952Y-133056380D01*
X178345714Y-133104000D01*
X178298095Y-133151619D01*
X178250476Y-133246857D01*
X178250476Y-133342095D01*
X178298095Y-133484952D01*
X178869523Y-134056380D01*
X178250476Y-134056380D01*
X177298095Y-134056380D02*
X177869523Y-134056380D01*
X177583809Y-134056380D02*
X177583809Y-133056380D01*
X177679047Y-133199238D01*
X177774285Y-133294476D01*
X177869523Y-133342095D01*
%TO.C,U15*%
X177414982Y-113715968D02*
X178116050Y-114120730D01*
X178174719Y-114209588D01*
X178192149Y-114274637D01*
X178185769Y-114380925D01*
X178090531Y-114545882D01*
X178001673Y-114604552D01*
X177936624Y-114621981D01*
X177830336Y-114615602D01*
X177129268Y-114210840D01*
X177495293Y-115576865D02*
X177781008Y-115081993D01*
X177638150Y-115329429D02*
X176772125Y-114829429D01*
X176943462Y-114818379D01*
X177073560Y-114783520D01*
X177162418Y-114724851D01*
X176176887Y-115860412D02*
X176414982Y-115448019D01*
X176851185Y-115644875D01*
X176786136Y-115662305D01*
X176697278Y-115720974D01*
X176578230Y-115927170D01*
X176571850Y-116033458D01*
X176589280Y-116098507D01*
X176647949Y-116187365D01*
X176854146Y-116306413D01*
X176960434Y-116312793D01*
X177025482Y-116295363D01*
X177114341Y-116236694D01*
X177233388Y-116030497D01*
X177239768Y-115924209D01*
X177222338Y-115859161D01*
%TO.C,U14*%
X153896112Y-115860412D02*
X153195044Y-116265174D01*
X153088756Y-116271554D01*
X153023707Y-116254124D01*
X152934849Y-116195455D01*
X152839611Y-116030497D01*
X152833231Y-115924209D01*
X152850661Y-115859161D01*
X152909330Y-115770302D01*
X153610398Y-115365540D01*
X152244372Y-114999515D02*
X152530087Y-115494387D01*
X152387230Y-115246951D02*
X153253255Y-114746951D01*
X153177156Y-114900858D01*
X153142297Y-115030956D01*
X153148676Y-115137244D01*
X152393151Y-113923874D02*
X151815801Y-114257207D01*
X152842113Y-113939594D02*
X152342571Y-114502934D01*
X152033048Y-113966823D01*
%TO.C,U13*%
X166338095Y-93178380D02*
X166338095Y-93987904D01*
X166290476Y-94083142D01*
X166242857Y-94130761D01*
X166147619Y-94178380D01*
X165957142Y-94178380D01*
X165861904Y-94130761D01*
X165814285Y-94083142D01*
X165766666Y-93987904D01*
X165766666Y-93178380D01*
X164766666Y-94178380D02*
X165338095Y-94178380D01*
X165052380Y-94178380D02*
X165052380Y-93178380D01*
X165147619Y-93321238D01*
X165242857Y-93416476D01*
X165338095Y-93464095D01*
X164433333Y-93178380D02*
X163814285Y-93178380D01*
X164147619Y-93559333D01*
X164004761Y-93559333D01*
X163909523Y-93606952D01*
X163861904Y-93654571D01*
X163814285Y-93749809D01*
X163814285Y-93987904D01*
X163861904Y-94083142D01*
X163909523Y-94130761D01*
X164004761Y-94178380D01*
X164290476Y-94178380D01*
X164385714Y-94130761D01*
X164433333Y-94083142D01*
%TO.C,U2*%
X165861904Y-110777380D02*
X165861904Y-111586904D01*
X165814285Y-111682142D01*
X165766666Y-111729761D01*
X165671428Y-111777380D01*
X165480952Y-111777380D01*
X165385714Y-111729761D01*
X165338095Y-111682142D01*
X165290476Y-111586904D01*
X165290476Y-110777380D01*
X164861904Y-110872619D02*
X164814285Y-110825000D01*
X164719047Y-110777380D01*
X164480952Y-110777380D01*
X164385714Y-110825000D01*
X164338095Y-110872619D01*
X164290476Y-110967857D01*
X164290476Y-111063095D01*
X164338095Y-111205952D01*
X164909523Y-111777380D01*
X164290476Y-111777380D01*
%TO.C,C25*%
X184351142Y-134485142D02*
X184398761Y-134437523D01*
X184446380Y-134294666D01*
X184446380Y-134199428D01*
X184398761Y-134056571D01*
X184303523Y-133961333D01*
X184208285Y-133913714D01*
X184017809Y-133866095D01*
X183874952Y-133866095D01*
X183684476Y-133913714D01*
X183589238Y-133961333D01*
X183494000Y-134056571D01*
X183446380Y-134199428D01*
X183446380Y-134294666D01*
X183494000Y-134437523D01*
X183541619Y-134485142D01*
X183541619Y-134866095D02*
X183494000Y-134913714D01*
X183446380Y-135008952D01*
X183446380Y-135247047D01*
X183494000Y-135342285D01*
X183541619Y-135389904D01*
X183636857Y-135437523D01*
X183732095Y-135437523D01*
X183874952Y-135389904D01*
X184446380Y-134818476D01*
X184446380Y-135437523D01*
X183446380Y-136342285D02*
X183446380Y-135866095D01*
X183922571Y-135818476D01*
X183874952Y-135866095D01*
X183827333Y-135961333D01*
X183827333Y-136199428D01*
X183874952Y-136294666D01*
X183922571Y-136342285D01*
X184017809Y-136389904D01*
X184255904Y-136389904D01*
X184351142Y-136342285D01*
X184398761Y-136294666D01*
X184446380Y-136199428D01*
X184446380Y-135961333D01*
X184398761Y-135866095D01*
X184351142Y-135818476D01*
%TO.C,C20*%
X156410857Y-133805142D02*
X156458476Y-133852761D01*
X156601333Y-133900380D01*
X156696571Y-133900380D01*
X156839428Y-133852761D01*
X156934666Y-133757523D01*
X156982285Y-133662285D01*
X157029904Y-133471809D01*
X157029904Y-133328952D01*
X156982285Y-133138476D01*
X156934666Y-133043238D01*
X156839428Y-132948000D01*
X156696571Y-132900380D01*
X156601333Y-132900380D01*
X156458476Y-132948000D01*
X156410857Y-132995619D01*
X156029904Y-132995619D02*
X155982285Y-132948000D01*
X155887047Y-132900380D01*
X155648952Y-132900380D01*
X155553714Y-132948000D01*
X155506095Y-132995619D01*
X155458476Y-133090857D01*
X155458476Y-133186095D01*
X155506095Y-133328952D01*
X156077523Y-133900380D01*
X155458476Y-133900380D01*
X154839428Y-132900380D02*
X154744190Y-132900380D01*
X154648952Y-132948000D01*
X154601333Y-132995619D01*
X154553714Y-133090857D01*
X154506095Y-133281333D01*
X154506095Y-133519428D01*
X154553714Y-133709904D01*
X154601333Y-133805142D01*
X154648952Y-133852761D01*
X154744190Y-133900380D01*
X154839428Y-133900380D01*
X154934666Y-133852761D01*
X154982285Y-133805142D01*
X155029904Y-133709904D01*
X155077523Y-133519428D01*
X155077523Y-133281333D01*
X155029904Y-133090857D01*
X154982285Y-132995619D01*
X154934666Y-132948000D01*
X154839428Y-132900380D01*
%TO.C,C16*%
X148724857Y-133961142D02*
X148772476Y-134008761D01*
X148915333Y-134056380D01*
X149010571Y-134056380D01*
X149153428Y-134008761D01*
X149248666Y-133913523D01*
X149296285Y-133818285D01*
X149343904Y-133627809D01*
X149343904Y-133484952D01*
X149296285Y-133294476D01*
X149248666Y-133199238D01*
X149153428Y-133104000D01*
X149010571Y-133056380D01*
X148915333Y-133056380D01*
X148772476Y-133104000D01*
X148724857Y-133151619D01*
X147772476Y-134056380D02*
X148343904Y-134056380D01*
X148058190Y-134056380D02*
X148058190Y-133056380D01*
X148153428Y-133199238D01*
X148248666Y-133294476D01*
X148343904Y-133342095D01*
X146915333Y-133056380D02*
X147105809Y-133056380D01*
X147201047Y-133104000D01*
X147248666Y-133151619D01*
X147343904Y-133294476D01*
X147391523Y-133484952D01*
X147391523Y-133865904D01*
X147343904Y-133961142D01*
X147296285Y-134008761D01*
X147201047Y-134056380D01*
X147010571Y-134056380D01*
X146915333Y-134008761D01*
X146867714Y-133961142D01*
X146820095Y-133865904D01*
X146820095Y-133627809D01*
X146867714Y-133532571D01*
X146915333Y-133484952D01*
X147010571Y-133437333D01*
X147201047Y-133437333D01*
X147296285Y-133484952D01*
X147343904Y-133532571D01*
X147391523Y-133627809D01*
%TO.C,C15*%
X171650857Y-133805142D02*
X171698476Y-133852761D01*
X171841333Y-133900380D01*
X171936571Y-133900380D01*
X172079428Y-133852761D01*
X172174666Y-133757523D01*
X172222285Y-133662285D01*
X172269904Y-133471809D01*
X172269904Y-133328952D01*
X172222285Y-133138476D01*
X172174666Y-133043238D01*
X172079428Y-132948000D01*
X171936571Y-132900380D01*
X171841333Y-132900380D01*
X171698476Y-132948000D01*
X171650857Y-132995619D01*
X170698476Y-133900380D02*
X171269904Y-133900380D01*
X170984190Y-133900380D02*
X170984190Y-132900380D01*
X171079428Y-133043238D01*
X171174666Y-133138476D01*
X171269904Y-133186095D01*
X169793714Y-132900380D02*
X170269904Y-132900380D01*
X170317523Y-133376571D01*
X170269904Y-133328952D01*
X170174666Y-133281333D01*
X169936571Y-133281333D01*
X169841333Y-133328952D01*
X169793714Y-133376571D01*
X169746095Y-133471809D01*
X169746095Y-133709904D01*
X169793714Y-133805142D01*
X169841333Y-133852761D01*
X169936571Y-133900380D01*
X170174666Y-133900380D01*
X170269904Y-133852761D01*
X170317523Y-133805142D01*
%TO.C,C11*%
X163964857Y-133961142D02*
X164012476Y-134008761D01*
X164155333Y-134056380D01*
X164250571Y-134056380D01*
X164393428Y-134008761D01*
X164488666Y-133913523D01*
X164536285Y-133818285D01*
X164583904Y-133627809D01*
X164583904Y-133484952D01*
X164536285Y-133294476D01*
X164488666Y-133199238D01*
X164393428Y-133104000D01*
X164250571Y-133056380D01*
X164155333Y-133056380D01*
X164012476Y-133104000D01*
X163964857Y-133151619D01*
X163012476Y-134056380D02*
X163583904Y-134056380D01*
X163298190Y-134056380D02*
X163298190Y-133056380D01*
X163393428Y-133199238D01*
X163488666Y-133294476D01*
X163583904Y-133342095D01*
X162060095Y-134056380D02*
X162631523Y-134056380D01*
X162345809Y-134056380D02*
X162345809Y-133056380D01*
X162441047Y-133199238D01*
X162536285Y-133294476D01*
X162631523Y-133342095D01*
%TO.C,C8*%
X163488666Y-126751142D02*
X163536285Y-126798761D01*
X163679142Y-126846380D01*
X163774380Y-126846380D01*
X163917238Y-126798761D01*
X164012476Y-126703523D01*
X164060095Y-126608285D01*
X164107714Y-126417809D01*
X164107714Y-126274952D01*
X164060095Y-126084476D01*
X164012476Y-125989238D01*
X163917238Y-125894000D01*
X163774380Y-125846380D01*
X163679142Y-125846380D01*
X163536285Y-125894000D01*
X163488666Y-125941619D01*
X162917238Y-126274952D02*
X163012476Y-126227333D01*
X163060095Y-126179714D01*
X163107714Y-126084476D01*
X163107714Y-126036857D01*
X163060095Y-125941619D01*
X163012476Y-125894000D01*
X162917238Y-125846380D01*
X162726761Y-125846380D01*
X162631523Y-125894000D01*
X162583904Y-125941619D01*
X162536285Y-126036857D01*
X162536285Y-126084476D01*
X162583904Y-126179714D01*
X162631523Y-126227333D01*
X162726761Y-126274952D01*
X162917238Y-126274952D01*
X163012476Y-126322571D01*
X163060095Y-126370190D01*
X163107714Y-126465428D01*
X163107714Y-126655904D01*
X163060095Y-126751142D01*
X163012476Y-126798761D01*
X162917238Y-126846380D01*
X162726761Y-126846380D01*
X162631523Y-126798761D01*
X162583904Y-126751142D01*
X162536285Y-126655904D01*
X162536285Y-126465428D01*
X162583904Y-126370190D01*
X162631523Y-126322571D01*
X162726761Y-126274952D01*
%TO.C,C5*%
X167044666Y-126849142D02*
X167092285Y-126896761D01*
X167235142Y-126944380D01*
X167330380Y-126944380D01*
X167473238Y-126896761D01*
X167568476Y-126801523D01*
X167616095Y-126706285D01*
X167663714Y-126515809D01*
X167663714Y-126372952D01*
X167616095Y-126182476D01*
X167568476Y-126087238D01*
X167473238Y-125992000D01*
X167330380Y-125944380D01*
X167235142Y-125944380D01*
X167092285Y-125992000D01*
X167044666Y-126039619D01*
X166139904Y-125944380D02*
X166616095Y-125944380D01*
X166663714Y-126420571D01*
X166616095Y-126372952D01*
X166520857Y-126325333D01*
X166282761Y-126325333D01*
X166187523Y-126372952D01*
X166139904Y-126420571D01*
X166092285Y-126515809D01*
X166092285Y-126753904D01*
X166139904Y-126849142D01*
X166187523Y-126896761D01*
X166282761Y-126944380D01*
X166520857Y-126944380D01*
X166616095Y-126896761D01*
X166663714Y-126849142D01*
%TO.C,C4*%
X160948666Y-123039142D02*
X160996285Y-123086761D01*
X161139142Y-123134380D01*
X161234380Y-123134380D01*
X161377238Y-123086761D01*
X161472476Y-122991523D01*
X161520095Y-122896285D01*
X161567714Y-122705809D01*
X161567714Y-122562952D01*
X161520095Y-122372476D01*
X161472476Y-122277238D01*
X161377238Y-122182000D01*
X161234380Y-122134380D01*
X161139142Y-122134380D01*
X160996285Y-122182000D01*
X160948666Y-122229619D01*
X160091523Y-122467714D02*
X160091523Y-123134380D01*
X160329619Y-122086761D02*
X160567714Y-122801047D01*
X159948666Y-122801047D01*
%TO.C,C3*%
X169838666Y-123039142D02*
X169886285Y-123086761D01*
X170029142Y-123134380D01*
X170124380Y-123134380D01*
X170267238Y-123086761D01*
X170362476Y-122991523D01*
X170410095Y-122896285D01*
X170457714Y-122705809D01*
X170457714Y-122562952D01*
X170410095Y-122372476D01*
X170362476Y-122277238D01*
X170267238Y-122182000D01*
X170124380Y-122134380D01*
X170029142Y-122134380D01*
X169886285Y-122182000D01*
X169838666Y-122229619D01*
X169505333Y-122134380D02*
X168886285Y-122134380D01*
X169219619Y-122515333D01*
X169076761Y-122515333D01*
X168981523Y-122562952D01*
X168933904Y-122610571D01*
X168886285Y-122705809D01*
X168886285Y-122943904D01*
X168933904Y-123039142D01*
X168981523Y-123086761D01*
X169076761Y-123134380D01*
X169362476Y-123134380D01*
X169457714Y-123086761D01*
X169505333Y-123039142D01*
%TO.C,C2*%
X169838666Y-121007142D02*
X169886285Y-121054761D01*
X170029142Y-121102380D01*
X170124380Y-121102380D01*
X170267238Y-121054761D01*
X170362476Y-120959523D01*
X170410095Y-120864285D01*
X170457714Y-120673809D01*
X170457714Y-120530952D01*
X170410095Y-120340476D01*
X170362476Y-120245238D01*
X170267238Y-120150000D01*
X170124380Y-120102380D01*
X170029142Y-120102380D01*
X169886285Y-120150000D01*
X169838666Y-120197619D01*
X169457714Y-120197619D02*
X169410095Y-120150000D01*
X169314857Y-120102380D01*
X169076761Y-120102380D01*
X168981523Y-120150000D01*
X168933904Y-120197619D01*
X168886285Y-120292857D01*
X168886285Y-120388095D01*
X168933904Y-120530952D01*
X169505333Y-121102380D01*
X168886285Y-121102380D01*
%TO.C,C1*%
X160948666Y-121007142D02*
X160996285Y-121054761D01*
X161139142Y-121102380D01*
X161234380Y-121102380D01*
X161377238Y-121054761D01*
X161472476Y-120959523D01*
X161520095Y-120864285D01*
X161567714Y-120673809D01*
X161567714Y-120530952D01*
X161520095Y-120340476D01*
X161472476Y-120245238D01*
X161377238Y-120150000D01*
X161234380Y-120102380D01*
X161139142Y-120102380D01*
X160996285Y-120150000D01*
X160948666Y-120197619D01*
X159996285Y-121102380D02*
X160567714Y-121102380D01*
X160282000Y-121102380D02*
X160282000Y-120102380D01*
X160377238Y-120245238D01*
X160472476Y-120340476D01*
X160567714Y-120388095D01*
%TD*%
M02*
