%TF.GenerationSoftware,KiCad,Pcbnew,5.1.9-73d0e3b20d~88~ubuntu20.04.1*%
%TF.CreationDate,2021-03-24T22:26:07+08:00*%
%TF.ProjectId,elec-car,656c6563-2d63-4617-922e-6b696361645f,rev?*%
%TF.SameCoordinates,Original*%
%TF.FileFunction,Soldermask,Bot*%
%TF.FilePolarity,Negative*%
%FSLAX46Y46*%
G04 Gerber Fmt 4.6, Leading zero omitted, Abs format (unit mm)*
G04 Created by KiCad (PCBNEW 5.1.9-73d0e3b20d~88~ubuntu20.04.1) date 2021-03-24 22:26:07*
%MOMM*%
%LPD*%
G01*
G04 APERTURE LIST*
%ADD10C,0.762000*%
%ADD11O,1.700000X1.700000*%
%ADD12R,1.700000X1.700000*%
%ADD13C,0.100000*%
%ADD14R,1.500000X1.000000*%
%ADD15C,1.700000*%
%ADD16C,1.600000*%
%ADD17R,1.600000X1.600000*%
%ADD18C,6.000000*%
%ADD19C,1.500000*%
%ADD20O,1.740000X2.190000*%
%ADD21O,2.190000X1.740000*%
%ADD22C,4.000000*%
G04 APERTURE END LIST*
D10*
X191770000Y-139700000D02*
X186944000Y-144526000D01*
X198120000Y-81280000D02*
X200025000Y-81280000D01*
X193040000Y-76200000D02*
X198120000Y-81280000D01*
X145034000Y-144526000D02*
X145034000Y-139954000D01*
X186944000Y-144526000D02*
X145034000Y-144526000D01*
D11*
%TO.C,J14*%
X147320000Y-116840000D03*
X144780000Y-116840000D03*
X142240000Y-116840000D03*
D12*
X139700000Y-116840000D03*
%TD*%
D13*
%TO.C,D11*%
G36*
X193075346Y-140450719D02*
G01*
X193941372Y-140950719D01*
X193191372Y-142249757D01*
X192325346Y-141749757D01*
X193075346Y-140450719D01*
G37*
G36*
X195846628Y-142050719D02*
G01*
X196712654Y-142550719D01*
X195962654Y-143849757D01*
X195096628Y-143349757D01*
X195846628Y-142050719D01*
G37*
G36*
X190625346Y-144694243D02*
G01*
X191491372Y-145194243D01*
X190741372Y-146493281D01*
X189875346Y-145993281D01*
X190625346Y-144694243D01*
G37*
G36*
X193396628Y-146294243D02*
G01*
X194262654Y-146794243D01*
X193512654Y-148093281D01*
X192646628Y-147593281D01*
X193396628Y-146294243D01*
G37*
%TD*%
%TO.C,D10*%
G36*
X139562654Y-145231281D02*
G01*
X138696628Y-145731281D01*
X137946628Y-144432243D01*
X138812654Y-143932243D01*
X139562654Y-145231281D01*
G37*
G36*
X136791372Y-146831281D02*
G01*
X135925346Y-147331281D01*
X135175346Y-146032243D01*
X136041372Y-145532243D01*
X136791372Y-146831281D01*
G37*
G36*
X137112654Y-140987757D02*
G01*
X136246628Y-141487757D01*
X135496628Y-140188719D01*
X136362654Y-139688719D01*
X137112654Y-140987757D01*
G37*
G36*
X134341372Y-142587757D02*
G01*
X133475346Y-143087757D01*
X132725346Y-141788719D01*
X133591372Y-141288719D01*
X134341372Y-142587757D01*
G37*
%TD*%
%TO.C,D9*%
G36*
X123052654Y-117037281D02*
G01*
X122186628Y-117537281D01*
X121436628Y-116238243D01*
X122302654Y-115738243D01*
X123052654Y-117037281D01*
G37*
G36*
X120281372Y-118637281D02*
G01*
X119415346Y-119137281D01*
X118665346Y-117838243D01*
X119531372Y-117338243D01*
X120281372Y-118637281D01*
G37*
G36*
X120602654Y-112793757D02*
G01*
X119736628Y-113293757D01*
X118986628Y-111994719D01*
X119852654Y-111494719D01*
X120602654Y-112793757D01*
G37*
G36*
X117831372Y-114393757D02*
G01*
X116965346Y-114893757D01*
X116215346Y-113594719D01*
X117081372Y-113094719D01*
X117831372Y-114393757D01*
G37*
%TD*%
D14*
%TO.C,D8*%
X146394000Y-66624000D03*
X146394000Y-63424000D03*
X151294000Y-66624000D03*
X151294000Y-63424000D03*
%TD*%
%TO.C,D7*%
X178144000Y-66370000D03*
X178144000Y-63170000D03*
X183044000Y-66370000D03*
X183044000Y-63170000D03*
%TD*%
D13*
%TO.C,D6*%
G36*
X209839346Y-112256719D02*
G01*
X210705372Y-112756719D01*
X209955372Y-114055757D01*
X209089346Y-113555757D01*
X209839346Y-112256719D01*
G37*
G36*
X212610628Y-113856719D02*
G01*
X213476654Y-114356719D01*
X212726654Y-115655757D01*
X211860628Y-115155757D01*
X212610628Y-113856719D01*
G37*
G36*
X207389346Y-116500243D02*
G01*
X208255372Y-117000243D01*
X207505372Y-118299281D01*
X206639346Y-117799281D01*
X207389346Y-116500243D01*
G37*
G36*
X210160628Y-118100243D02*
G01*
X211026654Y-118600243D01*
X210276654Y-119899281D01*
X209410628Y-119399281D01*
X210160628Y-118100243D01*
G37*
%TD*%
%TO.C,C37*%
G36*
G01*
X205610000Y-112555000D02*
X205610000Y-113505000D01*
G75*
G02*
X205360000Y-113755000I-250000J0D01*
G01*
X204860000Y-113755000D01*
G75*
G02*
X204610000Y-113505000I0J250000D01*
G01*
X204610000Y-112555000D01*
G75*
G02*
X204860000Y-112305000I250000J0D01*
G01*
X205360000Y-112305000D01*
G75*
G02*
X205610000Y-112555000I0J-250000D01*
G01*
G37*
G36*
G01*
X207510000Y-112555000D02*
X207510000Y-113505000D01*
G75*
G02*
X207260000Y-113755000I-250000J0D01*
G01*
X206760000Y-113755000D01*
G75*
G02*
X206510000Y-113505000I0J250000D01*
G01*
X206510000Y-112555000D01*
G75*
G02*
X206760000Y-112305000I250000J0D01*
G01*
X207260000Y-112305000D01*
G75*
G02*
X207510000Y-112555000I0J-250000D01*
G01*
G37*
%TD*%
%TO.C,C36*%
G36*
G01*
X186240000Y-137320000D02*
X186240000Y-138270000D01*
G75*
G02*
X185990000Y-138520000I-250000J0D01*
G01*
X185490000Y-138520000D01*
G75*
G02*
X185240000Y-138270000I0J250000D01*
G01*
X185240000Y-137320000D01*
G75*
G02*
X185490000Y-137070000I250000J0D01*
G01*
X185990000Y-137070000D01*
G75*
G02*
X186240000Y-137320000I0J-250000D01*
G01*
G37*
G36*
G01*
X188140000Y-137320000D02*
X188140000Y-138270000D01*
G75*
G02*
X187890000Y-138520000I-250000J0D01*
G01*
X187390000Y-138520000D01*
G75*
G02*
X187140000Y-138270000I0J250000D01*
G01*
X187140000Y-137320000D01*
G75*
G02*
X187390000Y-137070000I250000J0D01*
G01*
X187890000Y-137070000D01*
G75*
G02*
X188140000Y-137320000I0J-250000D01*
G01*
G37*
%TD*%
D15*
%TO.C,U7*%
X159258000Y-94488000D03*
X159258000Y-91948000D03*
X159258000Y-83820000D03*
X159258000Y-81280000D03*
X177800000Y-94488000D03*
X177800000Y-91948000D03*
X177800000Y-83820000D03*
X177800000Y-81280000D03*
%TD*%
D16*
%TO.C,SW2*%
X203200000Y-81280000D03*
X203200000Y-83780000D03*
X203200000Y-86280000D03*
X200000000Y-81280000D03*
X200000000Y-83780000D03*
D17*
X200000000Y-86280000D03*
%TD*%
%TO.C,J13*%
G36*
G01*
X182840000Y-77700000D02*
X182840000Y-74700000D01*
G75*
G02*
X184340000Y-73200000I1500000J0D01*
G01*
X187340000Y-73200000D01*
G75*
G02*
X188840000Y-74700000I0J-1500000D01*
G01*
X188840000Y-77700000D01*
G75*
G02*
X187340000Y-79200000I-1500000J0D01*
G01*
X184340000Y-79200000D01*
G75*
G02*
X182840000Y-77700000I0J1500000D01*
G01*
G37*
D18*
X193040000Y-76200000D03*
%TD*%
D19*
%TO.C,Y1*%
X162560000Y-114046000D03*
X158760000Y-114046000D03*
%TD*%
%TO.C,C22*%
G36*
G01*
X163772000Y-116553000D02*
X163772000Y-115603000D01*
G75*
G02*
X164022000Y-115353000I250000J0D01*
G01*
X164522000Y-115353000D01*
G75*
G02*
X164772000Y-115603000I0J-250000D01*
G01*
X164772000Y-116553000D01*
G75*
G02*
X164522000Y-116803000I-250000J0D01*
G01*
X164022000Y-116803000D01*
G75*
G02*
X163772000Y-116553000I0J250000D01*
G01*
G37*
G36*
G01*
X161872000Y-116553000D02*
X161872000Y-115603000D01*
G75*
G02*
X162122000Y-115353000I250000J0D01*
G01*
X162622000Y-115353000D01*
G75*
G02*
X162872000Y-115603000I0J-250000D01*
G01*
X162872000Y-116553000D01*
G75*
G02*
X162622000Y-116803000I-250000J0D01*
G01*
X162122000Y-116803000D01*
G75*
G02*
X161872000Y-116553000I0J250000D01*
G01*
G37*
%TD*%
%TO.C,C17*%
G36*
G01*
X160150000Y-116553000D02*
X160150000Y-115603000D01*
G75*
G02*
X160400000Y-115353000I250000J0D01*
G01*
X160900000Y-115353000D01*
G75*
G02*
X161150000Y-115603000I0J-250000D01*
G01*
X161150000Y-116553000D01*
G75*
G02*
X160900000Y-116803000I-250000J0D01*
G01*
X160400000Y-116803000D01*
G75*
G02*
X160150000Y-116553000I0J250000D01*
G01*
G37*
G36*
G01*
X158250000Y-116553000D02*
X158250000Y-115603000D01*
G75*
G02*
X158500000Y-115353000I250000J0D01*
G01*
X159000000Y-115353000D01*
G75*
G02*
X159250000Y-115603000I0J-250000D01*
G01*
X159250000Y-116553000D01*
G75*
G02*
X159000000Y-116803000I-250000J0D01*
G01*
X158500000Y-116803000D01*
G75*
G02*
X158250000Y-116553000I0J250000D01*
G01*
G37*
%TD*%
D20*
%TO.C,J12*%
X147320000Y-85090000D03*
X144780000Y-85090000D03*
X142240000Y-85090000D03*
G36*
G01*
X138830000Y-85935001D02*
X138830000Y-84244999D01*
G75*
G02*
X139079999Y-83995000I249999J0D01*
G01*
X140320001Y-83995000D01*
G75*
G02*
X140570000Y-84244999I0J-249999D01*
G01*
X140570000Y-85935001D01*
G75*
G02*
X140320001Y-86185000I-249999J0D01*
G01*
X139079999Y-86185000D01*
G75*
G02*
X138830000Y-85935001I0J249999D01*
G01*
G37*
%TD*%
%TO.C,J11*%
X147320000Y-104140000D03*
X144780000Y-104140000D03*
X142240000Y-104140000D03*
G36*
G01*
X138830000Y-104985001D02*
X138830000Y-103294999D01*
G75*
G02*
X139079999Y-103045000I249999J0D01*
G01*
X140320001Y-103045000D01*
G75*
G02*
X140570000Y-103294999I0J-249999D01*
G01*
X140570000Y-104985001D01*
G75*
G02*
X140320001Y-105235000I-249999J0D01*
G01*
X139079999Y-105235000D01*
G75*
G02*
X138830000Y-104985001I0J249999D01*
G01*
G37*
%TD*%
%TO.C,J10*%
X147320000Y-97790000D03*
X144780000Y-97790000D03*
X142240000Y-97790000D03*
G36*
G01*
X138830000Y-98635001D02*
X138830000Y-96944999D01*
G75*
G02*
X139079999Y-96695000I249999J0D01*
G01*
X140320001Y-96695000D01*
G75*
G02*
X140570000Y-96944999I0J-249999D01*
G01*
X140570000Y-98635001D01*
G75*
G02*
X140320001Y-98885000I-249999J0D01*
G01*
X139079999Y-98885000D01*
G75*
G02*
X138830000Y-98635001I0J249999D01*
G01*
G37*
%TD*%
%TO.C,J9*%
X147320000Y-91440000D03*
X144780000Y-91440000D03*
X142240000Y-91440000D03*
G36*
G01*
X138830000Y-92285001D02*
X138830000Y-90594999D01*
G75*
G02*
X139079999Y-90345000I249999J0D01*
G01*
X140320001Y-90345000D01*
G75*
G02*
X140570000Y-90594999I0J-249999D01*
G01*
X140570000Y-92285001D01*
G75*
G02*
X140320001Y-92535000I-249999J0D01*
G01*
X139079999Y-92535000D01*
G75*
G02*
X138830000Y-92285001I0J249999D01*
G01*
G37*
%TD*%
D21*
%TO.C,J2*%
X132334000Y-104140000D03*
X132334000Y-106680000D03*
X132334000Y-109220000D03*
G36*
G01*
X133179001Y-112630000D02*
X131488999Y-112630000D01*
G75*
G02*
X131239000Y-112380001I0J249999D01*
G01*
X131239000Y-111139999D01*
G75*
G02*
X131488999Y-110890000I249999J0D01*
G01*
X133179001Y-110890000D01*
G75*
G02*
X133429000Y-111139999I0J-249999D01*
G01*
X133429000Y-112380001D01*
G75*
G02*
X133179001Y-112630000I-249999J0D01*
G01*
G37*
%TD*%
%TO.C,J1*%
X205740000Y-109220000D03*
X205740000Y-106680000D03*
X205740000Y-104140000D03*
G36*
G01*
X204894999Y-100730000D02*
X206585001Y-100730000D01*
G75*
G02*
X206835000Y-100979999I0J-249999D01*
G01*
X206835000Y-102220001D01*
G75*
G02*
X206585001Y-102470000I-249999J0D01*
G01*
X204894999Y-102470000D01*
G75*
G02*
X204645000Y-102220001I0J249999D01*
G01*
X204645000Y-100979999D01*
G75*
G02*
X204894999Y-100730000I249999J0D01*
G01*
G37*
%TD*%
%TO.C,R28*%
G36*
G01*
X167278000Y-119068001D02*
X167278000Y-118167999D01*
G75*
G02*
X167527999Y-117918000I249999J0D01*
G01*
X168053001Y-117918000D01*
G75*
G02*
X168303000Y-118167999I0J-249999D01*
G01*
X168303000Y-119068001D01*
G75*
G02*
X168053001Y-119318000I-249999J0D01*
G01*
X167527999Y-119318000D01*
G75*
G02*
X167278000Y-119068001I0J249999D01*
G01*
G37*
G36*
G01*
X165453000Y-119068001D02*
X165453000Y-118167999D01*
G75*
G02*
X165702999Y-117918000I249999J0D01*
G01*
X166228001Y-117918000D01*
G75*
G02*
X166478000Y-118167999I0J-249999D01*
G01*
X166478000Y-119068001D01*
G75*
G02*
X166228001Y-119318000I-249999J0D01*
G01*
X165702999Y-119318000D01*
G75*
G02*
X165453000Y-119068001I0J249999D01*
G01*
G37*
%TD*%
%TO.C,C12*%
G36*
G01*
X163772000Y-119093000D02*
X163772000Y-118143000D01*
G75*
G02*
X164022000Y-117893000I250000J0D01*
G01*
X164522000Y-117893000D01*
G75*
G02*
X164772000Y-118143000I0J-250000D01*
G01*
X164772000Y-119093000D01*
G75*
G02*
X164522000Y-119343000I-250000J0D01*
G01*
X164022000Y-119343000D01*
G75*
G02*
X163772000Y-119093000I0J250000D01*
G01*
G37*
G36*
G01*
X161872000Y-119093000D02*
X161872000Y-118143000D01*
G75*
G02*
X162122000Y-117893000I250000J0D01*
G01*
X162622000Y-117893000D01*
G75*
G02*
X162872000Y-118143000I0J-250000D01*
G01*
X162872000Y-119093000D01*
G75*
G02*
X162622000Y-119343000I-250000J0D01*
G01*
X162122000Y-119343000D01*
G75*
G02*
X161872000Y-119093000I0J250000D01*
G01*
G37*
%TD*%
%TO.C,C21*%
G36*
G01*
X179610000Y-139684000D02*
X179610000Y-137684000D01*
G75*
G02*
X179860000Y-137434000I250000J0D01*
G01*
X183360000Y-137434000D01*
G75*
G02*
X183610000Y-137684000I0J-250000D01*
G01*
X183610000Y-139684000D01*
G75*
G02*
X183360000Y-139934000I-250000J0D01*
G01*
X179860000Y-139934000D01*
G75*
G02*
X179610000Y-139684000I0J250000D01*
G01*
G37*
G36*
G01*
X173510000Y-139684000D02*
X173510000Y-137684000D01*
G75*
G02*
X173760000Y-137434000I250000J0D01*
G01*
X177260000Y-137434000D01*
G75*
G02*
X177510000Y-137684000I0J-250000D01*
G01*
X177510000Y-139684000D01*
G75*
G02*
X177260000Y-139934000I-250000J0D01*
G01*
X173760000Y-139934000D01*
G75*
G02*
X173510000Y-139684000I0J250000D01*
G01*
G37*
%TD*%
D22*
%TO.C,U15*%
X191302705Y-133428966D03*
X197901818Y-137238966D03*
X206791818Y-121841034D03*
X200192705Y-118031034D03*
%TD*%
%TO.C,U14*%
X129880295Y-118031034D03*
X123281182Y-121841034D03*
X132171182Y-137238966D03*
X138770295Y-133428966D03*
%TD*%
%TO.C,U13*%
X173990000Y-72390000D03*
X173990000Y-64770000D03*
X156210000Y-64770000D03*
X156210000Y-72390000D03*
%TD*%
%TO.C,U2*%
G36*
G01*
X163775000Y-109475000D02*
X163925000Y-109475000D01*
G75*
G02*
X164000000Y-109550000I0J-75000D01*
G01*
X164000000Y-110250000D01*
G75*
G02*
X163925000Y-110325000I-75000J0D01*
G01*
X163775000Y-110325000D01*
G75*
G02*
X163700000Y-110250000I0J75000D01*
G01*
X163700000Y-109550000D01*
G75*
G02*
X163775000Y-109475000I75000J0D01*
G01*
G37*
G36*
G01*
X164275000Y-109475000D02*
X164425000Y-109475000D01*
G75*
G02*
X164500000Y-109550000I0J-75000D01*
G01*
X164500000Y-110250000D01*
G75*
G02*
X164425000Y-110325000I-75000J0D01*
G01*
X164275000Y-110325000D01*
G75*
G02*
X164200000Y-110250000I0J75000D01*
G01*
X164200000Y-109550000D01*
G75*
G02*
X164275000Y-109475000I75000J0D01*
G01*
G37*
G36*
G01*
X164775000Y-109475000D02*
X164925000Y-109475000D01*
G75*
G02*
X165000000Y-109550000I0J-75000D01*
G01*
X165000000Y-110250000D01*
G75*
G02*
X164925000Y-110325000I-75000J0D01*
G01*
X164775000Y-110325000D01*
G75*
G02*
X164700000Y-110250000I0J75000D01*
G01*
X164700000Y-109550000D01*
G75*
G02*
X164775000Y-109475000I75000J0D01*
G01*
G37*
G36*
G01*
X165275000Y-109475000D02*
X165425000Y-109475000D01*
G75*
G02*
X165500000Y-109550000I0J-75000D01*
G01*
X165500000Y-110250000D01*
G75*
G02*
X165425000Y-110325000I-75000J0D01*
G01*
X165275000Y-110325000D01*
G75*
G02*
X165200000Y-110250000I0J75000D01*
G01*
X165200000Y-109550000D01*
G75*
G02*
X165275000Y-109475000I75000J0D01*
G01*
G37*
G36*
G01*
X165775000Y-109475000D02*
X165925000Y-109475000D01*
G75*
G02*
X166000000Y-109550000I0J-75000D01*
G01*
X166000000Y-110250000D01*
G75*
G02*
X165925000Y-110325000I-75000J0D01*
G01*
X165775000Y-110325000D01*
G75*
G02*
X165700000Y-110250000I0J75000D01*
G01*
X165700000Y-109550000D01*
G75*
G02*
X165775000Y-109475000I75000J0D01*
G01*
G37*
G36*
G01*
X166275000Y-109475000D02*
X166425000Y-109475000D01*
G75*
G02*
X166500000Y-109550000I0J-75000D01*
G01*
X166500000Y-110250000D01*
G75*
G02*
X166425000Y-110325000I-75000J0D01*
G01*
X166275000Y-110325000D01*
G75*
G02*
X166200000Y-110250000I0J75000D01*
G01*
X166200000Y-109550000D01*
G75*
G02*
X166275000Y-109475000I75000J0D01*
G01*
G37*
G36*
G01*
X166625000Y-109275000D02*
X166625000Y-109125000D01*
G75*
G02*
X166700000Y-109050000I75000J0D01*
G01*
X167400000Y-109050000D01*
G75*
G02*
X167475000Y-109125000I0J-75000D01*
G01*
X167475000Y-109275000D01*
G75*
G02*
X167400000Y-109350000I-75000J0D01*
G01*
X166700000Y-109350000D01*
G75*
G02*
X166625000Y-109275000I0J75000D01*
G01*
G37*
G36*
G01*
X166625000Y-108775000D02*
X166625000Y-108625000D01*
G75*
G02*
X166700000Y-108550000I75000J0D01*
G01*
X167400000Y-108550000D01*
G75*
G02*
X167475000Y-108625000I0J-75000D01*
G01*
X167475000Y-108775000D01*
G75*
G02*
X167400000Y-108850000I-75000J0D01*
G01*
X166700000Y-108850000D01*
G75*
G02*
X166625000Y-108775000I0J75000D01*
G01*
G37*
G36*
G01*
X166625000Y-108275000D02*
X166625000Y-108125000D01*
G75*
G02*
X166700000Y-108050000I75000J0D01*
G01*
X167400000Y-108050000D01*
G75*
G02*
X167475000Y-108125000I0J-75000D01*
G01*
X167475000Y-108275000D01*
G75*
G02*
X167400000Y-108350000I-75000J0D01*
G01*
X166700000Y-108350000D01*
G75*
G02*
X166625000Y-108275000I0J75000D01*
G01*
G37*
G36*
G01*
X166625000Y-107775000D02*
X166625000Y-107625000D01*
G75*
G02*
X166700000Y-107550000I75000J0D01*
G01*
X167400000Y-107550000D01*
G75*
G02*
X167475000Y-107625000I0J-75000D01*
G01*
X167475000Y-107775000D01*
G75*
G02*
X167400000Y-107850000I-75000J0D01*
G01*
X166700000Y-107850000D01*
G75*
G02*
X166625000Y-107775000I0J75000D01*
G01*
G37*
G36*
G01*
X166625000Y-107275000D02*
X166625000Y-107125000D01*
G75*
G02*
X166700000Y-107050000I75000J0D01*
G01*
X167400000Y-107050000D01*
G75*
G02*
X167475000Y-107125000I0J-75000D01*
G01*
X167475000Y-107275000D01*
G75*
G02*
X167400000Y-107350000I-75000J0D01*
G01*
X166700000Y-107350000D01*
G75*
G02*
X166625000Y-107275000I0J75000D01*
G01*
G37*
G36*
G01*
X166625000Y-106775000D02*
X166625000Y-106625000D01*
G75*
G02*
X166700000Y-106550000I75000J0D01*
G01*
X167400000Y-106550000D01*
G75*
G02*
X167475000Y-106625000I0J-75000D01*
G01*
X167475000Y-106775000D01*
G75*
G02*
X167400000Y-106850000I-75000J0D01*
G01*
X166700000Y-106850000D01*
G75*
G02*
X166625000Y-106775000I0J75000D01*
G01*
G37*
G36*
G01*
X166275000Y-105575000D02*
X166425000Y-105575000D01*
G75*
G02*
X166500000Y-105650000I0J-75000D01*
G01*
X166500000Y-106350000D01*
G75*
G02*
X166425000Y-106425000I-75000J0D01*
G01*
X166275000Y-106425000D01*
G75*
G02*
X166200000Y-106350000I0J75000D01*
G01*
X166200000Y-105650000D01*
G75*
G02*
X166275000Y-105575000I75000J0D01*
G01*
G37*
G36*
G01*
X165775000Y-105575000D02*
X165925000Y-105575000D01*
G75*
G02*
X166000000Y-105650000I0J-75000D01*
G01*
X166000000Y-106350000D01*
G75*
G02*
X165925000Y-106425000I-75000J0D01*
G01*
X165775000Y-106425000D01*
G75*
G02*
X165700000Y-106350000I0J75000D01*
G01*
X165700000Y-105650000D01*
G75*
G02*
X165775000Y-105575000I75000J0D01*
G01*
G37*
G36*
G01*
X165275000Y-105575000D02*
X165425000Y-105575000D01*
G75*
G02*
X165500000Y-105650000I0J-75000D01*
G01*
X165500000Y-106350000D01*
G75*
G02*
X165425000Y-106425000I-75000J0D01*
G01*
X165275000Y-106425000D01*
G75*
G02*
X165200000Y-106350000I0J75000D01*
G01*
X165200000Y-105650000D01*
G75*
G02*
X165275000Y-105575000I75000J0D01*
G01*
G37*
G36*
G01*
X164775000Y-105575000D02*
X164925000Y-105575000D01*
G75*
G02*
X165000000Y-105650000I0J-75000D01*
G01*
X165000000Y-106350000D01*
G75*
G02*
X164925000Y-106425000I-75000J0D01*
G01*
X164775000Y-106425000D01*
G75*
G02*
X164700000Y-106350000I0J75000D01*
G01*
X164700000Y-105650000D01*
G75*
G02*
X164775000Y-105575000I75000J0D01*
G01*
G37*
G36*
G01*
X164275000Y-105575000D02*
X164425000Y-105575000D01*
G75*
G02*
X164500000Y-105650000I0J-75000D01*
G01*
X164500000Y-106350000D01*
G75*
G02*
X164425000Y-106425000I-75000J0D01*
G01*
X164275000Y-106425000D01*
G75*
G02*
X164200000Y-106350000I0J75000D01*
G01*
X164200000Y-105650000D01*
G75*
G02*
X164275000Y-105575000I75000J0D01*
G01*
G37*
G36*
G01*
X163775000Y-105575000D02*
X163925000Y-105575000D01*
G75*
G02*
X164000000Y-105650000I0J-75000D01*
G01*
X164000000Y-106350000D01*
G75*
G02*
X163925000Y-106425000I-75000J0D01*
G01*
X163775000Y-106425000D01*
G75*
G02*
X163700000Y-106350000I0J75000D01*
G01*
X163700000Y-105650000D01*
G75*
G02*
X163775000Y-105575000I75000J0D01*
G01*
G37*
G36*
G01*
X162725000Y-106775000D02*
X162725000Y-106625000D01*
G75*
G02*
X162800000Y-106550000I75000J0D01*
G01*
X163500000Y-106550000D01*
G75*
G02*
X163575000Y-106625000I0J-75000D01*
G01*
X163575000Y-106775000D01*
G75*
G02*
X163500000Y-106850000I-75000J0D01*
G01*
X162800000Y-106850000D01*
G75*
G02*
X162725000Y-106775000I0J75000D01*
G01*
G37*
G36*
G01*
X162725000Y-107275000D02*
X162725000Y-107125000D01*
G75*
G02*
X162800000Y-107050000I75000J0D01*
G01*
X163500000Y-107050000D01*
G75*
G02*
X163575000Y-107125000I0J-75000D01*
G01*
X163575000Y-107275000D01*
G75*
G02*
X163500000Y-107350000I-75000J0D01*
G01*
X162800000Y-107350000D01*
G75*
G02*
X162725000Y-107275000I0J75000D01*
G01*
G37*
G36*
G01*
X162725000Y-107775000D02*
X162725000Y-107625000D01*
G75*
G02*
X162800000Y-107550000I75000J0D01*
G01*
X163500000Y-107550000D01*
G75*
G02*
X163575000Y-107625000I0J-75000D01*
G01*
X163575000Y-107775000D01*
G75*
G02*
X163500000Y-107850000I-75000J0D01*
G01*
X162800000Y-107850000D01*
G75*
G02*
X162725000Y-107775000I0J75000D01*
G01*
G37*
G36*
G01*
X162725000Y-108275000D02*
X162725000Y-108125000D01*
G75*
G02*
X162800000Y-108050000I75000J0D01*
G01*
X163500000Y-108050000D01*
G75*
G02*
X163575000Y-108125000I0J-75000D01*
G01*
X163575000Y-108275000D01*
G75*
G02*
X163500000Y-108350000I-75000J0D01*
G01*
X162800000Y-108350000D01*
G75*
G02*
X162725000Y-108275000I0J75000D01*
G01*
G37*
G36*
G01*
X162725000Y-108775000D02*
X162725000Y-108625000D01*
G75*
G02*
X162800000Y-108550000I75000J0D01*
G01*
X163500000Y-108550000D01*
G75*
G02*
X163575000Y-108625000I0J-75000D01*
G01*
X163575000Y-108775000D01*
G75*
G02*
X163500000Y-108850000I-75000J0D01*
G01*
X162800000Y-108850000D01*
G75*
G02*
X162725000Y-108775000I0J75000D01*
G01*
G37*
G36*
G01*
X162725000Y-109275000D02*
X162725000Y-109125000D01*
G75*
G02*
X162800000Y-109050000I75000J0D01*
G01*
X163500000Y-109050000D01*
G75*
G02*
X163575000Y-109125000I0J-75000D01*
G01*
X163575000Y-109275000D01*
G75*
G02*
X163500000Y-109350000I-75000J0D01*
G01*
X162800000Y-109350000D01*
G75*
G02*
X162725000Y-109275000I0J75000D01*
G01*
G37*
%TD*%
D21*
%TO.C,J8*%
X127000000Y-97790000D03*
G36*
G01*
X126154999Y-94380000D02*
X127845001Y-94380000D01*
G75*
G02*
X128095000Y-94629999I0J-249999D01*
G01*
X128095000Y-95870001D01*
G75*
G02*
X127845001Y-96120000I-249999J0D01*
G01*
X126154999Y-96120000D01*
G75*
G02*
X125905000Y-95870001I0J249999D01*
G01*
X125905000Y-94629999D01*
G75*
G02*
X126154999Y-94380000I249999J0D01*
G01*
G37*
%TD*%
D20*
%TO.C,J7*%
X185420000Y-147320000D03*
X182880000Y-147320000D03*
X180340000Y-147320000D03*
X177800000Y-147320000D03*
G36*
G01*
X174390000Y-148165001D02*
X174390000Y-146474999D01*
G75*
G02*
X174639999Y-146225000I249999J0D01*
G01*
X175880001Y-146225000D01*
G75*
G02*
X176130000Y-146474999I0J-249999D01*
G01*
X176130000Y-148165001D01*
G75*
G02*
X175880001Y-148415000I-249999J0D01*
G01*
X174639999Y-148415000D01*
G75*
G02*
X174390000Y-148165001I0J249999D01*
G01*
G37*
%TD*%
D21*
%TO.C,J6*%
X127000000Y-104140000D03*
G36*
G01*
X126154999Y-100730000D02*
X127845001Y-100730000D01*
G75*
G02*
X128095000Y-100979999I0J-249999D01*
G01*
X128095000Y-102220001D01*
G75*
G02*
X127845001Y-102470000I-249999J0D01*
G01*
X126154999Y-102470000D01*
G75*
G02*
X125905000Y-102220001I0J249999D01*
G01*
X125905000Y-100979999D01*
G75*
G02*
X126154999Y-100730000I249999J0D01*
G01*
G37*
%TD*%
D20*
%TO.C,J5*%
X154940000Y-147320000D03*
X152400000Y-147320000D03*
X149860000Y-147320000D03*
X147320000Y-147320000D03*
G36*
G01*
X143910000Y-148165001D02*
X143910000Y-146474999D01*
G75*
G02*
X144159999Y-146225000I249999J0D01*
G01*
X145400001Y-146225000D01*
G75*
G02*
X145650000Y-146474999I0J-249999D01*
G01*
X145650000Y-148165001D01*
G75*
G02*
X145400001Y-148415000I-249999J0D01*
G01*
X144159999Y-148415000D01*
G75*
G02*
X143910000Y-148165001I0J249999D01*
G01*
G37*
%TD*%
D21*
%TO.C,J4*%
X127000000Y-110490000D03*
G36*
G01*
X126154999Y-107080000D02*
X127845001Y-107080000D01*
G75*
G02*
X128095000Y-107329999I0J-249999D01*
G01*
X128095000Y-108570001D01*
G75*
G02*
X127845001Y-108820000I-249999J0D01*
G01*
X126154999Y-108820000D01*
G75*
G02*
X125905000Y-108570001I0J249999D01*
G01*
X125905000Y-107329999D01*
G75*
G02*
X126154999Y-107080000I249999J0D01*
G01*
G37*
%TD*%
D20*
%TO.C,J3*%
X170180000Y-147320000D03*
X167640000Y-147320000D03*
X165100000Y-147320000D03*
X162560000Y-147320000D03*
G36*
G01*
X159150000Y-148165001D02*
X159150000Y-146474999D01*
G75*
G02*
X159399999Y-146225000I249999J0D01*
G01*
X160640001Y-146225000D01*
G75*
G02*
X160890000Y-146474999I0J-249999D01*
G01*
X160890000Y-148165001D01*
G75*
G02*
X160640001Y-148415000I-249999J0D01*
G01*
X159399999Y-148415000D01*
G75*
G02*
X159150000Y-148165001I0J249999D01*
G01*
G37*
%TD*%
%TO.C,C25*%
G36*
G01*
X185199000Y-135578000D02*
X186149000Y-135578000D01*
G75*
G02*
X186399000Y-135828000I0J-250000D01*
G01*
X186399000Y-136328000D01*
G75*
G02*
X186149000Y-136578000I-250000J0D01*
G01*
X185199000Y-136578000D01*
G75*
G02*
X184949000Y-136328000I0J250000D01*
G01*
X184949000Y-135828000D01*
G75*
G02*
X185199000Y-135578000I250000J0D01*
G01*
G37*
G36*
G01*
X185199000Y-133678000D02*
X186149000Y-133678000D01*
G75*
G02*
X186399000Y-133928000I0J-250000D01*
G01*
X186399000Y-134428000D01*
G75*
G02*
X186149000Y-134678000I-250000J0D01*
G01*
X185199000Y-134678000D01*
G75*
G02*
X184949000Y-134428000I0J250000D01*
G01*
X184949000Y-133928000D01*
G75*
G02*
X185199000Y-133678000I250000J0D01*
G01*
G37*
%TD*%
%TO.C,C20*%
G36*
G01*
X155318000Y-134653000D02*
X155318000Y-135603000D01*
G75*
G02*
X155068000Y-135853000I-250000J0D01*
G01*
X154568000Y-135853000D01*
G75*
G02*
X154318000Y-135603000I0J250000D01*
G01*
X154318000Y-134653000D01*
G75*
G02*
X154568000Y-134403000I250000J0D01*
G01*
X155068000Y-134403000D01*
G75*
G02*
X155318000Y-134653000I0J-250000D01*
G01*
G37*
G36*
G01*
X157218000Y-134653000D02*
X157218000Y-135603000D01*
G75*
G02*
X156968000Y-135853000I-250000J0D01*
G01*
X156468000Y-135853000D01*
G75*
G02*
X156218000Y-135603000I0J250000D01*
G01*
X156218000Y-134653000D01*
G75*
G02*
X156468000Y-134403000I250000J0D01*
G01*
X156968000Y-134403000D01*
G75*
G02*
X157218000Y-134653000I0J-250000D01*
G01*
G37*
%TD*%
%TO.C,C16*%
G36*
G01*
X149130000Y-139684000D02*
X149130000Y-137684000D01*
G75*
G02*
X149380000Y-137434000I250000J0D01*
G01*
X152880000Y-137434000D01*
G75*
G02*
X153130000Y-137684000I0J-250000D01*
G01*
X153130000Y-139684000D01*
G75*
G02*
X152880000Y-139934000I-250000J0D01*
G01*
X149380000Y-139934000D01*
G75*
G02*
X149130000Y-139684000I0J250000D01*
G01*
G37*
G36*
G01*
X143030000Y-139684000D02*
X143030000Y-137684000D01*
G75*
G02*
X143280000Y-137434000I250000J0D01*
G01*
X146780000Y-137434000D01*
G75*
G02*
X147030000Y-137684000I0J-250000D01*
G01*
X147030000Y-139684000D01*
G75*
G02*
X146780000Y-139934000I-250000J0D01*
G01*
X143280000Y-139934000D01*
G75*
G02*
X143030000Y-139684000I0J250000D01*
G01*
G37*
%TD*%
%TO.C,C15*%
G36*
G01*
X170558000Y-134653000D02*
X170558000Y-135603000D01*
G75*
G02*
X170308000Y-135853000I-250000J0D01*
G01*
X169808000Y-135853000D01*
G75*
G02*
X169558000Y-135603000I0J250000D01*
G01*
X169558000Y-134653000D01*
G75*
G02*
X169808000Y-134403000I250000J0D01*
G01*
X170308000Y-134403000D01*
G75*
G02*
X170558000Y-134653000I0J-250000D01*
G01*
G37*
G36*
G01*
X172458000Y-134653000D02*
X172458000Y-135603000D01*
G75*
G02*
X172208000Y-135853000I-250000J0D01*
G01*
X171708000Y-135853000D01*
G75*
G02*
X171458000Y-135603000I0J250000D01*
G01*
X171458000Y-134653000D01*
G75*
G02*
X171708000Y-134403000I250000J0D01*
G01*
X172208000Y-134403000D01*
G75*
G02*
X172458000Y-134653000I0J-250000D01*
G01*
G37*
%TD*%
%TO.C,C11*%
G36*
G01*
X164370000Y-139684000D02*
X164370000Y-137684000D01*
G75*
G02*
X164620000Y-137434000I250000J0D01*
G01*
X168120000Y-137434000D01*
G75*
G02*
X168370000Y-137684000I0J-250000D01*
G01*
X168370000Y-139684000D01*
G75*
G02*
X168120000Y-139934000I-250000J0D01*
G01*
X164620000Y-139934000D01*
G75*
G02*
X164370000Y-139684000I0J250000D01*
G01*
G37*
G36*
G01*
X158270000Y-139684000D02*
X158270000Y-137684000D01*
G75*
G02*
X158520000Y-137434000I250000J0D01*
G01*
X162020000Y-137434000D01*
G75*
G02*
X162270000Y-137684000I0J-250000D01*
G01*
X162270000Y-139684000D01*
G75*
G02*
X162020000Y-139934000I-250000J0D01*
G01*
X158520000Y-139934000D01*
G75*
G02*
X158270000Y-139684000I0J250000D01*
G01*
G37*
%TD*%
%TO.C,C8*%
G36*
G01*
X163772000Y-125189000D02*
X163772000Y-124239000D01*
G75*
G02*
X164022000Y-123989000I250000J0D01*
G01*
X164522000Y-123989000D01*
G75*
G02*
X164772000Y-124239000I0J-250000D01*
G01*
X164772000Y-125189000D01*
G75*
G02*
X164522000Y-125439000I-250000J0D01*
G01*
X164022000Y-125439000D01*
G75*
G02*
X163772000Y-125189000I0J250000D01*
G01*
G37*
G36*
G01*
X161872000Y-125189000D02*
X161872000Y-124239000D01*
G75*
G02*
X162122000Y-123989000I250000J0D01*
G01*
X162622000Y-123989000D01*
G75*
G02*
X162872000Y-124239000I0J-250000D01*
G01*
X162872000Y-125189000D01*
G75*
G02*
X162622000Y-125439000I-250000J0D01*
G01*
X162122000Y-125439000D01*
G75*
G02*
X161872000Y-125189000I0J250000D01*
G01*
G37*
%TD*%
%TO.C,C5*%
G36*
G01*
X166428000Y-124239000D02*
X166428000Y-125189000D01*
G75*
G02*
X166178000Y-125439000I-250000J0D01*
G01*
X165678000Y-125439000D01*
G75*
G02*
X165428000Y-125189000I0J250000D01*
G01*
X165428000Y-124239000D01*
G75*
G02*
X165678000Y-123989000I250000J0D01*
G01*
X166178000Y-123989000D01*
G75*
G02*
X166428000Y-124239000I0J-250000D01*
G01*
G37*
G36*
G01*
X168328000Y-124239000D02*
X168328000Y-125189000D01*
G75*
G02*
X168078000Y-125439000I-250000J0D01*
G01*
X167578000Y-125439000D01*
G75*
G02*
X167328000Y-125189000I0J250000D01*
G01*
X167328000Y-124239000D01*
G75*
G02*
X167578000Y-123989000I250000J0D01*
G01*
X168078000Y-123989000D01*
G75*
G02*
X168328000Y-124239000I0J-250000D01*
G01*
G37*
%TD*%
%TO.C,C4*%
G36*
G01*
X163772000Y-123157000D02*
X163772000Y-122207000D01*
G75*
G02*
X164022000Y-121957000I250000J0D01*
G01*
X164522000Y-121957000D01*
G75*
G02*
X164772000Y-122207000I0J-250000D01*
G01*
X164772000Y-123157000D01*
G75*
G02*
X164522000Y-123407000I-250000J0D01*
G01*
X164022000Y-123407000D01*
G75*
G02*
X163772000Y-123157000I0J250000D01*
G01*
G37*
G36*
G01*
X161872000Y-123157000D02*
X161872000Y-122207000D01*
G75*
G02*
X162122000Y-121957000I250000J0D01*
G01*
X162622000Y-121957000D01*
G75*
G02*
X162872000Y-122207000I0J-250000D01*
G01*
X162872000Y-123157000D01*
G75*
G02*
X162622000Y-123407000I-250000J0D01*
G01*
X162122000Y-123407000D01*
G75*
G02*
X161872000Y-123157000I0J250000D01*
G01*
G37*
%TD*%
%TO.C,C3*%
G36*
G01*
X166428000Y-122207000D02*
X166428000Y-123157000D01*
G75*
G02*
X166178000Y-123407000I-250000J0D01*
G01*
X165678000Y-123407000D01*
G75*
G02*
X165428000Y-123157000I0J250000D01*
G01*
X165428000Y-122207000D01*
G75*
G02*
X165678000Y-121957000I250000J0D01*
G01*
X166178000Y-121957000D01*
G75*
G02*
X166428000Y-122207000I0J-250000D01*
G01*
G37*
G36*
G01*
X168328000Y-122207000D02*
X168328000Y-123157000D01*
G75*
G02*
X168078000Y-123407000I-250000J0D01*
G01*
X167578000Y-123407000D01*
G75*
G02*
X167328000Y-123157000I0J250000D01*
G01*
X167328000Y-122207000D01*
G75*
G02*
X167578000Y-121957000I250000J0D01*
G01*
X168078000Y-121957000D01*
G75*
G02*
X168328000Y-122207000I0J-250000D01*
G01*
G37*
%TD*%
%TO.C,C2*%
G36*
G01*
X166428000Y-120175000D02*
X166428000Y-121125000D01*
G75*
G02*
X166178000Y-121375000I-250000J0D01*
G01*
X165678000Y-121375000D01*
G75*
G02*
X165428000Y-121125000I0J250000D01*
G01*
X165428000Y-120175000D01*
G75*
G02*
X165678000Y-119925000I250000J0D01*
G01*
X166178000Y-119925000D01*
G75*
G02*
X166428000Y-120175000I0J-250000D01*
G01*
G37*
G36*
G01*
X168328000Y-120175000D02*
X168328000Y-121125000D01*
G75*
G02*
X168078000Y-121375000I-250000J0D01*
G01*
X167578000Y-121375000D01*
G75*
G02*
X167328000Y-121125000I0J250000D01*
G01*
X167328000Y-120175000D01*
G75*
G02*
X167578000Y-119925000I250000J0D01*
G01*
X168078000Y-119925000D01*
G75*
G02*
X168328000Y-120175000I0J-250000D01*
G01*
G37*
%TD*%
%TO.C,C1*%
G36*
G01*
X163772000Y-121125000D02*
X163772000Y-120175000D01*
G75*
G02*
X164022000Y-119925000I250000J0D01*
G01*
X164522000Y-119925000D01*
G75*
G02*
X164772000Y-120175000I0J-250000D01*
G01*
X164772000Y-121125000D01*
G75*
G02*
X164522000Y-121375000I-250000J0D01*
G01*
X164022000Y-121375000D01*
G75*
G02*
X163772000Y-121125000I0J250000D01*
G01*
G37*
G36*
G01*
X161872000Y-121125000D02*
X161872000Y-120175000D01*
G75*
G02*
X162122000Y-119925000I250000J0D01*
G01*
X162622000Y-119925000D01*
G75*
G02*
X162872000Y-120175000I0J-250000D01*
G01*
X162872000Y-121125000D01*
G75*
G02*
X162622000Y-121375000I-250000J0D01*
G01*
X162122000Y-121375000D01*
G75*
G02*
X161872000Y-121125000I0J250000D01*
G01*
G37*
%TD*%
M02*
