%TF.GenerationSoftware,KiCad,Pcbnew,5.1.9-73d0e3b20d~88~ubuntu20.04.1*%
%TF.CreationDate,2021-03-24T22:26:07+08:00*%
%TF.ProjectId,elec-car,656c6563-2d63-4617-922e-6b696361645f,rev?*%
%TF.SameCoordinates,Original*%
%TF.FileFunction,Legend,Top*%
%TF.FilePolarity,Positive*%
%FSLAX46Y46*%
G04 Gerber Fmt 4.6, Leading zero omitted, Abs format (unit mm)*
G04 Created by KiCad (PCBNEW 5.1.9-73d0e3b20d~88~ubuntu20.04.1) date 2021-03-24 22:26:07*
%MOMM*%
%LPD*%
G01*
G04 APERTURE LIST*
%ADD10C,0.300000*%
%ADD11C,0.100000*%
%ADD12C,0.120000*%
%ADD13C,0.150000*%
G04 APERTURE END LIST*
D10*
X152320857Y-77664571D02*
X153249428Y-77664571D01*
X152749428Y-78236000D01*
X152963714Y-78236000D01*
X153106571Y-78307428D01*
X153178000Y-78378857D01*
X153249428Y-78521714D01*
X153249428Y-78878857D01*
X153178000Y-79021714D01*
X153106571Y-79093142D01*
X152963714Y-79164571D01*
X152535142Y-79164571D01*
X152392285Y-79093142D01*
X152320857Y-79021714D01*
X153678000Y-77664571D02*
X154178000Y-79164571D01*
X154678000Y-77664571D01*
X155035142Y-77664571D02*
X155963714Y-77664571D01*
X155463714Y-78236000D01*
X155678000Y-78236000D01*
X155820857Y-78307428D01*
X155892285Y-78378857D01*
X155963714Y-78521714D01*
X155963714Y-78878857D01*
X155892285Y-79021714D01*
X155820857Y-79093142D01*
X155678000Y-79164571D01*
X155249428Y-79164571D01*
X155106571Y-79093142D01*
X155035142Y-79021714D01*
X153130285Y-75378571D02*
X152416000Y-75378571D01*
X152344571Y-76092857D01*
X152416000Y-76021428D01*
X152558857Y-75950000D01*
X152916000Y-75950000D01*
X153058857Y-76021428D01*
X153130285Y-76092857D01*
X153201714Y-76235714D01*
X153201714Y-76592857D01*
X153130285Y-76735714D01*
X153058857Y-76807142D01*
X152916000Y-76878571D01*
X152558857Y-76878571D01*
X152416000Y-76807142D01*
X152344571Y-76735714D01*
X153630285Y-75378571D02*
X154130285Y-76878571D01*
X154630285Y-75378571D01*
X210736571Y-109477428D02*
X209236571Y-109477428D01*
X210736571Y-107620285D02*
X209236571Y-107620285D01*
X210736571Y-106763142D02*
X209879428Y-107406000D01*
X209236571Y-106763142D02*
X210093714Y-107620285D01*
X210165142Y-104977428D02*
X210165142Y-103834571D01*
X210165142Y-101977428D02*
X210165142Y-100834571D01*
X210736571Y-101406000D02*
X209593714Y-101406000D01*
X136759142Y-112993714D02*
X136759142Y-111850857D01*
X137330571Y-112422285D02*
X136187714Y-112422285D01*
X136759142Y-109993714D02*
X136759142Y-108850857D01*
X137330571Y-106136571D02*
X136616285Y-106636571D01*
X137330571Y-106993714D02*
X135830571Y-106993714D01*
X135830571Y-106422285D01*
X135902000Y-106279428D01*
X135973428Y-106208000D01*
X136116285Y-106136571D01*
X136330571Y-106136571D01*
X136473428Y-106208000D01*
X136544857Y-106279428D01*
X136616285Y-106422285D01*
X136616285Y-106993714D01*
X135830571Y-104565142D02*
X135830571Y-103708000D01*
X137330571Y-104136571D02*
X135830571Y-104136571D01*
X138795714Y-108565142D02*
X139938571Y-108565142D01*
X139367142Y-109136571D02*
X139367142Y-107993714D01*
X141795714Y-108565142D02*
X142938571Y-108565142D01*
X144795714Y-109136571D02*
X144795714Y-107636571D01*
X145652857Y-109136571D02*
X145010000Y-108279428D01*
X145652857Y-107636571D02*
X144795714Y-108493714D01*
X147438571Y-109136571D02*
X147438571Y-107636571D01*
X147795714Y-107636571D01*
X148010000Y-107708000D01*
X148152857Y-107850857D01*
X148224285Y-107993714D01*
X148295714Y-108279428D01*
X148295714Y-108493714D01*
X148224285Y-108779428D01*
X148152857Y-108922285D01*
X148010000Y-109065142D01*
X147795714Y-109136571D01*
X147438571Y-109136571D01*
X138795714Y-114153142D02*
X139938571Y-114153142D01*
X141795714Y-114153142D02*
X142938571Y-114153142D01*
X142367142Y-114724571D02*
X142367142Y-113581714D01*
X144795714Y-114724571D02*
X144795714Y-113224571D01*
X145652857Y-114724571D02*
X145010000Y-113867428D01*
X145652857Y-113224571D02*
X144795714Y-114081714D01*
X147438571Y-114724571D02*
X147438571Y-113224571D01*
X147795714Y-113224571D01*
X148010000Y-113296000D01*
X148152857Y-113438857D01*
X148224285Y-113581714D01*
X148295714Y-113867428D01*
X148295714Y-114081714D01*
X148224285Y-114367428D01*
X148152857Y-114510285D01*
X148010000Y-114653142D01*
X147795714Y-114724571D01*
X147438571Y-114724571D01*
D11*
X182639047Y-99592857D02*
X182905714Y-99592857D01*
X183020000Y-100011904D02*
X182639047Y-100011904D01*
X182639047Y-99211904D01*
X183020000Y-99211904D01*
X183743809Y-100011904D02*
X183362857Y-100011904D01*
X183362857Y-99211904D01*
X184010476Y-99592857D02*
X184277142Y-99592857D01*
X184391428Y-100011904D02*
X184010476Y-100011904D01*
X184010476Y-99211904D01*
X184391428Y-99211904D01*
X185191428Y-99935714D02*
X185153333Y-99973809D01*
X185039047Y-100011904D01*
X184962857Y-100011904D01*
X184848571Y-99973809D01*
X184772380Y-99897619D01*
X184734285Y-99821428D01*
X184696190Y-99669047D01*
X184696190Y-99554761D01*
X184734285Y-99402380D01*
X184772380Y-99326190D01*
X184848571Y-99250000D01*
X184962857Y-99211904D01*
X185039047Y-99211904D01*
X185153333Y-99250000D01*
X185191428Y-99288095D01*
X185458095Y-99211904D02*
X185953333Y-99211904D01*
X185686666Y-99516666D01*
X185800952Y-99516666D01*
X185877142Y-99554761D01*
X185915238Y-99592857D01*
X185953333Y-99669047D01*
X185953333Y-99859523D01*
X185915238Y-99935714D01*
X185877142Y-99973809D01*
X185800952Y-100011904D01*
X185572380Y-100011904D01*
X185496190Y-99973809D01*
X185458095Y-99935714D01*
X186220000Y-99211904D02*
X186715238Y-99211904D01*
X186448571Y-99516666D01*
X186562857Y-99516666D01*
X186639047Y-99554761D01*
X186677142Y-99592857D01*
X186715238Y-99669047D01*
X186715238Y-99859523D01*
X186677142Y-99935714D01*
X186639047Y-99973809D01*
X186562857Y-100011904D01*
X186334285Y-100011904D01*
X186258095Y-99973809D01*
X186220000Y-99935714D01*
X187210476Y-99211904D02*
X187286666Y-99211904D01*
X187362857Y-99250000D01*
X187400952Y-99288095D01*
X187439047Y-99364285D01*
X187477142Y-99516666D01*
X187477142Y-99707142D01*
X187439047Y-99859523D01*
X187400952Y-99935714D01*
X187362857Y-99973809D01*
X187286666Y-100011904D01*
X187210476Y-100011904D01*
X187134285Y-99973809D01*
X187096190Y-99935714D01*
X187058095Y-99859523D01*
X187020000Y-99707142D01*
X187020000Y-99516666D01*
X187058095Y-99364285D01*
X187096190Y-99288095D01*
X187134285Y-99250000D01*
X187210476Y-99211904D01*
X187972380Y-99211904D02*
X188048571Y-99211904D01*
X188124761Y-99250000D01*
X188162857Y-99288095D01*
X188200952Y-99364285D01*
X188239047Y-99516666D01*
X188239047Y-99707142D01*
X188200952Y-99859523D01*
X188162857Y-99935714D01*
X188124761Y-99973809D01*
X188048571Y-100011904D01*
X187972380Y-100011904D01*
X187896190Y-99973809D01*
X187858095Y-99935714D01*
X187820000Y-99859523D01*
X187781904Y-99707142D01*
X187781904Y-99516666D01*
X187820000Y-99364285D01*
X187858095Y-99288095D01*
X187896190Y-99250000D01*
X187972380Y-99211904D01*
X181210476Y-101311904D02*
X181210476Y-100511904D01*
X181896190Y-101273809D02*
X181820000Y-101311904D01*
X181667619Y-101311904D01*
X181591428Y-101273809D01*
X181553333Y-101197619D01*
X181553333Y-100892857D01*
X181591428Y-100816666D01*
X181667619Y-100778571D01*
X181820000Y-100778571D01*
X181896190Y-100816666D01*
X181934285Y-100892857D01*
X181934285Y-100969047D01*
X181553333Y-101045238D01*
X182391428Y-101311904D02*
X182315238Y-101273809D01*
X182277142Y-101235714D01*
X182239047Y-101159523D01*
X182239047Y-100930952D01*
X182277142Y-100854761D01*
X182315238Y-100816666D01*
X182391428Y-100778571D01*
X182505714Y-100778571D01*
X182581904Y-100816666D01*
X182620000Y-100854761D01*
X182658095Y-100930952D01*
X182658095Y-101159523D01*
X182620000Y-101235714D01*
X182581904Y-101273809D01*
X182505714Y-101311904D01*
X182391428Y-101311904D01*
X183000952Y-100778571D02*
X183000952Y-101311904D01*
X183000952Y-100854761D02*
X183039047Y-100816666D01*
X183115238Y-100778571D01*
X183229523Y-100778571D01*
X183305714Y-100816666D01*
X183343809Y-100892857D01*
X183343809Y-101311904D01*
X184067619Y-100778571D02*
X184067619Y-101426190D01*
X184029523Y-101502380D01*
X183991428Y-101540476D01*
X183915238Y-101578571D01*
X183800952Y-101578571D01*
X183724761Y-101540476D01*
X184067619Y-101273809D02*
X183991428Y-101311904D01*
X183839047Y-101311904D01*
X183762857Y-101273809D01*
X183724761Y-101235714D01*
X183686666Y-101159523D01*
X183686666Y-100930952D01*
X183724761Y-100854761D01*
X183762857Y-100816666D01*
X183839047Y-100778571D01*
X183991428Y-100778571D01*
X184067619Y-100816666D01*
X184981904Y-100511904D02*
X185515238Y-100511904D01*
X184981904Y-101311904D01*
X185515238Y-101311904D01*
X185820000Y-101311904D02*
X185820000Y-100778571D01*
X185820000Y-100511904D02*
X185781904Y-100550000D01*
X185820000Y-100588095D01*
X185858095Y-100550000D01*
X185820000Y-100511904D01*
X185820000Y-100588095D01*
X187191428Y-101311904D02*
X186810476Y-101311904D01*
X186810476Y-100511904D01*
X187458095Y-101311904D02*
X187458095Y-100778571D01*
X187458095Y-100511904D02*
X187420000Y-100550000D01*
X187458095Y-100588095D01*
X187496190Y-100550000D01*
X187458095Y-100511904D01*
X187458095Y-100588095D01*
X188181904Y-101311904D02*
X188181904Y-100892857D01*
X188143809Y-100816666D01*
X188067619Y-100778571D01*
X187915238Y-100778571D01*
X187839047Y-100816666D01*
X188181904Y-101273809D02*
X188105714Y-101311904D01*
X187915238Y-101311904D01*
X187839047Y-101273809D01*
X187800952Y-101197619D01*
X187800952Y-101121428D01*
X187839047Y-101045238D01*
X187915238Y-101007142D01*
X188105714Y-101007142D01*
X188181904Y-100969047D01*
X188562857Y-100778571D02*
X188562857Y-101311904D01*
X188562857Y-100854761D02*
X188600952Y-100816666D01*
X188677142Y-100778571D01*
X188791428Y-100778571D01*
X188867619Y-100816666D01*
X188905714Y-100892857D01*
X188905714Y-101311904D01*
X189629523Y-100778571D02*
X189629523Y-101426190D01*
X189591428Y-101502380D01*
X189553333Y-101540476D01*
X189477142Y-101578571D01*
X189362857Y-101578571D01*
X189286666Y-101540476D01*
X189629523Y-101273809D02*
X189553333Y-101311904D01*
X189400952Y-101311904D01*
X189324761Y-101273809D01*
X189286666Y-101235714D01*
X189248571Y-101159523D01*
X189248571Y-100930952D01*
X189286666Y-100854761D01*
X189324761Y-100816666D01*
X189400952Y-100778571D01*
X189553333Y-100778571D01*
X189629523Y-100816666D01*
X181458095Y-102230952D02*
X181458095Y-102611904D01*
X181191428Y-101811904D02*
X181458095Y-102230952D01*
X181724761Y-101811904D01*
X181991428Y-102611904D02*
X181991428Y-102078571D01*
X181991428Y-101811904D02*
X181953333Y-101850000D01*
X181991428Y-101888095D01*
X182029523Y-101850000D01*
X181991428Y-101811904D01*
X181991428Y-101888095D01*
X182372380Y-102611904D02*
X182372380Y-102078571D01*
X182372380Y-102154761D02*
X182410476Y-102116666D01*
X182486666Y-102078571D01*
X182600952Y-102078571D01*
X182677142Y-102116666D01*
X182715238Y-102192857D01*
X182715238Y-102611904D01*
X182715238Y-102192857D02*
X182753333Y-102116666D01*
X182829523Y-102078571D01*
X182943809Y-102078571D01*
X183020000Y-102116666D01*
X183058095Y-102192857D01*
X183058095Y-102611904D01*
X184048571Y-102611904D02*
X184048571Y-101811904D01*
X184315238Y-102383333D01*
X184581904Y-101811904D01*
X184581904Y-102611904D01*
X185305714Y-102611904D02*
X185305714Y-102192857D01*
X185267619Y-102116666D01*
X185191428Y-102078571D01*
X185039047Y-102078571D01*
X184962857Y-102116666D01*
X185305714Y-102573809D02*
X185229523Y-102611904D01*
X185039047Y-102611904D01*
X184962857Y-102573809D01*
X184924761Y-102497619D01*
X184924761Y-102421428D01*
X184962857Y-102345238D01*
X185039047Y-102307142D01*
X185229523Y-102307142D01*
X185305714Y-102269047D01*
X185686666Y-102078571D02*
X185686666Y-102611904D01*
X185686666Y-102154761D02*
X185724761Y-102116666D01*
X185800952Y-102078571D01*
X185915238Y-102078571D01*
X185991428Y-102116666D01*
X186029523Y-102192857D01*
X186029523Y-102611904D01*
X187477142Y-102535714D02*
X187439047Y-102573809D01*
X187324761Y-102611904D01*
X187248571Y-102611904D01*
X187134285Y-102573809D01*
X187058095Y-102497619D01*
X187020000Y-102421428D01*
X186981904Y-102269047D01*
X186981904Y-102154761D01*
X187020000Y-102002380D01*
X187058095Y-101926190D01*
X187134285Y-101850000D01*
X187248571Y-101811904D01*
X187324761Y-101811904D01*
X187439047Y-101850000D01*
X187477142Y-101888095D01*
X187820000Y-102611904D02*
X187820000Y-101811904D01*
X188162857Y-102611904D02*
X188162857Y-102192857D01*
X188124761Y-102116666D01*
X188048571Y-102078571D01*
X187934285Y-102078571D01*
X187858095Y-102116666D01*
X187820000Y-102154761D01*
X188886666Y-102611904D02*
X188886666Y-102192857D01*
X188848571Y-102116666D01*
X188772380Y-102078571D01*
X188620000Y-102078571D01*
X188543809Y-102116666D01*
X188886666Y-102573809D02*
X188810476Y-102611904D01*
X188620000Y-102611904D01*
X188543809Y-102573809D01*
X188505714Y-102497619D01*
X188505714Y-102421428D01*
X188543809Y-102345238D01*
X188620000Y-102307142D01*
X188810476Y-102307142D01*
X188886666Y-102269047D01*
X189267619Y-102611904D02*
X189267619Y-101811904D01*
X189343809Y-102307142D02*
X189572380Y-102611904D01*
X189572380Y-102078571D02*
X189267619Y-102383333D01*
X180086666Y-103188095D02*
X180124761Y-103150000D01*
X180200952Y-103111904D01*
X180391428Y-103111904D01*
X180467619Y-103150000D01*
X180505714Y-103188095D01*
X180543809Y-103264285D01*
X180543809Y-103340476D01*
X180505714Y-103454761D01*
X180048571Y-103911904D01*
X180543809Y-103911904D01*
X181039047Y-103111904D02*
X181115238Y-103111904D01*
X181191428Y-103150000D01*
X181229523Y-103188095D01*
X181267619Y-103264285D01*
X181305714Y-103416666D01*
X181305714Y-103607142D01*
X181267619Y-103759523D01*
X181229523Y-103835714D01*
X181191428Y-103873809D01*
X181115238Y-103911904D01*
X181039047Y-103911904D01*
X180962857Y-103873809D01*
X180924761Y-103835714D01*
X180886666Y-103759523D01*
X180848571Y-103607142D01*
X180848571Y-103416666D01*
X180886666Y-103264285D01*
X180924761Y-103188095D01*
X180962857Y-103150000D01*
X181039047Y-103111904D01*
X181610476Y-103188095D02*
X181648571Y-103150000D01*
X181724761Y-103111904D01*
X181915238Y-103111904D01*
X181991428Y-103150000D01*
X182029523Y-103188095D01*
X182067619Y-103264285D01*
X182067619Y-103340476D01*
X182029523Y-103454761D01*
X181572380Y-103911904D01*
X182067619Y-103911904D01*
X182829523Y-103911904D02*
X182372380Y-103911904D01*
X182600952Y-103911904D02*
X182600952Y-103111904D01*
X182524761Y-103226190D01*
X182448571Y-103302380D01*
X182372380Y-103340476D01*
X183781904Y-103911904D02*
X183781904Y-103111904D01*
X184048571Y-103683333D01*
X184315238Y-103111904D01*
X184315238Y-103911904D01*
X185039047Y-103911904D02*
X185039047Y-103492857D01*
X185000952Y-103416666D01*
X184924761Y-103378571D01*
X184772380Y-103378571D01*
X184696190Y-103416666D01*
X185039047Y-103873809D02*
X184962857Y-103911904D01*
X184772380Y-103911904D01*
X184696190Y-103873809D01*
X184658095Y-103797619D01*
X184658095Y-103721428D01*
X184696190Y-103645238D01*
X184772380Y-103607142D01*
X184962857Y-103607142D01*
X185039047Y-103569047D01*
X185420000Y-103911904D02*
X185420000Y-103378571D01*
X185420000Y-103530952D02*
X185458095Y-103454761D01*
X185496190Y-103416666D01*
X185572380Y-103378571D01*
X185648571Y-103378571D01*
X186486666Y-103188095D02*
X186524761Y-103150000D01*
X186600952Y-103111904D01*
X186791428Y-103111904D01*
X186867619Y-103150000D01*
X186905714Y-103188095D01*
X186943809Y-103264285D01*
X186943809Y-103340476D01*
X186905714Y-103454761D01*
X186448571Y-103911904D01*
X186943809Y-103911904D01*
X187629523Y-103378571D02*
X187629523Y-103911904D01*
X187439047Y-103073809D02*
X187248571Y-103645238D01*
X187743809Y-103645238D01*
X188886666Y-104216666D02*
X188848571Y-104178571D01*
X188772380Y-104064285D01*
X188734285Y-103988095D01*
X188696190Y-103873809D01*
X188658095Y-103683333D01*
X188658095Y-103530952D01*
X188696190Y-103340476D01*
X188734285Y-103226190D01*
X188772380Y-103150000D01*
X188848571Y-103035714D01*
X188886666Y-102997619D01*
X189115238Y-103378571D02*
X189305714Y-103911904D01*
X189496190Y-103378571D01*
X190220000Y-103911904D02*
X189762857Y-103911904D01*
X189991428Y-103911904D02*
X189991428Y-103111904D01*
X189915238Y-103226190D01*
X189839047Y-103302380D01*
X189762857Y-103340476D01*
X190486666Y-104216666D02*
X190524761Y-104178571D01*
X190600952Y-104064285D01*
X190639047Y-103988095D01*
X190677142Y-103873809D01*
X190715238Y-103683333D01*
X190715238Y-103530952D01*
X190677142Y-103340476D01*
X190639047Y-103226190D01*
X190600952Y-103150000D01*
X190524761Y-103035714D01*
X190486666Y-102997619D01*
D10*
X191270000Y-110430571D02*
X192198571Y-110430571D01*
X191698571Y-111002000D01*
X191912857Y-111002000D01*
X192055714Y-111073428D01*
X192127142Y-111144857D01*
X192198571Y-111287714D01*
X192198571Y-111644857D01*
X192127142Y-111787714D01*
X192055714Y-111859142D01*
X191912857Y-111930571D01*
X191484285Y-111930571D01*
X191341428Y-111859142D01*
X191270000Y-111787714D01*
X191341428Y-108541428D02*
X191412857Y-108470000D01*
X191555714Y-108398571D01*
X191912857Y-108398571D01*
X192055714Y-108470000D01*
X192127142Y-108541428D01*
X192198571Y-108684285D01*
X192198571Y-108827142D01*
X192127142Y-109041428D01*
X191270000Y-109898571D01*
X192198571Y-109898571D01*
X192198571Y-107866571D02*
X191341428Y-107866571D01*
X191770000Y-107866571D02*
X191770000Y-106366571D01*
X191627142Y-106580857D01*
X191484285Y-106723714D01*
X191341428Y-106795142D01*
X191698571Y-104334571D02*
X191841428Y-104334571D01*
X191984285Y-104406000D01*
X192055714Y-104477428D01*
X192127142Y-104620285D01*
X192198571Y-104906000D01*
X192198571Y-105263142D01*
X192127142Y-105548857D01*
X192055714Y-105691714D01*
X191984285Y-105763142D01*
X191841428Y-105834571D01*
X191698571Y-105834571D01*
X191555714Y-105763142D01*
X191484285Y-105691714D01*
X191412857Y-105548857D01*
X191341428Y-105263142D01*
X191341428Y-104906000D01*
X191412857Y-104620285D01*
X191484285Y-104477428D01*
X191555714Y-104406000D01*
X191698571Y-104334571D01*
D12*
%TO.C,R38*%
X173455000Y-97562936D02*
X173455000Y-98017064D01*
X171985000Y-97562936D02*
X171985000Y-98017064D01*
%TO.C,R37*%
X169953000Y-98017064D02*
X169953000Y-97562936D01*
X171423000Y-98017064D02*
X171423000Y-97562936D01*
%TO.C,J14*%
X140970000Y-118170000D02*
X140970000Y-115510000D01*
X140970000Y-118170000D02*
X148650000Y-118170000D01*
X148650000Y-118170000D02*
X148650000Y-115510000D01*
X140970000Y-115510000D02*
X148650000Y-115510000D01*
X138370000Y-115510000D02*
X139700000Y-115510000D01*
X138370000Y-116840000D02*
X138370000Y-115510000D01*
%TO.C,R36*%
X198093064Y-105891000D02*
X197638936Y-105891000D01*
X198093064Y-104421000D02*
X197638936Y-104421000D01*
%TO.C,D17*%
X193310000Y-106116000D02*
X195995000Y-106116000D01*
X195995000Y-106116000D02*
X195995000Y-104196000D01*
X195995000Y-104196000D02*
X193310000Y-104196000D01*
%TO.C,R35*%
X146434436Y-75465000D02*
X146888564Y-75465000D01*
X146434436Y-76935000D02*
X146888564Y-76935000D01*
%TO.C,R34*%
X146434436Y-77751000D02*
X146888564Y-77751000D01*
X146434436Y-79221000D02*
X146888564Y-79221000D01*
%TO.C,R33*%
X198093064Y-111987000D02*
X197638936Y-111987000D01*
X198093064Y-110517000D02*
X197638936Y-110517000D01*
%TO.C,R32*%
X198093064Y-107923000D02*
X197638936Y-107923000D01*
X198093064Y-106453000D02*
X197638936Y-106453000D01*
%TO.C,R31*%
X198093064Y-109955000D02*
X197638936Y-109955000D01*
X198093064Y-108485000D02*
X197638936Y-108485000D01*
%TO.C,D16*%
X151192500Y-75240000D02*
X148507500Y-75240000D01*
X148507500Y-75240000D02*
X148507500Y-77160000D01*
X148507500Y-77160000D02*
X151192500Y-77160000D01*
%TO.C,D15*%
X151192500Y-77526000D02*
X148507500Y-77526000D01*
X148507500Y-77526000D02*
X148507500Y-79446000D01*
X148507500Y-79446000D02*
X151192500Y-79446000D01*
%TO.C,D14*%
X193310000Y-112212000D02*
X195995000Y-112212000D01*
X195995000Y-112212000D02*
X195995000Y-110292000D01*
X195995000Y-110292000D02*
X193310000Y-110292000D01*
%TO.C,D13*%
X193310000Y-108148000D02*
X195995000Y-108148000D01*
X195995000Y-108148000D02*
X195995000Y-106228000D01*
X195995000Y-106228000D02*
X193310000Y-106228000D01*
%TO.C,D12*%
X193310000Y-110180000D02*
X195995000Y-110180000D01*
X195995000Y-110180000D02*
X195995000Y-108260000D01*
X195995000Y-108260000D02*
X193310000Y-108260000D01*
%TO.C,R30*%
X193775000Y-123875436D02*
X193775000Y-124329564D01*
X192305000Y-123875436D02*
X192305000Y-124329564D01*
%TO.C,C39*%
X178742748Y-65559000D02*
X179265252Y-65559000D01*
X178742748Y-67029000D02*
X179265252Y-67029000D01*
%TO.C,C38*%
X145569000Y-65859252D02*
X145569000Y-65336748D01*
X147039000Y-65859252D02*
X147039000Y-65336748D01*
%TO.C,C35*%
X139626748Y-144045000D02*
X140149252Y-144045000D01*
X139626748Y-145515000D02*
X140149252Y-145515000D01*
%TO.C,C34*%
X121439000Y-115897252D02*
X121439000Y-115374748D01*
X122909000Y-115897252D02*
X122909000Y-115374748D01*
%TO.C,C33*%
X153474748Y-89381000D02*
X153997252Y-89381000D01*
X153474748Y-87911000D02*
X153997252Y-87911000D01*
%TO.C,U8*%
X155810000Y-92420000D02*
X155810000Y-98430000D01*
X148990000Y-94670000D02*
X148990000Y-98430000D01*
X155810000Y-98430000D02*
X154550000Y-98430000D01*
X148990000Y-98430000D02*
X150250000Y-98430000D01*
%TO.C,C32*%
X159485000Y-99763252D02*
X159485000Y-99240748D01*
X158015000Y-99763252D02*
X158015000Y-99240748D01*
%TO.C,C31*%
X153474748Y-91413000D02*
X153997252Y-91413000D01*
X153474748Y-89943000D02*
X153997252Y-89943000D01*
%TO.C,C30*%
X158215000Y-148531252D02*
X158215000Y-148008748D01*
X156745000Y-148531252D02*
X156745000Y-148008748D01*
%TO.C,C29*%
X173455000Y-148531252D02*
X173455000Y-148008748D01*
X171985000Y-148531252D02*
X171985000Y-148008748D01*
%TO.C,C28*%
X141536748Y-148055000D02*
X142059252Y-148055000D01*
X141536748Y-146585000D02*
X142059252Y-146585000D01*
%TO.C,U7*%
X157734000Y-79756000D02*
X179324000Y-79756000D01*
X157734000Y-90424000D02*
X157734000Y-79756000D01*
X157734000Y-96012000D02*
X157734000Y-90424000D01*
X179324000Y-96012000D02*
X157734000Y-96012000D01*
X179324000Y-79756000D02*
X179324000Y-96012000D01*
%TO.C,SW2*%
X199750000Y-88130000D02*
X199750000Y-87280000D01*
X199750000Y-85280000D02*
X199750000Y-84750000D01*
X199750000Y-82810000D02*
X199750000Y-82250000D01*
X199750000Y-80310000D02*
X199750000Y-79430000D01*
X199750000Y-79430000D02*
X203450000Y-79430000D01*
X203450000Y-79430000D02*
X203450000Y-80300000D01*
X203450000Y-82260000D02*
X203450000Y-82810000D01*
X203450000Y-84750000D02*
X203450000Y-85310000D01*
X203450000Y-87250000D02*
X203450000Y-88130000D01*
X203450000Y-88130000D02*
X199750000Y-88130000D01*
X200450000Y-88430000D02*
X199450000Y-88430000D01*
X199450000Y-88430000D02*
X199450000Y-87430000D01*
%TO.C,J13*%
X197290000Y-72050000D02*
X184440000Y-72050000D01*
X181590000Y-74600000D02*
X181590000Y-77750000D01*
X184440000Y-80350000D02*
X197290000Y-80350000D01*
X197290000Y-80350000D02*
X197290000Y-72050000D01*
X184440000Y-72050000D02*
X181590000Y-74600000D01*
X181590000Y-77750000D02*
X184440000Y-80350000D01*
%TO.C,F2*%
X193705936Y-82460000D02*
X196510064Y-82460000D01*
X193705936Y-85180000D02*
X196510064Y-85180000D01*
%TO.C,D5*%
X190912500Y-81685000D02*
X185027500Y-81685000D01*
X185027500Y-81685000D02*
X185027500Y-85955000D01*
X185027500Y-85955000D02*
X190912500Y-85955000D01*
%TO.C,C27*%
X190050000Y-96210000D02*
X192800000Y-96210000D01*
X198570000Y-96210000D02*
X195820000Y-96210000D01*
X198570000Y-88754437D02*
X198570000Y-96210000D01*
X190050000Y-88754437D02*
X190050000Y-96210000D01*
X191114437Y-87690000D02*
X192800000Y-87690000D01*
X197505563Y-87690000D02*
X195820000Y-87690000D01*
X197505563Y-87690000D02*
X198570000Y-88754437D01*
X191114437Y-87690000D02*
X190050000Y-88754437D01*
X196820000Y-86450000D02*
X196820000Y-87450000D01*
X197320000Y-86950000D02*
X196320000Y-86950000D01*
%TO.C,C26*%
X181160000Y-96210000D02*
X183910000Y-96210000D01*
X189680000Y-96210000D02*
X186930000Y-96210000D01*
X189680000Y-88754437D02*
X189680000Y-96210000D01*
X181160000Y-88754437D02*
X181160000Y-96210000D01*
X182224437Y-87690000D02*
X183910000Y-87690000D01*
X188615563Y-87690000D02*
X186930000Y-87690000D01*
X188615563Y-87690000D02*
X189680000Y-88754437D01*
X182224437Y-87690000D02*
X181160000Y-88754437D01*
X187930000Y-86450000D02*
X187930000Y-87450000D01*
X188430000Y-86950000D02*
X187430000Y-86950000D01*
%TO.C,Y1*%
X158310000Y-115896000D02*
X163010000Y-115896000D01*
X158310000Y-112196000D02*
X163010000Y-112196000D01*
X163010000Y-115896000D02*
G75*
G03*
X163010000Y-112196000I0J1850000D01*
G01*
X158310000Y-115896000D02*
G75*
G02*
X158310000Y-112196000I0J1850000D01*
G01*
%TO.C,R29*%
X173763000Y-119914936D02*
X173763000Y-120369064D01*
X175233000Y-119914936D02*
X175233000Y-120369064D01*
%TO.C,J12*%
X148120000Y-82660000D02*
X148120000Y-82060000D01*
X146520000Y-82660000D02*
X148120000Y-82660000D01*
X146520000Y-82060000D02*
X146520000Y-82660000D01*
X145580000Y-82660000D02*
X145580000Y-82060000D01*
X143980000Y-82660000D02*
X145580000Y-82660000D01*
X143980000Y-82060000D02*
X143980000Y-82660000D01*
X143040000Y-82660000D02*
X143040000Y-82060000D01*
X141440000Y-82660000D02*
X143040000Y-82660000D01*
X141440000Y-82060000D02*
X141440000Y-82660000D01*
X140500000Y-82660000D02*
X140500000Y-82060000D01*
X138900000Y-82660000D02*
X140500000Y-82660000D01*
X138900000Y-82060000D02*
X138900000Y-82660000D01*
X147070000Y-88080000D02*
X147070000Y-87080000D01*
X139950000Y-88080000D02*
X139950000Y-87080000D01*
X147070000Y-86550000D02*
X147320000Y-87080000D01*
X139950000Y-86550000D02*
X147070000Y-86550000D01*
X139700000Y-87080000D02*
X139950000Y-86550000D01*
X147320000Y-87080000D02*
X147320000Y-88080000D01*
X139700000Y-87080000D02*
X147320000Y-87080000D01*
X139700000Y-88080000D02*
X139700000Y-87080000D01*
X138030000Y-83090000D02*
X138030000Y-87090000D01*
X148700000Y-82060000D02*
X138320000Y-82060000D01*
X148700000Y-88080000D02*
X148700000Y-82060000D01*
X138320000Y-88080000D02*
X148700000Y-88080000D01*
X138320000Y-82060000D02*
X138320000Y-88080000D01*
%TO.C,J11*%
X148120000Y-101710000D02*
X148120000Y-101110000D01*
X146520000Y-101710000D02*
X148120000Y-101710000D01*
X146520000Y-101110000D02*
X146520000Y-101710000D01*
X145580000Y-101710000D02*
X145580000Y-101110000D01*
X143980000Y-101710000D02*
X145580000Y-101710000D01*
X143980000Y-101110000D02*
X143980000Y-101710000D01*
X143040000Y-101710000D02*
X143040000Y-101110000D01*
X141440000Y-101710000D02*
X143040000Y-101710000D01*
X141440000Y-101110000D02*
X141440000Y-101710000D01*
X140500000Y-101710000D02*
X140500000Y-101110000D01*
X138900000Y-101710000D02*
X140500000Y-101710000D01*
X138900000Y-101110000D02*
X138900000Y-101710000D01*
X147070000Y-107130000D02*
X147070000Y-106130000D01*
X139950000Y-107130000D02*
X139950000Y-106130000D01*
X147070000Y-105600000D02*
X147320000Y-106130000D01*
X139950000Y-105600000D02*
X147070000Y-105600000D01*
X139700000Y-106130000D02*
X139950000Y-105600000D01*
X147320000Y-106130000D02*
X147320000Y-107130000D01*
X139700000Y-106130000D02*
X147320000Y-106130000D01*
X139700000Y-107130000D02*
X139700000Y-106130000D01*
X138030000Y-102140000D02*
X138030000Y-106140000D01*
X148700000Y-101110000D02*
X138320000Y-101110000D01*
X148700000Y-107130000D02*
X148700000Y-101110000D01*
X138320000Y-107130000D02*
X148700000Y-107130000D01*
X138320000Y-101110000D02*
X138320000Y-107130000D01*
%TO.C,J10*%
X148120000Y-95360000D02*
X148120000Y-94760000D01*
X146520000Y-95360000D02*
X148120000Y-95360000D01*
X146520000Y-94760000D02*
X146520000Y-95360000D01*
X145580000Y-95360000D02*
X145580000Y-94760000D01*
X143980000Y-95360000D02*
X145580000Y-95360000D01*
X143980000Y-94760000D02*
X143980000Y-95360000D01*
X143040000Y-95360000D02*
X143040000Y-94760000D01*
X141440000Y-95360000D02*
X143040000Y-95360000D01*
X141440000Y-94760000D02*
X141440000Y-95360000D01*
X140500000Y-95360000D02*
X140500000Y-94760000D01*
X138900000Y-95360000D02*
X140500000Y-95360000D01*
X138900000Y-94760000D02*
X138900000Y-95360000D01*
X147070000Y-100780000D02*
X147070000Y-99780000D01*
X139950000Y-100780000D02*
X139950000Y-99780000D01*
X147070000Y-99250000D02*
X147320000Y-99780000D01*
X139950000Y-99250000D02*
X147070000Y-99250000D01*
X139700000Y-99780000D02*
X139950000Y-99250000D01*
X147320000Y-99780000D02*
X147320000Y-100780000D01*
X139700000Y-99780000D02*
X147320000Y-99780000D01*
X139700000Y-100780000D02*
X139700000Y-99780000D01*
X138030000Y-95790000D02*
X138030000Y-99790000D01*
X148700000Y-94760000D02*
X138320000Y-94760000D01*
X148700000Y-100780000D02*
X148700000Y-94760000D01*
X138320000Y-100780000D02*
X148700000Y-100780000D01*
X138320000Y-94760000D02*
X138320000Y-100780000D01*
%TO.C,J9*%
X148120000Y-89010000D02*
X148120000Y-88410000D01*
X146520000Y-89010000D02*
X148120000Y-89010000D01*
X146520000Y-88410000D02*
X146520000Y-89010000D01*
X145580000Y-89010000D02*
X145580000Y-88410000D01*
X143980000Y-89010000D02*
X145580000Y-89010000D01*
X143980000Y-88410000D02*
X143980000Y-89010000D01*
X143040000Y-89010000D02*
X143040000Y-88410000D01*
X141440000Y-89010000D02*
X143040000Y-89010000D01*
X141440000Y-88410000D02*
X141440000Y-89010000D01*
X140500000Y-89010000D02*
X140500000Y-88410000D01*
X138900000Y-89010000D02*
X140500000Y-89010000D01*
X138900000Y-88410000D02*
X138900000Y-89010000D01*
X147070000Y-94430000D02*
X147070000Y-93430000D01*
X139950000Y-94430000D02*
X139950000Y-93430000D01*
X147070000Y-92900000D02*
X147320000Y-93430000D01*
X139950000Y-92900000D02*
X147070000Y-92900000D01*
X139700000Y-93430000D02*
X139950000Y-92900000D01*
X147320000Y-93430000D02*
X147320000Y-94430000D01*
X139700000Y-93430000D02*
X147320000Y-93430000D01*
X139700000Y-94430000D02*
X139700000Y-93430000D01*
X138030000Y-89440000D02*
X138030000Y-93440000D01*
X148700000Y-88410000D02*
X138320000Y-88410000D01*
X148700000Y-94430000D02*
X148700000Y-88410000D01*
X138320000Y-94430000D02*
X148700000Y-94430000D01*
X138320000Y-88410000D02*
X138320000Y-94430000D01*
%TO.C,J2*%
X129904000Y-103340000D02*
X129304000Y-103340000D01*
X129904000Y-104940000D02*
X129904000Y-103340000D01*
X129304000Y-104940000D02*
X129904000Y-104940000D01*
X129904000Y-105880000D02*
X129304000Y-105880000D01*
X129904000Y-107480000D02*
X129904000Y-105880000D01*
X129304000Y-107480000D02*
X129904000Y-107480000D01*
X129904000Y-108420000D02*
X129304000Y-108420000D01*
X129904000Y-110020000D02*
X129904000Y-108420000D01*
X129304000Y-110020000D02*
X129904000Y-110020000D01*
X129904000Y-110960000D02*
X129304000Y-110960000D01*
X129904000Y-112560000D02*
X129904000Y-110960000D01*
X129304000Y-112560000D02*
X129904000Y-112560000D01*
X135324000Y-104390000D02*
X134324000Y-104390000D01*
X135324000Y-111510000D02*
X134324000Y-111510000D01*
X133794000Y-104390000D02*
X134324000Y-104140000D01*
X133794000Y-111510000D02*
X133794000Y-104390000D01*
X134324000Y-111760000D02*
X133794000Y-111510000D01*
X134324000Y-104140000D02*
X135324000Y-104140000D01*
X134324000Y-111760000D02*
X134324000Y-104140000D01*
X135324000Y-111760000D02*
X134324000Y-111760000D01*
X130334000Y-113430000D02*
X134334000Y-113430000D01*
X129304000Y-102760000D02*
X129304000Y-113140000D01*
X135324000Y-102760000D02*
X129304000Y-102760000D01*
X135324000Y-113140000D02*
X135324000Y-102760000D01*
X129304000Y-113140000D02*
X135324000Y-113140000D01*
%TO.C,F1*%
X195928064Y-102960000D02*
X194723936Y-102960000D01*
X195928064Y-100240000D02*
X194723936Y-100240000D01*
%TO.C,D1*%
X201752000Y-100015000D02*
X197867000Y-100015000D01*
X197867000Y-100015000D02*
X197867000Y-103185000D01*
X197867000Y-103185000D02*
X201752000Y-103185000D01*
%TO.C,J1*%
X208770000Y-100220000D02*
X202750000Y-100220000D01*
X202750000Y-100220000D02*
X202750000Y-110600000D01*
X202750000Y-110600000D02*
X208770000Y-110600000D01*
X208770000Y-110600000D02*
X208770000Y-100220000D01*
X207740000Y-99930000D02*
X203740000Y-99930000D01*
X202750000Y-101600000D02*
X203750000Y-101600000D01*
X203750000Y-101600000D02*
X203750000Y-109220000D01*
X203750000Y-109220000D02*
X202750000Y-109220000D01*
X203750000Y-101600000D02*
X204280000Y-101850000D01*
X204280000Y-101850000D02*
X204280000Y-108970000D01*
X204280000Y-108970000D02*
X203750000Y-109220000D01*
X202750000Y-101850000D02*
X203750000Y-101850000D01*
X202750000Y-108970000D02*
X203750000Y-108970000D01*
X208770000Y-100800000D02*
X208170000Y-100800000D01*
X208170000Y-100800000D02*
X208170000Y-102400000D01*
X208170000Y-102400000D02*
X208770000Y-102400000D01*
X208770000Y-103340000D02*
X208170000Y-103340000D01*
X208170000Y-103340000D02*
X208170000Y-104940000D01*
X208170000Y-104940000D02*
X208770000Y-104940000D01*
X208770000Y-105880000D02*
X208170000Y-105880000D01*
X208170000Y-105880000D02*
X208170000Y-107480000D01*
X208170000Y-107480000D02*
X208770000Y-107480000D01*
X208770000Y-108420000D02*
X208170000Y-108420000D01*
X208170000Y-108420000D02*
X208170000Y-110020000D01*
X208170000Y-110020000D02*
X208770000Y-110020000D01*
%TO.C,SW1*%
X120936000Y-104890000D02*
X120936000Y-111010000D01*
X120936000Y-111010000D02*
X117316000Y-111010000D01*
X117316000Y-111010000D02*
X117316000Y-104890000D01*
X117316000Y-104890000D02*
X120936000Y-104890000D01*
%TO.C,U3*%
X157480000Y-111780000D02*
X159430000Y-111780000D01*
X157480000Y-111780000D02*
X155530000Y-111780000D01*
X157480000Y-106660000D02*
X159430000Y-106660000D01*
X157480000Y-106660000D02*
X154030000Y-106660000D01*
%TO.C,R3*%
X155983000Y-103351064D02*
X155983000Y-102896936D01*
X157453000Y-103351064D02*
X157453000Y-102896936D01*
%TO.C,R1*%
X158015000Y-103351064D02*
X158015000Y-102896936D01*
X159485000Y-103351064D02*
X159485000Y-102896936D01*
%TO.C,C7*%
X167413000Y-103385252D02*
X167413000Y-102862748D01*
X168883000Y-103385252D02*
X168883000Y-102862748D01*
%TO.C,C6*%
X161317000Y-103385252D02*
X161317000Y-102862748D01*
X162787000Y-103385252D02*
X162787000Y-102862748D01*
%TO.C,C23*%
X187698748Y-138203000D02*
X188221252Y-138203000D01*
X187698748Y-139673000D02*
X188221252Y-139673000D01*
%TO.C,C24*%
X187933000Y-141470748D02*
X187933000Y-141993252D01*
X186463000Y-141470748D02*
X186463000Y-141993252D01*
%TO.C,U1*%
X168260000Y-118310000D02*
X168260000Y-117020000D01*
X168710000Y-118310000D02*
X168260000Y-118310000D01*
X168710000Y-118760000D02*
X168710000Y-118310000D01*
X168710000Y-125530000D02*
X168260000Y-125530000D01*
X168710000Y-125080000D02*
X168710000Y-125530000D01*
X161490000Y-118310000D02*
X161940000Y-118310000D01*
X161490000Y-118760000D02*
X161490000Y-118310000D01*
X161490000Y-125530000D02*
X161940000Y-125530000D01*
X161490000Y-125080000D02*
X161490000Y-125530000D01*
D13*
%TO.C,U6*%
X179106000Y-142679000D02*
X183606000Y-142679000D01*
X177981000Y-137129000D02*
X183606000Y-137129000D01*
%TO.C,U5*%
X148626000Y-142679000D02*
X153126000Y-142679000D01*
X147501000Y-137129000D02*
X153126000Y-137129000D01*
%TO.C,U4*%
X163866000Y-142679000D02*
X168366000Y-142679000D01*
X162741000Y-137129000D02*
X168366000Y-137129000D01*
D12*
%TO.C,R27*%
X178334936Y-153189000D02*
X178789064Y-153189000D01*
X178334936Y-154659000D02*
X178789064Y-154659000D01*
%TO.C,R26*%
X123320436Y-97055000D02*
X123774564Y-97055000D01*
X123320436Y-98525000D02*
X123774564Y-98525000D01*
%TO.C,R25*%
X174525000Y-150849064D02*
X174525000Y-150394936D01*
X175995000Y-150849064D02*
X175995000Y-150394936D01*
%TO.C,R24*%
X178535000Y-150394936D02*
X178535000Y-150849064D01*
X177065000Y-150394936D02*
X177065000Y-150849064D01*
%TO.C,R23*%
X186409000Y-134900936D02*
X186409000Y-135355064D01*
X184939000Y-134900936D02*
X184939000Y-135355064D01*
%TO.C,R22*%
X154712936Y-126265000D02*
X155167064Y-126265000D01*
X154712936Y-127735000D02*
X155167064Y-127735000D01*
%TO.C,R21*%
X181583064Y-144499000D02*
X181128936Y-144499000D01*
X181583064Y-143029000D02*
X181128936Y-143029000D01*
%TO.C,R20*%
X183615000Y-150291436D02*
X183615000Y-150745564D01*
X182145000Y-150291436D02*
X182145000Y-150745564D01*
%TO.C,R19*%
X153697000Y-154151064D02*
X153697000Y-153696936D01*
X155167000Y-154151064D02*
X155167000Y-153696936D01*
%TO.C,R18*%
X123320436Y-103405000D02*
X123774564Y-103405000D01*
X123320436Y-104875000D02*
X123774564Y-104875000D01*
%TO.C,R17*%
X144045000Y-150849064D02*
X144045000Y-150394936D01*
X145515000Y-150849064D02*
X145515000Y-150394936D01*
%TO.C,R16*%
X148055000Y-150394936D02*
X148055000Y-150849064D01*
X146585000Y-150394936D02*
X146585000Y-150849064D01*
%TO.C,R15*%
X157453000Y-135916936D02*
X157453000Y-136371064D01*
X155983000Y-135916936D02*
X155983000Y-136371064D01*
%TO.C,R14*%
X151538000Y-126084064D02*
X151538000Y-125629936D01*
X153008000Y-126084064D02*
X153008000Y-125629936D01*
%TO.C,R13*%
X151103064Y-144499000D02*
X150648936Y-144499000D01*
X151103064Y-143029000D02*
X150648936Y-143029000D01*
%TO.C,R12*%
X153135000Y-150291436D02*
X153135000Y-150745564D01*
X151665000Y-150291436D02*
X151665000Y-150745564D01*
%TO.C,R11*%
X168937000Y-154301564D02*
X168937000Y-153847436D01*
X170407000Y-154301564D02*
X170407000Y-153847436D01*
%TO.C,R10*%
X123320436Y-109755000D02*
X123774564Y-109755000D01*
X123320436Y-111225000D02*
X123774564Y-111225000D01*
%TO.C,R9*%
X159285000Y-150849064D02*
X159285000Y-150394936D01*
X160755000Y-150849064D02*
X160755000Y-150394936D01*
%TO.C,R8*%
X163295000Y-150394936D02*
X163295000Y-150849064D01*
X161825000Y-150394936D02*
X161825000Y-150849064D01*
%TO.C,R7*%
X172693000Y-135916936D02*
X172693000Y-136371064D01*
X171223000Y-135916936D02*
X171223000Y-136371064D01*
%TO.C,R6*%
X154712936Y-124360000D02*
X155167064Y-124360000D01*
X154712936Y-125830000D02*
X155167064Y-125830000D01*
%TO.C,R5*%
X166343064Y-144499000D02*
X165888936Y-144499000D01*
X166343064Y-143029000D02*
X165888936Y-143029000D01*
%TO.C,R4*%
X168375000Y-150291436D02*
X168375000Y-150745564D01*
X166905000Y-150291436D02*
X166905000Y-150745564D01*
%TO.C,R2*%
X164819000Y-102896936D02*
X164819000Y-103351064D01*
X163349000Y-102896936D02*
X163349000Y-103351064D01*
%TO.C,Q4*%
X180840000Y-149892000D02*
X181500000Y-149892000D01*
X179180000Y-149892000D02*
X179840000Y-149892000D01*
X179180000Y-149892000D02*
X179180000Y-151922000D01*
X181500000Y-151302000D02*
X181500000Y-149892000D01*
%TO.C,Q3*%
X150360000Y-149892000D02*
X151020000Y-149892000D01*
X148700000Y-149892000D02*
X149360000Y-149892000D01*
X148700000Y-149892000D02*
X148700000Y-151922000D01*
X151020000Y-151302000D02*
X151020000Y-149892000D01*
%TO.C,Q2*%
X165600000Y-149892000D02*
X166260000Y-149892000D01*
X163940000Y-149892000D02*
X164600000Y-149892000D01*
X163940000Y-149892000D02*
X163940000Y-151922000D01*
X166260000Y-151302000D02*
X166260000Y-149892000D01*
%TO.C,D4*%
X183952000Y-149543500D02*
X183952000Y-152228500D01*
X183952000Y-152228500D02*
X185872000Y-152228500D01*
X185872000Y-152228500D02*
X185872000Y-149543500D01*
%TO.C,D3*%
X153472000Y-149543500D02*
X153472000Y-152228500D01*
X153472000Y-152228500D02*
X155392000Y-152228500D01*
X155392000Y-152228500D02*
X155392000Y-149543500D01*
%TO.C,D2*%
X168712000Y-149543500D02*
X168712000Y-152228500D01*
X168712000Y-152228500D02*
X170632000Y-152228500D01*
X170632000Y-152228500D02*
X170632000Y-149543500D01*
%TO.C,C19*%
X157453000Y-141470748D02*
X157453000Y-141993252D01*
X155983000Y-141470748D02*
X155983000Y-141993252D01*
%TO.C,C18*%
X157218748Y-138203000D02*
X157741252Y-138203000D01*
X157218748Y-139673000D02*
X157741252Y-139673000D01*
%TO.C,C14*%
X172693000Y-141470748D02*
X172693000Y-141993252D01*
X171223000Y-141470748D02*
X171223000Y-141993252D01*
%TO.C,C13*%
X172458748Y-138203000D02*
X172981252Y-138203000D01*
X172458748Y-139673000D02*
X172981252Y-139673000D01*
%TO.C,C10*%
X166597000Y-112514748D02*
X166597000Y-113037252D01*
X165127000Y-112514748D02*
X165127000Y-113037252D01*
%TO.C,C9*%
X165381000Y-103385252D02*
X165381000Y-102862748D01*
X166851000Y-103385252D02*
X166851000Y-102862748D01*
%TO.C,R38*%
D13*
X174822380Y-98432857D02*
X174346190Y-98766190D01*
X174822380Y-99004285D02*
X173822380Y-99004285D01*
X173822380Y-98623333D01*
X173870000Y-98528095D01*
X173917619Y-98480476D01*
X174012857Y-98432857D01*
X174155714Y-98432857D01*
X174250952Y-98480476D01*
X174298571Y-98528095D01*
X174346190Y-98623333D01*
X174346190Y-99004285D01*
X173822380Y-98099523D02*
X173822380Y-97480476D01*
X174203333Y-97813809D01*
X174203333Y-97670952D01*
X174250952Y-97575714D01*
X174298571Y-97528095D01*
X174393809Y-97480476D01*
X174631904Y-97480476D01*
X174727142Y-97528095D01*
X174774761Y-97575714D01*
X174822380Y-97670952D01*
X174822380Y-97956666D01*
X174774761Y-98051904D01*
X174727142Y-98099523D01*
X174250952Y-96909047D02*
X174203333Y-97004285D01*
X174155714Y-97051904D01*
X174060476Y-97099523D01*
X174012857Y-97099523D01*
X173917619Y-97051904D01*
X173870000Y-97004285D01*
X173822380Y-96909047D01*
X173822380Y-96718571D01*
X173870000Y-96623333D01*
X173917619Y-96575714D01*
X174012857Y-96528095D01*
X174060476Y-96528095D01*
X174155714Y-96575714D01*
X174203333Y-96623333D01*
X174250952Y-96718571D01*
X174250952Y-96909047D01*
X174298571Y-97004285D01*
X174346190Y-97051904D01*
X174441428Y-97099523D01*
X174631904Y-97099523D01*
X174727142Y-97051904D01*
X174774761Y-97004285D01*
X174822380Y-96909047D01*
X174822380Y-96718571D01*
X174774761Y-96623333D01*
X174727142Y-96575714D01*
X174631904Y-96528095D01*
X174441428Y-96528095D01*
X174346190Y-96575714D01*
X174298571Y-96623333D01*
X174250952Y-96718571D01*
%TO.C,R37*%
X169490380Y-98432857D02*
X169014190Y-98766190D01*
X169490380Y-99004285D02*
X168490380Y-99004285D01*
X168490380Y-98623333D01*
X168538000Y-98528095D01*
X168585619Y-98480476D01*
X168680857Y-98432857D01*
X168823714Y-98432857D01*
X168918952Y-98480476D01*
X168966571Y-98528095D01*
X169014190Y-98623333D01*
X169014190Y-99004285D01*
X168490380Y-98099523D02*
X168490380Y-97480476D01*
X168871333Y-97813809D01*
X168871333Y-97670952D01*
X168918952Y-97575714D01*
X168966571Y-97528095D01*
X169061809Y-97480476D01*
X169299904Y-97480476D01*
X169395142Y-97528095D01*
X169442761Y-97575714D01*
X169490380Y-97670952D01*
X169490380Y-97956666D01*
X169442761Y-98051904D01*
X169395142Y-98099523D01*
X168490380Y-97147142D02*
X168490380Y-96480476D01*
X169490380Y-96909047D01*
%TO.C,R36*%
X200271142Y-105608380D02*
X199937809Y-105132190D01*
X199699714Y-105608380D02*
X199699714Y-104608380D01*
X200080666Y-104608380D01*
X200175904Y-104656000D01*
X200223523Y-104703619D01*
X200271142Y-104798857D01*
X200271142Y-104941714D01*
X200223523Y-105036952D01*
X200175904Y-105084571D01*
X200080666Y-105132190D01*
X199699714Y-105132190D01*
X200604476Y-104608380D02*
X201223523Y-104608380D01*
X200890190Y-104989333D01*
X201033047Y-104989333D01*
X201128285Y-105036952D01*
X201175904Y-105084571D01*
X201223523Y-105179809D01*
X201223523Y-105417904D01*
X201175904Y-105513142D01*
X201128285Y-105560761D01*
X201033047Y-105608380D01*
X200747333Y-105608380D01*
X200652095Y-105560761D01*
X200604476Y-105513142D01*
X202080666Y-104608380D02*
X201890190Y-104608380D01*
X201794952Y-104656000D01*
X201747333Y-104703619D01*
X201652095Y-104846476D01*
X201604476Y-105036952D01*
X201604476Y-105417904D01*
X201652095Y-105513142D01*
X201699714Y-105560761D01*
X201794952Y-105608380D01*
X201985428Y-105608380D01*
X202080666Y-105560761D01*
X202128285Y-105513142D01*
X202175904Y-105417904D01*
X202175904Y-105179809D01*
X202128285Y-105084571D01*
X202080666Y-105036952D01*
X201985428Y-104989333D01*
X201794952Y-104989333D01*
X201699714Y-105036952D01*
X201652095Y-105084571D01*
X201604476Y-105179809D01*
%TO.C,R35*%
X142613142Y-76652380D02*
X142279809Y-76176190D01*
X142041714Y-76652380D02*
X142041714Y-75652380D01*
X142422666Y-75652380D01*
X142517904Y-75700000D01*
X142565523Y-75747619D01*
X142613142Y-75842857D01*
X142613142Y-75985714D01*
X142565523Y-76080952D01*
X142517904Y-76128571D01*
X142422666Y-76176190D01*
X142041714Y-76176190D01*
X142946476Y-75652380D02*
X143565523Y-75652380D01*
X143232190Y-76033333D01*
X143375047Y-76033333D01*
X143470285Y-76080952D01*
X143517904Y-76128571D01*
X143565523Y-76223809D01*
X143565523Y-76461904D01*
X143517904Y-76557142D01*
X143470285Y-76604761D01*
X143375047Y-76652380D01*
X143089333Y-76652380D01*
X142994095Y-76604761D01*
X142946476Y-76557142D01*
X144470285Y-75652380D02*
X143994095Y-75652380D01*
X143946476Y-76128571D01*
X143994095Y-76080952D01*
X144089333Y-76033333D01*
X144327428Y-76033333D01*
X144422666Y-76080952D01*
X144470285Y-76128571D01*
X144517904Y-76223809D01*
X144517904Y-76461904D01*
X144470285Y-76557142D01*
X144422666Y-76604761D01*
X144327428Y-76652380D01*
X144089333Y-76652380D01*
X143994095Y-76604761D01*
X143946476Y-76557142D01*
%TO.C,R34*%
X142613142Y-78938380D02*
X142279809Y-78462190D01*
X142041714Y-78938380D02*
X142041714Y-77938380D01*
X142422666Y-77938380D01*
X142517904Y-77986000D01*
X142565523Y-78033619D01*
X142613142Y-78128857D01*
X142613142Y-78271714D01*
X142565523Y-78366952D01*
X142517904Y-78414571D01*
X142422666Y-78462190D01*
X142041714Y-78462190D01*
X142946476Y-77938380D02*
X143565523Y-77938380D01*
X143232190Y-78319333D01*
X143375047Y-78319333D01*
X143470285Y-78366952D01*
X143517904Y-78414571D01*
X143565523Y-78509809D01*
X143565523Y-78747904D01*
X143517904Y-78843142D01*
X143470285Y-78890761D01*
X143375047Y-78938380D01*
X143089333Y-78938380D01*
X142994095Y-78890761D01*
X142946476Y-78843142D01*
X144422666Y-78271714D02*
X144422666Y-78938380D01*
X144184571Y-77890761D02*
X143946476Y-78605047D01*
X144565523Y-78605047D01*
%TO.C,R33*%
X200271142Y-111704380D02*
X199937809Y-111228190D01*
X199699714Y-111704380D02*
X199699714Y-110704380D01*
X200080666Y-110704380D01*
X200175904Y-110752000D01*
X200223523Y-110799619D01*
X200271142Y-110894857D01*
X200271142Y-111037714D01*
X200223523Y-111132952D01*
X200175904Y-111180571D01*
X200080666Y-111228190D01*
X199699714Y-111228190D01*
X200604476Y-110704380D02*
X201223523Y-110704380D01*
X200890190Y-111085333D01*
X201033047Y-111085333D01*
X201128285Y-111132952D01*
X201175904Y-111180571D01*
X201223523Y-111275809D01*
X201223523Y-111513904D01*
X201175904Y-111609142D01*
X201128285Y-111656761D01*
X201033047Y-111704380D01*
X200747333Y-111704380D01*
X200652095Y-111656761D01*
X200604476Y-111609142D01*
X201556857Y-110704380D02*
X202175904Y-110704380D01*
X201842571Y-111085333D01*
X201985428Y-111085333D01*
X202080666Y-111132952D01*
X202128285Y-111180571D01*
X202175904Y-111275809D01*
X202175904Y-111513904D01*
X202128285Y-111609142D01*
X202080666Y-111656761D01*
X201985428Y-111704380D01*
X201699714Y-111704380D01*
X201604476Y-111656761D01*
X201556857Y-111609142D01*
%TO.C,R32*%
X200374642Y-107640380D02*
X200041309Y-107164190D01*
X199803214Y-107640380D02*
X199803214Y-106640380D01*
X200184166Y-106640380D01*
X200279404Y-106688000D01*
X200327023Y-106735619D01*
X200374642Y-106830857D01*
X200374642Y-106973714D01*
X200327023Y-107068952D01*
X200279404Y-107116571D01*
X200184166Y-107164190D01*
X199803214Y-107164190D01*
X200707976Y-106640380D02*
X201327023Y-106640380D01*
X200993690Y-107021333D01*
X201136547Y-107021333D01*
X201231785Y-107068952D01*
X201279404Y-107116571D01*
X201327023Y-107211809D01*
X201327023Y-107449904D01*
X201279404Y-107545142D01*
X201231785Y-107592761D01*
X201136547Y-107640380D01*
X200850833Y-107640380D01*
X200755595Y-107592761D01*
X200707976Y-107545142D01*
X201707976Y-106735619D02*
X201755595Y-106688000D01*
X201850833Y-106640380D01*
X202088928Y-106640380D01*
X202184166Y-106688000D01*
X202231785Y-106735619D01*
X202279404Y-106830857D01*
X202279404Y-106926095D01*
X202231785Y-107068952D01*
X201660357Y-107640380D01*
X202279404Y-107640380D01*
%TO.C,R31*%
X200271142Y-109672380D02*
X199937809Y-109196190D01*
X199699714Y-109672380D02*
X199699714Y-108672380D01*
X200080666Y-108672380D01*
X200175904Y-108720000D01*
X200223523Y-108767619D01*
X200271142Y-108862857D01*
X200271142Y-109005714D01*
X200223523Y-109100952D01*
X200175904Y-109148571D01*
X200080666Y-109196190D01*
X199699714Y-109196190D01*
X200604476Y-108672380D02*
X201223523Y-108672380D01*
X200890190Y-109053333D01*
X201033047Y-109053333D01*
X201128285Y-109100952D01*
X201175904Y-109148571D01*
X201223523Y-109243809D01*
X201223523Y-109481904D01*
X201175904Y-109577142D01*
X201128285Y-109624761D01*
X201033047Y-109672380D01*
X200747333Y-109672380D01*
X200652095Y-109624761D01*
X200604476Y-109577142D01*
X202175904Y-109672380D02*
X201604476Y-109672380D01*
X201890190Y-109672380D02*
X201890190Y-108672380D01*
X201794952Y-108815238D01*
X201699714Y-108910476D01*
X201604476Y-108958095D01*
%TO.C,R30*%
X195142380Y-124745357D02*
X194666190Y-125078690D01*
X195142380Y-125316785D02*
X194142380Y-125316785D01*
X194142380Y-124935833D01*
X194190000Y-124840595D01*
X194237619Y-124792976D01*
X194332857Y-124745357D01*
X194475714Y-124745357D01*
X194570952Y-124792976D01*
X194618571Y-124840595D01*
X194666190Y-124935833D01*
X194666190Y-125316785D01*
X194142380Y-124412023D02*
X194142380Y-123792976D01*
X194523333Y-124126309D01*
X194523333Y-123983452D01*
X194570952Y-123888214D01*
X194618571Y-123840595D01*
X194713809Y-123792976D01*
X194951904Y-123792976D01*
X195047142Y-123840595D01*
X195094761Y-123888214D01*
X195142380Y-123983452D01*
X195142380Y-124269166D01*
X195094761Y-124364404D01*
X195047142Y-124412023D01*
X194142380Y-123173928D02*
X194142380Y-123078690D01*
X194190000Y-122983452D01*
X194237619Y-122935833D01*
X194332857Y-122888214D01*
X194523333Y-122840595D01*
X194761428Y-122840595D01*
X194951904Y-122888214D01*
X195047142Y-122935833D01*
X195094761Y-122983452D01*
X195142380Y-123078690D01*
X195142380Y-123173928D01*
X195094761Y-123269166D01*
X195047142Y-123316785D01*
X194951904Y-123364404D01*
X194761428Y-123412023D01*
X194523333Y-123412023D01*
X194332857Y-123364404D01*
X194237619Y-123316785D01*
X194190000Y-123269166D01*
X194142380Y-123173928D01*
%TO.C,C39*%
X178361142Y-64971142D02*
X178313523Y-65018761D01*
X178170666Y-65066380D01*
X178075428Y-65066380D01*
X177932571Y-65018761D01*
X177837333Y-64923523D01*
X177789714Y-64828285D01*
X177742095Y-64637809D01*
X177742095Y-64494952D01*
X177789714Y-64304476D01*
X177837333Y-64209238D01*
X177932571Y-64114000D01*
X178075428Y-64066380D01*
X178170666Y-64066380D01*
X178313523Y-64114000D01*
X178361142Y-64161619D01*
X178694476Y-64066380D02*
X179313523Y-64066380D01*
X178980190Y-64447333D01*
X179123047Y-64447333D01*
X179218285Y-64494952D01*
X179265904Y-64542571D01*
X179313523Y-64637809D01*
X179313523Y-64875904D01*
X179265904Y-64971142D01*
X179218285Y-65018761D01*
X179123047Y-65066380D01*
X178837333Y-65066380D01*
X178742095Y-65018761D01*
X178694476Y-64971142D01*
X179789714Y-65066380D02*
X179980190Y-65066380D01*
X180075428Y-65018761D01*
X180123047Y-64971142D01*
X180218285Y-64828285D01*
X180265904Y-64637809D01*
X180265904Y-64256857D01*
X180218285Y-64161619D01*
X180170666Y-64114000D01*
X180075428Y-64066380D01*
X179884952Y-64066380D01*
X179789714Y-64114000D01*
X179742095Y-64161619D01*
X179694476Y-64256857D01*
X179694476Y-64494952D01*
X179742095Y-64590190D01*
X179789714Y-64637809D01*
X179884952Y-64685428D01*
X180075428Y-64685428D01*
X180170666Y-64637809D01*
X180218285Y-64590190D01*
X180265904Y-64494952D01*
%TO.C,C38*%
X144981142Y-66240857D02*
X145028761Y-66288476D01*
X145076380Y-66431333D01*
X145076380Y-66526571D01*
X145028761Y-66669428D01*
X144933523Y-66764666D01*
X144838285Y-66812285D01*
X144647809Y-66859904D01*
X144504952Y-66859904D01*
X144314476Y-66812285D01*
X144219238Y-66764666D01*
X144124000Y-66669428D01*
X144076380Y-66526571D01*
X144076380Y-66431333D01*
X144124000Y-66288476D01*
X144171619Y-66240857D01*
X144076380Y-65907523D02*
X144076380Y-65288476D01*
X144457333Y-65621809D01*
X144457333Y-65478952D01*
X144504952Y-65383714D01*
X144552571Y-65336095D01*
X144647809Y-65288476D01*
X144885904Y-65288476D01*
X144981142Y-65336095D01*
X145028761Y-65383714D01*
X145076380Y-65478952D01*
X145076380Y-65764666D01*
X145028761Y-65859904D01*
X144981142Y-65907523D01*
X144504952Y-64717047D02*
X144457333Y-64812285D01*
X144409714Y-64859904D01*
X144314476Y-64907523D01*
X144266857Y-64907523D01*
X144171619Y-64859904D01*
X144124000Y-64812285D01*
X144076380Y-64717047D01*
X144076380Y-64526571D01*
X144124000Y-64431333D01*
X144171619Y-64383714D01*
X144266857Y-64336095D01*
X144314476Y-64336095D01*
X144409714Y-64383714D01*
X144457333Y-64431333D01*
X144504952Y-64526571D01*
X144504952Y-64717047D01*
X144552571Y-64812285D01*
X144600190Y-64859904D01*
X144695428Y-64907523D01*
X144885904Y-64907523D01*
X144981142Y-64859904D01*
X145028761Y-64812285D01*
X145076380Y-64717047D01*
X145076380Y-64526571D01*
X145028761Y-64431333D01*
X144981142Y-64383714D01*
X144885904Y-64336095D01*
X144695428Y-64336095D01*
X144600190Y-64383714D01*
X144552571Y-64431333D01*
X144504952Y-64526571D01*
%TO.C,C35*%
X136009142Y-145137142D02*
X135961523Y-145184761D01*
X135818666Y-145232380D01*
X135723428Y-145232380D01*
X135580571Y-145184761D01*
X135485333Y-145089523D01*
X135437714Y-144994285D01*
X135390095Y-144803809D01*
X135390095Y-144660952D01*
X135437714Y-144470476D01*
X135485333Y-144375238D01*
X135580571Y-144280000D01*
X135723428Y-144232380D01*
X135818666Y-144232380D01*
X135961523Y-144280000D01*
X136009142Y-144327619D01*
X136342476Y-144232380D02*
X136961523Y-144232380D01*
X136628190Y-144613333D01*
X136771047Y-144613333D01*
X136866285Y-144660952D01*
X136913904Y-144708571D01*
X136961523Y-144803809D01*
X136961523Y-145041904D01*
X136913904Y-145137142D01*
X136866285Y-145184761D01*
X136771047Y-145232380D01*
X136485333Y-145232380D01*
X136390095Y-145184761D01*
X136342476Y-145137142D01*
X137866285Y-144232380D02*
X137390095Y-144232380D01*
X137342476Y-144708571D01*
X137390095Y-144660952D01*
X137485333Y-144613333D01*
X137723428Y-144613333D01*
X137818666Y-144660952D01*
X137866285Y-144708571D01*
X137913904Y-144803809D01*
X137913904Y-145041904D01*
X137866285Y-145137142D01*
X137818666Y-145184761D01*
X137723428Y-145232380D01*
X137485333Y-145232380D01*
X137390095Y-145184761D01*
X137342476Y-145137142D01*
%TO.C,C34*%
X120851142Y-116278857D02*
X120898761Y-116326476D01*
X120946380Y-116469333D01*
X120946380Y-116564571D01*
X120898761Y-116707428D01*
X120803523Y-116802666D01*
X120708285Y-116850285D01*
X120517809Y-116897904D01*
X120374952Y-116897904D01*
X120184476Y-116850285D01*
X120089238Y-116802666D01*
X119994000Y-116707428D01*
X119946380Y-116564571D01*
X119946380Y-116469333D01*
X119994000Y-116326476D01*
X120041619Y-116278857D01*
X119946380Y-115945523D02*
X119946380Y-115326476D01*
X120327333Y-115659809D01*
X120327333Y-115516952D01*
X120374952Y-115421714D01*
X120422571Y-115374095D01*
X120517809Y-115326476D01*
X120755904Y-115326476D01*
X120851142Y-115374095D01*
X120898761Y-115421714D01*
X120946380Y-115516952D01*
X120946380Y-115802666D01*
X120898761Y-115897904D01*
X120851142Y-115945523D01*
X120279714Y-114469333D02*
X120946380Y-114469333D01*
X119898761Y-114707428D02*
X120613047Y-114945523D01*
X120613047Y-114326476D01*
%TO.C,C33*%
X149979142Y-89003142D02*
X149931523Y-89050761D01*
X149788666Y-89098380D01*
X149693428Y-89098380D01*
X149550571Y-89050761D01*
X149455333Y-88955523D01*
X149407714Y-88860285D01*
X149360095Y-88669809D01*
X149360095Y-88526952D01*
X149407714Y-88336476D01*
X149455333Y-88241238D01*
X149550571Y-88146000D01*
X149693428Y-88098380D01*
X149788666Y-88098380D01*
X149931523Y-88146000D01*
X149979142Y-88193619D01*
X150312476Y-88098380D02*
X150931523Y-88098380D01*
X150598190Y-88479333D01*
X150741047Y-88479333D01*
X150836285Y-88526952D01*
X150883904Y-88574571D01*
X150931523Y-88669809D01*
X150931523Y-88907904D01*
X150883904Y-89003142D01*
X150836285Y-89050761D01*
X150741047Y-89098380D01*
X150455333Y-89098380D01*
X150360095Y-89050761D01*
X150312476Y-89003142D01*
X151264857Y-88098380D02*
X151883904Y-88098380D01*
X151550571Y-88479333D01*
X151693428Y-88479333D01*
X151788666Y-88526952D01*
X151836285Y-88574571D01*
X151883904Y-88669809D01*
X151883904Y-88907904D01*
X151836285Y-89003142D01*
X151788666Y-89050761D01*
X151693428Y-89098380D01*
X151407714Y-89098380D01*
X151312476Y-89050761D01*
X151264857Y-89003142D01*
%TO.C,U8*%
X156352380Y-97281904D02*
X157161904Y-97281904D01*
X157257142Y-97234285D01*
X157304761Y-97186666D01*
X157352380Y-97091428D01*
X157352380Y-96900952D01*
X157304761Y-96805714D01*
X157257142Y-96758095D01*
X157161904Y-96710476D01*
X156352380Y-96710476D01*
X156780952Y-96091428D02*
X156733333Y-96186666D01*
X156685714Y-96234285D01*
X156590476Y-96281904D01*
X156542857Y-96281904D01*
X156447619Y-96234285D01*
X156400000Y-96186666D01*
X156352380Y-96091428D01*
X156352380Y-95900952D01*
X156400000Y-95805714D01*
X156447619Y-95758095D01*
X156542857Y-95710476D01*
X156590476Y-95710476D01*
X156685714Y-95758095D01*
X156733333Y-95805714D01*
X156780952Y-95900952D01*
X156780952Y-96091428D01*
X156828571Y-96186666D01*
X156876190Y-96234285D01*
X156971428Y-96281904D01*
X157161904Y-96281904D01*
X157257142Y-96234285D01*
X157304761Y-96186666D01*
X157352380Y-96091428D01*
X157352380Y-95900952D01*
X157304761Y-95805714D01*
X157257142Y-95758095D01*
X157161904Y-95710476D01*
X156971428Y-95710476D01*
X156876190Y-95758095D01*
X156828571Y-95805714D01*
X156780952Y-95900952D01*
%TO.C,C32*%
X160885142Y-100144857D02*
X160932761Y-100192476D01*
X160980380Y-100335333D01*
X160980380Y-100430571D01*
X160932761Y-100573428D01*
X160837523Y-100668666D01*
X160742285Y-100716285D01*
X160551809Y-100763904D01*
X160408952Y-100763904D01*
X160218476Y-100716285D01*
X160123238Y-100668666D01*
X160028000Y-100573428D01*
X159980380Y-100430571D01*
X159980380Y-100335333D01*
X160028000Y-100192476D01*
X160075619Y-100144857D01*
X159980380Y-99811523D02*
X159980380Y-99192476D01*
X160361333Y-99525809D01*
X160361333Y-99382952D01*
X160408952Y-99287714D01*
X160456571Y-99240095D01*
X160551809Y-99192476D01*
X160789904Y-99192476D01*
X160885142Y-99240095D01*
X160932761Y-99287714D01*
X160980380Y-99382952D01*
X160980380Y-99668666D01*
X160932761Y-99763904D01*
X160885142Y-99811523D01*
X160075619Y-98811523D02*
X160028000Y-98763904D01*
X159980380Y-98668666D01*
X159980380Y-98430571D01*
X160028000Y-98335333D01*
X160075619Y-98287714D01*
X160170857Y-98240095D01*
X160266095Y-98240095D01*
X160408952Y-98287714D01*
X160980380Y-98859142D01*
X160980380Y-98240095D01*
%TO.C,C31*%
X149979142Y-91035142D02*
X149931523Y-91082761D01*
X149788666Y-91130380D01*
X149693428Y-91130380D01*
X149550571Y-91082761D01*
X149455333Y-90987523D01*
X149407714Y-90892285D01*
X149360095Y-90701809D01*
X149360095Y-90558952D01*
X149407714Y-90368476D01*
X149455333Y-90273238D01*
X149550571Y-90178000D01*
X149693428Y-90130380D01*
X149788666Y-90130380D01*
X149931523Y-90178000D01*
X149979142Y-90225619D01*
X150312476Y-90130380D02*
X150931523Y-90130380D01*
X150598190Y-90511333D01*
X150741047Y-90511333D01*
X150836285Y-90558952D01*
X150883904Y-90606571D01*
X150931523Y-90701809D01*
X150931523Y-90939904D01*
X150883904Y-91035142D01*
X150836285Y-91082761D01*
X150741047Y-91130380D01*
X150455333Y-91130380D01*
X150360095Y-91082761D01*
X150312476Y-91035142D01*
X151883904Y-91130380D02*
X151312476Y-91130380D01*
X151598190Y-91130380D02*
X151598190Y-90130380D01*
X151502952Y-90273238D01*
X151407714Y-90368476D01*
X151312476Y-90416095D01*
%TO.C,C30*%
X157837142Y-145676857D02*
X157884761Y-145724476D01*
X157932380Y-145867333D01*
X157932380Y-145962571D01*
X157884761Y-146105428D01*
X157789523Y-146200666D01*
X157694285Y-146248285D01*
X157503809Y-146295904D01*
X157360952Y-146295904D01*
X157170476Y-146248285D01*
X157075238Y-146200666D01*
X156980000Y-146105428D01*
X156932380Y-145962571D01*
X156932380Y-145867333D01*
X156980000Y-145724476D01*
X157027619Y-145676857D01*
X156932380Y-145343523D02*
X156932380Y-144724476D01*
X157313333Y-145057809D01*
X157313333Y-144914952D01*
X157360952Y-144819714D01*
X157408571Y-144772095D01*
X157503809Y-144724476D01*
X157741904Y-144724476D01*
X157837142Y-144772095D01*
X157884761Y-144819714D01*
X157932380Y-144914952D01*
X157932380Y-145200666D01*
X157884761Y-145295904D01*
X157837142Y-145343523D01*
X156932380Y-144105428D02*
X156932380Y-144010190D01*
X156980000Y-143914952D01*
X157027619Y-143867333D01*
X157122857Y-143819714D01*
X157313333Y-143772095D01*
X157551428Y-143772095D01*
X157741904Y-143819714D01*
X157837142Y-143867333D01*
X157884761Y-143914952D01*
X157932380Y-144010190D01*
X157932380Y-144105428D01*
X157884761Y-144200666D01*
X157837142Y-144248285D01*
X157741904Y-144295904D01*
X157551428Y-144343523D01*
X157313333Y-144343523D01*
X157122857Y-144295904D01*
X157027619Y-144248285D01*
X156980000Y-144200666D01*
X156932380Y-144105428D01*
%TO.C,C29*%
X173077142Y-145676857D02*
X173124761Y-145724476D01*
X173172380Y-145867333D01*
X173172380Y-145962571D01*
X173124761Y-146105428D01*
X173029523Y-146200666D01*
X172934285Y-146248285D01*
X172743809Y-146295904D01*
X172600952Y-146295904D01*
X172410476Y-146248285D01*
X172315238Y-146200666D01*
X172220000Y-146105428D01*
X172172380Y-145962571D01*
X172172380Y-145867333D01*
X172220000Y-145724476D01*
X172267619Y-145676857D01*
X172267619Y-145295904D02*
X172220000Y-145248285D01*
X172172380Y-145153047D01*
X172172380Y-144914952D01*
X172220000Y-144819714D01*
X172267619Y-144772095D01*
X172362857Y-144724476D01*
X172458095Y-144724476D01*
X172600952Y-144772095D01*
X173172380Y-145343523D01*
X173172380Y-144724476D01*
X173172380Y-144248285D02*
X173172380Y-144057809D01*
X173124761Y-143962571D01*
X173077142Y-143914952D01*
X172934285Y-143819714D01*
X172743809Y-143772095D01*
X172362857Y-143772095D01*
X172267619Y-143819714D01*
X172220000Y-143867333D01*
X172172380Y-143962571D01*
X172172380Y-144153047D01*
X172220000Y-144248285D01*
X172267619Y-144295904D01*
X172362857Y-144343523D01*
X172600952Y-144343523D01*
X172696190Y-144295904D01*
X172743809Y-144248285D01*
X172791428Y-144153047D01*
X172791428Y-143962571D01*
X172743809Y-143867333D01*
X172696190Y-143819714D01*
X172600952Y-143772095D01*
%TO.C,C28*%
X138041142Y-147677142D02*
X137993523Y-147724761D01*
X137850666Y-147772380D01*
X137755428Y-147772380D01*
X137612571Y-147724761D01*
X137517333Y-147629523D01*
X137469714Y-147534285D01*
X137422095Y-147343809D01*
X137422095Y-147200952D01*
X137469714Y-147010476D01*
X137517333Y-146915238D01*
X137612571Y-146820000D01*
X137755428Y-146772380D01*
X137850666Y-146772380D01*
X137993523Y-146820000D01*
X138041142Y-146867619D01*
X138422095Y-146867619D02*
X138469714Y-146820000D01*
X138564952Y-146772380D01*
X138803047Y-146772380D01*
X138898285Y-146820000D01*
X138945904Y-146867619D01*
X138993523Y-146962857D01*
X138993523Y-147058095D01*
X138945904Y-147200952D01*
X138374476Y-147772380D01*
X138993523Y-147772380D01*
X139564952Y-147200952D02*
X139469714Y-147153333D01*
X139422095Y-147105714D01*
X139374476Y-147010476D01*
X139374476Y-146962857D01*
X139422095Y-146867619D01*
X139469714Y-146820000D01*
X139564952Y-146772380D01*
X139755428Y-146772380D01*
X139850666Y-146820000D01*
X139898285Y-146867619D01*
X139945904Y-146962857D01*
X139945904Y-147010476D01*
X139898285Y-147105714D01*
X139850666Y-147153333D01*
X139755428Y-147200952D01*
X139564952Y-147200952D01*
X139469714Y-147248571D01*
X139422095Y-147296190D01*
X139374476Y-147391428D01*
X139374476Y-147581904D01*
X139422095Y-147677142D01*
X139469714Y-147724761D01*
X139564952Y-147772380D01*
X139755428Y-147772380D01*
X139850666Y-147724761D01*
X139898285Y-147677142D01*
X139945904Y-147581904D01*
X139945904Y-147391428D01*
X139898285Y-147296190D01*
X139850666Y-147248571D01*
X139755428Y-147200952D01*
%TO.C,U7*%
X160623714Y-95448380D02*
X160623714Y-94448380D01*
X160957047Y-95162666D01*
X161290380Y-94448380D01*
X161290380Y-95448380D01*
X161766571Y-95448380D02*
X161766571Y-94448380D01*
X162147523Y-94448380D01*
X162242761Y-94496000D01*
X162290380Y-94543619D01*
X162338000Y-94638857D01*
X162338000Y-94781714D01*
X162290380Y-94876952D01*
X162242761Y-94924571D01*
X162147523Y-94972190D01*
X161766571Y-94972190D01*
X163290380Y-95448380D02*
X162718952Y-95448380D01*
X163004666Y-95448380D02*
X163004666Y-94448380D01*
X162909428Y-94591238D01*
X162814190Y-94686476D01*
X162718952Y-94734095D01*
X164195142Y-94448380D02*
X163718952Y-94448380D01*
X163671333Y-94924571D01*
X163718952Y-94876952D01*
X163814190Y-94829333D01*
X164052285Y-94829333D01*
X164147523Y-94876952D01*
X164195142Y-94924571D01*
X164242761Y-95019809D01*
X164242761Y-95257904D01*
X164195142Y-95353142D01*
X164147523Y-95400761D01*
X164052285Y-95448380D01*
X163814190Y-95448380D01*
X163718952Y-95400761D01*
X163671333Y-95353142D01*
X164814190Y-94876952D02*
X164718952Y-94829333D01*
X164671333Y-94781714D01*
X164623714Y-94686476D01*
X164623714Y-94638857D01*
X164671333Y-94543619D01*
X164718952Y-94496000D01*
X164814190Y-94448380D01*
X165004666Y-94448380D01*
X165099904Y-94496000D01*
X165147523Y-94543619D01*
X165195142Y-94638857D01*
X165195142Y-94686476D01*
X165147523Y-94781714D01*
X165099904Y-94829333D01*
X165004666Y-94876952D01*
X164814190Y-94876952D01*
X164718952Y-94924571D01*
X164671333Y-94972190D01*
X164623714Y-95067428D01*
X164623714Y-95257904D01*
X164671333Y-95353142D01*
X164718952Y-95400761D01*
X164814190Y-95448380D01*
X165004666Y-95448380D01*
X165099904Y-95400761D01*
X165147523Y-95353142D01*
X165195142Y-95257904D01*
X165195142Y-95067428D01*
X165147523Y-94972190D01*
X165099904Y-94924571D01*
X165004666Y-94876952D01*
X166052285Y-94781714D02*
X166052285Y-95448380D01*
X165814190Y-94400761D02*
X165576095Y-95115047D01*
X166195142Y-95115047D01*
X166576095Y-94924571D02*
X166909428Y-94924571D01*
X167052285Y-95448380D02*
X166576095Y-95448380D01*
X166576095Y-94448380D01*
X167052285Y-94448380D01*
X167480857Y-95448380D02*
X167480857Y-94448380D01*
X168052285Y-95448380D01*
X168052285Y-94448380D01*
X160940952Y-92924380D02*
X161131428Y-92924380D01*
X161226666Y-92972000D01*
X161321904Y-93067238D01*
X161369523Y-93257714D01*
X161369523Y-93591047D01*
X161321904Y-93781523D01*
X161226666Y-93876761D01*
X161131428Y-93924380D01*
X160940952Y-93924380D01*
X160845714Y-93876761D01*
X160750476Y-93781523D01*
X160702857Y-93591047D01*
X160702857Y-93257714D01*
X160750476Y-93067238D01*
X160845714Y-92972000D01*
X160940952Y-92924380D01*
X161798095Y-92924380D02*
X161798095Y-93733904D01*
X161845714Y-93829142D01*
X161893333Y-93876761D01*
X161988571Y-93924380D01*
X162179047Y-93924380D01*
X162274285Y-93876761D01*
X162321904Y-93829142D01*
X162369523Y-93733904D01*
X162369523Y-92924380D01*
X162702857Y-92924380D02*
X163274285Y-92924380D01*
X162988571Y-93924380D02*
X162988571Y-92924380D01*
X163607619Y-93543428D02*
X164369523Y-93543428D01*
X160940952Y-82002380D02*
X161131428Y-82002380D01*
X161226666Y-82050000D01*
X161321904Y-82145238D01*
X161369523Y-82335714D01*
X161369523Y-82669047D01*
X161321904Y-82859523D01*
X161226666Y-82954761D01*
X161131428Y-83002380D01*
X160940952Y-83002380D01*
X160845714Y-82954761D01*
X160750476Y-82859523D01*
X160702857Y-82669047D01*
X160702857Y-82335714D01*
X160750476Y-82145238D01*
X160845714Y-82050000D01*
X160940952Y-82002380D01*
X161798095Y-82002380D02*
X161798095Y-82811904D01*
X161845714Y-82907142D01*
X161893333Y-82954761D01*
X161988571Y-83002380D01*
X162179047Y-83002380D01*
X162274285Y-82954761D01*
X162321904Y-82907142D01*
X162369523Y-82811904D01*
X162369523Y-82002380D01*
X162702857Y-82002380D02*
X163274285Y-82002380D01*
X162988571Y-83002380D02*
X162988571Y-82002380D01*
X163607619Y-82621428D02*
X164369523Y-82621428D01*
X163988571Y-83002380D02*
X163988571Y-82240476D01*
X174117142Y-93670380D02*
X174117142Y-92670380D01*
X174593333Y-93670380D02*
X174593333Y-92670380D01*
X175164761Y-93670380D01*
X175164761Y-92670380D01*
X175640952Y-93289428D02*
X176402857Y-93289428D01*
X174117142Y-83002380D02*
X174117142Y-82002380D01*
X174593333Y-83002380D02*
X174593333Y-82002380D01*
X175164761Y-83002380D01*
X175164761Y-82002380D01*
X175640952Y-82621428D02*
X176402857Y-82621428D01*
X176021904Y-83002380D02*
X176021904Y-82240476D01*
%TO.C,F2*%
X194774666Y-81468571D02*
X194441333Y-81468571D01*
X194441333Y-81992380D02*
X194441333Y-80992380D01*
X194917523Y-80992380D01*
X195250857Y-81087619D02*
X195298476Y-81040000D01*
X195393714Y-80992380D01*
X195631809Y-80992380D01*
X195727047Y-81040000D01*
X195774666Y-81087619D01*
X195822285Y-81182857D01*
X195822285Y-81278095D01*
X195774666Y-81420952D01*
X195203238Y-81992380D01*
X195822285Y-81992380D01*
%TO.C,D5*%
X182903904Y-84272380D02*
X182903904Y-83272380D01*
X183142000Y-83272380D01*
X183284857Y-83320000D01*
X183380095Y-83415238D01*
X183427714Y-83510476D01*
X183475333Y-83700952D01*
X183475333Y-83843809D01*
X183427714Y-84034285D01*
X183380095Y-84129523D01*
X183284857Y-84224761D01*
X183142000Y-84272380D01*
X182903904Y-84272380D01*
X184380095Y-83272380D02*
X183903904Y-83272380D01*
X183856285Y-83748571D01*
X183903904Y-83700952D01*
X183999142Y-83653333D01*
X184237238Y-83653333D01*
X184332476Y-83700952D01*
X184380095Y-83748571D01*
X184427714Y-83843809D01*
X184427714Y-84081904D01*
X184380095Y-84177142D01*
X184332476Y-84224761D01*
X184237238Y-84272380D01*
X183999142Y-84272380D01*
X183903904Y-84224761D01*
X183856285Y-84177142D01*
%TO.C,C27*%
X199867142Y-92592857D02*
X199914761Y-92640476D01*
X199962380Y-92783333D01*
X199962380Y-92878571D01*
X199914761Y-93021428D01*
X199819523Y-93116666D01*
X199724285Y-93164285D01*
X199533809Y-93211904D01*
X199390952Y-93211904D01*
X199200476Y-93164285D01*
X199105238Y-93116666D01*
X199010000Y-93021428D01*
X198962380Y-92878571D01*
X198962380Y-92783333D01*
X199010000Y-92640476D01*
X199057619Y-92592857D01*
X199057619Y-92211904D02*
X199010000Y-92164285D01*
X198962380Y-92069047D01*
X198962380Y-91830952D01*
X199010000Y-91735714D01*
X199057619Y-91688095D01*
X199152857Y-91640476D01*
X199248095Y-91640476D01*
X199390952Y-91688095D01*
X199962380Y-92259523D01*
X199962380Y-91640476D01*
X198962380Y-91307142D02*
X198962380Y-90640476D01*
X199962380Y-91069047D01*
%TO.C,C26*%
X190977142Y-92592857D02*
X191024761Y-92640476D01*
X191072380Y-92783333D01*
X191072380Y-92878571D01*
X191024761Y-93021428D01*
X190929523Y-93116666D01*
X190834285Y-93164285D01*
X190643809Y-93211904D01*
X190500952Y-93211904D01*
X190310476Y-93164285D01*
X190215238Y-93116666D01*
X190120000Y-93021428D01*
X190072380Y-92878571D01*
X190072380Y-92783333D01*
X190120000Y-92640476D01*
X190167619Y-92592857D01*
X190167619Y-92211904D02*
X190120000Y-92164285D01*
X190072380Y-92069047D01*
X190072380Y-91830952D01*
X190120000Y-91735714D01*
X190167619Y-91688095D01*
X190262857Y-91640476D01*
X190358095Y-91640476D01*
X190500952Y-91688095D01*
X191072380Y-92259523D01*
X191072380Y-91640476D01*
X190072380Y-90783333D02*
X190072380Y-90973809D01*
X190120000Y-91069047D01*
X190167619Y-91116666D01*
X190310476Y-91211904D01*
X190500952Y-91259523D01*
X190881904Y-91259523D01*
X190977142Y-91211904D01*
X191024761Y-91164285D01*
X191072380Y-91069047D01*
X191072380Y-90878571D01*
X191024761Y-90783333D01*
X190977142Y-90735714D01*
X190881904Y-90688095D01*
X190643809Y-90688095D01*
X190548571Y-90735714D01*
X190500952Y-90783333D01*
X190453333Y-90878571D01*
X190453333Y-91069047D01*
X190500952Y-91164285D01*
X190548571Y-91211904D01*
X190643809Y-91259523D01*
%TO.C,Y1*%
X160183809Y-111172190D02*
X160183809Y-111648380D01*
X159850476Y-110648380D02*
X160183809Y-111172190D01*
X160517142Y-110648380D01*
X161374285Y-111648380D02*
X160802857Y-111648380D01*
X161088571Y-111648380D02*
X161088571Y-110648380D01*
X160993333Y-110791238D01*
X160898095Y-110886476D01*
X160802857Y-110934095D01*
%TO.C,R29*%
X176600380Y-120784857D02*
X176124190Y-121118190D01*
X176600380Y-121356285D02*
X175600380Y-121356285D01*
X175600380Y-120975333D01*
X175648000Y-120880095D01*
X175695619Y-120832476D01*
X175790857Y-120784857D01*
X175933714Y-120784857D01*
X176028952Y-120832476D01*
X176076571Y-120880095D01*
X176124190Y-120975333D01*
X176124190Y-121356285D01*
X175695619Y-120403904D02*
X175648000Y-120356285D01*
X175600380Y-120261047D01*
X175600380Y-120022952D01*
X175648000Y-119927714D01*
X175695619Y-119880095D01*
X175790857Y-119832476D01*
X175886095Y-119832476D01*
X176028952Y-119880095D01*
X176600380Y-120451523D01*
X176600380Y-119832476D01*
X176600380Y-119356285D02*
X176600380Y-119165809D01*
X176552761Y-119070571D01*
X176505142Y-119022952D01*
X176362285Y-118927714D01*
X176171809Y-118880095D01*
X175790857Y-118880095D01*
X175695619Y-118927714D01*
X175648000Y-118975333D01*
X175600380Y-119070571D01*
X175600380Y-119261047D01*
X175648000Y-119356285D01*
X175695619Y-119403904D01*
X175790857Y-119451523D01*
X176028952Y-119451523D01*
X176124190Y-119403904D01*
X176171809Y-119356285D01*
X176219428Y-119261047D01*
X176219428Y-119070571D01*
X176171809Y-118975333D01*
X176124190Y-118927714D01*
X176028952Y-118880095D01*
%TO.C,F1*%
X194992666Y-99242571D02*
X194659333Y-99242571D01*
X194659333Y-99766380D02*
X194659333Y-98766380D01*
X195135523Y-98766380D01*
X196040285Y-99766380D02*
X195468857Y-99766380D01*
X195754571Y-99766380D02*
X195754571Y-98766380D01*
X195659333Y-98909238D01*
X195564095Y-99004476D01*
X195468857Y-99052095D01*
%TO.C,D1*%
X199413904Y-99772380D02*
X199413904Y-98772380D01*
X199652000Y-98772380D01*
X199794857Y-98820000D01*
X199890095Y-98915238D01*
X199937714Y-99010476D01*
X199985333Y-99200952D01*
X199985333Y-99343809D01*
X199937714Y-99534285D01*
X199890095Y-99629523D01*
X199794857Y-99724761D01*
X199652000Y-99772380D01*
X199413904Y-99772380D01*
X200937714Y-99772380D02*
X200366285Y-99772380D01*
X200652000Y-99772380D02*
X200652000Y-98772380D01*
X200556761Y-98915238D01*
X200461523Y-99010476D01*
X200366285Y-99058095D01*
%TO.C,U3*%
X154178095Y-105370380D02*
X154178095Y-106179904D01*
X154225714Y-106275142D01*
X154273333Y-106322761D01*
X154368571Y-106370380D01*
X154559047Y-106370380D01*
X154654285Y-106322761D01*
X154701904Y-106275142D01*
X154749523Y-106179904D01*
X154749523Y-105370380D01*
X155130476Y-105370380D02*
X155749523Y-105370380D01*
X155416190Y-105751333D01*
X155559047Y-105751333D01*
X155654285Y-105798952D01*
X155701904Y-105846571D01*
X155749523Y-105941809D01*
X155749523Y-106179904D01*
X155701904Y-106275142D01*
X155654285Y-106322761D01*
X155559047Y-106370380D01*
X155273333Y-106370380D01*
X155178095Y-106322761D01*
X155130476Y-106275142D01*
%TO.C,R3*%
X157170380Y-100496666D02*
X156694190Y-100830000D01*
X157170380Y-101068095D02*
X156170380Y-101068095D01*
X156170380Y-100687142D01*
X156218000Y-100591904D01*
X156265619Y-100544285D01*
X156360857Y-100496666D01*
X156503714Y-100496666D01*
X156598952Y-100544285D01*
X156646571Y-100591904D01*
X156694190Y-100687142D01*
X156694190Y-101068095D01*
X156170380Y-100163333D02*
X156170380Y-99544285D01*
X156551333Y-99877619D01*
X156551333Y-99734761D01*
X156598952Y-99639523D01*
X156646571Y-99591904D01*
X156741809Y-99544285D01*
X156979904Y-99544285D01*
X157075142Y-99591904D01*
X157122761Y-99639523D01*
X157170380Y-99734761D01*
X157170380Y-100020476D01*
X157122761Y-100115714D01*
X157075142Y-100163333D01*
%TO.C,R1*%
X159202380Y-105830666D02*
X158726190Y-106164000D01*
X159202380Y-106402095D02*
X158202380Y-106402095D01*
X158202380Y-106021142D01*
X158250000Y-105925904D01*
X158297619Y-105878285D01*
X158392857Y-105830666D01*
X158535714Y-105830666D01*
X158630952Y-105878285D01*
X158678571Y-105925904D01*
X158726190Y-106021142D01*
X158726190Y-106402095D01*
X159202380Y-104878285D02*
X159202380Y-105449714D01*
X159202380Y-105164000D02*
X158202380Y-105164000D01*
X158345238Y-105259238D01*
X158440476Y-105354476D01*
X158488095Y-105449714D01*
%TO.C,C7*%
X168505142Y-100496666D02*
X168552761Y-100544285D01*
X168600380Y-100687142D01*
X168600380Y-100782380D01*
X168552761Y-100925238D01*
X168457523Y-101020476D01*
X168362285Y-101068095D01*
X168171809Y-101115714D01*
X168028952Y-101115714D01*
X167838476Y-101068095D01*
X167743238Y-101020476D01*
X167648000Y-100925238D01*
X167600380Y-100782380D01*
X167600380Y-100687142D01*
X167648000Y-100544285D01*
X167695619Y-100496666D01*
X167600380Y-100163333D02*
X167600380Y-99496666D01*
X168600380Y-99925238D01*
%TO.C,C6*%
X162409142Y-100496666D02*
X162456761Y-100544285D01*
X162504380Y-100687142D01*
X162504380Y-100782380D01*
X162456761Y-100925238D01*
X162361523Y-101020476D01*
X162266285Y-101068095D01*
X162075809Y-101115714D01*
X161932952Y-101115714D01*
X161742476Y-101068095D01*
X161647238Y-101020476D01*
X161552000Y-100925238D01*
X161504380Y-100782380D01*
X161504380Y-100687142D01*
X161552000Y-100544285D01*
X161599619Y-100496666D01*
X161504380Y-99639523D02*
X161504380Y-99830000D01*
X161552000Y-99925238D01*
X161599619Y-99972857D01*
X161742476Y-100068095D01*
X161932952Y-100115714D01*
X162313904Y-100115714D01*
X162409142Y-100068095D01*
X162456761Y-100020476D01*
X162504380Y-99925238D01*
X162504380Y-99734761D01*
X162456761Y-99639523D01*
X162409142Y-99591904D01*
X162313904Y-99544285D01*
X162075809Y-99544285D01*
X161980571Y-99591904D01*
X161932952Y-99639523D01*
X161885333Y-99734761D01*
X161885333Y-99925238D01*
X161932952Y-100020476D01*
X161980571Y-100068095D01*
X162075809Y-100115714D01*
%TO.C,C23*%
X190365142Y-139295142D02*
X190317523Y-139342761D01*
X190174666Y-139390380D01*
X190079428Y-139390380D01*
X189936571Y-139342761D01*
X189841333Y-139247523D01*
X189793714Y-139152285D01*
X189746095Y-138961809D01*
X189746095Y-138818952D01*
X189793714Y-138628476D01*
X189841333Y-138533238D01*
X189936571Y-138438000D01*
X190079428Y-138390380D01*
X190174666Y-138390380D01*
X190317523Y-138438000D01*
X190365142Y-138485619D01*
X190746095Y-138485619D02*
X190793714Y-138438000D01*
X190888952Y-138390380D01*
X191127047Y-138390380D01*
X191222285Y-138438000D01*
X191269904Y-138485619D01*
X191317523Y-138580857D01*
X191317523Y-138676095D01*
X191269904Y-138818952D01*
X190698476Y-139390380D01*
X191317523Y-139390380D01*
X191650857Y-138390380D02*
X192269904Y-138390380D01*
X191936571Y-138771333D01*
X192079428Y-138771333D01*
X192174666Y-138818952D01*
X192222285Y-138866571D01*
X192269904Y-138961809D01*
X192269904Y-139199904D01*
X192222285Y-139295142D01*
X192174666Y-139342761D01*
X192079428Y-139390380D01*
X191793714Y-139390380D01*
X191698476Y-139342761D01*
X191650857Y-139295142D01*
%TO.C,C24*%
X189235142Y-142374857D02*
X189282761Y-142422476D01*
X189330380Y-142565333D01*
X189330380Y-142660571D01*
X189282761Y-142803428D01*
X189187523Y-142898666D01*
X189092285Y-142946285D01*
X188901809Y-142993904D01*
X188758952Y-142993904D01*
X188568476Y-142946285D01*
X188473238Y-142898666D01*
X188378000Y-142803428D01*
X188330380Y-142660571D01*
X188330380Y-142565333D01*
X188378000Y-142422476D01*
X188425619Y-142374857D01*
X188425619Y-141993904D02*
X188378000Y-141946285D01*
X188330380Y-141851047D01*
X188330380Y-141612952D01*
X188378000Y-141517714D01*
X188425619Y-141470095D01*
X188520857Y-141422476D01*
X188616095Y-141422476D01*
X188758952Y-141470095D01*
X189330380Y-142041523D01*
X189330380Y-141422476D01*
X188663714Y-140565333D02*
X189330380Y-140565333D01*
X188282761Y-140803428D02*
X188997047Y-141041523D01*
X188997047Y-140422476D01*
%TO.C,U1*%
X170402380Y-122681904D02*
X171211904Y-122681904D01*
X171307142Y-122634285D01*
X171354761Y-122586666D01*
X171402380Y-122491428D01*
X171402380Y-122300952D01*
X171354761Y-122205714D01*
X171307142Y-122158095D01*
X171211904Y-122110476D01*
X170402380Y-122110476D01*
X171402380Y-121110476D02*
X171402380Y-121681904D01*
X171402380Y-121396190D02*
X170402380Y-121396190D01*
X170545238Y-121491428D01*
X170640476Y-121586666D01*
X170688095Y-121681904D01*
%TO.C,U6*%
X181864095Y-135850380D02*
X181864095Y-136659904D01*
X181911714Y-136755142D01*
X181959333Y-136802761D01*
X182054571Y-136850380D01*
X182245047Y-136850380D01*
X182340285Y-136802761D01*
X182387904Y-136755142D01*
X182435523Y-136659904D01*
X182435523Y-135850380D01*
X183340285Y-135850380D02*
X183149809Y-135850380D01*
X183054571Y-135898000D01*
X183006952Y-135945619D01*
X182911714Y-136088476D01*
X182864095Y-136278952D01*
X182864095Y-136659904D01*
X182911714Y-136755142D01*
X182959333Y-136802761D01*
X183054571Y-136850380D01*
X183245047Y-136850380D01*
X183340285Y-136802761D01*
X183387904Y-136755142D01*
X183435523Y-136659904D01*
X183435523Y-136421809D01*
X183387904Y-136326571D01*
X183340285Y-136278952D01*
X183245047Y-136231333D01*
X183054571Y-136231333D01*
X182959333Y-136278952D01*
X182911714Y-136326571D01*
X182864095Y-136421809D01*
%TO.C,U5*%
X150114095Y-135856380D02*
X150114095Y-136665904D01*
X150161714Y-136761142D01*
X150209333Y-136808761D01*
X150304571Y-136856380D01*
X150495047Y-136856380D01*
X150590285Y-136808761D01*
X150637904Y-136761142D01*
X150685523Y-136665904D01*
X150685523Y-135856380D01*
X151637904Y-135856380D02*
X151161714Y-135856380D01*
X151114095Y-136332571D01*
X151161714Y-136284952D01*
X151256952Y-136237333D01*
X151495047Y-136237333D01*
X151590285Y-136284952D01*
X151637904Y-136332571D01*
X151685523Y-136427809D01*
X151685523Y-136665904D01*
X151637904Y-136761142D01*
X151590285Y-136808761D01*
X151495047Y-136856380D01*
X151256952Y-136856380D01*
X151161714Y-136808761D01*
X151114095Y-136761142D01*
%TO.C,U4*%
X166624095Y-135856380D02*
X166624095Y-136665904D01*
X166671714Y-136761142D01*
X166719333Y-136808761D01*
X166814571Y-136856380D01*
X167005047Y-136856380D01*
X167100285Y-136808761D01*
X167147904Y-136761142D01*
X167195523Y-136665904D01*
X167195523Y-135856380D01*
X168100285Y-136189714D02*
X168100285Y-136856380D01*
X167862190Y-135808761D02*
X167624095Y-136523047D01*
X168243142Y-136523047D01*
%TO.C,R27*%
X174617142Y-155138380D02*
X174283809Y-154662190D01*
X174045714Y-155138380D02*
X174045714Y-154138380D01*
X174426666Y-154138380D01*
X174521904Y-154186000D01*
X174569523Y-154233619D01*
X174617142Y-154328857D01*
X174617142Y-154471714D01*
X174569523Y-154566952D01*
X174521904Y-154614571D01*
X174426666Y-154662190D01*
X174045714Y-154662190D01*
X174998095Y-154233619D02*
X175045714Y-154186000D01*
X175140952Y-154138380D01*
X175379047Y-154138380D01*
X175474285Y-154186000D01*
X175521904Y-154233619D01*
X175569523Y-154328857D01*
X175569523Y-154424095D01*
X175521904Y-154566952D01*
X174950476Y-155138380D01*
X175569523Y-155138380D01*
X175902857Y-154138380D02*
X176569523Y-154138380D01*
X176140952Y-155138380D01*
%TO.C,R26*%
X122904642Y-96592380D02*
X122571309Y-96116190D01*
X122333214Y-96592380D02*
X122333214Y-95592380D01*
X122714166Y-95592380D01*
X122809404Y-95640000D01*
X122857023Y-95687619D01*
X122904642Y-95782857D01*
X122904642Y-95925714D01*
X122857023Y-96020952D01*
X122809404Y-96068571D01*
X122714166Y-96116190D01*
X122333214Y-96116190D01*
X123285595Y-95687619D02*
X123333214Y-95640000D01*
X123428452Y-95592380D01*
X123666547Y-95592380D01*
X123761785Y-95640000D01*
X123809404Y-95687619D01*
X123857023Y-95782857D01*
X123857023Y-95878095D01*
X123809404Y-96020952D01*
X123237976Y-96592380D01*
X123857023Y-96592380D01*
X124714166Y-95592380D02*
X124523690Y-95592380D01*
X124428452Y-95640000D01*
X124380833Y-95687619D01*
X124285595Y-95830476D01*
X124237976Y-96020952D01*
X124237976Y-96401904D01*
X124285595Y-96497142D01*
X124333214Y-96544761D01*
X124428452Y-96592380D01*
X124618928Y-96592380D01*
X124714166Y-96544761D01*
X124761785Y-96497142D01*
X124809404Y-96401904D01*
X124809404Y-96163809D01*
X124761785Y-96068571D01*
X124714166Y-96020952D01*
X124618928Y-95973333D01*
X124428452Y-95973333D01*
X124333214Y-96020952D01*
X124285595Y-96068571D01*
X124237976Y-96163809D01*
%TO.C,R25*%
X173680380Y-152026857D02*
X173204190Y-152360190D01*
X173680380Y-152598285D02*
X172680380Y-152598285D01*
X172680380Y-152217333D01*
X172728000Y-152122095D01*
X172775619Y-152074476D01*
X172870857Y-152026857D01*
X173013714Y-152026857D01*
X173108952Y-152074476D01*
X173156571Y-152122095D01*
X173204190Y-152217333D01*
X173204190Y-152598285D01*
X172775619Y-151645904D02*
X172728000Y-151598285D01*
X172680380Y-151503047D01*
X172680380Y-151264952D01*
X172728000Y-151169714D01*
X172775619Y-151122095D01*
X172870857Y-151074476D01*
X172966095Y-151074476D01*
X173108952Y-151122095D01*
X173680380Y-151693523D01*
X173680380Y-151074476D01*
X172680380Y-150169714D02*
X172680380Y-150645904D01*
X173156571Y-150693523D01*
X173108952Y-150645904D01*
X173061333Y-150550666D01*
X173061333Y-150312571D01*
X173108952Y-150217333D01*
X173156571Y-150169714D01*
X173251809Y-150122095D01*
X173489904Y-150122095D01*
X173585142Y-150169714D01*
X173632761Y-150217333D01*
X173680380Y-150312571D01*
X173680380Y-150550666D01*
X173632761Y-150645904D01*
X173585142Y-150693523D01*
%TO.C,R24*%
X174617142Y-153614380D02*
X174283809Y-153138190D01*
X174045714Y-153614380D02*
X174045714Y-152614380D01*
X174426666Y-152614380D01*
X174521904Y-152662000D01*
X174569523Y-152709619D01*
X174617142Y-152804857D01*
X174617142Y-152947714D01*
X174569523Y-153042952D01*
X174521904Y-153090571D01*
X174426666Y-153138190D01*
X174045714Y-153138190D01*
X174998095Y-152709619D02*
X175045714Y-152662000D01*
X175140952Y-152614380D01*
X175379047Y-152614380D01*
X175474285Y-152662000D01*
X175521904Y-152709619D01*
X175569523Y-152804857D01*
X175569523Y-152900095D01*
X175521904Y-153042952D01*
X174950476Y-153614380D01*
X175569523Y-153614380D01*
X176426666Y-152947714D02*
X176426666Y-153614380D01*
X176188571Y-152566761D02*
X175950476Y-153281047D01*
X176569523Y-153281047D01*
%TO.C,R23*%
X187776380Y-135770857D02*
X187300190Y-136104190D01*
X187776380Y-136342285D02*
X186776380Y-136342285D01*
X186776380Y-135961333D01*
X186824000Y-135866095D01*
X186871619Y-135818476D01*
X186966857Y-135770857D01*
X187109714Y-135770857D01*
X187204952Y-135818476D01*
X187252571Y-135866095D01*
X187300190Y-135961333D01*
X187300190Y-136342285D01*
X186871619Y-135389904D02*
X186824000Y-135342285D01*
X186776380Y-135247047D01*
X186776380Y-135008952D01*
X186824000Y-134913714D01*
X186871619Y-134866095D01*
X186966857Y-134818476D01*
X187062095Y-134818476D01*
X187204952Y-134866095D01*
X187776380Y-135437523D01*
X187776380Y-134818476D01*
X186776380Y-134485142D02*
X186776380Y-133866095D01*
X187157333Y-134199428D01*
X187157333Y-134056571D01*
X187204952Y-133961333D01*
X187252571Y-133913714D01*
X187347809Y-133866095D01*
X187585904Y-133866095D01*
X187681142Y-133913714D01*
X187728761Y-133961333D01*
X187776380Y-134056571D01*
X187776380Y-134342285D01*
X187728761Y-134437523D01*
X187681142Y-134485142D01*
%TO.C,R22*%
X157345142Y-127452380D02*
X157011809Y-126976190D01*
X156773714Y-127452380D02*
X156773714Y-126452380D01*
X157154666Y-126452380D01*
X157249904Y-126500000D01*
X157297523Y-126547619D01*
X157345142Y-126642857D01*
X157345142Y-126785714D01*
X157297523Y-126880952D01*
X157249904Y-126928571D01*
X157154666Y-126976190D01*
X156773714Y-126976190D01*
X157726095Y-126547619D02*
X157773714Y-126500000D01*
X157868952Y-126452380D01*
X158107047Y-126452380D01*
X158202285Y-126500000D01*
X158249904Y-126547619D01*
X158297523Y-126642857D01*
X158297523Y-126738095D01*
X158249904Y-126880952D01*
X157678476Y-127452380D01*
X158297523Y-127452380D01*
X158678476Y-126547619D02*
X158726095Y-126500000D01*
X158821333Y-126452380D01*
X159059428Y-126452380D01*
X159154666Y-126500000D01*
X159202285Y-126547619D01*
X159249904Y-126642857D01*
X159249904Y-126738095D01*
X159202285Y-126880952D01*
X158630857Y-127452380D01*
X159249904Y-127452380D01*
%TO.C,R21*%
X177665142Y-144216380D02*
X177331809Y-143740190D01*
X177093714Y-144216380D02*
X177093714Y-143216380D01*
X177474666Y-143216380D01*
X177569904Y-143264000D01*
X177617523Y-143311619D01*
X177665142Y-143406857D01*
X177665142Y-143549714D01*
X177617523Y-143644952D01*
X177569904Y-143692571D01*
X177474666Y-143740190D01*
X177093714Y-143740190D01*
X178046095Y-143311619D02*
X178093714Y-143264000D01*
X178188952Y-143216380D01*
X178427047Y-143216380D01*
X178522285Y-143264000D01*
X178569904Y-143311619D01*
X178617523Y-143406857D01*
X178617523Y-143502095D01*
X178569904Y-143644952D01*
X177998476Y-144216380D01*
X178617523Y-144216380D01*
X179569904Y-144216380D02*
X178998476Y-144216380D01*
X179284190Y-144216380D02*
X179284190Y-143216380D01*
X179188952Y-143359238D01*
X179093714Y-143454476D01*
X178998476Y-143502095D01*
%TO.C,R20*%
X182237142Y-153614380D02*
X181903809Y-153138190D01*
X181665714Y-153614380D02*
X181665714Y-152614380D01*
X182046666Y-152614380D01*
X182141904Y-152662000D01*
X182189523Y-152709619D01*
X182237142Y-152804857D01*
X182237142Y-152947714D01*
X182189523Y-153042952D01*
X182141904Y-153090571D01*
X182046666Y-153138190D01*
X181665714Y-153138190D01*
X182618095Y-152709619D02*
X182665714Y-152662000D01*
X182760952Y-152614380D01*
X182999047Y-152614380D01*
X183094285Y-152662000D01*
X183141904Y-152709619D01*
X183189523Y-152804857D01*
X183189523Y-152900095D01*
X183141904Y-153042952D01*
X182570476Y-153614380D01*
X183189523Y-153614380D01*
X183808571Y-152614380D02*
X183903809Y-152614380D01*
X183999047Y-152662000D01*
X184046666Y-152709619D01*
X184094285Y-152804857D01*
X184141904Y-152995333D01*
X184141904Y-153233428D01*
X184094285Y-153423904D01*
X184046666Y-153519142D01*
X183999047Y-153566761D01*
X183903809Y-153614380D01*
X183808571Y-153614380D01*
X183713333Y-153566761D01*
X183665714Y-153519142D01*
X183618095Y-153423904D01*
X183570476Y-153233428D01*
X183570476Y-152995333D01*
X183618095Y-152804857D01*
X183665714Y-152709619D01*
X183713333Y-152662000D01*
X183808571Y-152614380D01*
%TO.C,R19*%
X156662380Y-154566857D02*
X156186190Y-154900190D01*
X156662380Y-155138285D02*
X155662380Y-155138285D01*
X155662380Y-154757333D01*
X155710000Y-154662095D01*
X155757619Y-154614476D01*
X155852857Y-154566857D01*
X155995714Y-154566857D01*
X156090952Y-154614476D01*
X156138571Y-154662095D01*
X156186190Y-154757333D01*
X156186190Y-155138285D01*
X156662380Y-153614476D02*
X156662380Y-154185904D01*
X156662380Y-153900190D02*
X155662380Y-153900190D01*
X155805238Y-153995428D01*
X155900476Y-154090666D01*
X155948095Y-154185904D01*
X156662380Y-153138285D02*
X156662380Y-152947809D01*
X156614761Y-152852571D01*
X156567142Y-152804952D01*
X156424285Y-152709714D01*
X156233809Y-152662095D01*
X155852857Y-152662095D01*
X155757619Y-152709714D01*
X155710000Y-152757333D01*
X155662380Y-152852571D01*
X155662380Y-153043047D01*
X155710000Y-153138285D01*
X155757619Y-153185904D01*
X155852857Y-153233523D01*
X156090952Y-153233523D01*
X156186190Y-153185904D01*
X156233809Y-153138285D01*
X156281428Y-153043047D01*
X156281428Y-152852571D01*
X156233809Y-152757333D01*
X156186190Y-152709714D01*
X156090952Y-152662095D01*
%TO.C,R18*%
X122904642Y-102942380D02*
X122571309Y-102466190D01*
X122333214Y-102942380D02*
X122333214Y-101942380D01*
X122714166Y-101942380D01*
X122809404Y-101990000D01*
X122857023Y-102037619D01*
X122904642Y-102132857D01*
X122904642Y-102275714D01*
X122857023Y-102370952D01*
X122809404Y-102418571D01*
X122714166Y-102466190D01*
X122333214Y-102466190D01*
X123857023Y-102942380D02*
X123285595Y-102942380D01*
X123571309Y-102942380D02*
X123571309Y-101942380D01*
X123476071Y-102085238D01*
X123380833Y-102180476D01*
X123285595Y-102228095D01*
X124428452Y-102370952D02*
X124333214Y-102323333D01*
X124285595Y-102275714D01*
X124237976Y-102180476D01*
X124237976Y-102132857D01*
X124285595Y-102037619D01*
X124333214Y-101990000D01*
X124428452Y-101942380D01*
X124618928Y-101942380D01*
X124714166Y-101990000D01*
X124761785Y-102037619D01*
X124809404Y-102132857D01*
X124809404Y-102180476D01*
X124761785Y-102275714D01*
X124714166Y-102323333D01*
X124618928Y-102370952D01*
X124428452Y-102370952D01*
X124333214Y-102418571D01*
X124285595Y-102466190D01*
X124237976Y-102561428D01*
X124237976Y-102751904D01*
X124285595Y-102847142D01*
X124333214Y-102894761D01*
X124428452Y-102942380D01*
X124618928Y-102942380D01*
X124714166Y-102894761D01*
X124761785Y-102847142D01*
X124809404Y-102751904D01*
X124809404Y-102561428D01*
X124761785Y-102466190D01*
X124714166Y-102418571D01*
X124618928Y-102370952D01*
%TO.C,R17*%
X143708380Y-151264857D02*
X143232190Y-151598190D01*
X143708380Y-151836285D02*
X142708380Y-151836285D01*
X142708380Y-151455333D01*
X142756000Y-151360095D01*
X142803619Y-151312476D01*
X142898857Y-151264857D01*
X143041714Y-151264857D01*
X143136952Y-151312476D01*
X143184571Y-151360095D01*
X143232190Y-151455333D01*
X143232190Y-151836285D01*
X143708380Y-150312476D02*
X143708380Y-150883904D01*
X143708380Y-150598190D02*
X142708380Y-150598190D01*
X142851238Y-150693428D01*
X142946476Y-150788666D01*
X142994095Y-150883904D01*
X142708380Y-149979142D02*
X142708380Y-149312476D01*
X143708380Y-149741047D01*
%TO.C,R16*%
X146677142Y-153360380D02*
X146343809Y-152884190D01*
X146105714Y-153360380D02*
X146105714Y-152360380D01*
X146486666Y-152360380D01*
X146581904Y-152408000D01*
X146629523Y-152455619D01*
X146677142Y-152550857D01*
X146677142Y-152693714D01*
X146629523Y-152788952D01*
X146581904Y-152836571D01*
X146486666Y-152884190D01*
X146105714Y-152884190D01*
X147629523Y-153360380D02*
X147058095Y-153360380D01*
X147343809Y-153360380D02*
X147343809Y-152360380D01*
X147248571Y-152503238D01*
X147153333Y-152598476D01*
X147058095Y-152646095D01*
X148486666Y-152360380D02*
X148296190Y-152360380D01*
X148200952Y-152408000D01*
X148153333Y-152455619D01*
X148058095Y-152598476D01*
X148010476Y-152788952D01*
X148010476Y-153169904D01*
X148058095Y-153265142D01*
X148105714Y-153312761D01*
X148200952Y-153360380D01*
X148391428Y-153360380D01*
X148486666Y-153312761D01*
X148534285Y-153265142D01*
X148581904Y-153169904D01*
X148581904Y-152931809D01*
X148534285Y-152836571D01*
X148486666Y-152788952D01*
X148391428Y-152741333D01*
X148200952Y-152741333D01*
X148105714Y-152788952D01*
X148058095Y-152836571D01*
X148010476Y-152931809D01*
%TO.C,R15*%
X158820380Y-136786857D02*
X158344190Y-137120190D01*
X158820380Y-137358285D02*
X157820380Y-137358285D01*
X157820380Y-136977333D01*
X157868000Y-136882095D01*
X157915619Y-136834476D01*
X158010857Y-136786857D01*
X158153714Y-136786857D01*
X158248952Y-136834476D01*
X158296571Y-136882095D01*
X158344190Y-136977333D01*
X158344190Y-137358285D01*
X158820380Y-135834476D02*
X158820380Y-136405904D01*
X158820380Y-136120190D02*
X157820380Y-136120190D01*
X157963238Y-136215428D01*
X158058476Y-136310666D01*
X158106095Y-136405904D01*
X157820380Y-134929714D02*
X157820380Y-135405904D01*
X158296571Y-135453523D01*
X158248952Y-135405904D01*
X158201333Y-135310666D01*
X158201333Y-135072571D01*
X158248952Y-134977333D01*
X158296571Y-134929714D01*
X158391809Y-134882095D01*
X158629904Y-134882095D01*
X158725142Y-134929714D01*
X158772761Y-134977333D01*
X158820380Y-135072571D01*
X158820380Y-135310666D01*
X158772761Y-135405904D01*
X158725142Y-135453523D01*
%TO.C,R14*%
X151328380Y-126499857D02*
X150852190Y-126833190D01*
X151328380Y-127071285D02*
X150328380Y-127071285D01*
X150328380Y-126690333D01*
X150376000Y-126595095D01*
X150423619Y-126547476D01*
X150518857Y-126499857D01*
X150661714Y-126499857D01*
X150756952Y-126547476D01*
X150804571Y-126595095D01*
X150852190Y-126690333D01*
X150852190Y-127071285D01*
X151328380Y-125547476D02*
X151328380Y-126118904D01*
X151328380Y-125833190D02*
X150328380Y-125833190D01*
X150471238Y-125928428D01*
X150566476Y-126023666D01*
X150614095Y-126118904D01*
X150661714Y-124690333D02*
X151328380Y-124690333D01*
X150280761Y-124928428D02*
X150995047Y-125166523D01*
X150995047Y-124547476D01*
%TO.C,R13*%
X147185142Y-144216380D02*
X146851809Y-143740190D01*
X146613714Y-144216380D02*
X146613714Y-143216380D01*
X146994666Y-143216380D01*
X147089904Y-143264000D01*
X147137523Y-143311619D01*
X147185142Y-143406857D01*
X147185142Y-143549714D01*
X147137523Y-143644952D01*
X147089904Y-143692571D01*
X146994666Y-143740190D01*
X146613714Y-143740190D01*
X148137523Y-144216380D02*
X147566095Y-144216380D01*
X147851809Y-144216380D02*
X147851809Y-143216380D01*
X147756571Y-143359238D01*
X147661333Y-143454476D01*
X147566095Y-143502095D01*
X148470857Y-143216380D02*
X149089904Y-143216380D01*
X148756571Y-143597333D01*
X148899428Y-143597333D01*
X148994666Y-143644952D01*
X149042285Y-143692571D01*
X149089904Y-143787809D01*
X149089904Y-144025904D01*
X149042285Y-144121142D01*
X148994666Y-144168761D01*
X148899428Y-144216380D01*
X148613714Y-144216380D01*
X148518476Y-144168761D01*
X148470857Y-144121142D01*
%TO.C,R12*%
X152852380Y-154312857D02*
X152376190Y-154646190D01*
X152852380Y-154884285D02*
X151852380Y-154884285D01*
X151852380Y-154503333D01*
X151900000Y-154408095D01*
X151947619Y-154360476D01*
X152042857Y-154312857D01*
X152185714Y-154312857D01*
X152280952Y-154360476D01*
X152328571Y-154408095D01*
X152376190Y-154503333D01*
X152376190Y-154884285D01*
X152852380Y-153360476D02*
X152852380Y-153931904D01*
X152852380Y-153646190D02*
X151852380Y-153646190D01*
X151995238Y-153741428D01*
X152090476Y-153836666D01*
X152138095Y-153931904D01*
X151947619Y-152979523D02*
X151900000Y-152931904D01*
X151852380Y-152836666D01*
X151852380Y-152598571D01*
X151900000Y-152503333D01*
X151947619Y-152455714D01*
X152042857Y-152408095D01*
X152138095Y-152408095D01*
X152280952Y-152455714D01*
X152852380Y-153027142D01*
X152852380Y-152408095D01*
%TO.C,R11*%
X171902380Y-154717357D02*
X171426190Y-155050690D01*
X171902380Y-155288785D02*
X170902380Y-155288785D01*
X170902380Y-154907833D01*
X170950000Y-154812595D01*
X170997619Y-154764976D01*
X171092857Y-154717357D01*
X171235714Y-154717357D01*
X171330952Y-154764976D01*
X171378571Y-154812595D01*
X171426190Y-154907833D01*
X171426190Y-155288785D01*
X171902380Y-153764976D02*
X171902380Y-154336404D01*
X171902380Y-154050690D02*
X170902380Y-154050690D01*
X171045238Y-154145928D01*
X171140476Y-154241166D01*
X171188095Y-154336404D01*
X171902380Y-152812595D02*
X171902380Y-153384023D01*
X171902380Y-153098309D02*
X170902380Y-153098309D01*
X171045238Y-153193547D01*
X171140476Y-153288785D01*
X171188095Y-153384023D01*
%TO.C,R10*%
X122904642Y-109292380D02*
X122571309Y-108816190D01*
X122333214Y-109292380D02*
X122333214Y-108292380D01*
X122714166Y-108292380D01*
X122809404Y-108340000D01*
X122857023Y-108387619D01*
X122904642Y-108482857D01*
X122904642Y-108625714D01*
X122857023Y-108720952D01*
X122809404Y-108768571D01*
X122714166Y-108816190D01*
X122333214Y-108816190D01*
X123857023Y-109292380D02*
X123285595Y-109292380D01*
X123571309Y-109292380D02*
X123571309Y-108292380D01*
X123476071Y-108435238D01*
X123380833Y-108530476D01*
X123285595Y-108578095D01*
X124476071Y-108292380D02*
X124571309Y-108292380D01*
X124666547Y-108340000D01*
X124714166Y-108387619D01*
X124761785Y-108482857D01*
X124809404Y-108673333D01*
X124809404Y-108911428D01*
X124761785Y-109101904D01*
X124714166Y-109197142D01*
X124666547Y-109244761D01*
X124571309Y-109292380D01*
X124476071Y-109292380D01*
X124380833Y-109244761D01*
X124333214Y-109197142D01*
X124285595Y-109101904D01*
X124237976Y-108911428D01*
X124237976Y-108673333D01*
X124285595Y-108482857D01*
X124333214Y-108387619D01*
X124380833Y-108340000D01*
X124476071Y-108292380D01*
%TO.C,R9*%
X160472380Y-153328666D02*
X159996190Y-153662000D01*
X160472380Y-153900095D02*
X159472380Y-153900095D01*
X159472380Y-153519142D01*
X159520000Y-153423904D01*
X159567619Y-153376285D01*
X159662857Y-153328666D01*
X159805714Y-153328666D01*
X159900952Y-153376285D01*
X159948571Y-153423904D01*
X159996190Y-153519142D01*
X159996190Y-153900095D01*
X160472380Y-152852476D02*
X160472380Y-152662000D01*
X160424761Y-152566761D01*
X160377142Y-152519142D01*
X160234285Y-152423904D01*
X160043809Y-152376285D01*
X159662857Y-152376285D01*
X159567619Y-152423904D01*
X159520000Y-152471523D01*
X159472380Y-152566761D01*
X159472380Y-152757238D01*
X159520000Y-152852476D01*
X159567619Y-152900095D01*
X159662857Y-152947714D01*
X159900952Y-152947714D01*
X159996190Y-152900095D01*
X160043809Y-152852476D01*
X160091428Y-152757238D01*
X160091428Y-152566761D01*
X160043809Y-152471523D01*
X159996190Y-152423904D01*
X159900952Y-152376285D01*
%TO.C,R8*%
X163012380Y-153328666D02*
X162536190Y-153662000D01*
X163012380Y-153900095D02*
X162012380Y-153900095D01*
X162012380Y-153519142D01*
X162060000Y-153423904D01*
X162107619Y-153376285D01*
X162202857Y-153328666D01*
X162345714Y-153328666D01*
X162440952Y-153376285D01*
X162488571Y-153423904D01*
X162536190Y-153519142D01*
X162536190Y-153900095D01*
X162440952Y-152757238D02*
X162393333Y-152852476D01*
X162345714Y-152900095D01*
X162250476Y-152947714D01*
X162202857Y-152947714D01*
X162107619Y-152900095D01*
X162060000Y-152852476D01*
X162012380Y-152757238D01*
X162012380Y-152566761D01*
X162060000Y-152471523D01*
X162107619Y-152423904D01*
X162202857Y-152376285D01*
X162250476Y-152376285D01*
X162345714Y-152423904D01*
X162393333Y-152471523D01*
X162440952Y-152566761D01*
X162440952Y-152757238D01*
X162488571Y-152852476D01*
X162536190Y-152900095D01*
X162631428Y-152947714D01*
X162821904Y-152947714D01*
X162917142Y-152900095D01*
X162964761Y-152852476D01*
X163012380Y-152757238D01*
X163012380Y-152566761D01*
X162964761Y-152471523D01*
X162917142Y-152423904D01*
X162821904Y-152376285D01*
X162631428Y-152376285D01*
X162536190Y-152423904D01*
X162488571Y-152471523D01*
X162440952Y-152566761D01*
%TO.C,R7*%
X174060380Y-136310666D02*
X173584190Y-136644000D01*
X174060380Y-136882095D02*
X173060380Y-136882095D01*
X173060380Y-136501142D01*
X173108000Y-136405904D01*
X173155619Y-136358285D01*
X173250857Y-136310666D01*
X173393714Y-136310666D01*
X173488952Y-136358285D01*
X173536571Y-136405904D01*
X173584190Y-136501142D01*
X173584190Y-136882095D01*
X173060380Y-135977333D02*
X173060380Y-135310666D01*
X174060380Y-135739238D01*
%TO.C,R6*%
X157313333Y-125547380D02*
X156980000Y-125071190D01*
X156741904Y-125547380D02*
X156741904Y-124547380D01*
X157122857Y-124547380D01*
X157218095Y-124595000D01*
X157265714Y-124642619D01*
X157313333Y-124737857D01*
X157313333Y-124880714D01*
X157265714Y-124975952D01*
X157218095Y-125023571D01*
X157122857Y-125071190D01*
X156741904Y-125071190D01*
X158170476Y-124547380D02*
X157980000Y-124547380D01*
X157884761Y-124595000D01*
X157837142Y-124642619D01*
X157741904Y-124785476D01*
X157694285Y-124975952D01*
X157694285Y-125356904D01*
X157741904Y-125452142D01*
X157789523Y-125499761D01*
X157884761Y-125547380D01*
X158075238Y-125547380D01*
X158170476Y-125499761D01*
X158218095Y-125452142D01*
X158265714Y-125356904D01*
X158265714Y-125118809D01*
X158218095Y-125023571D01*
X158170476Y-124975952D01*
X158075238Y-124928333D01*
X157884761Y-124928333D01*
X157789523Y-124975952D01*
X157741904Y-125023571D01*
X157694285Y-125118809D01*
%TO.C,R5*%
X163409333Y-144216380D02*
X163076000Y-143740190D01*
X162837904Y-144216380D02*
X162837904Y-143216380D01*
X163218857Y-143216380D01*
X163314095Y-143264000D01*
X163361714Y-143311619D01*
X163409333Y-143406857D01*
X163409333Y-143549714D01*
X163361714Y-143644952D01*
X163314095Y-143692571D01*
X163218857Y-143740190D01*
X162837904Y-143740190D01*
X164314095Y-143216380D02*
X163837904Y-143216380D01*
X163790285Y-143692571D01*
X163837904Y-143644952D01*
X163933142Y-143597333D01*
X164171238Y-143597333D01*
X164266476Y-143644952D01*
X164314095Y-143692571D01*
X164361714Y-143787809D01*
X164361714Y-144025904D01*
X164314095Y-144121142D01*
X164266476Y-144168761D01*
X164171238Y-144216380D01*
X163933142Y-144216380D01*
X163837904Y-144168761D01*
X163790285Y-144121142D01*
%TO.C,R4*%
X168092380Y-153328666D02*
X167616190Y-153662000D01*
X168092380Y-153900095D02*
X167092380Y-153900095D01*
X167092380Y-153519142D01*
X167140000Y-153423904D01*
X167187619Y-153376285D01*
X167282857Y-153328666D01*
X167425714Y-153328666D01*
X167520952Y-153376285D01*
X167568571Y-153423904D01*
X167616190Y-153519142D01*
X167616190Y-153900095D01*
X167425714Y-152471523D02*
X168092380Y-152471523D01*
X167044761Y-152709619D02*
X167759047Y-152947714D01*
X167759047Y-152328666D01*
%TO.C,R2*%
X164536380Y-100496666D02*
X164060190Y-100830000D01*
X164536380Y-101068095D02*
X163536380Y-101068095D01*
X163536380Y-100687142D01*
X163584000Y-100591904D01*
X163631619Y-100544285D01*
X163726857Y-100496666D01*
X163869714Y-100496666D01*
X163964952Y-100544285D01*
X164012571Y-100591904D01*
X164060190Y-100687142D01*
X164060190Y-101068095D01*
X163631619Y-100115714D02*
X163584000Y-100068095D01*
X163536380Y-99972857D01*
X163536380Y-99734761D01*
X163584000Y-99639523D01*
X163631619Y-99591904D01*
X163726857Y-99544285D01*
X163822095Y-99544285D01*
X163964952Y-99591904D01*
X164536380Y-100163333D01*
X164536380Y-99544285D01*
%TO.C,Q4*%
X181395619Y-153511238D02*
X181348000Y-153606476D01*
X181252761Y-153701714D01*
X181109904Y-153844571D01*
X181062285Y-153939809D01*
X181062285Y-154035047D01*
X181300380Y-153987428D02*
X181252761Y-154082666D01*
X181157523Y-154177904D01*
X180967047Y-154225523D01*
X180633714Y-154225523D01*
X180443238Y-154177904D01*
X180348000Y-154082666D01*
X180300380Y-153987428D01*
X180300380Y-153796952D01*
X180348000Y-153701714D01*
X180443238Y-153606476D01*
X180633714Y-153558857D01*
X180967047Y-153558857D01*
X181157523Y-153606476D01*
X181252761Y-153701714D01*
X181300380Y-153796952D01*
X181300380Y-153987428D01*
X180633714Y-152701714D02*
X181300380Y-152701714D01*
X180252761Y-152939809D02*
X180967047Y-153177904D01*
X180967047Y-152558857D01*
%TO.C,Q3*%
X149764761Y-153455619D02*
X149669523Y-153408000D01*
X149574285Y-153312761D01*
X149431428Y-153169904D01*
X149336190Y-153122285D01*
X149240952Y-153122285D01*
X149288571Y-153360380D02*
X149193333Y-153312761D01*
X149098095Y-153217523D01*
X149050476Y-153027047D01*
X149050476Y-152693714D01*
X149098095Y-152503238D01*
X149193333Y-152408000D01*
X149288571Y-152360380D01*
X149479047Y-152360380D01*
X149574285Y-152408000D01*
X149669523Y-152503238D01*
X149717142Y-152693714D01*
X149717142Y-153027047D01*
X149669523Y-153217523D01*
X149574285Y-153312761D01*
X149479047Y-153360380D01*
X149288571Y-153360380D01*
X150050476Y-152360380D02*
X150669523Y-152360380D01*
X150336190Y-152741333D01*
X150479047Y-152741333D01*
X150574285Y-152788952D01*
X150621904Y-152836571D01*
X150669523Y-152931809D01*
X150669523Y-153169904D01*
X150621904Y-153265142D01*
X150574285Y-153312761D01*
X150479047Y-153360380D01*
X150193333Y-153360380D01*
X150098095Y-153312761D01*
X150050476Y-153265142D01*
%TO.C,Q2*%
X165647619Y-153257238D02*
X165600000Y-153352476D01*
X165504761Y-153447714D01*
X165361904Y-153590571D01*
X165314285Y-153685809D01*
X165314285Y-153781047D01*
X165552380Y-153733428D02*
X165504761Y-153828666D01*
X165409523Y-153923904D01*
X165219047Y-153971523D01*
X164885714Y-153971523D01*
X164695238Y-153923904D01*
X164600000Y-153828666D01*
X164552380Y-153733428D01*
X164552380Y-153542952D01*
X164600000Y-153447714D01*
X164695238Y-153352476D01*
X164885714Y-153304857D01*
X165219047Y-153304857D01*
X165409523Y-153352476D01*
X165504761Y-153447714D01*
X165552380Y-153542952D01*
X165552380Y-153733428D01*
X164647619Y-152923904D02*
X164600000Y-152876285D01*
X164552380Y-152781047D01*
X164552380Y-152542952D01*
X164600000Y-152447714D01*
X164647619Y-152400095D01*
X164742857Y-152352476D01*
X164838095Y-152352476D01*
X164980952Y-152400095D01*
X165552380Y-152971523D01*
X165552380Y-152352476D01*
%TO.C,D4*%
X187142380Y-151281595D02*
X186142380Y-151281595D01*
X186142380Y-151043500D01*
X186190000Y-150900642D01*
X186285238Y-150805404D01*
X186380476Y-150757785D01*
X186570952Y-150710166D01*
X186713809Y-150710166D01*
X186904285Y-150757785D01*
X186999523Y-150805404D01*
X187094761Y-150900642D01*
X187142380Y-151043500D01*
X187142380Y-151281595D01*
X186475714Y-149853023D02*
X187142380Y-149853023D01*
X186094761Y-150091119D02*
X186809047Y-150329214D01*
X186809047Y-149710166D01*
%TO.C,D3*%
X156662380Y-151281595D02*
X155662380Y-151281595D01*
X155662380Y-151043500D01*
X155710000Y-150900642D01*
X155805238Y-150805404D01*
X155900476Y-150757785D01*
X156090952Y-150710166D01*
X156233809Y-150710166D01*
X156424285Y-150757785D01*
X156519523Y-150805404D01*
X156614761Y-150900642D01*
X156662380Y-151043500D01*
X156662380Y-151281595D01*
X155662380Y-150376833D02*
X155662380Y-149757785D01*
X156043333Y-150091119D01*
X156043333Y-149948261D01*
X156090952Y-149853023D01*
X156138571Y-149805404D01*
X156233809Y-149757785D01*
X156471904Y-149757785D01*
X156567142Y-149805404D01*
X156614761Y-149853023D01*
X156662380Y-149948261D01*
X156662380Y-150233976D01*
X156614761Y-150329214D01*
X156567142Y-150376833D01*
%TO.C,D2*%
X171902380Y-151281595D02*
X170902380Y-151281595D01*
X170902380Y-151043500D01*
X170950000Y-150900642D01*
X171045238Y-150805404D01*
X171140476Y-150757785D01*
X171330952Y-150710166D01*
X171473809Y-150710166D01*
X171664285Y-150757785D01*
X171759523Y-150805404D01*
X171854761Y-150900642D01*
X171902380Y-151043500D01*
X171902380Y-151281595D01*
X170997619Y-150329214D02*
X170950000Y-150281595D01*
X170902380Y-150186357D01*
X170902380Y-149948261D01*
X170950000Y-149853023D01*
X170997619Y-149805404D01*
X171092857Y-149757785D01*
X171188095Y-149757785D01*
X171330952Y-149805404D01*
X171902380Y-150376833D01*
X171902380Y-149757785D01*
%TO.C,C19*%
X158755142Y-142374857D02*
X158802761Y-142422476D01*
X158850380Y-142565333D01*
X158850380Y-142660571D01*
X158802761Y-142803428D01*
X158707523Y-142898666D01*
X158612285Y-142946285D01*
X158421809Y-142993904D01*
X158278952Y-142993904D01*
X158088476Y-142946285D01*
X157993238Y-142898666D01*
X157898000Y-142803428D01*
X157850380Y-142660571D01*
X157850380Y-142565333D01*
X157898000Y-142422476D01*
X157945619Y-142374857D01*
X158850380Y-141422476D02*
X158850380Y-141993904D01*
X158850380Y-141708190D02*
X157850380Y-141708190D01*
X157993238Y-141803428D01*
X158088476Y-141898666D01*
X158136095Y-141993904D01*
X158850380Y-140946285D02*
X158850380Y-140755809D01*
X158802761Y-140660571D01*
X158755142Y-140612952D01*
X158612285Y-140517714D01*
X158421809Y-140470095D01*
X158040857Y-140470095D01*
X157945619Y-140517714D01*
X157898000Y-140565333D01*
X157850380Y-140660571D01*
X157850380Y-140851047D01*
X157898000Y-140946285D01*
X157945619Y-140993904D01*
X158040857Y-141041523D01*
X158278952Y-141041523D01*
X158374190Y-140993904D01*
X158421809Y-140946285D01*
X158469428Y-140851047D01*
X158469428Y-140660571D01*
X158421809Y-140565333D01*
X158374190Y-140517714D01*
X158278952Y-140470095D01*
%TO.C,C18*%
X159885142Y-139295142D02*
X159837523Y-139342761D01*
X159694666Y-139390380D01*
X159599428Y-139390380D01*
X159456571Y-139342761D01*
X159361333Y-139247523D01*
X159313714Y-139152285D01*
X159266095Y-138961809D01*
X159266095Y-138818952D01*
X159313714Y-138628476D01*
X159361333Y-138533238D01*
X159456571Y-138438000D01*
X159599428Y-138390380D01*
X159694666Y-138390380D01*
X159837523Y-138438000D01*
X159885142Y-138485619D01*
X160837523Y-139390380D02*
X160266095Y-139390380D01*
X160551809Y-139390380D02*
X160551809Y-138390380D01*
X160456571Y-138533238D01*
X160361333Y-138628476D01*
X160266095Y-138676095D01*
X161408952Y-138818952D02*
X161313714Y-138771333D01*
X161266095Y-138723714D01*
X161218476Y-138628476D01*
X161218476Y-138580857D01*
X161266095Y-138485619D01*
X161313714Y-138438000D01*
X161408952Y-138390380D01*
X161599428Y-138390380D01*
X161694666Y-138438000D01*
X161742285Y-138485619D01*
X161789904Y-138580857D01*
X161789904Y-138628476D01*
X161742285Y-138723714D01*
X161694666Y-138771333D01*
X161599428Y-138818952D01*
X161408952Y-138818952D01*
X161313714Y-138866571D01*
X161266095Y-138914190D01*
X161218476Y-139009428D01*
X161218476Y-139199904D01*
X161266095Y-139295142D01*
X161313714Y-139342761D01*
X161408952Y-139390380D01*
X161599428Y-139390380D01*
X161694666Y-139342761D01*
X161742285Y-139295142D01*
X161789904Y-139199904D01*
X161789904Y-139009428D01*
X161742285Y-138914190D01*
X161694666Y-138866571D01*
X161599428Y-138818952D01*
%TO.C,C14*%
X173995142Y-142374857D02*
X174042761Y-142422476D01*
X174090380Y-142565333D01*
X174090380Y-142660571D01*
X174042761Y-142803428D01*
X173947523Y-142898666D01*
X173852285Y-142946285D01*
X173661809Y-142993904D01*
X173518952Y-142993904D01*
X173328476Y-142946285D01*
X173233238Y-142898666D01*
X173138000Y-142803428D01*
X173090380Y-142660571D01*
X173090380Y-142565333D01*
X173138000Y-142422476D01*
X173185619Y-142374857D01*
X174090380Y-141422476D02*
X174090380Y-141993904D01*
X174090380Y-141708190D02*
X173090380Y-141708190D01*
X173233238Y-141803428D01*
X173328476Y-141898666D01*
X173376095Y-141993904D01*
X173423714Y-140565333D02*
X174090380Y-140565333D01*
X173042761Y-140803428D02*
X173757047Y-141041523D01*
X173757047Y-140422476D01*
%TO.C,C13*%
X175125142Y-139295142D02*
X175077523Y-139342761D01*
X174934666Y-139390380D01*
X174839428Y-139390380D01*
X174696571Y-139342761D01*
X174601333Y-139247523D01*
X174553714Y-139152285D01*
X174506095Y-138961809D01*
X174506095Y-138818952D01*
X174553714Y-138628476D01*
X174601333Y-138533238D01*
X174696571Y-138438000D01*
X174839428Y-138390380D01*
X174934666Y-138390380D01*
X175077523Y-138438000D01*
X175125142Y-138485619D01*
X176077523Y-139390380D02*
X175506095Y-139390380D01*
X175791809Y-139390380D02*
X175791809Y-138390380D01*
X175696571Y-138533238D01*
X175601333Y-138628476D01*
X175506095Y-138676095D01*
X176410857Y-138390380D02*
X177029904Y-138390380D01*
X176696571Y-138771333D01*
X176839428Y-138771333D01*
X176934666Y-138818952D01*
X176982285Y-138866571D01*
X177029904Y-138961809D01*
X177029904Y-139199904D01*
X176982285Y-139295142D01*
X176934666Y-139342761D01*
X176839428Y-139390380D01*
X176553714Y-139390380D01*
X176458476Y-139342761D01*
X176410857Y-139295142D01*
%TO.C,C10*%
X167899142Y-113418857D02*
X167946761Y-113466476D01*
X167994380Y-113609333D01*
X167994380Y-113704571D01*
X167946761Y-113847428D01*
X167851523Y-113942666D01*
X167756285Y-113990285D01*
X167565809Y-114037904D01*
X167422952Y-114037904D01*
X167232476Y-113990285D01*
X167137238Y-113942666D01*
X167042000Y-113847428D01*
X166994380Y-113704571D01*
X166994380Y-113609333D01*
X167042000Y-113466476D01*
X167089619Y-113418857D01*
X167994380Y-112466476D02*
X167994380Y-113037904D01*
X167994380Y-112752190D02*
X166994380Y-112752190D01*
X167137238Y-112847428D01*
X167232476Y-112942666D01*
X167280095Y-113037904D01*
X166994380Y-111847428D02*
X166994380Y-111752190D01*
X167042000Y-111656952D01*
X167089619Y-111609333D01*
X167184857Y-111561714D01*
X167375333Y-111514095D01*
X167613428Y-111514095D01*
X167803904Y-111561714D01*
X167899142Y-111609333D01*
X167946761Y-111656952D01*
X167994380Y-111752190D01*
X167994380Y-111847428D01*
X167946761Y-111942666D01*
X167899142Y-111990285D01*
X167803904Y-112037904D01*
X167613428Y-112085523D01*
X167375333Y-112085523D01*
X167184857Y-112037904D01*
X167089619Y-111990285D01*
X167042000Y-111942666D01*
X166994380Y-111847428D01*
%TO.C,C9*%
X166473142Y-100496666D02*
X166520761Y-100544285D01*
X166568380Y-100687142D01*
X166568380Y-100782380D01*
X166520761Y-100925238D01*
X166425523Y-101020476D01*
X166330285Y-101068095D01*
X166139809Y-101115714D01*
X165996952Y-101115714D01*
X165806476Y-101068095D01*
X165711238Y-101020476D01*
X165616000Y-100925238D01*
X165568380Y-100782380D01*
X165568380Y-100687142D01*
X165616000Y-100544285D01*
X165663619Y-100496666D01*
X166568380Y-100020476D02*
X166568380Y-99830000D01*
X166520761Y-99734761D01*
X166473142Y-99687142D01*
X166330285Y-99591904D01*
X166139809Y-99544285D01*
X165758857Y-99544285D01*
X165663619Y-99591904D01*
X165616000Y-99639523D01*
X165568380Y-99734761D01*
X165568380Y-99925238D01*
X165616000Y-100020476D01*
X165663619Y-100068095D01*
X165758857Y-100115714D01*
X165996952Y-100115714D01*
X166092190Y-100068095D01*
X166139809Y-100020476D01*
X166187428Y-99925238D01*
X166187428Y-99734761D01*
X166139809Y-99639523D01*
X166092190Y-99591904D01*
X165996952Y-99544285D01*
%TD*%
M02*
