M48
; DRILL file {KiCad 5.1.9-73d0e3b20d~88~ubuntu20.04.1} date Wed Mar 24 22:26:10 2021
; FORMAT={-:-/ absolute / inch / decimal}
; #@! TF.CreationDate,2021-03-24T22:26:10+08:00
; #@! TF.GenerationSoftware,Kicad,Pcbnew,5.1.9-73d0e3b20d~88~ubuntu20.04.1
; #@! TF.FileFunction,Plated,1,2,PTH
FMAT,2
INCH
T1C0.0118
T2C0.0157
T3C0.0315
T4C0.0394
T5C0.0469
T6C0.1299
T7C0.1772
%
G90
G05
T1
X4.665Y-4.205
X4.665Y-4.235
X4.665Y-4.27
X4.665Y-4.3
X4.8281Y-4.35
X5.55Y-5.8
X5.74Y-3.0
X5.74Y-3.09
X5.8Y-4.2
X5.88Y-4.99
X5.8967Y-5.4234
X5.8967Y-5.4667
X5.8967Y-5.51
X5.8967Y-5.5533
X5.8967Y-5.5966
X5.94Y-5.4234
X5.94Y-5.4667
X5.94Y-5.51
X5.94Y-5.5533
X5.94Y-5.5966
X5.9833Y-5.4234
X5.9833Y-5.4667
X5.9833Y-5.51
X5.9833Y-5.5533
X5.9833Y-5.5966
X5.995Y-4.9909
X6.0Y-5.96
X6.0641Y-4.925
X6.08Y-6.09
X6.1Y-4.1206
X6.1Y-4.7755
X6.1Y-5.26
X6.13Y-5.11
X6.17Y-5.32
X6.1785Y-5.08
X6.19Y-5.23
X6.2Y-4.54
X6.2Y-4.6
X6.2Y-5.87
X6.2115Y-5.05
X6.2211Y-4.8345
X6.2211Y-4.87
X6.2211Y-4.91
X6.23Y-5.11
X6.23Y-5.23
X6.25Y-4.0959
X6.25Y-5.47
X6.26Y-4.93
X6.27Y-5.17
X6.28Y-4.64
X6.3033Y-4.275
X6.31Y-5.17
X6.31Y-5.23
X6.315Y-4.325
X6.315Y-4.375
X6.35Y-5.11
X6.35Y-5.23
X6.38Y-4.02
X6.39Y-4.09
X6.4Y-4.69
X6.4Y-4.91
X6.425Y-2.39
X6.44Y-5.34
X6.455Y-2.39
X6.46Y-5.2
X6.46Y-4.02
X6.4674Y-4.57
X6.4674Y-4.8926
X6.47Y-4.09
X6.49Y-2.39
X6.4967Y-5.4234
X6.4967Y-5.4667
X6.4967Y-5.51
X6.4967Y-5.5533
X6.4967Y-5.5966
X6.51Y-5.17
X6.52Y-2.39
X6.53Y-4.09
X6.53Y-4.4026
X6.53Y-4.48
X6.53Y-4.69
X6.54Y-4.74
X6.54Y-4.9
X6.54Y-5.4234
X6.54Y-5.4667
X6.54Y-5.51
X6.54Y-5.5533
X6.54Y-5.5966
X6.55Y-4.03
X6.5833Y-5.4234
X6.5833Y-5.4667
X6.5833Y-5.51
X6.5833Y-5.5533
X6.5833Y-5.5966
X6.6Y-4.9
X6.6Y-5.96
X6.61Y-4.09
X6.61Y-4.68
X6.62Y-4.02
X6.64Y-4.285
X6.65Y-4.97
X6.67Y-4.31
X6.67Y-4.39
X6.68Y-6.1
X6.72Y-4.06
X6.72Y-4.13
X6.75Y-4.63
X6.77Y-4.39
X6.77Y-4.43
X6.77Y-4.4715
X6.77Y-5.32
X6.8Y-5.875
X6.81Y-5.11
X6.85Y-5.47
X6.85Y-6.095
X6.8601Y-5.2299
X6.88Y-4.69
X6.9Y-5.17
X6.9Y-5.23
X6.91Y-4.39
X6.91Y-4.43
X6.91Y-4.47
X6.92Y-4.17
X6.92Y-4.2
X6.92Y-4.23
X6.92Y-4.26
X6.94Y-4.77
X6.94Y-5.23
X6.94Y-6.02
X6.94Y-6.06
X6.97Y-4.77
X6.995Y-6.06
X7.0Y-5.17
X7.0012Y-5.2612
X7.01Y-4.77
X7.03Y-5.23
X7.04Y-4.77
X7.04Y-5.34
X7.06Y-5.87
X7.0967Y-5.4234
X7.0967Y-5.4667
X7.0967Y-5.51
X7.0967Y-5.5533
X7.0967Y-5.5966
X7.14Y-5.4234
X7.14Y-5.4667
X7.14Y-5.51
X7.14Y-5.5533
X7.14Y-5.5966
X7.15Y-5.925
X7.1833Y-5.4234
X7.1833Y-5.4667
X7.1833Y-5.51
X7.1833Y-5.5533
X7.1833Y-5.5966
X7.2Y-4.88
X7.2Y-4.96
X7.24Y-4.88
X7.24Y-4.96
X7.27Y-4.35
X7.28Y-4.88
X7.28Y-4.96
X7.3Y-4.35
X7.31Y-5.2841
X7.33Y-4.35
X7.34Y-4.74
X7.34Y-4.86
X7.35Y-5.91
X7.35Y-5.95
X7.36Y-4.35
X7.37Y-4.74
X7.37Y-4.86
X7.4Y-4.74
X7.4Y-4.86
X7.43Y-4.74
X7.44Y-5.47
X7.46Y-4.74
X7.51Y-4.42
X7.54Y-4.42
X7.62Y-5.44
X7.65Y-5.44
X7.65Y-5.47
X7.65Y-5.5
X7.7Y-5.535
X7.73Y-5.535
X7.76Y-5.535
X7.79Y-5.535
X7.82Y-5.535
X7.9Y-4.17
X7.9Y-4.2
X7.9Y-4.23
X7.9Y-4.26
T2
X4.8128Y-4.592
X5.1Y-5.1
X5.1Y-5.14
X5.14Y-5.1
X5.14Y-5.14
X5.18Y-5.1
X5.18Y-5.14
X5.3Y-3.74
X5.3Y-3.78
X5.3Y-3.82
X5.34Y-3.74
X5.34Y-3.78
X5.34Y-3.82
X5.4Y-4.3
X5.4Y-4.34
X5.42Y-4.46
X5.42Y-4.5
X5.44Y-4.3
X5.44Y-4.34
X5.46Y-4.46
X5.46Y-4.5
X5.4628Y-5.702
X5.56Y-4.32
X5.56Y-4.36
X5.56Y-4.84
X5.56Y-4.88
X5.6Y-4.32
X5.6Y-4.36
X5.6Y-4.84
X5.6Y-4.88
X5.64Y-5.22
X5.64Y-5.26
X5.64Y-5.3
X5.64Y-5.34
X5.76Y-2.84
X5.76Y-2.88
X5.7635Y-2.623
X5.8Y-2.84
X5.8Y-2.88
X5.84Y-2.84
X5.84Y-2.88
X5.85Y-4.025
X5.96Y-2.7
X5.96Y-2.74
X5.96Y-4.28
X5.96Y-4.32
X5.96Y-4.52
X5.96Y-4.56
X6.0Y-2.7
X6.0Y-2.74
X6.0Y-4.28
X6.0Y-4.32
X6.0Y-4.52
X6.0Y-4.56
X6.04Y-2.7
X6.04Y-2.74
X6.05Y-5.69
X6.36Y-2.9
X6.36Y-2.94
X6.4Y-2.9
X6.4Y-2.94
X6.44Y-2.9
X6.44Y-2.94
X6.54Y-3.0
X6.54Y-3.04
X6.56Y-3.6
X6.56Y-3.64
X6.58Y-3.0
X6.58Y-3.04
X6.6Y-3.6
X6.6Y-3.64
X6.62Y-3.0
X6.62Y-3.04
X6.64Y-3.6
X6.64Y-3.64
X6.65Y-5.69
X6.87Y-4.63
X7.0135Y-2.613
X7.02Y-5.04
X7.02Y-5.08
X7.06Y-5.04
X7.06Y-5.08
X7.1Y-5.04
X7.1Y-5.08
X7.12Y-3.46
X7.12Y-3.5
X7.12Y-3.54
X7.12Y-5.22
X7.12Y-5.26
X7.12Y-5.3
X7.14Y-3.0
X7.15Y-4.8
X7.16Y-3.46
X7.16Y-3.5
X7.16Y-3.54
X7.16Y-5.22
X7.16Y-5.26
X7.16Y-5.3
X7.25Y-5.69
X7.275Y-3.685
X7.275Y-3.795
X7.32Y-2.82
X7.32Y-3.18
X7.325Y-3.685
X7.325Y-3.795
X7.36Y-5.0
X7.36Y-5.04
X7.36Y-5.08
X7.4Y-5.0
X7.4Y-5.04
X7.4Y-5.08
X7.55Y-5.5
X7.6Y-4.8
X7.6Y-4.92
X7.62Y-5.78
X7.625Y-3.685
X7.625Y-3.795
X7.675Y-3.685
X7.675Y-3.795
X7.68Y-4.74
X7.72Y-4.7
X7.72Y-4.74
X7.74Y-4.86
X7.74Y-4.9
X7.78Y-4.86
X7.78Y-4.9
X7.79Y-5.655
X7.82Y-4.86
X7.82Y-4.9
X7.86Y-5.12
X7.86Y-5.16
X7.9Y-5.12
X7.9Y-5.16
X7.94Y-5.12
X7.94Y-5.16
X8.12Y-3.72
X8.12Y-3.76
X8.12Y-3.8
X8.16Y-3.72
X8.16Y-3.76
X8.16Y-3.8
X8.1672Y-4.622
T3
X6.2504Y-4.49
X6.4Y-4.49
X7.874Y-3.2
X7.874Y-3.2984
X7.874Y-3.3969
X8.0Y-3.2
X8.0Y-3.2984
X8.0Y-3.3969
T4
X5.5Y-4.6
X5.6Y-4.6
X5.7Y-4.6
X5.8Y-4.6
X6.27Y-3.2
X6.27Y-3.3
X6.27Y-3.62
X6.27Y-3.72
X7.0Y-3.2
X7.0Y-3.3
X7.0Y-3.62
X7.0Y-3.72
T5
X5.0Y-3.75
X5.0Y-3.85
X5.0Y-4.0
X5.0Y-4.1
X5.0Y-4.25
X5.0Y-4.35
X5.21Y-4.1
X5.21Y-4.2
X5.21Y-4.3
X5.21Y-4.4
X5.5Y-3.35
X5.5Y-3.6
X5.5Y-3.85
X5.5Y-4.1
X5.6Y-3.35
X5.6Y-3.6
X5.6Y-3.85
X5.6Y-4.1
X5.7Y-3.35
X5.7Y-3.6
X5.7Y-3.85
X5.7Y-4.1
X5.7Y-5.8
X5.8Y-3.35
X5.8Y-3.6
X5.8Y-3.85
X5.8Y-4.1
X5.8Y-5.8
X5.9Y-5.8
X6.0Y-5.8
X6.1Y-5.8
X6.3Y-5.8
X6.4Y-5.8
X6.5Y-5.8
X6.6Y-5.8
X6.7Y-5.8
X6.9Y-5.8
X7.0Y-5.8
X7.1Y-5.8
X7.2Y-5.8
X7.3Y-5.8
X8.1Y-4.0
X8.1Y-4.1
X8.1Y-4.2
X8.1Y-4.3
T6
X4.8536Y-4.7969
X5.1134Y-4.6469
X5.2036Y-5.4031
X5.4634Y-5.2531
X6.15Y-2.55
X6.15Y-2.85
X6.85Y-2.55
X6.85Y-2.85
X7.5316Y-5.2531
X7.7914Y-5.4031
X7.8816Y-4.6469
X8.1414Y-4.7969
T7
X7.3165Y-3.0
X7.6Y-3.0
T0
M30
